<?xml version="1.0" encoding="utf-8" standalone="no"?>
<!DOCTYPE svg PUBLIC "-//W3C//DTD SVG 1.1//EN"
  "http://www.w3.org/Graphics/SVG/1.1/DTD/svg11.dtd">
<!-- Created with matplotlib (https://matplotlib.org/) -->
<svg height="345.6pt" version="1.1" viewBox="0 0 460.8 345.6" width="460.8pt" xmlns="http://www.w3.org/2000/svg" xmlns:xlink="http://www.w3.org/1999/xlink">
 <defs>
  <style type="text/css">
*{stroke-linecap:butt;stroke-linejoin:round;}
  </style>
 </defs>
 <g id="figure_1">
  <g id="patch_1">
   <path d="M 0 345.6 
L 460.8 345.6 
L 460.8 0 
L 0 0 
z
" style="fill:#ffffff;"/>
  </g>
  <g id="axes_1">
   <g id="patch_2">
    <path d="M 55.436618 317.72 
L 447.48 317.72 
L 447.48 21.884551 
L 55.436618 21.884551 
z
" style="fill:#ffffff;"/>
   </g>
   <g id="patch_3">
    <path clip-path="url(#p3104238c56)" d="M 73.256772 317.72 
L 119.74413 317.72 
L 119.74413 313.722559 
L 73.256772 313.722559 
z
" style="fill:#f3a712;"/>
   </g>
   <g id="patch_4">
    <path clip-path="url(#p3104238c56)" d="M 150.735701 317.72 
L 197.223059 317.72 
L 197.223059 317.72 
L 150.735701 317.72 
z
" style="fill:#f3a712;"/>
   </g>
   <g id="patch_5">
    <path clip-path="url(#p3104238c56)" d="M 228.21463 317.72 
L 274.701988 317.72 
L 274.701988 317.72 
L 228.21463 317.72 
z
" style="fill:#f3a712;"/>
   </g>
   <g id="patch_6">
    <path clip-path="url(#p3104238c56)" d="M 305.69356 317.72 
L 352.180917 317.72 
L 352.180917 317.72 
L 305.69356 317.72 
z
" style="fill:#f3a712;"/>
   </g>
   <g id="patch_7">
    <path clip-path="url(#p3104238c56)" d="M 383.172489 317.72 
L 429.659846 317.72 
L 429.659846 317.72 
L 383.172489 317.72 
z
" style="fill:#f3a712;"/>
   </g>
   <g id="patch_8">
    <path clip-path="url(#p3104238c56)" d="M 73.256772 317.72 
L 119.74413 317.72 
L 119.74413 317.72 
L 73.256772 317.72 
z
" style="fill:#d62259;"/>
   </g>
   <g id="patch_9">
    <path clip-path="url(#p3104238c56)" d="M 150.735701 317.72 
L 197.223059 317.72 
L 197.223059 312.529626 
L 150.735701 312.529626 
z
" style="fill:#d62259;"/>
   </g>
   <g id="patch_10">
    <path clip-path="url(#p3104238c56)" d="M 228.21463 317.72 
L 274.701988 317.72 
L 274.701988 305.022942 
L 228.21463 305.022942 
z
" style="fill:#d62259;"/>
   </g>
   <g id="patch_11">
    <path clip-path="url(#p3104238c56)" d="M 305.69356 317.72 
L 352.180917 317.72 
L 352.180917 314.143826 
L 305.69356 314.143826 
z
" style="fill:#d62259;"/>
   </g>
   <g id="patch_12">
    <path clip-path="url(#p3104238c56)" d="M 383.172489 317.72 
L 429.659846 317.72 
L 429.659846 317.72 
L 383.172489 317.72 
z
" style="fill:#d62259;"/>
   </g>
   <g id="patch_13">
    <path clip-path="url(#p3104238c56)" d="M 73.256772 317.72 
L 119.74413 317.72 
L 119.74413 317.72 
L 73.256772 317.72 
z
" style="fill:#6c0a0c;"/>
   </g>
   <g id="patch_14">
    <path clip-path="url(#p3104238c56)" d="M 150.735701 312.529626 
L 197.223059 312.529626 
L 197.223059 238.184578 
L 150.735701 238.184578 
z
" style="fill:#6c0a0c;"/>
   </g>
   <g id="patch_15">
    <path clip-path="url(#p3104238c56)" d="M 228.21463 305.022942 
L 274.701988 305.022942 
L 274.701988 246.396655 
L 228.21463 246.396655 
z
" style="fill:#6c0a0c;"/>
   </g>
   <g id="patch_16">
    <path clip-path="url(#p3104238c56)" d="M 305.69356 314.143826 
L 352.180917 314.143826 
L 352.180917 283.205 
L 305.69356 283.205 
z
" style="fill:#6c0a0c;"/>
   </g>
   <g id="patch_17">
    <path clip-path="url(#p3104238c56)" d="M 383.172489 317.72 
L 429.659846 317.72 
L 429.659846 317.063821 
L 383.172489 317.063821 
z
" style="fill:#6c0a0c;"/>
   </g>
   <g id="patch_18">
    <path clip-path="url(#p3104238c56)" d="M 73.256772 317.72 
L 119.74413 317.72 
L 119.74413 317.72 
L 73.256772 317.72 
z
" style="fill:#0190ef;"/>
   </g>
   <g id="patch_19">
    <path clip-path="url(#p3104238c56)" d="M 150.735701 238.184578 
L 197.223059 238.184578 
L 197.223059 233.438438 
L 150.735701 233.438438 
z
" style="fill:#0190ef;"/>
   </g>
   <g id="patch_20">
    <path clip-path="url(#p3104238c56)" d="M 228.21463 246.396655 
L 274.701988 246.396655 
L 274.701988 236.597938 
L 228.21463 236.597938 
z
" style="fill:#0190ef;"/>
   </g>
   <g id="patch_21">
    <path clip-path="url(#p3104238c56)" d="M 305.69356 283.205 
L 352.180917 283.205 
L 352.180917 279.79287 
L 305.69356 279.79287 
z
" style="fill:#0190ef;"/>
   </g>
   <g id="patch_22">
    <path clip-path="url(#p3104238c56)" d="M 383.172489 317.063821 
L 429.659846 317.063821 
L 429.659846 314.616275 
L 383.172489 314.616275 
z
" style="fill:#0190ef;"/>
   </g>
   <g id="patch_23">
    <path clip-path="url(#p3104238c56)" d="M 73.256772 317.72 
L 119.74413 317.72 
L 119.74413 317.72 
L 73.256772 317.72 
z
" style="fill:#122547;"/>
   </g>
   <g id="patch_24">
    <path clip-path="url(#p3104238c56)" d="M 150.735701 233.438438 
L 197.223059 233.438438 
L 197.223059 200.998931 
L 150.735701 200.998931 
z
" style="fill:#122547;"/>
   </g>
   <g id="patch_25">
    <path clip-path="url(#p3104238c56)" d="M 228.21463 236.597938 
L 274.701988 236.597938 
L 274.701988 63.695504 
L 228.21463 63.695504 
z
" style="fill:#122547;"/>
   </g>
   <g id="patch_26">
    <path clip-path="url(#p3104238c56)" d="M 305.69356 279.79287 
L 352.180917 279.79287 
L 352.180917 263.618065 
L 305.69356 263.618065 
z
" style="fill:#122547;"/>
   </g>
   <g id="patch_27">
    <path clip-path="url(#p3104238c56)" d="M 383.172489 314.616275 
L 429.659846 314.616275 
L 429.659846 305.593817 
L 383.172489 305.593817 
z
" style="fill:#122547;"/>
   </g>
   <g id="patch_28">
    <path clip-path="url(#p3104238c56)" d="M 73.256772 317.72 
L 119.74413 317.72 
L 119.74413 317.72 
L 73.256772 317.72 
z
" style="fill:#00d9b8;"/>
   </g>
   <g id="patch_29">
    <path clip-path="url(#p3104238c56)" d="M 150.735701 200.998931 
L 197.223059 200.998931 
L 197.223059 200.998931 
L 150.735701 200.998931 
z
" style="fill:#00d9b8;"/>
   </g>
   <g id="patch_30">
    <path clip-path="url(#p3104238c56)" d="M 228.21463 63.695504 
L 274.701988 63.695504 
L 274.701988 60.906744 
L 228.21463 60.906744 
z
" style="fill:#00d9b8;"/>
   </g>
   <g id="patch_31">
    <path clip-path="url(#p3104238c56)" d="M 305.69356 263.618065 
L 352.180917 263.618065 
L 352.180917 262.633797 
L 305.69356 262.633797 
z
" style="fill:#00d9b8;"/>
   </g>
   <g id="patch_32">
    <path clip-path="url(#p3104238c56)" d="M 383.172489 305.593817 
L 429.659846 305.593817 
L 429.659846 305.265728 
L 383.172489 305.265728 
z
" style="fill:#00d9b8;"/>
   </g>
   <g id="patch_33">
    <path clip-path="url(#p3104238c56)" d="M 73.256772 317.72 
L 119.74413 317.72 
L 119.74413 317.72 
L 73.256772 317.72 
z
" style="fill:#00865b;"/>
   </g>
   <g id="patch_34">
    <path clip-path="url(#p3104238c56)" d="M 150.735701 200.998931 
L 197.223059 200.998931 
L 197.223059 189.384568 
L 150.735701 189.384568 
z
" style="fill:#00865b;"/>
   </g>
   <g id="patch_35">
    <path clip-path="url(#p3104238c56)" d="M 228.21463 60.906744 
L 274.701988 60.906744 
L 274.701988 35.971953 
L 228.21463 35.971953 
z
" style="fill:#00865b;"/>
   </g>
   <g id="patch_36">
    <path clip-path="url(#p3104238c56)" d="M 305.69356 262.633797 
L 352.180917 262.633797 
L 352.180917 261.977618 
L 305.69356 261.977618 
z
" style="fill:#00865b;"/>
   </g>
   <g id="patch_37">
    <path clip-path="url(#p3104238c56)" d="M 383.172489 305.265728 
L 429.659846 305.265728 
L 429.659846 303.690899 
L 383.172489 303.690899 
z
" style="fill:#00865b;"/>
   </g>
   <g id="matplotlib.axis_1">
    <g id="xtick_1">
     <g id="text_1">
      <!-- Under \$175 -->
      <defs>
       <path d="M 55.5 22.890625 
L 55.5 69 
L 47.90625 69 
L 47.90625 22.796875 
C 47.90625 9.5 39.796875 3.59375 32.40625 3.59375 
C 24.796875 3.59375 17.203125 9.796875 17.203125 22.6875 
L 17.203125 69 
L 8.796875 69 
L 8.796875 22.890625 
C 8.796875 8.5 19.90625 -2 32.296875 -2 
C 44.703125 -2 55.5 8.5 55.5 22.890625 
z
" id="LMSans17-Regular-85"/>
       <path d="M 40.90625 0 
L 40.90625 29.34375 
C 40.90625 35.671875 39.40625 44 28.09375 44 
C 21.703125 44 17.5 40.6875 14.703125 37.28125 
L 14.703125 43.484375 
L 7.40625 43.484375 
L 7.40625 0 
L 15 0 
L 15 24.3125 
C 15 30.65625 17.40625 37.890625 24.203125 37.890625 
C 33 37.890625 33.296875 31.953125 33.296875 28.546875 
L 33.296875 0 
z
" id="LMSans17-Regular-110"/>
       <path d="M 40.796875 -0.203125 
L 40.796875 69 
L 33.40625 69 
L 33.40625 38.984375 
C 30.296875 41.59375 25.203125 44 19.59375 44 
C 10.5 44 3.296875 34.046875 3.296875 21.484375 
C 3.296875 8.9375 10.40625 -1 19.296875 -1 
C 26.203125 -1 30.796875 2.6875 33.203125 4.796875 
L 33.203125 -0.203125 
z
M 33.203125 13.296875 
C 33.203125 11.875 33.203125 10.359375 30.09375 7.625 
C 28.09375 5.90625 25.703125 5.09375 23.40625 5.09375 
C 18 5.09375 10.90625 9.140625 10.90625 21.390625 
C 10.90625 34.140625 18.90625 37.890625 24.40625 37.890625 
C 28.09375 37.890625 31.09375 36.0625 33.203125 33.03125 
z
" id="LMSans17-Regular-100"/>
       <path d="M 39.09375 21.484375 
C 39.09375 24.796875 38.90625 31.265625 35.703125 36.671875 
C 32.203125 42.390625 26.5 44 22.203125 44 
C 11.796875 44 3 34.125 3 21.296875 
C 3 9.046875 12.09375 -1 23.59375 -1 
C 28.09375 -1 33.59375 0.296875 38.59375 3.890625 
C 38.59375 4.296875 38.296875 6.578125 38.296875 6.578125 
C 38.296875 6.578125 38 9.828125 38 10.234375 
C 33.203125 6.375 27.703125 5.09375 23.703125 5.09375 
C 17.296875 5.09375 10.40625 10.421875 10.09375 21.484375 
z
M 32.5 27 
L 10.90625 27 
C 12.203125 32.59375 16.59375 37.890625 22.203125 37.890625 
C 23.703125 37.890625 30.703125 37.6875 32.5 27 
z
" id="LMSans17-Regular-101"/>
       <path d="M 30.59375 37.375 
L 30.59375 44 
C 24.203125 43.890625 18.203125 40.6875 14.59375 35.46875 
L 14.59375 43.484375 
L 7.5 43.484375 
L 7.5 0 
L 14.90625 0 
L 14.90625 21.390625 
C 14.90625 30.84375 21.796875 37.171875 30.59375 37.375 
z
" id="LMSans17-Regular-114"/>
       <path d="M 41.703125 19 
C 41.703125 27.09375 37.296875 37.015625 26.40625 39.34375 
L 26.40625 63.59375 
C 31.90625 63.09375 35.90625 60.59375 38.90625 58 
L 40 64.1875 
C 40 64.59375 34.796875 69.296875 26.40625 70 
L 26.40625 75 
L 20.59375 75 
L 20.59375 69.890625 
C 11.203125 68.1875 5.203125 59.984375 5.203125 51.1875 
C 5.203125 46.9375 6.90625 35.5 20.59375 32.15625 
L 20.59375 5.5 
C 14.90625 6.078125 9.5 8.40625 5.40625 12.296875 
L 4.203125 5.796875 
C 8.09375 2.6875 13.296875 -0.203125 20.59375 -1 
L 20.59375 -6 
L 26.40625 -6 
L 26.40625 -0.8125 
C 36.40625 1.1875 41.703125 10.25 41.703125 19 
z
M 20.59375 40.96875 
C 15.296875 42.484375 12.296875 47.25 12.296875 52.1875 
C 12.296875 56.59375 14.90625 61.6875 20.59375 63.296875 
z
M 34.59375 17.984375 
C 34.59375 13.484375 32.40625 7.640625 26.40625 5.796875 
L 26.40625 30.53125 
C 32.40625 28.609375 34.59375 22.53125 34.59375 17.984375 
z
" id="LMSans17-Regular-36"/>
       <path d="M 40.203125 0 
L 40.203125 5.796875 
L 28.40625 5.796875 
L 28.40625 67 
L 26.5 67 
C 21.09375 61.734375 14.796875 60.984375 8.40625 60.796875 
L 8.40625 55 
C 11.296875 55.09375 16 55.296875 20.703125 57.390625 
L 20.703125 5.796875 
L 8.90625 5.796875 
L 8.90625 0 
z
" id="LMSans17-Regular-49"/>
       <path d="M 43 59.484375 
L 43 66 
L 3.90625 66 
L 3.90625 59.1875 
L 21.703125 59.1875 
C 22.90625 59.1875 24.09375 59.296875 25.296875 59.296875 
L 36.796875 59.296875 
C 22.5 42.421875 14.296875 21.109375 14.296875 -1 
L 22.296875 -1 
C 22.296875 20.40625 29.296875 42.125 43 59.484375 
z
" id="LMSans17-Regular-55"/>
       <path d="M 42.203125 20 
C 42.203125 32.53125 34.09375 42.09375 24.40625 42.09375 
C 20.90625 42.09375 17.5 40.890625 14.59375 38.5 
L 14.59375 59.59375 
L 39.09375 59.59375 
L 39.09375 66 
L 7.296875 66 
L 7.296875 28.546875 
L 14 28.546875 
C 15.796875 32.828125 19.5 36 24.296875 36 
C 28.796875 36 33.796875 31.921875 33.796875 20.203125 
C 33.796875 7.828125 26.703125 4.1875 21.5 4.1875 
C 15.09375 4.1875 9.203125 8.140625 6.59375 13.59375 
L 3.40625 7.9375 
C 8 0.796875 15.5 -2 21.5 -2 
C 33.09375 -2 42.203125 7.9375 42.203125 20 
z
" id="LMSans17-Regular-53"/>
      </defs>
      <g transform="translate(72.389444 331.638559)scale(0.1 -0.1)">
       <use transform="scale(0.996264)" xlink:href="#LMSans17-Regular-85"/>
       <use transform="translate(64.140303 0)scale(0.996264)" xlink:href="#LMSans17-Regular-110"/>
       <use transform="translate(112.344866 0)scale(0.996264)" xlink:href="#LMSans17-Regular-100"/>
       <use transform="translate(160.549429 0)scale(0.996264)" xlink:href="#LMSans17-Regular-101"/>
       <use transform="translate(202.187293 0)scale(0.996264)" xlink:href="#LMSans17-Regular-114"/>
       <use transform="translate(265.327896 0)scale(0.996264)" xlink:href="#LMSans17-Regular-36"/>
       <use transform="translate(312.1719 0)scale(0.996264)" xlink:href="#LMSans17-Regular-49"/>
       <use transform="translate(359.015903 0)scale(0.996264)" xlink:href="#LMSans17-Regular-55"/>
       <use transform="translate(405.859907 0)scale(0.996264)" xlink:href="#LMSans17-Regular-53"/>
      </g>
     </g>
    </g>
    <g id="xtick_2">
     <g id="text_2">
      <!-- Ward -->
      <defs>
       <path d="M 87.203125 69 
L 79.59375 69 
L 71.203125 38.078125 
L 67.5 23.15625 
C 65.703125 15.796875 64.40625 10.625 64.203125 8.046875 
L 64.09375 8.046875 
C 63.90625 10.734375 62.59375 16.390625 61 22.765625 
L 57.09375 38.46875 
L 48.796875 69 
L 40.40625 69 
L 32.5 40.0625 
L 28.5 24.25 
C 25.5 11.71875 25.40625 9.9375 25.203125 7.953125 
L 25.09375 7.953125 
C 25.09375 8.546875 24.703125 11.828125 21.90625 23.453125 
L 17.59375 40.65625 
L 9.90625 69 
L 1.296875 69 
L 20.296875 0 
L 28.59375 0 
L 36.5 28.71875 
L 40.5 44.53125 
C 43.203125 55.671875 43.796875 58.453125 44 60.9375 
L 44.09375 60.9375 
C 44.09375 60.546875 45 54.28125 48.90625 39.765625 
L 59.5 0 
L 68.203125 0 
z
" id="LMSans17-Regular-87"/>
       <path d="M 38.59375 -0.203125 
L 38.59375 27.953125 
C 38.59375 37.484375 31.90625 44 22.90625 44 
C 18.5 44 13.703125 43.1875 8.203125 39.984375 
L 8.796875 33.328125 
C 11.296875 35.15625 15.59375 38.09375 22.796875 38.09375 
C 27.90625 38.09375 31 34.140625 31 27.84375 
L 31 24 
C 15 23.5 5 18.890625 5 11.109375 
C 5 7.0625 7.5 -1 15.796875 -1 
C 17.296875 -1 25.40625 -0.8125 31.203125 3.5 
L 31.203125 -0.203125 
z
M 31 12.875 
C 31 11.109375 31 8.734375 28 6.96875 
C 25.40625 5.296875 22.09375 5.09375 20.703125 5.09375 
C 15.703125 5.09375 12.296875 7.859375 12.296875 11.296875 
C 12.296875 18.203125 27.90625 18.890625 31 19 
z
" id="LMSans17-Regular-97"/>
      </defs>
      <g transform="translate(162.882368 331.638559)scale(0.1 -0.1)">
       <use transform="scale(0.996264)" xlink:href="#LMSans17-Regular-87"/>
       <use transform="translate(85.637234 0)scale(0.996264)" xlink:href="#LMSans17-Regular-97"/>
       <use transform="translate(127.956047 0)scale(0.996264)" xlink:href="#LMSans17-Regular-114"/>
       <use transform="translate(159.867629 0)scale(0.996264)" xlink:href="#LMSans17-Regular-100"/>
      </g>
     </g>
    </g>
    <g id="xtick_3">
     <g id="text_3">
      <!-- Chicago -->
      <defs>
       <path d="M 54.703125 4.5 
L 54.09375 11.359375 
C 51.40625 9.4375 48.796875 7.515625 45.59375 6.5 
C 42.5 5.5 39.296875 5.390625 36.09375 5.390625 
C 30 5.390625 24.5 8.9375 20.90625 13.890625 
C 16.40625 19.859375 14.40625 27.15625 14.40625 34.4375 
C 14.40625 41.828125 16.40625 49.21875 20.90625 55.09375 
C 24.5 59.953125 30 63.59375 36.09375 63.59375 
C 39 63.59375 41.796875 63.28125 44.5 62.375 
C 47.296875 61.5625 49.796875 60.046875 52.296875 58.53125 
L 53.703125 66.59375 
C 50.90625 67.6875 48 68.59375 45 69.1875 
C 42.09375 69.796875 39.09375 70 36.09375 70 
C 27.90625 70 20.296875 65.984375 14.90625 59.640625 
C 9 52.65625 6.09375 43.65625 6.09375 34.4375 
C 6.09375 25.328125 9 16.328125 14.90625 9.34375 
C 20.296875 3 27.90625 -1 36.09375 -1 
C 39.40625 -1 42.703125 -0.90625 45.90625 0 
C 49.09375 1 51.90625 2.6875 54.703125 4.5 
z
" id="LMSans17-Regular-67"/>
       <path d="M 40.90625 0 
L 40.90625 29.34375 
C 40.90625 35.671875 39.40625 44 28.09375 44 
C 21.796875 44 17.703125 40.890625 14.796875 37.484375 
L 14.796875 69 
L 7.40625 69 
L 7.40625 0 
L 15 0 
L 15 24.3125 
C 15 30.65625 17.40625 37.890625 24.203125 37.890625 
C 33 37.890625 33.296875 31.953125 33.296875 28.546875 
L 33.296875 0 
z
" id="LMSans17-Regular-104"/>
       <path d="M 14.796875 0 
L 14.796875 43 
L 7.40625 43 
L 7.40625 0 
z
M 15.40625 56.59375 
L 15.40625 65 
L 7 65 
L 7 56.59375 
z
" id="LMSans17-Regular-105"/>
       <path d="M 39.09375 3.796875 
L 38.5 10.390625 
C 34.203125 7.09375 29.203125 5.296875 23.796875 5.296875 
C 16 5.296875 10.90625 12.09375 10.90625 21.390625 
C 10.90625 28.59375 14.203125 37.6875 24.203125 37.6875 
C 29.703125 37.6875 32.796875 36.59375 37.40625 33.484375 
L 38.5 39.6875 
C 38.5 40.390625 33.90625 42.390625 32.703125 42.796875 
C 29.40625 44 25.203125 44 24.09375 44 
C 11.09375 44 3.296875 32.6875 3.296875 21.296875 
C 3.296875 9.296875 12 -1 23.703125 -1 
C 30.40625 -1 35.203125 1.1875 39.09375 3.796875 
z
" id="LMSans17-Regular-99"/>
       <path d="M 45.59375 37.796875 
L 44.5 44 
C 38.796875 43.890625 33.90625 42.796875 29.90625 40.890625 
C 26.59375 43.484375 23.203125 44 20.90625 44 
C 12.203125 44 5.59375 36.8125 5.59375 28.5 
C 5.59375 23.15625 8.59375 19.09375 8.796875 18.890625 
C 7 16 6 13.296875 6 10.296875 
C 6 6.796875 7.40625 4.296875 8.5 2.890625 
C 3.296875 0.09375 2.59375 -4.8125 2.59375 -6.703125 
C 2.59375 -14 11.703125 -20 23.40625 -20 
C 35.203125 -20 44.296875 -14 44.296875 -6.609375 
C 44.296875 7.1875 29 7.296875 24.796875 7.296875 
L 16.703125 7.296875 
C 15.203125 7.296875 11.203125 7.296875 11.203125 12.390625 
C 11.203125 14.390625 12.203125 15.796875 12.203125 15.796875 
C 13.703125 14.6875 16.796875 13 20.90625 13 
C 29.203125 13 36.09375 19.984375 36.09375 28.484375 
C 36.09375 33.25 33.90625 36.703125 33 37.890625 
L 33.296875 37.890625 
C 33.59375 37.890625 37.796875 38.1875 39.296875 38.1875 
C 42.5 38.1875 42.796875 38.09375 45.59375 37.796875 
z
M 29 28.484375 
C 29 19.875 23.5 18.5 20.90625 18.5 
C 17.5 18.375 12.703125 20.453125 12.703125 28.4375 
C 12.703125 37.09375 18.203125 38.484375 20.796875 38.484375 
C 24.203125 38.484375 29 36.40625 29 28.4375 
z
M 37.203125 -6.84375 
C 37.203125 -11.125 31 -14.5 23.5 -14.5 
C 15.90625 -14.515625 9.703125 -11.203125 9.703125 -6.703125 
C 9.703125 -6.203125 9.703125 0 16.59375 0 
L 24.703125 0 
C 27.09375 0 37.203125 0 37.203125 -6.8125 
z
" id="LMSans17-Regular-103"/>
       <path d="M 44.203125 21.1875 
C 44.203125 33.984375 34.703125 44 23.5 44 
C 12 44 2.703125 33.6875 2.703125 21.1875 
C 2.703125 8.5 12.296875 -1 23.40625 -1 
C 34.796875 -1 44.203125 8.796875 44.203125 21.1875 
z
M 36.59375 21.984375 
C 36.59375 10.6875 30.09375 5.1875 23.40625 5.1875 
C 16.40625 5.1875 10.296875 11.09375 10.296875 21.984375 
C 10.296875 33.59375 17.40625 37.796875 23.40625 37.796875 
C 29.90625 37.796875 36.59375 33.1875 36.59375 21.984375 
z
" id="LMSans17-Regular-111"/>
      </defs>
      <g transform="translate(234.922973 331.638559)scale(0.1 -0.1)">
       <use transform="scale(0.996264)" xlink:href="#LMSans17-Regular-67"/>
       <use transform="translate(59.856532 0)scale(0.996264)" xlink:href="#LMSans17-Regular-104"/>
       <use transform="translate(108.061095 0)scale(0.996264)" xlink:href="#LMSans17-Regular-105"/>
       <use transform="translate(130.240678 0)scale(0.996264)" xlink:href="#LMSans17-Regular-99"/>
       <use transform="translate(171.878542 0)scale(0.996264)" xlink:href="#LMSans17-Regular-97"/>
       <use transform="translate(216.799809 0)scale(0.996264)" xlink:href="#LMSans17-Regular-103"/>
       <use transform="translate(263.643813 0)scale(0.996264)" xlink:href="#LMSans17-Regular-111"/>
      </g>
     </g>
    </g>
    <g id="xtick_4">
     <g id="text_4">
      <!-- Illinois -->
      <defs>
       <path d="M 17.09375 0 
L 17.09375 69 
L 8.703125 69 
L 8.703125 0 
z
" id="LMSans17-Regular-73"/>
       <path d="M 14.796875 0 
L 14.796875 69 
L 7.40625 69 
L 7.40625 0 
z
" id="LMSans17-Regular-108"/>
       <path d="M 33.796875 12.1875 
C 33.796875 17.09375 31 20.390625 29.09375 21.890625 
C 25.796875 24.484375 24.59375 24.796875 16.40625 26.484375 
C 15 26.6875 10.09375 27.796875 10.09375 32.296875 
C 10.09375 37.984375 16.40625 37.984375 17.796875 37.984375 
C 24.296875 37.984375 28.296875 35.984375 31 34.484375 
L 32.203125 40.984375 
C 26.296875 43.796875 21.703125 44 18.703125 44 
C 11.59375 44 3.09375 41.484375 3.09375 31.390625 
C 3.09375 21.09375 14.09375 18.890625 17.09375 18.296875 
C 21.703125 17.390625 26.796875 16.390625 26.796875 11.296875 
C 26.796875 5 19.59375 5 18.296875 5 
C 14.296875 5 8.796875 6.09375 3.796875 9.6875 
L 2.59375 2.984375 
C 8.296875 0 13.796875 -1 18.40625 -1 
C 30.703125 -1 33.796875 6.453125 33.796875 12 
z
" id="LMSans17-Regular-115"/>
      </defs>
      <g transform="translate(315.819514 331.638559)scale(0.1 -0.1)">
       <use transform="scale(0.996264)" xlink:href="#LMSans17-Regular-73"/>
       <use transform="translate(25.782983 0)scale(0.996264)" xlink:href="#LMSans17-Regular-108"/>
       <use transform="translate(47.962566 0)scale(0.996264)" xlink:href="#LMSans17-Regular-108"/>
       <use transform="translate(70.142149 0)scale(0.996264)" xlink:href="#LMSans17-Regular-105"/>
       <use transform="translate(92.321732 0)scale(0.996264)" xlink:href="#LMSans17-Regular-110"/>
       <use transform="translate(140.526295 0)scale(0.996264)" xlink:href="#LMSans17-Regular-111"/>
       <use transform="translate(187.370298 0)scale(0.996264)" xlink:href="#LMSans17-Regular-105"/>
       <use transform="translate(209.549881 0)scale(0.996264)" xlink:href="#LMSans17-Regular-115"/>
      </g>
     </g>
    </g>
    <g id="xtick_5">
     <g id="text_5">
      <!-- United States -->
      <defs>
       <path d="M 31.296875 2.6875 
L 29.703125 8.609375 
C 27.296875 6.5 24.40625 5.296875 21.296875 5.296875 
C 16.90625 5.296875 16.703125 10.921875 16.703125 13.4375 
L 16.703125 37.1875 
L 29.703125 37.1875 
L 29.703125 43 
L 16.703125 43 
L 16.703125 55 
L 9.59375 55 
L 9.59375 43 
L 1.703125 43 
L 1.703125 37.1875 
L 9.40625 37.1875 
L 9.40625 11.734375 
C 9.40625 6 10.703125 -1 17.296875 -1 
C 22.296875 -1 26.90625 0.390625 31.296875 2.6875 
z
" id="LMSans17-Regular-116"/>
       <path d="M 46.90625 18.78125 
C 46.90625 22.8125 45.703125 27.953125 41.5 32.6875 
C 37.40625 37.203125 33.796875 38.21875 25.59375 40.4375 
C 20.90625 41.640625 17.90625 42.453125 15.40625 45.5625 
C 13.703125 47.78125 12.796875 49.890625 12.796875 52.609375 
C 12.796875 58.25 17.59375 64.390625 26.40625 64.390625 
C 30.796875 64.390625 36.5 63.484375 42.296875 58.046875 
L 43.703125 66.09375 
C 39.296875 68.6875 34.5 71 26.40625 71 
C 13.5 71 5.203125 61.46875 5.203125 51.703125 
C 5.203125 47.875 6.296875 43.546875 10.203125 39.125 
C 14.09375 34.6875 18.5 33.484375 24.09375 32.078125 
C 26.40625 31.46875 30.296875 30.359375 31 30.0625 
C 36.59375 27.84375 39.296875 22.71875 39.296875 17.875 
C 39.296875 11.53125 34.40625 4.796875 25.703125 4.796875 
C 22.703125 4.796875 13.90625 5.296875 5.59375 12.953125 
L 4.203125 5 
C 12.40625 -1 21.296875 -2 25.796875 -2 
C 38.09375 -2 46.90625 7.71875 46.90625 18.78125 
z
" id="LMSans17-Regular-83"/>
      </defs>
      <g transform="translate(378.098865 331.638559)scale(0.1 -0.1)">
       <use transform="scale(0.996264)" xlink:href="#LMSans17-Regular-85"/>
       <use transform="translate(64.140303 0)scale(0.996264)" xlink:href="#LMSans17-Regular-110"/>
       <use transform="translate(112.344866 0)scale(0.996264)" xlink:href="#LMSans17-Regular-105"/>
       <use transform="translate(134.524449 0)scale(0.996264)" xlink:href="#LMSans17-Regular-116"/>
       <use transform="translate(168.355909 0)scale(0.996264)" xlink:href="#LMSans17-Regular-101"/>
       <use transform="translate(209.993773 0)scale(0.996264)" xlink:href="#LMSans17-Regular-100"/>
       <use transform="translate(289.427358 0)scale(0.996264)" xlink:href="#LMSans17-Regular-83"/>
       <use transform="translate(341.477501 0)scale(0.996264)" xlink:href="#LMSans17-Regular-116"/>
       <use transform="translate(375.308961 0)scale(0.996264)" xlink:href="#LMSans17-Regular-97"/>
       <use transform="translate(420.230228 0)scale(0.996264)" xlink:href="#LMSans17-Regular-116"/>
       <use transform="translate(454.061688 0)scale(0.996264)" xlink:href="#LMSans17-Regular-101"/>
       <use transform="translate(495.699553 0)scale(0.996264)" xlink:href="#LMSans17-Regular-115"/>
      </g>
     </g>
    </g>
   </g>
   <g id="matplotlib.axis_2">
    <g id="ytick_1">
     <g id="text_6">
      <!-- \$0 -->
      <defs>
       <path d="M 43.09375 32.421875 
C 43.09375 38.140625 43 48.78125 38.90625 57 
C 34.796875 64.890625 28.203125 67 23.5 67 
C 16.703125 67 10.90625 62.984375 7.90625 56.59375 
C 4.703125 49.890625 3.796875 42.953125 3.796875 32.421875 
C 3.796875 25.1875 4.09375 16.34375 7.703125 8.609375 
C 11.796875 0.09375 18.703125 -2 23.40625 -2 
C 29.59375 -2 35.59375 1.296875 39 8.203125 
C 42.5 15.4375 43.09375 23.375 43.09375 32.421875 
z
M 35.5 33.515625 
C 35.5 24.171875 35.5 4.09375 23.40625 4.09375 
C 15.796875 4.09375 13.5 12.828125 12.796875 15.75 
C 11.59375 20.765625 11.40625 25.578125 11.40625 33.515625 
C 11.40625 39.75 11.40625 46.78125 13.296875 52.296875 
C 15.59375 58.6875 19.59375 60.890625 23.40625 60.890625 
C 30.796875 60.890625 33.203125 53.484375 34 50.890625 
C 35.5 45.578125 35.5 39.34375 35.5 33.515625 
z
" id="LMSans17-Regular-48"/>
      </defs>
      <g transform="translate(38.473978 321.17928)scale(0.1 -0.1)">
       <use transform="scale(0.996264)" xlink:href="#LMSans17-Regular-36"/>
       <use transform="translate(46.844004 0)scale(0.996264)" xlink:href="#LMSans17-Regular-48"/>
      </g>
     </g>
    </g>
    <g id="ytick_2">
     <g id="text_7">
      <!-- \$100,000 -->
      <defs>
       <path d="M 17 0.09375 
L 17 8 
L 9 8 
L 9 0 
L 11.5 0 
L 8.90625 -13 
L 12.90625 -13 
z
" id="LMSans17-Regular-44"/>
      </defs>
      <g transform="translate(10.8 255.561408)scale(0.1 -0.1)">
       <use transform="scale(0.996264)" xlink:href="#LMSans17-Regular-36"/>
       <use transform="translate(46.844004 0)scale(0.996264)" xlink:href="#LMSans17-Regular-49"/>
       <use transform="translate(93.688007 0)scale(0.996264)" xlink:href="#LMSans17-Regular-48"/>
       <use transform="translate(140.532011 0)scale(0.996264)" xlink:href="#LMSans17-Regular-48"/>
       <use transform="translate(187.376014 0)scale(0.996264)" xlink:href="#LMSans17-Regular-44"/>
       <use transform="translate(213.401177 0)scale(0.996264)" xlink:href="#LMSans17-Regular-48"/>
       <use transform="translate(260.24518 0)scale(0.996264)" xlink:href="#LMSans17-Regular-48"/>
       <use transform="translate(307.089184 0)scale(0.996264)" xlink:href="#LMSans17-Regular-48"/>
      </g>
     </g>
    </g>
    <g id="ytick_3">
     <g id="text_8">
      <!-- \$200,000 -->
      <defs>
       <path d="M 42.203125 0 
L 42.203125 6.796875 
L 25.203125 6.796875 
C 24 6.796875 22.796875 6.6875 21.59375 6.6875 
L 11.59375 6.6875 
L 11.59375 6.796875 
L 25.796875 21.140625 
C 28.59375 24.03125 32.796875 27.515625 35.703125 31 
C 38.5 34.390625 42.203125 39.171875 42.203125 46.140625 
C 42.203125 57.109375 34.796875 67 22.203125 67 
C 12.296875 67 6.59375 60.796875 3.90625 51.125 
L 7.796875 45.75 
C 10 54.8125 13.09375 60.59375 20.90625 60.59375 
C 29.5 60.59375 34.296875 53.609375 34.296875 45.9375 
C 34.296875 36.78125 27.296875 29.703125 22 24.421875 
L 4.703125 6.390625 
L 4.703125 0 
z
" id="LMSans17-Regular-50"/>
      </defs>
      <g transform="translate(10.8 189.943537)scale(0.1 -0.1)">
       <use transform="scale(0.996264)" xlink:href="#LMSans17-Regular-36"/>
       <use transform="translate(46.844004 0)scale(0.996264)" xlink:href="#LMSans17-Regular-50"/>
       <use transform="translate(93.688007 0)scale(0.996264)" xlink:href="#LMSans17-Regular-48"/>
       <use transform="translate(140.532011 0)scale(0.996264)" xlink:href="#LMSans17-Regular-48"/>
       <use transform="translate(187.376014 0)scale(0.996264)" xlink:href="#LMSans17-Regular-44"/>
       <use transform="translate(213.401177 0)scale(0.996264)" xlink:href="#LMSans17-Regular-48"/>
       <use transform="translate(260.24518 0)scale(0.996264)" xlink:href="#LMSans17-Regular-48"/>
       <use transform="translate(307.089184 0)scale(0.996264)" xlink:href="#LMSans17-Regular-48"/>
      </g>
     </g>
    </g>
    <g id="ytick_4">
     <g id="text_9">
      <!-- \$300,000 -->
      <defs>
       <path d="M 43 18.1875 
C 43 26.09375 37.5 32.6875 30 35.1875 
C 36 38.484375 40.40625 44.6875 40.40625 51.890625 
C 40.40625 60.296875 32.703125 67 23.296875 67 
C 14.703125 67 8 61.6875 5.203125 55.984375 
C 5.90625 54.984375 7.703125 52.09375 8.59375 50.59375 
C 10.796875 56.484375 16.5 60.890625 23.203125 60.890625 
C 28.796875 60.890625 32.5 57.1875 32.5 51.890625 
C 32.5 46.390625 29 40.390625 23.09375 39 
C 22.703125 38.796875 16.5 38.1875 15.703125 38.09375 
L 15.703125 32 
L 22.5 32 
C 31.90625 32 34.59375 23.65625 34.59375 17.859375 
C 34.59375 10 30.203125 4.1875 23 4.1875 
C 17.40625 4.1875 9.5 6.78125 5 14.09375 
C 4.296875 10.59375 4.296875 10.390625 3.90625 8 
C 8.59375 1.390625 16.203125 -2 23.203125 -2 
C 34.59375 -2 43 7.25 43 17.75 
z
" id="LMSans17-Regular-51"/>
      </defs>
      <g transform="translate(10.8 124.325666)scale(0.1 -0.1)">
       <use transform="scale(0.996264)" xlink:href="#LMSans17-Regular-36"/>
       <use transform="translate(46.844004 0)scale(0.996264)" xlink:href="#LMSans17-Regular-51"/>
       <use transform="translate(93.688007 0)scale(0.996264)" xlink:href="#LMSans17-Regular-48"/>
       <use transform="translate(140.532011 0)scale(0.996264)" xlink:href="#LMSans17-Regular-48"/>
       <use transform="translate(187.376014 0)scale(0.996264)" xlink:href="#LMSans17-Regular-44"/>
       <use transform="translate(213.401177 0)scale(0.996264)" xlink:href="#LMSans17-Regular-48"/>
       <use transform="translate(260.24518 0)scale(0.996264)" xlink:href="#LMSans17-Regular-48"/>
       <use transform="translate(307.089184 0)scale(0.996264)" xlink:href="#LMSans17-Regular-48"/>
      </g>
     </g>
    </g>
    <g id="ytick_5">
     <g id="text_10">
      <!-- \$400,000 -->
      <defs>
       <path d="M 44.296875 17 
L 44.296875 23.09375 
L 35.203125 23.09375 
L 35.203125 66 
L 26.40625 66 
L 2.59375 23.09375 
L 2.59375 17 
L 27.296875 17 
L 27.296875 0 
L 35.203125 0 
L 35.203125 17 
z
M 27.59375 23.09375 
L 10.296875 23.09375 
C 16.09375 33.40625 27.5 54.25 27.59375 61.34375 
z
" id="LMSans17-Regular-52"/>
      </defs>
      <g transform="translate(10.8 58.707795)scale(0.1 -0.1)">
       <use transform="scale(0.996264)" xlink:href="#LMSans17-Regular-36"/>
       <use transform="translate(46.844004 0)scale(0.996264)" xlink:href="#LMSans17-Regular-52"/>
       <use transform="translate(93.688007 0)scale(0.996264)" xlink:href="#LMSans17-Regular-48"/>
       <use transform="translate(140.532011 0)scale(0.996264)" xlink:href="#LMSans17-Regular-48"/>
       <use transform="translate(187.376014 0)scale(0.996264)" xlink:href="#LMSans17-Regular-44"/>
       <use transform="translate(213.401177 0)scale(0.996264)" xlink:href="#LMSans17-Regular-48"/>
       <use transform="translate(260.24518 0)scale(0.996264)" xlink:href="#LMSans17-Regular-48"/>
       <use transform="translate(307.089184 0)scale(0.996264)" xlink:href="#LMSans17-Regular-48"/>
      </g>
     </g>
    </g>
   </g>
   <g id="patch_38">
    <path d="M 55.436618 317.72 
L 447.48 317.72 
" style="fill:none;stroke:#989898;stroke-linecap:square;stroke-linejoin:miter;stroke-width:0.8;"/>
   </g>
   <g id="text_11">
    <!-- \bf \Large \sffamily \$6,092 -->
    <defs>
     <path d="M 48.796875 20.6875 
C 48.796875 32.1875 41.203125 40.796875 31.09375 42.796875 
L 31.09375 60.296875 
C 37.203125 59.59375 40.703125 56.890625 43.203125 54.890625 
C 43.796875 54.390625 44 54.390625 44.296875 54.390625 
C 45.40625 54.390625 45.59375 55.296875 45.796875 56.59375 
L 46.796875 62.296875 
C 46.90625 62.59375 47 63.296875 47 63.59375 
C 47 65.1875 40.5 67.984375 40.5 67.984375 
C 36.796875 69.6875 32.59375 70.296875 31.09375 70.390625 
C 31.09375 71.296875 31.09375 75 27.5 75 
C 23.90625 75 23.90625 71.296875 23.90625 70.296875 
C 17.40625 69.6875 13.40625 67.59375 10.5 64.296875 
C 7.203125 60.296875 6.09375 54.671875 6.09375 49.875 
C 6.09375 39.25 13.59375 30.9375 23.90625 29.125 
L 23.90625 8.796875 
C 17.90625 9.59375 12.796875 12.296875 8.796875 15.90625 
C 8.5 16.203125 8.09375 16.40625 7.59375 16.40625 
C 6.59375 16.40625 6.40625 15.5 6.296875 14.90625 
C 6.09375 13.5 4.90625 7.796875 4.90625 6.796875 
C 4.90625 6.09375 5 6 7.40625 4.390625 
C 10.59375 2.296875 16.203125 -0.5 23.90625 -1.21875 
C 23.90625 -2.234375 23.90625 -6 27.5 -6 
C 31.09375 -6 31.09375 -2.328125 31.09375 -1.21875 
C 43.5 0.296875 48.796875 8.09375 48.796875 20.421875 
z
M 23.90625 44.265625 
C 20.203125 45.5625 17.703125 48.265625 17.703125 52.171875 
C 17.703125 56.078125 19.5 59.09375 23.90625 59.984375 
z
M 37.203125 18.109375 
C 37.203125 11.703125 34 9.6875 31.09375 9 
L 31.09375 27.328125 
C 34.796875 25.828125 37.203125 22.421875 37.203125 18.109375 
z
" id="LMSans10-Bold-36"/>
     <path d="M 50.296875 23.890625 
C 50.296875 29.59375 50.296875 48.1875 30.796875 48.1875 
C 25.296875 48 21.296875 44.890625 18.59375 39.09375 
C 19.09375 48.109375 19.203125 50.546875 20.703125 55 
C 23.59375 62.1875 30.203125 63.09375 33.703125 63.09375 
C 35.5 63.09375 38.09375 62.796875 40.5 61.484375 
C 41.203125 60.984375 41.5 60.796875 42 60.796875 
C 43.203125 61.1875 43.203125 62.390625 43.203125 63.890625 
L 43.203125 67.59375 
C 43.203125 70 43.203125 70.09375 39.703125 71.390625 
C 37.09375 72 34.40625 72 33.40625 72 
C 4.59375 72 4.59375 43.125 4.59375 34.28125 
C 4.59375 23.953125 4.59375 -2 27.90625 -2 
C 35.59375 -2 40.40625 -0.109375 44.5 4.5 
C 49.703125 10.296875 50.296875 16.03125 50.296875 23.84375 
z
M 36.296875 23.953125 
C 36.296875 14.109375 36.296875 7.390625 27.796875 7.390625 
C 19.90625 7.390625 18.796875 16.421875 18.796875 25.046875 
C 18.796875 33.375 21.203125 41 28.296875 41 
C 36.296875 40.6875 36.296875 33.59375 36.296875 23.6875 
z
" id="LMSans10-Bold-54"/>
     <path d="M 21.796875 2.6875 
L 21.796875 10.390625 
C 21.796875 13 21.703125 13.09375 19.09375 13.09375 
L 11.40625 13.09375 
C 8.796875 13.09375 8.703125 13 8.703125 10.390625 
L 8.703125 2.6875 
C 8.703125 0.09375 8.796875 0 12.09375 0 
C 11.5 -1.671875 11 -3.328125 10.40625 -4.984375 
C 9.796875 -6.546875 8.796875 -9.65625 8.796875 -9.65625 
C 8.796875 -11 9.796875 -11 11.40625 -11 
L 12.59375 -11 
C 14.59375 -11 14.703125 -10.90625 15.703125 -9.25 
L 20.90625 -0.625 
C 21.796875 0.796875 21.796875 1 21.796875 2.6875 
z
" id="LMSans10-Bold-44"/>
     <path d="M 50.59375 34.59375 
C 50.59375 48.34375 50.59375 72 27.5 72 
C 4.296875 72 4.296875 48.546875 4.296875 34.59375 
C 4.296875 20.84375 4.296875 -2 27.40625 -2 
C 50.59375 -2 50.59375 20.640625 50.59375 34.59375 
z
M 37 36 
C 37 30.28125 37 22.453125 36.296875 16.9375 
C 36 14.328125 34.90625 5.1875 27.40625 5.1875 
C 20 5.1875 18.90625 14.421875 18.59375 17.140625 
C 17.90625 22.59375 17.90625 31.984375 17.90625 36.09375 
C 17.90625 41.984375 17.90625 48.390625 18.5 53.296875 
C 18.796875 55.984375 19.796875 64.796875 27.40625 64.796875 
C 34.796875 64.796875 36 56.390625 36.296875 54.390625 
C 37 48.890625 37 41 37 35.6875 
z
" id="LMSans10-Bold-48"/>
     <path d="M 50.296875 36 
C 50.296875 46.6875 50.203125 72 27.5 72 
C 21.296875 72 14.703125 70.890625 9.5 64.484375 
C 5.296875 58.984375 4.59375 53.984375 4.59375 46.296875 
C 4.59375 40 4.796875 34.265625 9.09375 28.484375 
C 13.09375 23.296875 17.703125 21.796875 24.09375 21.796875 
C 31.5 21.796875 35 27.6875 36.296875 30.8125 
C 36.203125 29.90625 36.296875 27.984375 36 23.6875 
C 35.5 17.5625 33.703125 7.390625 22.703125 7.390625 
C 19.59375 7.390625 16.703125 8.203125 14 10.71875 
C 13.5 11.3125 13.203125 11.515625 12.703125 11.515625 
C 11.90625 11.515625 11.703125 11.015625 11.203125 10.21875 
C 9.296875 7 7.90625 4.6875 7.90625 4.09375 
C 7.90625 3.296875 13.09375 -2 22.90625 -2 
C 50.296875 -2 50.296875 26.890625 50.296875 36 
z
M 36.203125 44.890625 
C 36.203125 43.5 36.203125 29 26.59375 29 
C 18.59375 29 18.59375 36.296875 18.59375 46.1875 
C 18.59375 55.890625 18.59375 63.09375 27.703125 63.09375 
C 34.59375 63.09375 36.203125 55.390625 36.203125 44.890625 
z
" id="LMSans10-Bold-57"/>
     <path d="M 49.40625 4.796875 
L 49.40625 6 
C 49.40625 7.59375 49.40625 9.5 47.296875 10.390625 
C 46.59375 10.796875 43.40625 10.796875 41.40625 10.796875 
L 34.59375 10.6875 
L 18.40625 10.6875 
L 31.59375 23.1875 
C 33.09375 24.5 36.90625 27.59375 38.40625 29 
C 43.90625 34.796875 49.40625 40.09375 49.40625 48.984375 
C 49.40625 61.1875 40.59375 72 25.90625 72 
C 22.40625 72 16.703125 71.484375 11.90625 67.59375 
C 11 66.890625 6.40625 63.296875 4.59375 56.59375 
L 9.59375 50.1875 
C 10.203125 49.390625 10.5 48.984375 11.203125 48.984375 
C 12.09375 48.984375 12.296875 49.6875 12.59375 50.890625 
C 14.59375 57.796875 18 61.984375 24.40625 61.984375 
C 32.203125 61.59375 35.40625 54.5 35.40625 48.390625 
C 35.40625 42 31.59375 35.296875 25.59375 28.890625 
L 6.5 8.5 
C 5.5 7.5 5.5 7.296875 5.5 5.59375 
L 5.5 4.796875 
C 5.5 1.1875 6.59375 0 10.296875 0 
L 44.59375 0 
C 48.40625 0 49.40625 1.296875 49.40625 4.796875 
z
" id="LMSans10-Bold-50"/>
    </defs>
    <g transform="translate(74.582696 301.5394)scale(0.1 -0.1)">
     <use transform="scale(0.143462)" xlink:href="#LMSans10-Bold-36"/>
     <use transform="translate(7.890409 0)scale(0.143462)" xlink:href="#LMSans10-Bold-54"/>
     <use transform="translate(15.780818 0)scale(0.143462)" xlink:href="#LMSans10-Bold-44"/>
     <use transform="translate(20.164283 0)scale(0.143462)" xlink:href="#LMSans10-Bold-48"/>
     <use transform="translate(28.054692 0)scale(0.143462)" xlink:href="#LMSans10-Bold-57"/>
     <use transform="translate(35.945101 0)scale(0.143462)" xlink:href="#LMSans10-Bold-50"/>
    </g>
    <!-- *not itemized -->
    <defs>
     <path d="M 41 44.59375 
C 41 46.5 39.59375 47.296875 38.796875 47.6875 
L 28.09375 53.5 
L 38.90625 59.296875 
C 40.09375 60 41 61 41 62.390625 
C 41 64.390625 39.203125 65.890625 37.59375 65.890625 
C 36.703125 65.890625 36 65.5 35.203125 64.890625 
L 26 58.09375 
L 26.796875 71.59375 
C 26.796875 73.890625 25.09375 75 23.40625 75 
C 22 75 20.09375 74 20.09375 71.59375 
L 20.90625 58.09375 
L 11.703125 64.796875 
C 10.5 65.6875 10.203125 65.890625 9.296875 65.890625 
C 7.703125 65.890625 5.90625 64.390625 5.90625 62.390625 
C 5.90625 60.5 7.296875 59.6875 8.09375 59.296875 
L 18.796875 53.5 
L 8 47.6875 
C 6.796875 47 5.90625 46 5.90625 44.59375 
C 5.90625 42.59375 7.703125 41.09375 9.296875 41.09375 
C 10.203125 41.09375 10.90625 41.5 11.703125 42.09375 
L 20.90625 48.890625 
L 20.09375 35.390625 
C 20.09375 33.09375 21.796875 32 23.5 32 
C 24.90625 32 26.796875 33 26.796875 35.390625 
L 26.703125 36.296875 
L 26 48.890625 
L 35.203125 42.1875 
C 36.40625 41.296875 36.703125 41.09375 37.59375 41.09375 
C 39.203125 41.09375 41 42.59375 41 44.59375 
z
" id="LMSans17-Regular-42"/>
     <path d="M 67 0 
L 67 29.34375 
C 67 36.078125 65.296875 44 54.09375 44 
C 46.59375 44 42.09375 39.296875 40.09375 36.375 
C 38.296875 41.6875 34.09375 44 28.09375 44 
C 21.296875 44 17 40.09375 14.703125 37.28125 
L 14.703125 43.484375 
L 7.40625 43.484375 
L 7.40625 0 
L 15 0 
L 15 24.3125 
C 15 30.25 17.203125 37.890625 24.296875 37.890625 
C 33.40625 37.890625 33.40625 31.453125 33.40625 28.546875 
L 33.40625 0 
L 41 0 
L 41 24.3125 
C 41 30.25 43.203125 37.890625 50.296875 37.890625 
C 59.40625 37.890625 59.40625 31.453125 59.40625 28.546875 
L 59.40625 0 
z
" id="LMSans17-Regular-109"/>
     <path d="M 37.796875 0 
L 37.796875 6.1875 
L 24.203125 6.1875 
C 23 6.1875 21.796875 6.09375 20.59375 6.09375 
L 12.90625 6.09375 
L 37.5 39.09375 
L 37.5 43 
L 3.90625 43 
L 3.90625 36.984375 
L 16.703125 36.984375 
C 17.90625 36.984375 19.09375 37.09375 20.296875 37.09375 
L 27.296875 37.09375 
L 2.59375 4.09375 
L 2.59375 0 
z
" id="LMSans17-Regular-122"/>
    </defs>
    <g transform="translate(68.18305 311.778834)scale(0.1 -0.1)">
     <use transform="scale(0.996264)" xlink:href="#LMSans17-Regular-42"/>
     <use transform="translate(46.844004 0)scale(0.996264)" xlink:href="#LMSans17-Regular-110"/>
     <use transform="translate(95.048567 0)scale(0.996264)" xlink:href="#LMSans17-Regular-111"/>
     <use transform="translate(141.89257 0)scale(0.996264)" xlink:href="#LMSans17-Regular-116"/>
     <use transform="translate(206.953052 0)scale(0.996264)" xlink:href="#LMSans17-Regular-105"/>
     <use transform="translate(229.132635 0)scale(0.996264)" xlink:href="#LMSans17-Regular-116"/>
     <use transform="translate(262.964095 0)scale(0.996264)" xlink:href="#LMSans17-Regular-101"/>
     <use transform="translate(304.60196 0)scale(0.996264)" xlink:href="#LMSans17-Regular-109"/>
     <use transform="translate(378.831685 0)scale(0.996264)" xlink:href="#LMSans17-Regular-105"/>
     <use transform="translate(401.011268 0)scale(0.996264)" xlink:href="#LMSans17-Regular-122"/>
     <use transform="translate(441.68914 0)scale(0.996264)" xlink:href="#LMSans17-Regular-101"/>
     <use transform="translate(483.327004 0)scale(0.996264)" xlink:href="#LMSans17-Regular-100"/>
    </g>
   </g>
   <g id="text_12">
    <!-- \bf \Large \sffamily \$195,580 -->
    <defs>
     <path d="M 47.296875 3.59375 
C 47.296875 7.1875 43.59375 7.1875 42.5 7.1875 
L 35.5 7.1875 
L 35.5 67.125 
C 35.5 69.046875 35.5 72 31.09375 72 
C 29.09375 72 28.703125 71.796875 27.5 70.578125 
C 25.703125 68.953125 21.90625 65.1875 12 65 
C 10.203125 65 7.59375 64.296875 7.59375 61.390625 
C 7.59375 57.796875 11.09375 57.796875 12.40625 57.796875 
C 15.40625 57.78125 18.90625 58.296875 21.796875 59.09375 
L 21.796875 7.1875 
L 14 7.1875 
C 12.703125 7.1875 9.203125 7.1875 9.203125 3.59375 
C 9.203125 0 12.703125 0 14 0 
L 42.5 0 
C 43.59375 0 47.296875 0 47.296875 3.59375 
z
" id="LMSans10-Bold-49"/>
     <path d="M 49.40625 21.921875 
C 49.40625 35.171875 43.90625 45 28.59375 45 
C 26.09375 45 23.703125 44.59375 21.296875 43.6875 
L 21.296875 58.984375 
L 40.90625 58.984375 
C 45.59375 58.984375 45.703125 61.296875 45.703125 63.984375 
C 45.703125 66.59375 45.703125 69 40.90625 69 
L 13.09375 69 
C 9.90625 69 8.296875 68.390625 8.296875 64.390625 
L 8.296875 34.078125 
C 8.296875 29.546875 10.59375 29.453125 13.296875 29.453125 
C 15.90625 29.453125 16.796875 29.453125 18.203125 31.859375 
C 20.59375 35.78125 24 37.796875 28.203125 37.796875 
C 34.703125 37.796875 34.703125 30.15625 34.703125 22.3125 
C 34.703125 14.59375 34.703125 7 24.203125 7 
C 21.09375 7 14.296875 7.890625 10.296875 15.796875 
C 10 16.390625 9.703125 17 9 17 
C 8.203125 17 8 16.5 7.40625 15.6875 
C 6 13.390625 3.703125 9.890625 3.703125 9.1875 
C 3.703125 8.796875 10.203125 -2 24.5 -2 
C 40.59375 -2 49.40625 6.09375 49.40625 22.296875 
z
" id="LMSans10-Bold-53"/>
     <path d="M 50.296875 20.4375 
C 50.296875 29.515625 46 35.1875 38 37.5 
C 47.59375 40.6875 48.796875 47.78125 48.796875 52.34375 
C 48.796875 67.1875 39.40625 72 27.5 72 
C 16.59375 72 6.09375 68.09375 6.09375 52.34375 
C 6.09375 46.96875 7.90625 40.5 16.90625 37.5 
C 6.59375 34.59375 4.59375 26.71875 4.59375 20.4375 
C 4.59375 4.890625 13 -2 27.40625 -2 
C 42.5 -2 50.296875 5.5 50.296875 20.4375 
z
M 36 52.25 
C 36 46.359375 35.90625 41.1875 27.5 41.1875 
C 19.09375 41.1875 18.90625 46.15625 18.90625 52.25 
C 18.90625 59.234375 19.5 63.09375 27.40625 63.09375 
C 35.296875 63.09375 36 59.4375 36 52.25 
z
M 36.40625 20.640625 
C 36.40625 13.171875 36.203125 7.390625 27.5 7.390625 
C 18.703125 7.390625 18.5 12.96875 18.5 20.640625 
C 18.5 27.125 18.5 34 27.40625 34 
C 36.40625 34 36.40625 27.21875 36.40625 20.640625 
z
" id="LMSans10-Bold-56"/>
    </defs>
    <g transform="translate(144.171216 177.201408)scale(0.1 -0.1)">
     <use transform="scale(0.143462)" xlink:href="#LMSans10-Bold-36"/>
     <use transform="translate(7.890409 0)scale(0.143462)" xlink:href="#LMSans10-Bold-49"/>
     <use transform="translate(15.780818 0)scale(0.143462)" xlink:href="#LMSans10-Bold-57"/>
     <use transform="translate(23.671227 0)scale(0.143462)" xlink:href="#LMSans10-Bold-53"/>
     <use transform="translate(31.561637 0)scale(0.143462)" xlink:href="#LMSans10-Bold-44"/>
     <use transform="translate(35.945101 0)scale(0.143462)" xlink:href="#LMSans10-Bold-53"/>
     <use transform="translate(43.83551 0)scale(0.143462)" xlink:href="#LMSans10-Bold-56"/>
     <use transform="translate(51.725919 0)scale(0.143462)" xlink:href="#LMSans10-Bold-48"/>
    </g>
    <!-- 83 Donors -->
    <defs>
     <path d="M 43 18 
C 43 24.59375 39.09375 31.59375 30.203125 35.09375 
C 37.796875 37.59375 41.703125 43.640625 41.703125 49.59375 
C 41.703125 58.96875 33.703125 67 23.5 67 
C 12.90625 67 5.203125 58.671875 5.203125 49.59375 
C 5.203125 43.734375 9 37.6875 16.703125 35.09375 
C 6.90625 31.296875 3.90625 23.6875 3.90625 18 
C 3.90625 7 12.796875 -2 23.40625 -2 
C 34.40625 -2 43 7.1875 43 18 
z
M 34.59375 49.484375 
C 34.59375 42.234375 29.796875 38.09375 23.5 38.09375 
C 16.796875 38.09375 12.296875 42.625 12.296875 49.484375 
C 12.296875 56.453125 16.796875 60.890625 23.5 60.890625 
C 29.703125 60.890625 34.59375 56.859375 34.59375 49.484375 
z
M 35.203125 18.09375 
C 35.203125 7.6875 28.59375 4.1875 23.5 4.1875 
C 17.796875 4.1875 11.703125 8.09375 11.703125 18.09375 
C 11.703125 28.390625 18.5 32 23.40625 32 
C 28.796875 32 35.203125 28.1875 35.203125 18.09375 
z
" id="LMSans17-Regular-56"/>
     <path d="M 62.5 33.890625 
C 62.5 53.0625 49.90625 69 33.5 69 
L 8.90625 69 
L 8.90625 0 
L 33.5 0 
C 49.90625 0 62.5 15.328125 62.5 33.890625 
z
M 54.296875 33.890625 
C 54.296875 17.3125 44.796875 5.59375 31.296875 5.59375 
L 17.09375 5.59375 
L 17.09375 63.390625 
L 31.296875 63.390625 
C 44.703125 63.390625 54.296875 51.171875 54.296875 33.890625 
z
" id="LMSans17-Regular-68"/>
    </defs>
    <g transform="translate(152.712026 187.440843)scale(0.1 -0.1)">
     <use transform="scale(0.996264)" xlink:href="#LMSans17-Regular-56"/>
     <use transform="translate(46.844004 0)scale(0.996264)" xlink:href="#LMSans17-Regular-51"/>
     <use transform="translate(124.917029 0)scale(0.996264)" xlink:href="#LMSans17-Regular-68"/>
     <use transform="translate(192.464628 0)scale(0.996264)" xlink:href="#LMSans17-Regular-111"/>
     <use transform="translate(239.308632 0)scale(0.996264)" xlink:href="#LMSans17-Regular-110"/>
     <use transform="translate(287.513195 0)scale(0.996264)" xlink:href="#LMSans17-Regular-111"/>
     <use transform="translate(331.754745 0)scale(0.996264)" xlink:href="#LMSans17-Regular-114"/>
     <use transform="translate(363.666326 0)scale(0.996264)" xlink:href="#LMSans17-Regular-115"/>
    </g>
   </g>
   <g id="text_13">
    <!-- \bf \Large \sffamily \$429,377 -->
    <defs>
     <path d="M 51.796875 19.6875 
C 51.796875 23.390625 50.5 24.390625 47 24.390625 
L 42.796875 24.390625 
L 42.796875 64.203125 
C 42.796875 67.796875 41.703125 69 38 69 
L 30.703125 69 
C 28.796875 69 27.296875 69 26.09375 66.703125 
L 3.90625 25.890625 
C 3.09375 24.390625 3.09375 24.09375 3.09375 22.296875 
L 3.09375 19.796875 
C 3.09375 16.59375 3.796875 15 7.90625 15 
L 30.40625 15 
L 30.40625 4.484375 
C 30.40625 1.59375 31.09375 0 35.203125 0 
L 38 0 
C 41.796875 -0.3125 42.796875 0.984375 42.796875 4.484375 
L 42.796875 15 
L 47 15 
C 50.09375 15 51.796875 15.6875 51.796875 19.6875 
z
M 31 24.390625 
L 13.5 24.390625 
C 29.5 53.796875 30.40625 56.890625 30.90625 58.59375 
L 31 58.59375 
z
" id="LMSans10-Bold-52"/>
     <path d="M 50.296875 20.4375 
C 50.296875 29.40625 45.5 35.5 36.5 37.796875 
C 44.59375 42.203125 47.296875 48.796875 47.296875 54.578125 
C 47.296875 70.6875 33 72 26.5 72 
C 12.796875 72 6.09375 62.1875 6.09375 61.375 
C 6.09375 60.765625 6.796875 59.84375 6.796875 59.84375 
L 9.59375 55.796875 
C 10.40625 54.578125 11.09375 54.578125 11.09375 54.578125 
C 11.796875 54.578125 12 54.984375 12.5 55.6875 
C 17.59375 63.09375 24.703125 63.09375 26 63.09375 
C 32.40625 63.09375 33.296875 59.75 33.296875 54.78125 
C 33.296875 53.359375 33.296875 48.484375 30.203125 44.640625 
C 27.796875 41.796875 25.296875 41.59375 22.296875 41.390625 
C 21.203125 41.296875 19.296875 41.1875 19 41 
C 18.296875 40.6875 18.296875 40.09375 18.296875 38.5 
L 18.296875 36.6875 
C 18.296875 34.09375 18.40625 34 21 34 
L 25.40625 34 
C 34.5 34 35.59375 28.3125 35.59375 20.640625 
C 35.59375 13.96875 34.90625 7.390625 25.796875 7.390625 
C 22.59375 7.390625 15.203125 8.09375 8.5 14.359375 
C 7.59375 15.265625 7.5 15.359375 7.09375 15.359375 
C 6.09375 15.359375 5.90625 14.46875 5.796875 14.265625 
C 5.796875 14.265625 4.59375 7.890625 4.59375 7.390625 
C 4.59375 6.09375 13.203125 -2 26.296875 -2 
C 43.5 -2 50.296875 7.1875 50.296875 20.4375 
z
" id="LMSans10-Bold-51"/>
     <path d="M 50.296875 63.984375 
C 50.296875 66.1875 50.296875 68.890625 46.09375 69 
L 17.703125 70 
L 11.40625 70 
C 6.59375 70 4.59375 70 4.59375 65.1875 
L 4.59375 63.890625 
C 4.59375 62.296875 4.59375 60.390625 6.703125 59.484375 
C 7.40625 58.1875 10.703125 58.1875 12.796875 58.1875 
L 19.796875 59.1875 
L 36.703125 59.1875 
C 14.296875 34.328125 14.296875 8.953125 14.296875 3.828125 
C 14.296875 0.609375 15 -1 19.09375 -1 
L 23.703125 -1 
C 25.296875 -1 28.5 -1 28.5 2.921875 
C 28.796875 27.875 37.5 46.109375 49.5 61.296875 
C 50.296875 62.296875 50.296875 63.09375 50.296875 64.890625 
z
" id="LMSans10-Bold-55"/>
    </defs>
    <g transform="translate(221.650145 23.788794)scale(0.1 -0.1)">
     <use transform="scale(0.143462)" xlink:href="#LMSans10-Bold-36"/>
     <use transform="translate(7.890409 0)scale(0.143462)" xlink:href="#LMSans10-Bold-52"/>
     <use transform="translate(15.780818 0)scale(0.143462)" xlink:href="#LMSans10-Bold-50"/>
     <use transform="translate(23.671227 0)scale(0.143462)" xlink:href="#LMSans10-Bold-57"/>
     <use transform="translate(31.561637 0)scale(0.143462)" xlink:href="#LMSans10-Bold-44"/>
     <use transform="translate(35.945101 0)scale(0.143462)" xlink:href="#LMSans10-Bold-51"/>
     <use transform="translate(43.83551 0)scale(0.143462)" xlink:href="#LMSans10-Bold-55"/>
     <use transform="translate(51.725919 0)scale(0.143462)" xlink:href="#LMSans10-Bold-55"/>
    </g>
    <!-- 235 Donors -->
    <g transform="translate(227.700295 34.028228)scale(0.1 -0.1)">
     <use transform="scale(0.996264)" xlink:href="#LMSans17-Regular-50"/>
     <use transform="translate(46.844004 0)scale(0.996264)" xlink:href="#LMSans17-Regular-51"/>
     <use transform="translate(93.688007 0)scale(0.996264)" xlink:href="#LMSans17-Regular-53"/>
     <use transform="translate(171.761032 0)scale(0.996264)" xlink:href="#LMSans17-Regular-68"/>
     <use transform="translate(239.308632 0)scale(0.996264)" xlink:href="#LMSans17-Regular-111"/>
     <use transform="translate(286.152636 0)scale(0.996264)" xlink:href="#LMSans17-Regular-110"/>
     <use transform="translate(334.357199 0)scale(0.996264)" xlink:href="#LMSans17-Regular-111"/>
     <use transform="translate(378.598748 0)scale(0.996264)" xlink:href="#LMSans17-Regular-114"/>
     <use transform="translate(410.51033 0)scale(0.996264)" xlink:href="#LMSans17-Regular-115"/>
    </g>
   </g>
   <g id="text_14">
    <!-- \bf \Large \sffamily \$84,950 -->
    <g transform="translate(303.074279 249.794459)scale(0.1 -0.1)">
     <use transform="scale(0.143462)" xlink:href="#LMSans10-Bold-36"/>
     <use transform="translate(7.890409 0)scale(0.143462)" xlink:href="#LMSans10-Bold-56"/>
     <use transform="translate(15.780818 0)scale(0.143462)" xlink:href="#LMSans10-Bold-52"/>
     <use transform="translate(23.671227 0)scale(0.143462)" xlink:href="#LMSans10-Bold-44"/>
     <use transform="translate(28.054692 0)scale(0.143462)" xlink:href="#LMSans10-Bold-57"/>
     <use transform="translate(35.945101 0)scale(0.143462)" xlink:href="#LMSans10-Bold-53"/>
     <use transform="translate(43.83551 0)scale(0.143462)" xlink:href="#LMSans10-Bold-48"/>
    </g>
    <!-- 63 Donors -->
    <defs>
     <path d="M 43 21.6875 
C 43 34.09375 36.90625 45.09375 27.796875 45.09375 
C 21.203125 45.09375 15.5 41.59375 12 37.1875 
C 13 51.40625 19.59375 60.890625 29.09375 60.890625 
C 31.703125 60.890625 35.09375 60.484375 39 58.796875 
L 39 65 
C 34.796875 66.6875 31.796875 67 29 67 
C 16 67 3.90625 53.375 3.90625 31.796875 
C 3.90625 4.1875 15.40625 -2 23.59375 -2 
C 28.09375 -2 32.59375 -0.609375 36.90625 4.390625 
C 41.296875 9.671875 43 14.0625 43 21.75 
z
M 35.09375 21.75 
C 35.09375 17.859375 35.09375 13.96875 32.796875 9.96875 
C 30.90625 6.890625 28.40625 4.1875 23.59375 4.1875 
C 14.09375 4.1875 12.5 17.453125 12.09375 21.4375 
C 12.09375 22.234375 12.09375 22.734375 12.203125 24.234375 
C 12.203125 32.015625 16.703125 39 24 39 
C 28.703125 39 31.09375 36.5 32.90625 33.40625 
C 35 29.515625 35.09375 25.828125 35.09375 21.75 
z
" id="LMSans17-Regular-54"/>
    </defs>
    <g transform="translate(307.669884 260.033894)scale(0.1 -0.1)">
     <use transform="scale(0.996264)" xlink:href="#LMSans17-Regular-54"/>
     <use transform="translate(46.844004 0)scale(0.996264)" xlink:href="#LMSans17-Regular-51"/>
     <use transform="translate(124.917029 0)scale(0.996264)" xlink:href="#LMSans17-Regular-68"/>
     <use transform="translate(192.464628 0)scale(0.996264)" xlink:href="#LMSans17-Regular-111"/>
     <use transform="translate(239.308632 0)scale(0.996264)" xlink:href="#LMSans17-Regular-110"/>
     <use transform="translate(287.513195 0)scale(0.996264)" xlink:href="#LMSans17-Regular-111"/>
     <use transform="translate(331.754745 0)scale(0.996264)" xlink:href="#LMSans17-Regular-114"/>
     <use transform="translate(363.666326 0)scale(0.996264)" xlink:href="#LMSans17-Regular-115"/>
    </g>
   </g>
   <g id="text_15">
    <!-- \bf \Large \sffamily \$21,380 -->
    <g transform="translate(380.553208 291.50774)scale(0.1 -0.1)">
     <use transform="scale(0.143462)" xlink:href="#LMSans10-Bold-36"/>
     <use transform="translate(7.890409 0)scale(0.143462)" xlink:href="#LMSans10-Bold-50"/>
     <use transform="translate(15.780818 0)scale(0.143462)" xlink:href="#LMSans10-Bold-49"/>
     <use transform="translate(23.671227 0)scale(0.143462)" xlink:href="#LMSans10-Bold-44"/>
     <use transform="translate(28.054692 0)scale(0.143462)" xlink:href="#LMSans10-Bold-51"/>
     <use transform="translate(35.945101 0)scale(0.143462)" xlink:href="#LMSans10-Bold-56"/>
     <use transform="translate(43.83551 0)scale(0.143462)" xlink:href="#LMSans10-Bold-48"/>
    </g>
    <!-- 24 Donors -->
    <g transform="translate(385.148813 301.747174)scale(0.1 -0.1)">
     <use transform="scale(0.996264)" xlink:href="#LMSans17-Regular-50"/>
     <use transform="translate(46.844004 0)scale(0.996264)" xlink:href="#LMSans17-Regular-52"/>
     <use transform="translate(124.917029 0)scale(0.996264)" xlink:href="#LMSans17-Regular-68"/>
     <use transform="translate(192.464628 0)scale(0.996264)" xlink:href="#LMSans17-Regular-111"/>
     <use transform="translate(239.308632 0)scale(0.996264)" xlink:href="#LMSans17-Regular-110"/>
     <use transform="translate(287.513195 0)scale(0.996264)" xlink:href="#LMSans17-Regular-111"/>
     <use transform="translate(331.754745 0)scale(0.996264)" xlink:href="#LMSans17-Regular-114"/>
     <use transform="translate(363.666326 0)scale(0.996264)" xlink:href="#LMSans17-Regular-115"/>
    </g>
   </g>
  </g>
 </g>
 <defs>
  <clipPath id="p3104238c56">
   <rect height="295.835449" width="392.043382" x="55.436618" y="21.884551"/>
  </clipPath>
 </defs>
</svg>
