<svg id="Layer_1" data-name="Layer 1" xmlns="http://www.w3.org/2000/svg" viewBox="0 0 132 135"><defs><style>.cls-1{fill:#122647;}.cls-2{fill:#fdfdfe;}</style></defs><title>b</title><g id="Ellipse_2" data-name="Ellipse 2"><ellipse class="cls-1" cx="66" cy="67.5" rx="66" ry="67.5"/></g><path class="cls-1" d="M103.44,239.2H185c0,.48.11,1,.11,1.43q0,39.53,0,79.07V321H103.32v-.91q0-39.84,0-79.67C103.33,240,103.4,239.6,103.44,239.2Zm48.31,38.41v-1.92c0-1.72.1-3.45,0-5.16-.07-1-.18-2.33-1.41-2.5a8.8,8.8,0,0,0-3,.59c-.25.06-.45.28-.69.38a11,11,0,0,0-1.53.66c-1.68,1.12-3.34,2.29-5,3.46-1,.73-2,1.53-3.11,2.22-1.31.85-2.39,2.24-4.28,1.82-.6-.13-1-.24-1-.93,0-2,0-4.08,0-6.12.06-1.49-1.47-3-2.89-2.56a13,13,0,0,0-3.09,1.65c-.7.47-1.24,1.18-1.92,1.68-.45.34-1.07.44-1.56.74s-.6.75-1,.91a5.46,5.46,0,0,0-2.39,1.77,2.05,2.05,0,0,1-.89.77,11.47,11.47,0,0,0-4.69,2.59,4,4,0,0,0-1.63,3c0,10,.06,19.92,0,29.88a2.93,2.93,0,0,0,3.14,3.07c18.68,0,37.36,0,56,0,1.55,0,3.1-.31,4.65-.46.84-.08,1.15-.54,1.14-1.35,0-2,.06-4.09-.07-6.12-.22-3.58-.52-7.17-.87-10.74-.16-1.59.48-3.27-.49-4.77,0-.06.07-.2.09-.31.1-.62.46-1.35.25-1.85-.81-1.92-.7-3.93-.79-5.92a31.92,31.92,0,0,1,0-4.79c.15-1.49-.54-2.88-.16-4.44a4.5,4.5,0,0,0-.64-4c-.18-.23-.11-.69-.12-1-.07-3.88-.07-7.76-.21-11.64-.06-1.44-.47-2.87-.63-4.32-.13-1.06-.09-2.14-.16-3.21a1.59,1.59,0,0,0-.29-1,2.65,2.65,0,0,0-1.39-.71c-2.38-.14-4.76-.21-7.14-.25a3.13,3.13,0,0,0-3.45,3.45c0,1.66.07,3.32,0,5,0,.77-.52,1.53-.58,2.31-.46,5.61-.82,11.24-1.3,16.85-.24,2.85.45,5.75-.75,8.54-.39.9-.16,2.06-.27,3.09a3.16,3.16,0,0,1-.38.87c-.16-.3-.45-.59-.46-.89-.06-2.16-.06-4.33-.08-6.49v-1.77Z" transform="translate(-78 -212.5)"/><path class="cls-2" d="M103.44,239.2c0,.4-.11.79-.11,1.19q0,39.83,0,79.67V321h81.84V319.7q0-39.54,0-79.07c0-.48-.07-.95-.11-1.43a5.21,5.21,0,0,1,.23,1.08q0,27.54,0,55.08v25.92H103.2q0-40.5,0-81A5.21,5.21,0,0,1,103.44,239.2Z" transform="translate(-78 -212.5)"/><path class="cls-2" d="M151.75,277.61h5v1.77c0,2.16,0,4.33.08,6.49,0,.3.3.59.46.89a3.16,3.16,0,0,0,.38-.87c.11-1-.12-2.19.27-3.09,1.2-2.79.51-5.69.75-8.54.48-5.61.84-11.24,1.3-16.85.06-.78.54-1.54.58-2.31.09-1.65,0-3.31,0-5a3.13,3.13,0,0,1,3.45-3.45c2.38,0,4.76.11,7.14.25a2.65,2.65,0,0,1,1.39.71,1.59,1.59,0,0,1,.29,1c.07,1.07,0,2.15.16,3.21.16,1.45.57,2.88.63,4.32.14,3.88.14,7.76.21,11.64,0,.35-.06.81.12,1a4.5,4.5,0,0,1,.64,4c-.38,1.56.31,2.95.16,4.44a31.92,31.92,0,0,0,0,4.79c.09,2,0,4,.79,5.92.21.5-.15,1.23-.25,1.85,0,.11-.13.25-.09.31,1,1.5.33,3.18.49,4.77.35,3.57.65,7.16.87,10.74.13,2,0,4.08.07,6.12,0,.81-.3,1.27-1.14,1.35-1.55.15-3.1.45-4.65.46-18.67,0-37.35,0-56,0a2.93,2.93,0,0,1-3.14-3.07c.08-10,.06-19.92,0-29.88a4,4,0,0,1,1.63-3,11.47,11.47,0,0,1,4.69-2.59,2.05,2.05,0,0,0,.89-.77,5.46,5.46,0,0,1,2.39-1.77c.38-.16.61-.67,1-.91s1.11-.4,1.56-.74c.68-.5,1.22-1.21,1.92-1.68a13,13,0,0,1,3.09-1.65c1.42-.46,2.95,1.07,2.89,2.56-.07,2,0,4.08,0,6.12,0,.69.36.8,1,.93,1.89.42,3-1,4.28-1.82,1.07-.69,2.06-1.49,3.11-2.22,1.65-1.17,3.31-2.34,5-3.46a11,11,0,0,1,1.53-.66c.24-.1.44-.32.69-.38a8.8,8.8,0,0,1,3-.59c1.23.17,1.34,1.51,1.41,2.5.13,1.71,0,3.44,0,5.16Zm-6.81,25.91a23.25,23.25,0,0,0,3.13,0c.41-.05,1.06-.54,1.1-.9.21-1.67.26-3.35.33-5a1.78,1.78,0,0,0-1.89-1.9h-3.37C143.77,298.32,143.3,300.93,144.94,303.52Zm-13.12-7.9c0,2.36-.5,4.93.49,7.41a1.3,1.3,0,0,0,.93.64c.78,0,1.57-.21,2.34-.19.94,0,1.18-.49,1.19-1.23,0-1.71,0-3.43,0-5.14,0-1-.41-1.62-1.59-1.51S133.08,295.62,131.82,295.62Zm4.94-12.95H133.6c-1.34,0-1.85.5-1.86,1.84a36.33,36.33,0,0,0,0,4.55A2.31,2.31,0,0,0,133,290.7a7.5,7.5,0,0,0,2.44-.08,1.33,1.33,0,0,0,1.27-1.38C136.82,287.1,136.76,285,136.76,282.67Zm12.07,0h-3.19c-1.27,0-1.72.38-1.76,1.65a44.67,44.67,0,0,0,0,4.91A1.75,1.75,0,0,0,145,290.5a26.87,26.87,0,0,0,3.84.06Zm-29,20.85c1.14,0,2.17.05,3.2,0a1.65,1.65,0,0,0,1.56-1.72c.09-1.51,0-3,0-4.55a1.45,1.45,0,0,0-1.41-1.58,34.35,34.35,0,0,0-3.53,0A35.83,35.83,0,0,0,119.82,303.52Zm-.15-12.94c1.26,0,2.3,0,3.33,0a1.34,1.34,0,0,0,1.52-1.54c-.2-2.14.81-4.51-1-6.3h-3.81Z" transform="translate(-78 -212.5)"/><path class="cls-1" d="M144.94,303.52c-1.64-2.59-1.17-5.2-.7-7.89h3.37a1.78,1.78,0,0,1,1.89,1.9c-.07,1.69-.12,3.37-.33,5,0,.36-.69.85-1.1.9A23.25,23.25,0,0,1,144.94,303.52Z" transform="translate(-78 -212.5)"/><path class="cls-1" d="M131.82,295.62c1.26,0,2.31.07,3.35,0s1.57.51,1.59,1.51c0,1.71,0,3.43,0,5.14,0,.74-.25,1.26-1.19,1.23-.77,0-1.56.21-2.34.19a1.3,1.3,0,0,1-.93-.64C131.32,300.55,131.82,298,131.82,295.62Z" transform="translate(-78 -212.5)"/><path class="cls-1" d="M136.76,282.67c0,2.28.06,4.43,0,6.57a1.33,1.33,0,0,1-1.27,1.38,7.5,7.5,0,0,1-2.44.08,2.31,2.31,0,0,1-1.22-1.64,36.33,36.33,0,0,1,0-4.55c0-1.34.52-1.84,1.86-1.84Z" transform="translate(-78 -212.5)"/><path class="cls-1" d="M148.83,282.67v7.89a26.87,26.87,0,0,1-3.84-.06,1.75,1.75,0,0,1-1.08-1.27,44.67,44.67,0,0,1,0-4.91c0-1.27.49-1.64,1.76-1.65Z" transform="translate(-78 -212.5)"/><path class="cls-1" d="M119.82,303.52a35.83,35.83,0,0,1-.15-7.89,34.35,34.35,0,0,1,3.53,0,1.45,1.45,0,0,1,1.41,1.58c0,1.52.06,3,0,4.55a1.65,1.65,0,0,1-1.56,1.72C122,303.57,121,303.52,119.82,303.52Z" transform="translate(-78 -212.5)"/><path class="cls-1" d="M119.67,290.58v-7.84h3.81c1.85,1.79.84,4.16,1,6.3a1.34,1.34,0,0,1-1.52,1.54C122,290.56,120.93,290.58,119.67,290.58Z" transform="translate(-78 -212.5)"/><rect class="cls-1" x="19.83" y="24.35" width="10.19" height="87.5"/><rect class="cls-1" x="104.09" y="21.11" width="7.87" height="90.74"/><rect class="cls-1" x="30.02" y="106.76" width="78.01" height="9.26"/></svg>