<svg id="Layer_1" data-name="Layer 1" xmlns="http://www.w3.org/2000/svg" viewBox="0 0 132 135"><defs><style>.cls-1{fill:#02865c;}.cls-2{fill:#03865c;}.cls-3{fill:#fdfefe;}</style></defs><title>g</title><g id="Ellipse_2" data-name="Ellipse 2"><ellipse class="cls-1" cx="66" cy="67.5" rx="66" ry="67.5"/></g><path class="cls-2" d="M93.48,318.28V242.2H195v76.08Zm59.61-29.49c-.43-.37-.33-.81-.33-1.24,0-2.51,0-5,0-7.55s.25-5-.23-7.38l-.82-1L150,270.43c-.31.53-.72.26-1.09.35l-.36-.49H134.22a19,19,0,0,0-1.69,1.07c-.46.35-1,.66-1.45,1.07l.55.63v15.38l-.45.16v.64h4.55v15l.87,1.14h10.07l.42.42.94-.64a3.21,3.21,0,0,1-.32-1.5c0-4.44,0-8.88,0-13.32l.79-1.08h4.14Zm-27.45-18.64V259.27l-1.42-.91c.07-.49-.3-.77-.62-1-1.21-.19-2.41.26-3.51-.39a1.06,1.06,0,0,1,1-.81c.51-.07.63-.36.75-.73l.66-.08,1.19-2.46v-3.17c-.66-.27-.38-1.26-1.34-1.57h-.47l-.34-.87c-.94-.07-1.07-.14-2.07-1h-1.91l-.48.48h-.78a6,6,0,0,0-2.57,2.88c-.56-.15-.77.32-1.08.59v3.13l1.44,1.43v.49c.6.57,1.48.79,2,1.66l-.58.24.12.16h-3.23c-.1.19-.19.35-.27.52a7.81,7.81,0,0,1-.67,1.36,2.7,2.7,0,0,0-.77,1.62v9.43l.91,1h2c0,3,0,6,0,8.93a2.27,2.27,0,0,0,.87,2h6.74l1.24-.62a7.75,7.75,0,0,0,.28-3.11c0-2.08,0-4.16,0-6.15l.35-.67h1.47c.18-.22.54-.45.55-.7C125.14,270.6,125.42,270.42,125.64,270.15ZM164,282.28h5.21l1.25-.62a7.93,7.93,0,0,0,.27-3.11c0-2.08,0-4.16,0-6.15l.35-.67h1.33c.8-.29.59-1.22,1.2-1.57v-9.57c-.65-1.29-.94-2.56-2-3.22-1.14-.24-2.39.3-3.5-.44a1.1,1.1,0,0,1,1.07-.78c.53,0,.56-.45.78-.78a.58.58,0,0,0,.79-.31c.21-.39.33-.82.51-1.23s.3-.52.46-.8v-2.57l-.48-.48v-1.2l-2-2H168l-.46-.46H165.6l-.46.46-.64,0a3.55,3.55,0,0,0-.94.63c-.23.29-.69.26-.82.72,0,.18-.58.23-.86.33v.7l-.7.59v3.69l.35.07.69,1.86a4.94,4.94,0,0,1,1.92,1.53l-.57.28.13.17h-3.24c-.16.36-.23.88-.49,1-.47.21,0,.78-.53.95-.28.08-.45.55-.67.84V270.3l.83,1h1.89c.46.22.39.6.39,1v8.84l2.15.36Zm-40.26,26.16-.11-1h-1.6c-1.19-.39-1.33-1.18-1.16-2.18.84.19.91-.4,1-.94h1.32l1.55-.62v-.59h1.81l.13-.73h.69l.66-.78.62.55h2.2c.22-.61.78-.76,1.12-.95l.6-1.16v-.76h-.93v-1a8.61,8.61,0,0,0-2.51.23,5.92,5.92,0,0,1-2.67.51,1,1,0,0,0-.55.1,4,4,0,0,1-2.06.37c-.85,1-2.32.69-3.13,1.7h-1l-.08,1h-1.17c-.08.23-.16.43-.22.65s-.11.47-.17.7l.1.1c0,.6-.57.66-.87,1v2.22l.7.68v.53l.7.45a3.58,3.58,0,0,0,1.13,1.78h.62l.47.48h1.29c.3.23.59.61.91.65a3.41,3.41,0,0,1,2,1.29H128c.21.57.84.3,1.17.54a3.06,3.06,0,0,0,2,.4h3.08l.35.46h17.1l.19-.46a11.25,11.25,0,0,0,2,0c.57-.11,1-.6,1.66-.45l.14-.49h2.45l.94-.94a4.87,4.87,0,0,0,2.62-.93c.15-.1.33-.28.48-.26.41,0,.63-.29.93-.39s.38-.53.65-.69.59-.31.91-.47l.4-.87h.56a3,3,0,0,1,.06-.42c.55-1.93.53-1.93,0-3.69a1.77,1.77,0,0,0-.37-.69c-.2-.25-.59-.23-.7-.65s-.49-.51-.73-.78a2.81,2.81,0,0,1-.27-.52l-1.36-.26-1.57-1.06-.39-.57c-.49,0-.94,0-1.37,0a2.08,2.08,0,0,1-.61-.28l-1.15.59-.36-.45L154.7,299l0-.66h-1.82c-.62,0-.77.7-1.26.87v1.26c.24.63.44,1,1.09,1.05.35,0,.69.43,1,.63h2.17l.2-.57.62.79,2.56.36.45.45h1v.89h.72l1.19.84v1c-.23.23-.47.45-.68.69a7.41,7.41,0,0,1-.45.61,5.06,5.06,0,0,1-.82.52h-.55c-.16.19-.24.37-.37.44a6.23,6.23,0,0,1-2.08.47,9.78,9.78,0,0,1-1.62,0l-.45.73h-2.29l-.63.71h-5.43a2.28,2.28,0,0,0-.83,0,15.8,15.8,0,0,1-2.21.51l-.38.38h-4.91l-.12-.68h-8c-.77-.77-1.77-.37-2.66-.5l-.47-.47a8.23,8.23,0,0,1-2.94-.31l-.12-.64Zm20.88-40.08,1.14-1.07,0-.7c.85.45,1.16-.61,1.82-.44a8.57,8.57,0,0,0,.38-.87c.11-.31.17-.64.25-.94.89-.43.63-1.58,1.35-2.09v-2.92c-.79-.34-.31-1.68-1.44-1.86v-.84l-.65-.76h-.43l-.45-.45-.86,0-.38-1h-.54l-.1-1a.65.65,0,0,1-1,.14c-.23-.15-.61-.06-.93-.07h-1.07l-1.07,0v.66h-1.3l-.45-.45-.51.47a1.52,1.52,0,0,0-1.71,1,4,4,0,0,0-.07.92.66.66,0,0,1-.11.2h-.49l-.47.94-.39.11v1.77l-.46.42v3l.49.38v1.49c.15.05.34.07.42.17.33.39.53.91,1.09,1.09.08,0,.13.18.16.28.3,1,1.14,1.32,2,1.66.44.18.87.41,1.53.72Zm28,17.23c.61.48,1.35.86,1.55,1.71a.44.44,0,0,0,.25.25c.62.17.92.8,1.49,1s1.16.49,1.68.71l-.86.88h-3.3l-.41-.41H170l-.68.62c0,.19,0,.55-.1.7-.37.37-.4,1-.77,1.22s-.46.9-.81,1h-1.9a2.6,2.6,0,0,0-.14-.85c-.14-.26-.41-.42-.41-.8,0-.21-.29-.43-.48-.67v-1.72h-.91l0-.91-.87-.05-.08-.35c-.55-.42-1.36-.34-1.87-.91s-1.33-.58-1.88-1.15l-.12.47H157l-2.13-1.5,1.32-1.12a13,13,0,0,0,1.59-.16,4.11,4.11,0,0,1,2-.27c.07-.6.15-1.08.18-1.57a1.1,1.1,0,0,0-.72-1.24v-.9l-.47-.26c0-.74,0-1.41,0-2.06h1.08l.35-.69-.36-1a2.76,2.76,0,0,0-1.7-1c-.41,0-.78-.41-1.28-.69h-.92c-.21-.31-.4-.6-.6-.87,0-.05-.14-.05-.28-.09l-.38.62v1l.49.39v2.52l1.41,1.93v1.66l-.6.79h-1.29v4.84l.78.79a12.76,12.76,0,0,0,1.26.31,13.66,13.66,0,0,0,1.43,0l1,1h1l2,2,0,.79.49.17v.53c.41.41,1,.72,1.11,1.16a6.7,6.7,0,0,0,1.56,2c.2.22.37.47.57.74l1,.51a4.33,4.33,0,0,1,1-.46c.39-.07.79,0,.92-.55l-.28-.42h.78a3.68,3.68,0,0,1,.6-.74,4.61,4.61,0,0,1,.81-.36v-.46l.84-.85h.64l.3-.48c1.83,0,3.59,0,5.34,0a11.16,11.16,0,0,1,1.7.28l.66.67h.49l.32.58.63-.56h1.94l.38.38.68-.51v-.75l-.75-.64-.28.25c-.47-.35-.92-.71-1.39-1s-1.07-.47-1.28-.88c-.3-.6-.79-.74-1.29-1-.34-.65-.65-.84-1.14-.7-.42-.83-1.24-1.31-1.78-2v-3.35l.48-.48a3.38,3.38,0,0,0-.08-1.23,1.7,1.7,0,0,1,.5-2.09V278.2h-4.85s-.09.1-.18.21l.2.31-.19,1.74.51.48v2.17C172.68,283.91,172.68,283.91,172.68,285.59Zm-65,3.61H128.9c-.05-.6-.13-1.17-.13-1.73,0-3.24,0-6.47,0-9.71a7.37,7.37,0,0,1,.29-3l-.43-.36h-3.13c-.36.54-.36.54-.31,2.42.31.76,1,.25,1.33.47a5.18,5.18,0,0,1,.32,1c0,1,0,2.08,0,3.11s.25,2-.22,3c0,.09-.06.29,0,.34.47.44.11,1,.22,1.33l-1.29,1.16H110.76c0-2.93,0-5.81,0-8.69a2.57,2.57,0,0,1,.92-2.36V274.4h-4Z" transform="translate(-78 -212.5)"/><path class="cls-3" d="M153.09,288.79l-.44.44h-4.14l-.79,1.08c0,4.44,0,8.88,0,13.32a3.21,3.21,0,0,0,.32,1.5l-.94.64-.42-.42H136.6l-.87-1.14v-15h-4.55v-.64l.45-.16V273.06l-.55-.63c.49-.41,1-.72,1.45-1.07a19,19,0,0,1,1.69-1.07h14.37l.36.49c.37-.09.78.18,1.09-.35l1.66,1.18.82,1c.48,2.4.18,4.89.23,7.38s0,5,0,7.55C152.76,288,152.66,288.42,153.09,288.79Z" transform="translate(-78 -212.5)"/><path class="cls-3" d="M125.64,270.15c-.22.27-.5.45-.51.88,0,.25-.37.48-.55.7h-1.47l-.35.67c0,2,0,4.07,0,6.15a7.75,7.75,0,0,1-.28,3.11l-1.24.62H114.5a2.27,2.27,0,0,1-.87-2c0-3,0-5.91,0-8.93h-2l-.91-1v-9.43a2.7,2.7,0,0,1,.77-1.62,7.81,7.81,0,0,0,.67-1.36c.08-.17.17-.33.27-.52h3.23l-.12-.16.58-.24c-.56-.87-1.44-1.09-2-1.66v-.49l-1.44-1.43v-3.13c.31-.27.52-.74,1.08-.59a6,6,0,0,1,2.57-2.88h.78l.48-.48h1.91c1,.85,1.13.92,2.07,1l.34.87h.47c1,.31.68,1.3,1.34,1.57v3.17l-1.19,2.46-.66.08c-.12.37-.24.66-.75.73a1.06,1.06,0,0,0-1,.81c1.1.65,2.3.2,3.51.39.32.23.69.51.62,1l1.42.91Z" transform="translate(-78 -212.5)"/><path class="cls-3" d="M164,282.28v-.86l-2.15-.36v-8.84c0-.36.07-.74-.39-1H159.6l-.83-1V260.12c.22-.29.39-.76.67-.84.54-.17.06-.74.53-.95.26-.11.33-.63.49-1h3.24l-.13-.17.57-.28a4.94,4.94,0,0,0-1.92-1.53l-.69-1.86-.35-.07v-3.69l.7-.59v-.7c.28-.1.82-.15.86-.33.13-.46.59-.43.82-.72a3.55,3.55,0,0,1,.94-.63l.64,0,.46-.46h1.92l.46.46h1.2l2,2V250l.48.48V253c-.16.28-.33.53-.46.8s-.3.84-.51,1.23a.58.58,0,0,1-.79.31c-.22.33-.25.73-.78.78a1.1,1.1,0,0,0-1.07.78c1.11.74,2.36.2,3.5.44,1.11.66,1.4,1.93,2,3.22v9.57c-.61.35-.4,1.28-1.2,1.57h-1.33l-.35.67c0,2,0,4.07,0,6.15a7.93,7.93,0,0,1-.27,3.11l-1.25.62Z" transform="translate(-78 -212.5)"/><path class="cls-3" d="M123.77,308.44h.84l.12.64a8.23,8.23,0,0,0,2.94.31l.47.47c.89.13,1.89-.27,2.66.5h8l.12.68h4.91l.38-.38a15.8,15.8,0,0,0,2.21-.51,2.28,2.28,0,0,1,.83,0h5.43l.63-.71h2.29l.45-.73a9.78,9.78,0,0,0,1.62,0,6.23,6.23,0,0,0,2.08-.47c.13-.07.21-.25.37-.44h.55a5.06,5.06,0,0,0,.82-.52,7.41,7.41,0,0,0,.45-.61c.21-.24.45-.46.68-.69v-1l-1.19-.84h-.72v-.89h-1l-.45-.45-2.56-.36-.62-.79-.2.57h-2.17c-.29-.2-.63-.61-1-.63-.65,0-.85-.42-1.09-1.05v-1.26c.49-.17.64-.87,1.26-.87h1.82l0,.66,2.16.39.36.45,1.15-.59a2.08,2.08,0,0,0,.61.28c.43,0,.88,0,1.37,0l.39.57,1.57,1.06,1.36.26a2.81,2.81,0,0,0,.27.52c.24.27.64.48.73.78s.5.4.7.65a1.77,1.77,0,0,1,.37.69c.51,1.76.53,1.76,0,3.69a3,3,0,0,0-.06.42h-.56l-.4.87c-.32.16-.63.3-.91.47s-.24.56-.65.69-.52.43-.93.39c-.15,0-.33.16-.48.26a4.87,4.87,0,0,1-2.62.93l-.94.94h-2.45l-.14.49c-.62-.15-1.09.34-1.66.45a11.25,11.25,0,0,1-2,0l-.19.46H134.6l-.35-.46h-3.08a3.06,3.06,0,0,1-2-.4c-.33-.24-1,0-1.17-.54h-2.93a3.41,3.41,0,0,0-2-1.29c-.32,0-.61-.42-.91-.65h-1.29l-.47-.48h-.62a3.58,3.58,0,0,1-1.13-1.78l-.7-.45v-.53l-.7-.68V304.7c.3-.35.85-.41.87-1l-.1-.1c.06-.23.11-.47.17-.7s.14-.42.22-.65h1.17l.08-1h1c.81-1,2.28-.7,3.13-1.7a4,4,0,0,0,2.06-.37,1,1,0,0,1,.55-.1,5.92,5.92,0,0,0,2.67-.51,8.61,8.61,0,0,1,2.51-.23v1h.93v.76l-.6,1.16c-.34.19-.9.34-1.12.95h-2.2l-.62-.55-.66.78h-.69l-.13.73h-1.81v.59l-1.55.62h-1.32c0,.54-.12,1.13-1,.94-.17,1,0,1.79,1.16,2.18h1.6Z" transform="translate(-78 -212.5)"/><path class="cls-3" d="M144.65,268.36h-4.21c-.66-.31-1.09-.54-1.53-.72-.85-.34-1.69-.67-2-1.66,0-.1-.08-.26-.16-.28-.56-.18-.76-.7-1.09-1.09-.08-.1-.27-.12-.42-.17V263l-.49-.38v-3l.46-.42V257.4l.39-.11.47-.94h.49a.66.66,0,0,0,.11-.2,4,4,0,0,1,.07-.92,1.52,1.52,0,0,1,1.71-1l.51-.47.45.45h1.3v-.66l1.07,0h1.07c.32,0,.7-.08.93.07a.65.65,0,0,0,1-.14l.1,1h.54l.38,1,.86,0,.45.45h.43l.65.76v.84c1.13.18.65,1.52,1.44,1.86v2.92c-.72.51-.46,1.66-1.35,2.09-.08.3-.14.63-.25.94a8.57,8.57,0,0,1-.38.87c-.66-.17-1,.89-1.82.44l0,.7Z" transform="translate(-78 -212.5)"/><path class="cls-3" d="M172.68,285.59c0-1.68,0-1.68.48-2.47V281l-.51-.48.19-1.74-.2-.31c.09-.11.14-.21.18-.21h4.85v1.11a1.7,1.7,0,0,0-.5,2.09,3.38,3.38,0,0,1,.08,1.23l-.48.48v3.35c.54.7,1.36,1.18,1.78,2,.49-.14.8,0,1.14.7.5.24,1,.38,1.29,1,.21.41.85.58,1.28.88s.92.69,1.39,1l.28-.25.75.64v.75l-.68.51-.38-.38h-1.94l-.63.56-.32-.58h-.49l-.66-.67a11.16,11.16,0,0,0-1.7-.28c-1.75,0-3.51,0-5.34,0l-.3.48h-.64l-.84.85v.46a4.61,4.61,0,0,0-.81.36,3.68,3.68,0,0,0-.6.74h-.78l.28.42c-.13.55-.53.48-.92.55a4.33,4.33,0,0,0-1,.46l-1-.51c-.2-.27-.37-.52-.57-.74a6.7,6.7,0,0,1-1.56-2c-.16-.44-.7-.75-1.11-1.16v-.53l-.49-.17,0-.79-2-2h-1l-1-1a13.66,13.66,0,0,1-1.43,0,12.76,12.76,0,0,1-1.26-.31l-.78-.79v-4.84H156l.6-.79V279.4l-1.41-1.93V275l-.49-.39v-1l.38-.62c.14,0,.24,0,.28.09.2.27.39.56.6.87h.92c.5.28.87.65,1.28.69a2.76,2.76,0,0,1,1.7,1l.36,1-.35.69h-1.08c0,.65,0,1.32,0,2.06l.47.26v.9a1.1,1.1,0,0,1,.72,1.24c0,.49-.11,1-.18,1.57a4.11,4.11,0,0,0-2,.27,13,13,0,0,1-1.59.16l-1.32,1.12,2.13,1.5H159l.12-.47c.55.57,1.37.58,1.88,1.15s1.32.49,1.87.91l.08.35.87.05,0,.91h.91v1.72c.19.24.48.46.48.67,0,.38.27.54.41.8a2.6,2.6,0,0,1,.14.85h1.9c.35-.06.33-.7.81-1s.4-.85.77-1.22c.15-.15.08-.51.1-.7l.68-.62h3.06l.41.41h3.3l.86-.88c-.52-.22-1.09-.48-1.68-.71s-.87-.86-1.49-1a.44.44,0,0,1-.25-.25C174,286.45,173.29,286.07,172.68,285.59Z" transform="translate(-78 -212.5)"/><path class="cls-3" d="M107.66,289.2V274.4h4v1.82a2.57,2.57,0,0,0-.92,2.36c.05,2.88,0,5.76,0,8.69h14.78l1.29-1.16c-.11-.34.25-.89-.22-1.33-.06,0,0-.25,0-.34.47-1,.16-2,.22-3s0-2.07,0-3.11a5.18,5.18,0,0,0-.32-1c-.36-.22-1,.29-1.33-.47-.05-1.88-.05-1.88.31-2.42h3.13l.43.36a7.37,7.37,0,0,0-.29,3c0,3.24,0,6.47,0,9.71,0,.56.08,1.13.13,1.73Z" transform="translate(-78 -212.5)"/></svg>