<?xml version="1.0" encoding="utf-8"?>
<!-- Generator: Adobe Illustrator 22.1.0, SVG Export Plug-In . SVG Version: 6.00 Build 0)  -->
<svg version="1.1" id="Layer_1" xmlns="http://www.w3.org/2000/svg" xmlns:xlink="http://www.w3.org/1999/xlink" x="0px" y="0px"
	 width="132" height="135" viewBox="0 0 132 135" style="enable-background:new 0 0 132 135;" xml:space="preserve">
<style type="text/css">
	.st0{fill:#02865C;}
	.st1{fill:#FFFFFF;}
</style>
<title>g</title>
<g id="Ellipse_2">
	<ellipse class="st0" cx="66" cy="67.5" rx="66" ry="67.5"/>
</g>
<g>
	<g>
		<g>
			<path class="st1" d="M92.7,89.1c0.9-1.2,1.5-2.8,1.5-4.4c0-4.1-3.4-7.5-7.5-7.5s-7.5,3.4-7.5,7.5c0,1.7,0.5,3.2,1.5,4.5
				c-1.7,0.8-3.2,2-4.3,3.5c-1.1-1.5-2.6-2.8-4.4-3.5c0.9-1.2,1.5-2.8,1.5-4.4c0-4.1-3.4-7.5-7.5-7.5c-4.1,0-7.5,3.4-7.5,7.5
				c0,1.7,0.5,3.2,1.5,4.5c-1.7,0.8-3.2,2-4.3,3.5c-1.1-1.5-2.6-2.8-4.4-3.5c0.9-1.2,1.5-2.8,1.5-4.4c0-4.1-3.4-7.5-7.5-7.5
				s-7.5,3.4-7.5,7.5c0,1.7,0.5,3.2,1.5,4.5c-3.7,1.6-6.3,5.3-6.3,9.6v1.9h66v-1.9C99,94.4,96.4,90.7,92.7,89.1z"/>
		</g>
	</g>
	<g>
		<g>
			<polygon class="st1" points="79.3,56.8 71,54.2 66,47.1 60.9,54.2 52.7,56.8 57.8,63.7 57.8,72.4 66,69.7 74.2,72.4 74.1,63.7 
							"/>
		</g>
	</g>
	<g>
		<g>
			<rect x="64.1" y="34.4" class="st1" width="3.9" height="5.6"/>
		</g>
	</g>
	<g>
		<g>
			<rect x="87.5" y="57.8" class="st1" width="5.6" height="3.9"/>
		</g>
	</g>
	<g>
		<g>
			<rect x="38.9" y="57.8" class="st1" width="5.6" height="3.9"/>
		</g>
	</g>
	<g>
		<g>
			
				<rect x="81.1" y="41.6" transform="matrix(0.7071 -0.7071 0.7071 0.7071 -6.1043 72.4296)" class="st1" width="6.5" height="3.9"/>
		</g>
	</g>
	<g>
		<g>
			
				<rect x="45.7" y="40.3" transform="matrix(0.7071 -0.7071 0.7071 0.7071 -16.8555 46.4214)" class="st1" width="3.9" height="6.5"/>
		</g>
	</g>
</g>
</svg>
