<?xml version="1.0" encoding="utf-8"?>
<!-- Generator: Adobe Illustrator 22.1.0, SVG Export Plug-In . SVG Version: 6.00 Build 0)  -->
<svg version="1.1" id="Layer_1" xmlns="http://www.w3.org/2000/svg" xmlns:xlink="http://www.w3.org/1999/xlink" x="0px" y="0px"
	 width="132" height="135" viewBox="0 0 132 135" style="enable-background:new 0 0 132 135;" xml:space="preserve">
<style type="text/css">
	.st0{fill:#6C010D;}
	.st1{fill:#FFFFFF;}
</style>
<title>i</title>
<g id="Ellipse_2">
	<ellipse class="st0" cx="66" cy="67.5" rx="66" ry="67.5"/>
</g>
<g>
	<path class="st1" d="M66,66.7c8.4,0,15.3-8.3,15.3-18.6c0-10.2-2.2-18.6-15.3-18.6s-15.3,8.3-15.3,18.6
		C50.7,58.4,57.6,66.7,66,66.7z"/>
	<path class="st1" d="M37.1,95C37.1,94.4,37.1,94.8,37.1,95L37.1,95z"/>
	<path class="st1" d="M94.9,95.5C94.9,95.3,94.9,94.3,94.9,95.5L94.9,95.5z"/>
	<path class="st1" d="M94.8,94.3c-0.3-17.9-2.6-22.9-20.5-26.2c0,0-2.5,3.2-8.4,3.2c-5.9,0-8.4-3.2-8.4-3.2
		C40,71.3,37.5,76.3,37.2,93.7c0,1.4,0,1.5,0,1.3c0,0.3,0,0.9,0,1.9c0,0,4.2,8.6,28.9,8.6c24.6,0,28.9-8.6,28.9-8.6
		c0-0.6,0-1.1,0-1.4C94.8,95.6,94.8,95.4,94.8,94.3z"/>
</g>
</svg>
