<svg id="Layer_1" data-name="Layer 1" xmlns="http://www.w3.org/2000/svg" viewBox="0 0 132 135"><defs><style>.cls-1{fill:#6c010d;}.cls-2{fill:#fefdfd;}</style></defs><title>i</title><g id="Ellipse_2" data-name="Ellipse 2"><ellipse class="cls-1" cx="66" cy="67.5" rx="66" ry="67.5"/></g><path class="cls-1" d="M101.28,323V237.36H187.2V323Zm72.3-16c-.1-.84-.25-1.76-.29-2.68,0-1.24,0-2.48,0-3.72a13.71,13.71,0,0,0-.34-4.42l-.58-.05a1.45,1.45,0,0,1,.13-1,1,1,0,0,0-.15-1.08,1.29,1.29,0,0,1-.16-.93c.12-.41-.22-.65-.14-1l-.33-.08c-.35-.62-.11-1.53-1.1-1.76v-1c-.15,0-.31,0-.36-.1a6.38,6.38,0,0,1-.75-1.25c-.15-.39-.39-.77-.72-.84-.49-.09-.41-.6-.74-.75h-.3l-2.53-1.87c-1-.14-1.7-1.21-2.89-1l-.65-.78-2.31-.29a4.18,4.18,0,0,0-3.14-.89c-1.6.05-3.2,0-4.8,0-.06,0-.13.06-.2.1l0,.46-1,.53c-.29-.06-.55-.19-.72-.11-.79.32-1.55.7-2.32,1.07l-.16.06c-.3-.46-.53,0-.61,0-.46-.09-.88-.3-1-.19-.33.3-.68.19-1,.19a25.78,25.78,0,0,1-2.78-.18,8.94,8.94,0,0,1-3.27-.85,4.36,4.36,0,0,0-.93-.23l-1.21-1.09h-4.55l-.19.55c-.49-.53-1-.33-1.45-.07a4.85,4.85,0,0,1-1.38.45c-.51.1-1,.27-1.57.42-.43-.22-.44-.24-.73-.09a15.84,15.84,0,0,1-1.58.83c-.33.12-.67.39-1.08.28-.06,0-.14.05-.21.08l-.07.29-1.87.7-1.57,1.37a2.44,2.44,0,0,0-1.63,2.07l-.56.07c-.24.63-.71,1.16-.6,1.85l-.45.09V291l-.44.44-.1.58-.37.13c-.31,1.68-.26,3.36-1,4.9l.41.14v2l-.41.11c-.57,2.72-.13,5.49-.3,8.1l1.14,1.2.49,0a3.24,3.24,0,0,0,1.94,1.85,3.31,3.31,0,0,1,.79.41,9.89,9.89,0,0,0,.92.59,2.75,2.75,0,0,1,2.58,1c1.15-.14,2.17-.05,2.81.9l2.75.35.4.4c.79,0,1.6,0,2.39,0a5.55,5.55,0,0,1,3.41,1h20.14l.46-.46h1.66c.63-.65,1.44-.45,2.18-.48a2.25,2.25,0,0,1,2-.47,2.13,2.13,0,0,0,1.86-.73h1.2c.61-.69,1.45-.41,2.07-.48a4.52,4.52,0,0,1,1.28-.69c.49-.06.63-.81,1.23-.53.4-.61,1.36-.43,1.63-1.23h1.29c.21-.66,1-.52,1.27-1.11v-.54Zm-40.29-59.32c-.07.18-.1.41-.19.44a1.56,1.56,0,0,0-.89.82c-.22.34-.84.38-.72,1,0,.08-.34.25-.54.36s-.46.13-.48.24c-.09.5-.51.83-.63,1.3a7,7,0,0,0-.23,1,7.91,7.91,0,0,0,0,1l-.6,1.54-.34.07v1l.42.42v1.31l-.64.12v7.82l.7.08c0,.43-.16,1,0,1.27a4.93,4.93,0,0,1,.44,2.58c0,.06.08.12.16.23h.53l0,1,1.15,1.14.07.74h.56c.32.48.29,1.23.89,1.25.43.47.37,1.09,1,1.17.14,0,.27.27.34.45s.25.47.57.48a1.82,1.82,0,0,1,1.26.74l.26.24h.72l.91.93c.73-.62,1.37.05,2.09.05v.66h8.13v-.93c.43,0,.8-.15,1,.16a2.93,2.93,0,0,0,.85-.27,4,4,0,0,1,1.79-.86c.06,0,.11-.09,0,0l.44-1h.89l.06-.6.85-.38c.21-.4.19-.87.73-1,.12,0,.31-.23.29-.33-.07-.61.43-.81.74-1.14a6.74,6.74,0,0,1,.74-.65v-.56l.63-.39.38-1.85.38-.11c0-.17,0-.4.05-.54a2.47,2.47,0,0,1,.52-.41v-1.12l.5-.1c.05-1.62.13-3.22.15-4.82,0-1.84,0-3.68,0-5.63l-.63-.5-.28-1.33.18-.32-.64-1.24-.25-.09-.36-1.78c-.11-.11-.26-.24-.39-.39a3,3,0,0,1-.65-.93c-.14-.49-.69-.44-.86-.82a3.33,3.33,0,0,0-.21-.52c-.11-.18-.24-.47-.41-.5-.71-.11-1.21-.77-2-.75a.49.49,0,0,1-.37-.24c-.25-.78-.89-.71-1.49-.71h-.67l-.72-.72a1.47,1.47,0,0,1-.47,0,7.44,7.44,0,0,0-1-.45,6,6,0,0,0-1.2,0h-6.6l-.47,0-.33.53-1-.34-2.35,1.18-.38-.27-.61.81h-.68l-.47.47Z" transform="translate(-78 -212.5)"/><path class="cls-2" d="M101.28,323H187.2v.23H101.28Z" transform="translate(-78 -212.5)"/><path class="cls-2" d="M173.58,307l-1.25,1.38v.54c-.26.59-1.06.45-1.27,1.11h-1.29c-.27.8-1.23.62-1.63,1.23-.6-.28-.74.47-1.23.53a4.52,4.52,0,0,0-1.28.69c-.62.07-1.46-.21-2.07.48h-1.2a2.13,2.13,0,0,1-1.86.73,2.25,2.25,0,0,0-2,.47c-.74,0-1.55-.17-2.18.48h-1.66l-.46.46H134.08a5.55,5.55,0,0,0-3.41-1c-.79.06-1.6,0-2.39,0l-.4-.4-2.75-.35c-.64-1-1.66-1-2.81-.9a2.75,2.75,0,0,0-2.58-1,9.89,9.89,0,0,1-.92-.59,3.31,3.31,0,0,0-.79-.41,3.24,3.24,0,0,1-1.94-1.85l-.49,0-1.14-1.2c.17-2.61-.27-5.38.3-8.1l.41-.11v-2l-.41-.14c.71-1.54.66-3.22,1-4.9l.37-.13.1-.58.44-.44v-.79l.45-.09c-.11-.69.36-1.22.6-1.85l.56-.07a2.44,2.44,0,0,1,1.63-2.07l1.57-1.37,1.87-.7c0-.08,0-.19.07-.29s.15-.1.21-.08c.41.11.75-.16,1.08-.28a15.84,15.84,0,0,0,1.58-.83c.29-.15.3-.13.73.09.57-.15,1.06-.32,1.57-.42a4.85,4.85,0,0,0,1.38-.45c.46-.26,1-.46,1.45.07l.19-.55h4.55l1.21,1.09a4.36,4.36,0,0,1,.93.23,8.94,8.94,0,0,0,3.27.85,25.78,25.78,0,0,0,2.78.18c.33,0,.68.11,1-.19.13-.11.55.1,1,.19.08,0,.31-.5.61,0l.16-.06c.77-.37,1.53-.75,2.32-1.07.17-.08.43.05.72.11l1-.53c0-.09,0-.27,0-.46s.14-.1.2-.1c1.6,0,3.2,0,4.8,0a4.18,4.18,0,0,1,3.14.89l2.31.29.65.78c1.19-.23,1.88.84,2.89,1l2.53,1.87h.3c.33.15.25.66.74.75.33.07.57.45.72.84a6.38,6.38,0,0,0,.75,1.25c.05.07.21.06.36.1v1c1,.23.75,1.14,1.1,1.76l.33.08c-.08.33.26.57.14,1a1.29,1.29,0,0,0,.16.93,1,1,0,0,1,.15,1.08,1.45,1.45,0,0,0-.13,1l.58.05a13.71,13.71,0,0,1,.34,4.42c0,1.24,0,2.48,0,3.72C173.33,305.24,173.48,306.16,173.58,307Z" transform="translate(-78 -212.5)"/><path class="cls-2" d="M133.29,247.68H134l.47-.47h.68l.61-.81.38.27,2.35-1.18,1,.34.33-.53.47,0H147a6,6,0,0,1,1.2,0,7.44,7.44,0,0,1,1,.45,1.47,1.47,0,0,0,.47,0l.72.72H151c.6,0,1.24-.07,1.49.71a.49.49,0,0,0,.37.24c.76,0,1.26.64,2,.75.17,0,.3.32.41.5a3.33,3.33,0,0,1,.21.52c.17.38.72.33.86.82a3,3,0,0,0,.65.93c.13.15.28.28.39.39l.36,1.78.25.09.64,1.24-.18.32.28,1.33.63.5c0,1.95,0,3.79,0,5.63,0,1.6-.1,3.2-.15,4.82l-.5.1v1.12a2.47,2.47,0,0,0-.52.41c-.09.14,0,.37-.05.54l-.38.11-.38,1.85-.63.39v.56a6.74,6.74,0,0,0-.74.65c-.31.33-.81.53-.74,1.14,0,.1-.17.31-.29.33-.54.1-.52.57-.73,1l-.85.38-.06.6h-.89l-.44,1c.1-.08.05,0,0,0a4,4,0,0,0-1.79.86,2.93,2.93,0,0,1-.85.27c-.22-.31-.59-.14-1-.16v.93H140.2v-.66c-.72,0-1.36-.67-2.09-.05l-.91-.93h-.72l-.26-.24a1.82,1.82,0,0,0-1.26-.74c-.32,0-.46-.21-.57-.48s-.2-.43-.34-.45c-.66-.08-.6-.7-1-1.17-.6,0-.57-.77-.89-1.25h-.56l-.07-.74-1.15-1.14,0-1h-.53c-.08-.11-.16-.17-.16-.23a4.93,4.93,0,0,0-.44-2.58c-.19-.32,0-.84,0-1.27l-.7-.08v-7.82l.64-.12v-1.31l-.42-.42v-1l.34-.07.6-1.54a7.91,7.91,0,0,1,0-1,7,7,0,0,1,.23-1c.12-.47.54-.8.63-1.3,0-.11.32-.15.48-.24s.56-.28.54-.36c-.12-.64.5-.68.72-1a1.56,1.56,0,0,1,.89-.82C133.19,248.09,133.22,247.86,133.29,247.68Z" transform="translate(-78 -212.5)"/><rect class="cls-1" x="20.3" y="106.76" width="93.25" height="7.55"/></svg>