<svg id="Layer_1" data-name="Layer 1" xmlns="http://www.w3.org/2000/svg" viewBox="0 0 6101 1143"><defs><style>.cls-1{fill:#f3a712;}.cls-2{fill:#fff;}.cls-3{fill:#d70b5a;}.cls-4{fill:#0290ef;}.cls-5{fill:#02d9b8;}.cls-6{fill:#6c010d;}.cls-7{fill:#122647;}.cls-8{fill:#02865c;}</style></defs><title>middle_icons</title><g id="Ellipse_2" data-name="Ellipse 2"><ellipse class="cls-1" cx="457.37363" cy="668.64673" rx="369.6" ry="378"/></g><path class="cls-2" d="M612.49362,525.28674c0-5.04-1.68-8.96-5.6-11.76-2.24-1.68-5.6-2.8-10.64-4.48v31.92c6.72-.56,11.76-2.8,14-7.28,1.12-2.8,2.24-5.6,2.24-8.4Z"/><path class="cls-2" d="M590.09362,468.72672c-5.04,0-8.96,1.68-11.2,5.04a15.2068,15.2068,0,0,0-3.36,9.52c0,3.92,1.12,7.28,3.92,9.52a20.538,20.538,0,0,0,10.64,4.48Z"/><path class="cls-2" d="M592.89362,575.68674c38.08,0,69.44-31.36,69.44-69.44s-31.36-69.44-69.44-69.44a69.42765,69.42765,0,0,0-69.44,69.44c.56,38.64,31.36,69.44,69.44,69.44Zm-21.84-76.16c-3.92-3.92-6.16-8.96-6.16-16.24a24.69457,24.69457,0,0,1,6.72-16.8c4.48-5.04,10.64-7.28,19.04-7.28v-7.84h5.6v7.84c7.84.56,14,2.8,18.48,7.28,4.48,3.92,6.16,9.52,6.72,16.24h-10.64a26.16178,26.16178,0,0,0-2.24-7.84c-2.24-3.92-6.72-6.16-12.32-6.16v29.12c9.52,2.8,15.68,5.04,19.04,7.28q8.4,5.88,8.4,16.8c0,10.64-3.36,18.48-10.64,22.96q-5.88,3.36-16.8,5.04v11.76h-5.6v-11.76c-11.76-.56-19.6-5.04-24.08-12.32-2.24-3.92-3.36-9.52-3.36-16.24h10.64c.56,5.6,1.12,9.52,2.8,11.76,2.24,4.48,7.28,7.28,14,7.84v-33.04c-8.96-1.68-15.68-4.48-19.6-8.4Z"/><path class="cls-2" d="M474.17363,409.92672a9.21208,9.21208,0,0,0-4.48-8.4,36.10041,36.10041,0,0,0-7.84-3.36v24.08c5.04-.56,8.96-2.24,10.64-5.6a14.9106,14.9106,0,0,0,1.68-6.72Z"/><path class="cls-2" d="M457.93362,367.36673a10.11338,10.11338,0,0,0-8.4,3.92,11.25506,11.25506,0,0,0-2.24,7.28,11.79442,11.79442,0,0,0,2.8,7.28c1.68,1.68,4.48,2.8,7.84,3.36Z"/><path class="cls-2" d="M459.61364,448.00673a52.08,52.08,0,1,0-52.08-52.08c.56,28.56,23.52,52.08,52.08,52.08Zm-16.24-57.12c-3.36-2.8-4.48-6.72-4.48-11.76a17.37253,17.37253,0,0,1,5.04-12.32c3.36-3.92,7.84-5.6,14-5.6v-6.16h4.48v6.16c6.16.56,10.64,2.24,14,5.04a16.46548,16.46548,0,0,1,5.04,12.32h-7.84a11.28853,11.28853,0,0,0-1.68-6.16c-1.68-2.8-5.04-4.48-8.96-5.04v21.84c7.28,2.24,11.76,3.92,14,5.6,3.92,2.8,6.16,7.28,6.16,12.88,0,7.84-2.8,14-7.84,16.8a31.89148,31.89148,0,0,1-12.32,3.92v8.96h-4.48v-8.96c-8.96-.56-14.56-3.36-17.92-9.52-1.68-2.8-2.8-7.28-2.8-12.32h7.84a28.09392,28.09392,0,0,0,1.68,8.96c1.68,3.36,5.6,5.04,10.64,5.6v-24.08c-6.72-1.68-11.76-3.36-14.56-6.16Z"/><path class="cls-2" d="M424.33362,641.20672c-11.76-2.24-19.6-6.72-24.64-15.12-2.8-5.04-3.92-12.32-3.92-21.28h14c.56,7.28,1.68,12.32,3.36,15.68,3.36,6.16,9.52,8.96,17.92,10.08v-42.56c-11.2-2.24-19.6-5.6-25.2-10.64s-7.84-11.76-7.84-20.72a29.24465,29.24465,0,0,1,8.96-21.28c5.6-6.16,14-9.52,24.64-9.52v-10.08h7.28v10.08c10.64.56,18.48,3.92,24.08,8.96s8.4,12.32,8.96,21.28h-13.44a26.764,26.764,0,0,0-3.36-10.08c-3.36-5.04-8.4-7.84-15.68-8.4v38.08c12.32,3.36,20.16,6.72,24.64,9.52,7.28,5.04,10.64,12.32,10.64,21.84,0,14-4.48,23.52-13.44,29.68a47.81788,47.81788,0,0,1-15.12,5.04,192.56619,192.56619,0,0,1,53.2,8.96,89.32469,89.32469,0,0,0,26.32-63.28c0-49.28-40.32-89.6-89.6-89.6s-89.6,40.32-89.6,89.6a88.28726,88.28726,0,0,0,28,64.96c15.12-6.72,32.48-10.08,49.84-11.2Z"/><path class="cls-2" d="M417.05363,567.28674a29.51487,29.51487,0,0,0,14,6.16v-36.4c-6.72.56-11.76,2.24-14.56,6.16s-4.48,7.84-4.48,12.32a12.99666,12.99666,0,0,0,5.04,11.76Z"/><path class="cls-2" d="M451.77363,595.28674a50.64143,50.64143,0,0,0-14-5.6v40.88c8.96-.56,15.12-3.36,18.48-9.52a23.16241,23.16241,0,0,0,2.8-10.64c0-6.72-2.24-11.76-7.28-15.12Z"/><path class="cls-2" d="M741.85365,821.52675c11.2-11.2,11.76-32.48,10.08-61.04-12.88-1.12-31.92,1.12-38.64,0-16.24-32.48-39.76-57.68-72.8-72.8,1.12-21.28,3.92-40.88,16.24-50.96-29.68-2.24-54.88,17.92-71.12,36.4-14.56-15.12-35.84-26.88-61.04-35.28l-15.68,28c-46.48-16.24-97.44-15.68-143.92.56l-20.72-27.44h0c-31.92,10.64-61.04,26.88-84,50.96-14.56-1.12-12.88-31.36,6.16-26.32-31.36-21.28-48.72,36.96-18.48,44.8-25.2,36.4-28,113.68,6.16,142.24,5.04,42.56,12.32,82.88,33.04,109.76h68.32c-1.68-14-3.36-28.56-2.24-44.8,41.44,9.52,90.72,12.32,140,7.84,7.84,12.88,15.12,25.2,24.08,36.96h67.76c-2.24-17.92-5.04-36.4-.56-54.88,17.36-3.92,100.79992-25.2,157.36-84Zm-92.96-90.72a16.8,16.8,0,0,1,0,33.6,16.50015,16.50015,0,0,1-16.8-16.8,16.84781,16.84781,0,0,1,16.8-16.8Z"/><path d="M122.502,203.95166q10.0481,0,16.7251-3.82471a30.24862,30.24862,0,0,0,10.6499-10.05029,40.80526,40.80526,0,0,0,5.5503-14.1748,82.40109,82.40109,0,0,0,1.5747-16.04981V106.15186h10.5v53.70019a84.84671,84.84671,0,0,1-2.3999,20.47461,48.664,48.664,0,0,1-7.7251,17.02539,38.19712,38.19712,0,0,1-13.875,11.69971q-8.54955,4.35278-20.84961,4.3501-12.60059,0-21.22509-4.5752a38.749,38.749,0,0,1-13.875-12.07471,48.942,48.942,0,0,1-7.5-17.10009,86.46273,86.46273,0,0,1-2.25-19.79981V106.15186H88.15234v53.70019a80.11529,80.11529,0,0,0,1.64991,16.34961,41.0357,41.0357,0,0,0,5.625,14.1001,29.97132,29.97132,0,0,0,10.5747,9.8999Q112.60108,203.95313,122.502,203.95166Z"/><path d="M256.15088,212.65186h-10.2002V169.002q0-13.95043-4.125-20.25-4.12719-6.30029-12.6748-6.30029a25.99912,25.99912,0,0,0-9,1.65039,30.39279,30.39279,0,0,0-8.3252,4.6499,35.63657,35.63657,0,0,0-6.82519,7.125,27.9165,27.9165,0,0,0-4.34961,8.92481v47.8501h-10.2002V134.502h9.29981v17.69971a36.71573,36.71573,0,0,1,13.7251-13.7998,37.63781,37.63781,0,0,1,19.42529-5.25,23.03535,23.03535,0,0,1,10.94971,2.3999,18.70242,18.70242,0,0,1,7.20019,6.75,31.149,31.149,0,0,1,3.8999,10.6499,74.82932,74.82932,0,0,1,1.2002,13.9502Z"/><path d="M309.99951,214.15186a33.67017,33.67017,0,0,1-15-3.375,38.14345,38.14345,0,0,1-11.8501-8.92481,41.00349,41.00349,0,0,1-7.72509-12.82519,42.31363,42.31363,0,0,1-2.77491-15.2251,45.50553,45.50553,0,0,1,2.7002-15.67481,41.87927,41.87927,0,0,1,7.4248-12.97509,35.02412,35.02412,0,0,1,11.25-8.77491,31.88712,31.88712,0,0,1,14.3252-3.22509,30.58316,30.58316,0,0,1,17.5498,5.1748,39.19988,39.19988,0,0,1,12,12.52539V103.15186h10.2002v96.2998q0,4.20117,3.59961,4.2002v9a19.37677,19.37677,0,0,1-3.59961.45019,9.3488,9.3488,0,0,1-6.30029-2.32519,7.16756,7.16756,0,0,1-2.69971-5.625V197.502a34.18947,34.18947,0,0,1-12.6001,12.14991A33.06323,33.06323,0,0,1,309.99951,214.15186Zm2.25-9a24.28163,24.28163,0,0,0,8.0249-1.5,32.89028,32.89028,0,0,0,8.02491-4.125,27.62979,27.62979,0,0,0,6.375-6.14991,16.65356,16.65356,0,0,0,3.22509-7.57519v-24.1499a26.88907,26.88907,0,0,0-4.35009-7.5752,35.11055,35.11055,0,0,0-6.52491-6.22461,30.73715,30.73715,0,0,0-7.875-4.20019,24.46771,24.46771,0,0,0-8.25-1.5,23.97413,23.97413,0,0,0-11.3999,2.70019,28.82789,28.82789,0,0,0-8.7749,7.125,31.747,31.747,0,0,0-5.625,10.125,35.8947,35.8947,0,0,0-1.9502,11.69971,32.771,32.771,0,0,0,8.39991,21.9751,29.715,29.715,0,0,0,9.22509,6.82519A26.19748,26.19748,0,0,0,312.24951,205.15186Z"/><path d="M404.94873,214.15186a37.57218,37.57218,0,0,1-15.6748-3.2251,38.37653,38.37653,0,0,1-12.375-8.8501,41.05808,41.05808,0,0,1-8.1753-12.97461,42.19553,42.19553,0,0,1-2.9248-15.75,41.24263,41.24263,0,0,1,2.9248-15.52539,40.21411,40.21411,0,0,1,8.1001-12.75,38.48289,38.48289,0,0,1,12.375-8.69971,39.52289,39.52289,0,0,1,31.2749,0,37.33613,37.33613,0,0,1,12.2251,8.77491,41.19738,41.19738,0,0,1,10.79981,28.0498v2.40039a6.08859,6.08859,0,0,1-.14991,1.6499h-66.8999a32.88713,32.88713,0,0,0,2.92481,11.625,31.915,31.915,0,0,0,6.375,9.2251,28.48418,28.48418,0,0,0,8.92529,6.07471,26.6877,26.6877,0,0,0,10.7251,2.17529,27.69428,27.69428,0,0,0,7.5-1.05029,30.27065,30.27065,0,0,0,6.8999-2.8501,25.647,25.647,0,0,0,5.69971-4.4248,19.006,19.006,0,0,0,3.90039-5.77491l8.84961,2.39991a25.982,25.982,0,0,1-5.09961,7.875,35.58605,35.58605,0,0,1-7.65039,6.1499,37.43689,37.43689,0,0,1-9.59961,4.05029A41.66788,41.66788,0,0,1,404.94873,214.15186Zm28.79981-44.7002a31.35667,31.35667,0,0,0-9.22461-20.3999,27.93318,27.93318,0,0,0-8.8501-5.8501,27.55908,27.55908,0,0,0-10.7251-2.09961,28.09236,28.09236,0,0,0-10.7998,2.09961,27.69673,27.69673,0,0,0-8.9253,5.8501,28.76359,28.76359,0,0,0-6.1499,9,34.03807,34.03807,0,0,0-2.7749,11.3999Z"/><path d="M498.24707,143.502a32.10012,32.10012,0,0,0-18,5.69971,28.74029,28.74029,0,0,0-10.7998,14.8501v48.6001h-10.2002V134.502h9.6001v18.75a35.539,35.539,0,0,1,11.69971-14.10009,27.12174,27.12174,0,0,1,15.75-5.1001,10.46028,10.46028,0,0,1,1.95019.1499Z"/><path d="M611.79736,126.10205a33.51275,33.51275,0,0,0-11.47509-7.95019,43.13593,43.13593,0,0,0-16.125-3.4502V154.752a1.69915,1.69915,0,0,1,.5249.07471,1.61,1.61,0,0,0,.52539.0752,144.46934,144.46934,0,0,1,15.375,4.0498,44.177,44.177,0,0,1,11.625,5.625,23.356,23.356,0,0,1,7.34961,8.17529,25.39438,25.39438,0,0,1,2.55029,12,27.21925,27.21925,0,0,1-2.7749,12.6001,24.62725,24.62725,0,0,1-7.7251,8.92481,35.8652,35.8652,0,0,1-11.7749,5.32519,63.09877,63.09877,0,0,1-14.92529,1.94971v14.55029h-5.54981V213.40186a61.67725,61.67725,0,0,1-38.3999-15.29981l5.25-8.55029a43.56621,43.56621,0,0,0,14.0249,9.75,55.484,55.484,0,0,0,19.57471,4.80029V164.05176l-.8999-.29981q-8.40236-1.94751-14.69971-4.05029a39.14607,39.14607,0,0,1-10.65039-5.25,20.41852,20.41852,0,0,1-6.5249-7.57471,24.49217,24.49217,0,0,1-2.17481-10.875,29.32709,29.32709,0,0,1,2.54981-12.5249,27.015,27.015,0,0,1,7.05029-9.30029,33.06839,33.06839,0,0,1,10.875-6,52.99873,52.99873,0,0,1,14.0249-2.625V90.40186h5.54981v15a50.7101,50.7101,0,0,1,17.7749,3.5249,49.96143,49.96143,0,0,1,14.17529,8.7749Zm-56.10009,8.3999a16.52027,16.52027,0,0,0,1.42529,7.27491,13.97428,13.97428,0,0,0,4.34961,5.10009,27.57381,27.57381,0,0,0,7.5,3.75q4.574,1.57471,10.875,3.07471V114.85205q-12.75074.60059-18.44971,5.84961Q555.69482,125.95459,555.69727,134.502Zm55.35009,51.29981a15.74332,15.74332,0,0,0-1.72509-7.6499,16.69868,16.69868,0,0,0-5.1001-5.54981,34.68947,34.68947,0,0,0-8.3999-4.20019q-5.02736-1.8003-11.625-3.4502V204.252q12.74779,0,19.80029-4.57519Q611.04639,195.10278,611.04736,185.80176Z"/><path d="M689.04541,203.35205v9.29981h-50.8501v-9.29981h21.3003V139.15186a16.52435,16.52435,0,0,1-4.125,3.8999,49.99538,49.99538,0,0,1-6.4502,3.8999,48.36876,48.36876,0,0,1-7.2749,3,22.00677,22.00677,0,0,1-6.6001,1.2002V141.252a17.90445,17.90445,0,0,0,7.5752-1.95019,54.37287,54.37287,0,0,0,7.7998-4.5,68.6912,68.6912,0,0,0,6.2251-4.79981,12.98181,12.98181,0,0,0,2.8501-3h10.5v76.3501Z"/><path d="M752.1958,134.65186H694.74609v-9.4502H768.396l-53.8501,106.5H702.84619Z"/><path d="M808.59473,165.85205a37.01215,37.01215,0,0,1,13.65039,2.47461,33.65355,33.65355,0,0,1,11.0249,6.9751,32.48551,32.48551,0,0,1,7.4248,10.7251A34.12938,34.12938,0,0,1,843.395,199.752a34.98518,34.98518,0,0,1-2.92529,14.4751A33.15986,33.15986,0,0,1,832.52,225.32666a36.43987,36.43987,0,0,1-11.7749,7.125,42.04611,42.04611,0,0,1-25.27539,1.125,36.17144,36.17144,0,0,1-9.52491-4.125,38.93941,38.93941,0,0,1-7.875-6.44971,33.52319,33.52319,0,0,1-5.7749-8.3999l6.75-5.1001a32.96758,32.96758,0,0,0,11.4751,11.8501,29.778,29.778,0,0,0,15.9751,4.5,28.22443,28.22443,0,0,0,10.34961-1.875,25.3718,25.3718,0,0,0,8.40039-5.32519,24.46113,24.46113,0,0,0,5.625-8.25,26.73852,26.73852,0,0,0,2.0249-10.5,25.60712,25.60712,0,0,0-1.9502-10.125,23.558,23.558,0,0,0-5.3999-7.875,24.2985,24.2985,0,0,0-8.1001-5.1001A27.60754,27.60754,0,0,0,807.395,175.002a29.58676,29.58676,0,0,0-13.2749,3.07471,25.61562,25.61562,0,0,0-10.125,8.92529h-9.4502q.14794-.90014.75-4.05029.59766-3.14942,1.5-7.5.90015-4.3484,1.9502-9.6748,1.04736-5.32251,2.09961-10.7251,2.54883-12.59985,5.55029-28.04981h51.44971v9.44971H794.04492l-7.3501,38.25a26.77478,26.77478,0,0,1,9.52491-6.5249A32.10314,32.10314,0,0,1,808.59473,165.85205Z"/><path d="M1409.08008,212.65234v-106.5h10.5v106.5Z"/><path d="M1509.87793,212.65234h-10.2002v-43.6499q0-13.95044-4.125-20.25-4.12719-6.30029-12.6748-6.30029a25.99912,25.99912,0,0,0-9,1.65039,30.39279,30.39279,0,0,0-8.3252,4.6499,35.63657,35.63657,0,0,0-6.82519,7.125,27.9165,27.9165,0,0,0-4.34961,8.92481v47.85009h-10.2002v-78.1499h9.29981v17.69971a36.71582,36.71582,0,0,1,13.7251-13.79981,37.6379,37.6379,0,0,1,19.42529-5.25,23.03535,23.03535,0,0,1,10.94971,2.39991,18.70242,18.70242,0,0,1,7.20019,6.75,31.149,31.149,0,0,1,3.8999,10.6499,74.82921,74.82921,0,0,1,1.2002,13.95019Z"/><path d="M1563.72705,214.15234a33.67017,33.67017,0,0,1-15-3.375,38.14342,38.14342,0,0,1-11.8501-8.9248,41.00342,41.00342,0,0,1-7.72509-12.8252,42.31357,42.31357,0,0,1-2.77491-15.22509,45.50553,45.50553,0,0,1,2.7002-15.67481,41.87944,41.87944,0,0,1,7.4248-12.9751,35.02423,35.02423,0,0,1,11.25-8.7749,31.88712,31.88712,0,0,1,14.3252-3.2251,30.58317,30.58317,0,0,1,17.5498,5.17481,39.19978,39.19978,0,0,1,12,12.52539v-47.7002h10.2002v96.29981q0,4.20117,3.59961,4.20019v9a19.37607,19.37607,0,0,1-3.59961.4502,9.34876,9.34876,0,0,1-6.30029-2.3252,7.16753,7.16753,0,0,1-2.69971-5.625v-7.6499a34.18952,34.18952,0,0,1-12.6001,12.1499A33.06323,33.06323,0,0,1,1563.72705,214.15234Zm2.25-9a24.28137,24.28137,0,0,0,8.0249-1.5,32.88958,32.88958,0,0,0,8.02491-4.125,27.62955,27.62955,0,0,0,6.375-6.1499,16.65367,16.65367,0,0,0,3.22509-7.57519V161.65234a26.88915,26.88915,0,0,0-4.35009-7.57519,35.1099,35.1099,0,0,0-6.52491-6.22461,30.73749,30.73749,0,0,0-7.875-4.2002,24.468,24.468,0,0,0-8.25-1.5,23.97414,23.97414,0,0,0-11.3999,2.7002,28.82775,28.82775,0,0,0-8.7749,7.125,31.747,31.747,0,0,0-5.625,10.125,35.8947,35.8947,0,0,0-1.9502,11.69971,32.77095,32.77095,0,0,0,8.39991,21.97509,29.71485,29.71485,0,0,0,9.22509,6.8252A26.19747,26.19747,0,0,0,1565.97705,205.15234Z"/><path d="M1624.92578,118.15234v-15h10.2002v15Zm0,94.5v-78.1499h10.2002v78.1499Z"/><path d="M1681.02393,212.65234l-31.79981-78.1499h10.5l26.8501,68.69971,27-68.69971h9.8999l-31.80029,78.1499Z"/><path d="M1737.57227,118.15234v-15h10.20019v15Zm0,94.5v-78.1499h10.20019v78.1499Z"/><path d="M1802.37061,214.15234a33.6701,33.6701,0,0,1-15-3.375,38.14319,38.14319,0,0,1-11.8501-8.9248,41.00326,41.00326,0,0,1-7.7251-12.8252,42.31378,42.31378,0,0,1-2.7749-15.22509,45.50552,45.50552,0,0,1,2.70019-15.67481,41.87966,41.87966,0,0,1,7.42481-12.9751,35.024,35.024,0,0,1,11.25-8.7749,31.88708,31.88708,0,0,1,14.32519-3.2251,30.58322,30.58322,0,0,1,17.54981,5.17481,39.19989,39.19989,0,0,1,12,12.52539v-47.7002h10.20019v96.29981q0,4.20117,3.59961,4.20019v9a19.376,19.376,0,0,1-3.59961.4502,9.34876,9.34876,0,0,1-6.30029-2.3252,7.16756,7.16756,0,0,1-2.69971-5.625v-7.6499a34.1895,34.1895,0,0,1-12.60009,12.1499A33.06326,33.06326,0,0,1,1802.37061,214.15234Zm2.25-9a24.28146,24.28146,0,0,0,8.0249-1.5,32.88951,32.88951,0,0,0,8.0249-4.125,27.62935,27.62935,0,0,0,6.375-6.1499,16.65358,16.65358,0,0,0,3.2251-7.57519V161.65234a26.88919,26.88919,0,0,0-4.3501-7.57519,35.10984,35.10984,0,0,0-6.5249-6.22461,30.73749,30.73749,0,0,0-7.875-4.2002,24.468,24.468,0,0,0-8.25-1.5,23.97408,23.97408,0,0,0-11.3999,2.7002,28.82779,28.82779,0,0,0-8.77491,7.125,31.747,31.747,0,0,0-5.625,10.125,35.89469,35.89469,0,0,0-1.95019,11.69971,32.771,32.771,0,0,0,8.3999,21.97509,29.71489,29.71489,0,0,0,9.2251,6.8252A26.19744,26.19744,0,0,0,1804.62061,205.15234Z"/><path d="M1888.01953,214.15234q-12.75147,0-18.9751-8.47509-6.22632-8.47266-6.22509-25.27491v-45.8999h10.20019v44.1001q0,26.54956,18.1499,26.5498a26.95678,26.95678,0,0,0,8.8501-1.5,27.78471,27.78471,0,0,0,8.0249-4.35009,35.17137,35.17137,0,0,0,6.6001-6.75,33.99777,33.99777,0,0,0,4.72461-8.8501V134.50244h10.2002v64.94971q0,4.20117,3.60009,4.20019v9a18.68748,18.68748,0,0,1-2.92529.29981h-1.57471a8.1461,8.1461,0,0,1-5.85009-2.54981,9.048,9.048,0,0,1-2.25-6.45019v-9a36.37079,36.37079,0,0,1-13.875,14.17529A36.97535,36.97535,0,0,1,1888.01953,214.15234Z"/><path d="M1972.31836,214.15234a27.62472,27.62472,0,0,1-10.2749-1.875,25.8877,25.8877,0,0,1-8.25-5.1748,23.30723,23.30723,0,0,1-7.42481-17.25,19.24112,19.24112,0,0,1,2.3999-9.4502,22.84124,22.84124,0,0,1,6.75-7.5,33.04647,33.04647,0,0,1,10.3501-4.875,47.70582,47.70582,0,0,1,13.19971-1.72509,72.255,72.255,0,0,1,12.1499,1.05029,52.8151,52.8151,0,0,1,10.9502,3v-7.05029q0-10.34986-5.8501-16.42481-5.84985-6.07544-16.19971-6.07519a34.46433,34.46433,0,0,0-12.30029,2.3999,59.33653,59.33653,0,0,0-12.75,6.90039l-3.6001-6.75q15.14941-10.199,29.40039-10.2002,14.69825,0,23.09961,8.25,8.39941,8.25147,8.40039,22.79981v35.25q0,4.20117,3.75,4.20019v9a24.3627,24.3627,0,0,1-3.90039.4502,8.77235,8.77235,0,0,1-6.07471-1.9502,7.32362,7.32362,0,0,1-2.32519-5.3999l-.29981-6.1499a35.4291,35.4291,0,0,1-13.57519,10.7998A41.78846,41.78846,0,0,1,1972.31836,214.15234Zm2.3999-7.7998a35.24585,35.24585,0,0,0,14.625-3,23.89747,23.89747,0,0,0,10.125-7.9502,9.34117,9.34117,0,0,0,2.02539-2.9248,7.47687,7.47687,0,0,0,.67481-2.92529v-12.75a62.77934,62.77934,0,0,0-10.5752-3,59.35712,59.35712,0,0,0-11.1748-1.04981q-10.8003,0-17.54981,4.5-6.75,4.5-6.75,11.8501a16.15953,16.15953,0,0,0,1.42481,6.75,17.0834,17.0834,0,0,0,3.8999,5.47461,18.2146,18.2146,0,0,0,5.92529,3.67529A19.9784,19.9784,0,0,0,1974.71826,206.35254Z"/><path d="M2034.86865,103.15234h10.19971v91.79981a9.38551,9.38551,0,0,0,2.3999,6.82519,8.963,8.963,0,0,0,6.75,2.4751,20.268,20.268,0,0,0,3.90039-.45019,25.6102,25.6102,0,0,0,4.19971-1.19971l1.80029,8.25a33.56552,33.56552,0,0,1-6.9751,1.94971,40.72375,40.72375,0,0,1-7.125.75q-7.05249,0-11.10009-3.9751-4.0503-3.97266-4.04981-11.17481Z"/><path d="M2101.167,214.15234a54.401,54.401,0,0,1-17.8501-3,42.847,42.847,0,0,1-15-8.70019l4.64991-6.8999a50.81752,50.81752,0,0,0,13.4248,8.10009,39.3916,39.3916,0,0,0,14.625,2.7002q9.45044,0,15.0752-3.8252a12.37692,12.37692,0,0,0,5.625-10.875,9.44137,9.44137,0,0,0-1.5-5.47509,13.03328,13.03328,0,0,0-4.42481-3.82471,34.66387,34.66387,0,0,0-7.3501-2.92529q-4.426-1.27222-10.2749-2.625-6.75-1.64868-11.70019-3.29981a35.66558,35.66558,0,0,1-8.17481-3.75,13.50457,13.50457,0,0,1-4.80029-5.17529,16.85546,16.85546,0,0,1-1.57471-7.72461,22.21409,22.21409,0,0,1,2.32471-10.3501,21.09125,21.09125,0,0,1,6.30029-7.42529,28.62045,28.62045,0,0,1,9.29981-4.42481,41.63762,41.63762,0,0,1,11.32519-1.5,43.86964,43.86964,0,0,1,16.34961,2.92481,32.33828,32.33828,0,0,1,11.8501,7.7251l-4.94971,6a27.47009,27.47009,0,0,0-10.57519-6.75,37.882,37.882,0,0,0-12.9751-2.25,32.302,32.302,0,0,0-7.5.82519,18.0372,18.0372,0,0,0-6.07471,2.625,12.90983,12.90983,0,0,0-4.125,4.57471,13.5202,13.5202,0,0,0-1.5,6.52539,10.72756,10.72756,0,0,0,1.04981,5.09961,8.9301,8.9301,0,0,0,3.45019,3.375,27.938,27.938,0,0,0,6.07471,2.55029q3.67383,1.125,8.92529,2.32471,7.49854,1.80029,13.19971,3.6001a41.53632,41.53632,0,0,1,9.5249,4.20019,16.562,16.562,0,0,1,5.77539,5.8501,16.85193,16.85193,0,0,1,1.94971,8.3999q0,10.79956-8.25,17.1001Q2115.116,214.1521,2101.167,214.15234Z"/><path d="M3216.4375,185.20215a25.26546,25.26546,0,0,1-2.40039,11.02539,27.78451,27.78451,0,0,1-6.4502,8.69971,29.08277,29.08277,0,0,1-9.44921,5.70019,32.6302,32.6302,0,0,1-11.55079,2.0249h-50.25v-106.5h51.30079a21.04207,21.04207,0,0,1,10.0498,2.39991,25.103,25.103,0,0,1,7.64941,6.22509,28.54012,28.54012,0,0,1,4.875,8.7002,29.3131,29.3131,0,0,1,1.72559,9.82471,27.937,27.937,0,0,1-4.0498,14.7749,25.05348,25.05348,0,0,1-11.25,9.9751,26.63835,26.63835,0,0,1,14.4746,10.05029A28.387,28.387,0,0,1,3216.4375,185.20215Zm-69.60059-69.8999v39.30029h36.60059a16.32266,16.32266,0,0,0,7.27441-1.65039,18.51064,18.51064,0,0,0,5.77539-4.34961,20.12133,20.12133,0,0,0,3.75-6.2251,20.563,20.563,0,0,0,1.34961-7.42529,22.77985,22.77985,0,0,0-1.27441-7.6499,18.69832,18.69832,0,0,0-3.60059-6.2251,18.03657,18.03657,0,0,0-5.47461-4.19971,15.21028,15.21028,0,0,0-6.90039-1.57519Zm59.10059,68.10009a21.80424,21.80424,0,0,0-1.35059-7.57519,19.699,19.699,0,0,0-9.6748-10.94971,15.77691,15.77691,0,0,0-7.27441-1.7251h-40.80079v40.3501h39.75a17.62489,17.62489,0,0,0,7.5752-1.6499,20.12556,20.12556,0,0,0,6.15039-4.42529,20.6625,20.6625,0,0,0,4.125-6.44971A19.8965,19.8965,0,0,0,3205.9375,183.40234Z"/><path d="M3258.585,214.15234q-12.75147,0-18.97558-8.47509-6.2256-8.47266-6.22461-25.27491v-45.8999H3243.585v44.1001q0,26.54956,18.14942,26.5498a26.95747,26.95747,0,0,0,8.85058-1.5,27.76961,27.76961,0,0,0,8.02442-4.35009,35.17392,35.17392,0,0,0,6.60058-6.75,33.99747,33.99747,0,0,0,4.72461-8.8501V134.50244h10.2002v64.94971q0,4.20117,3.59961,4.20019v9a18.6713,18.6713,0,0,1-2.92481.29981h-1.57519a8.14584,8.14584,0,0,1-5.84961-2.54981,9.048,9.048,0,0,1-2.25-6.45019v-9a36.37072,36.37072,0,0,1-13.875,14.17529A36.974,36.974,0,0,1,3258.585,214.15234Z"/><path d="M3349.18457,214.15234a54.40816,54.40816,0,0,1-17.85059-3,42.85144,42.85144,0,0,1-15-8.70019l4.6504-6.8999a50.80976,50.80976,0,0,0,13.4248,8.10009,39.39523,39.39523,0,0,0,14.625,2.7002q9.4497,0,15.0752-3.8252a12.37692,12.37692,0,0,0,5.625-10.875,9.445,9.445,0,0,0-1.5-5.47509,13.02859,13.02859,0,0,0-4.42481-3.82471,34.64792,34.64792,0,0,0-7.35059-2.92529q-4.42528-1.27222-10.27441-2.625-6.75-1.64868-11.70019-3.29981a35.67516,35.67516,0,0,1-8.17481-3.75,13.5031,13.5031,0,0,1-4.7998-5.17529,16.84259,16.84259,0,0,1-1.5752-7.72461,22.20823,22.20823,0,0,1,2.3252-10.3501,21.07976,21.07976,0,0,1,6.2998-7.42529,28.62036,28.62036,0,0,1,9.29981-4.42481,41.64009,41.64009,0,0,1,11.32519-1.5,43.86964,43.86964,0,0,1,16.34961,2.92481,32.34039,32.34039,0,0,1,11.85059,7.7251l-4.9502,6a27.4665,27.4665,0,0,0-10.57519-6.75,37.87722,37.87722,0,0,0-12.97461-2.25,32.29592,32.29592,0,0,0-7.5.82519,18.03551,18.03551,0,0,0-6.0752,2.625,12.90973,12.90973,0,0,0-4.125,4.57471,13.52009,13.52009,0,0,0-1.5,6.52539,10.7217,10.7217,0,0,0,1.04981,5.09961,8.93343,8.93343,0,0,0,3.45019,3.375,27.94271,27.94271,0,0,0,6.0752,2.55029q3.67381,1.125,8.9248,2.32471,7.49853,1.80029,13.2002,3.6001a41.54163,41.54163,0,0,1,9.52441,4.20019,16.56613,16.56613,0,0,1,5.77539,5.8501,16.85716,16.85716,0,0,1,1.9502,8.3999q0,10.79956-8.25,17.1001Q3363.1333,214.1521,3349.18457,214.15234Z"/><path d="M3396.28418,118.15234v-15h10.2002v15Zm0,94.5v-78.1499h10.2002v78.1499Z"/><path d="M3494.68262,212.65234h-10.2002v-43.6499q0-13.95044-4.125-20.25-4.12792-6.30029-12.6748-6.30029a25.99912,25.99912,0,0,0-9,1.65039,30.39279,30.39279,0,0,0-8.3252,4.6499,35.623,35.623,0,0,0-6.82519,7.125,27.9165,27.9165,0,0,0-4.34961,8.92481v47.85009h-10.2002v-78.1499h9.29981v17.69971a36.71369,36.71369,0,0,1,13.72558-13.79981,37.63492,37.63492,0,0,1,19.42481-5.25,23.03872,23.03872,0,0,1,10.95019,2.39991,18.69637,18.69637,0,0,1,7.19922,6.75,31.12927,31.12927,0,0,1,3.90039,10.6499,74.87085,74.87085,0,0,1,1.2002,13.95019Z"/><path d="M3550.18066,214.15234a37.5722,37.5722,0,0,1-15.6748-3.22509,38.37653,38.37653,0,0,1-12.375-8.8501,41.03961,41.03961,0,0,1-8.17481-12.97461,42.18631,42.18631,0,0,1-2.92578-15.75,41.23363,41.23363,0,0,1,2.92578-15.52539,40.19564,40.19564,0,0,1,8.09961-12.75,38.48289,38.48289,0,0,1,12.375-8.69971,39.524,39.524,0,0,1,31.27539,0,37.33423,37.33423,0,0,1,12.22461,8.7749,41.19738,41.19738,0,0,1,10.79981,28.04981v2.40039a6.13551,6.13551,0,0,1-.14942,1.6499h-66.90039a32.89759,32.89759,0,0,0,2.92481,11.625,31.91516,31.91516,0,0,0,6.375,9.2251,28.48236,28.48236,0,0,0,8.9248,6.07471,26.69175,26.69175,0,0,0,10.72559,2.17529,27.69423,27.69423,0,0,0,7.5-1.05029,30.25832,30.25832,0,0,0,6.89941-2.8501,25.638,25.638,0,0,0,5.7002-4.42481,19.00567,19.00567,0,0,0,3.90039-5.7749l8.84961,2.3999a25.991,25.991,0,0,1-5.09961,7.875,35.58555,35.58555,0,0,1-7.65039,6.14991,37.43689,37.43689,0,0,1-9.59961,4.05029A41.67051,41.67051,0,0,1,3550.18066,214.15234Zm28.79981-44.70019a31.35667,31.35667,0,0,0-9.22461-20.3999,27.92423,27.92423,0,0,0-8.85059-5.8501,27.55842,27.55842,0,0,0-10.72461-2.09961,28.09243,28.09243,0,0,0-10.7998,2.09961,27.68383,27.68383,0,0,0-8.92481,5.8501,28.74024,28.74024,0,0,0-6.15039,9,34.06221,34.06221,0,0,0-2.77539,11.3999Z"/><path d="M3630.42969,214.15234a54.40816,54.40816,0,0,1-17.85059-3,42.85144,42.85144,0,0,1-15-8.70019l4.65039-6.8999a50.81,50.81,0,0,0,13.42481,8.10009,39.39523,39.39523,0,0,0,14.625,2.7002q9.4497,0,15.07519-3.8252a12.37692,12.37692,0,0,0,5.625-10.875,9.445,9.445,0,0,0-1.5-5.47509,13.02855,13.02855,0,0,0-4.4248-3.82471,34.64813,34.64813,0,0,0-7.35059-2.92529q-4.42529-1.27222-10.27441-2.625-6.75-1.64868-11.7002-3.29981a35.67527,35.67527,0,0,1-8.1748-3.75,13.5032,13.5032,0,0,1-4.79981-5.17529,16.84273,16.84273,0,0,1-1.57519-7.72461,22.20835,22.20835,0,0,1,2.32519-10.3501,21.07989,21.07989,0,0,1,6.29981-7.42529,28.6204,28.6204,0,0,1,9.2998-4.42481,41.64022,41.64022,0,0,1,11.3252-1.5,43.86964,43.86964,0,0,1,16.34961,2.92481,32.34043,32.34043,0,0,1,11.85058,7.7251l-4.95019,6a27.46647,27.46647,0,0,0-10.5752-6.75,37.87718,37.87718,0,0,0-12.97461-2.25,32.296,32.296,0,0,0-7.5.82519,18.03546,18.03546,0,0,0-6.07519,2.625,12.90964,12.90964,0,0,0-4.125,4.57471,13.52009,13.52009,0,0,0-1.5,6.52539,10.72183,10.72183,0,0,0,1.0498,5.09961,8.93346,8.93346,0,0,0,3.4502,3.375,27.94261,27.94261,0,0,0,6.07519,2.55029q3.67383,1.125,8.92481,2.32471,7.49853,1.80029,13.20019,3.6001a41.54172,41.54172,0,0,1,9.52442,4.20019,16.56613,16.56613,0,0,1,5.77539,5.8501,16.85716,16.85716,0,0,1,1.95019,8.3999q0,10.79956-8.25,17.1001Q3644.37843,214.1521,3630.42969,214.15234Z"/><path d="M3703.47949,214.15234a54.4081,54.4081,0,0,1-17.85058-3,42.85135,42.85135,0,0,1-15-8.70019l4.65039-6.8999a50.80976,50.80976,0,0,0,13.4248,8.10009,39.39531,39.39531,0,0,0,14.625,2.7002q9.44971,0,15.0752-3.8252a12.37692,12.37692,0,0,0,5.625-10.875,9.445,9.445,0,0,0-1.5-5.47509,13.02859,13.02859,0,0,0-4.42481-3.82471,34.64781,34.64781,0,0,0-7.35058-2.92529q-4.4253-1.27222-10.27442-2.625-6.75-1.64868-11.70019-3.29981a35.67536,35.67536,0,0,1-8.17481-3.75,13.50317,13.50317,0,0,1-4.7998-5.17529,16.84272,16.84272,0,0,1-1.5752-7.72461,22.20823,22.20823,0,0,1,2.3252-10.3501,21.08,21.08,0,0,1,6.2998-7.42529,28.62045,28.62045,0,0,1,9.29981-4.42481,41.6402,41.6402,0,0,1,11.32519-1.5,43.86964,43.86964,0,0,1,16.34961,2.92481,32.34039,32.34039,0,0,1,11.85059,7.7251l-4.9502,6a27.46643,27.46643,0,0,0-10.57519-6.75,37.87718,37.87718,0,0,0-12.97461-2.25,32.296,32.296,0,0,0-7.5.82519,18.03551,18.03551,0,0,0-6.0752,2.625,12.90983,12.90983,0,0,0-4.125,4.57471,13.5202,13.5202,0,0,0-1.5,6.52539,10.72182,10.72182,0,0,0,1.04981,5.09961,8.93349,8.93349,0,0,0,3.45019,3.375,27.94292,27.94292,0,0,0,6.0752,2.55029q3.67383,1.125,8.9248,2.32471,7.49854,1.80029,13.2002,3.6001a41.54143,41.54143,0,0,1,9.52441,4.20019,16.566,16.566,0,0,1,5.77539,5.8501,16.85716,16.85716,0,0,1,1.9502,8.3999q0,10.79956-8.25,17.1001Q3717.42822,214.1521,3703.47949,214.15234Z"/><path d="M3784.3291,214.15234a37.57217,37.57217,0,0,1-15.6748-3.22509,38.37653,38.37653,0,0,1-12.375-8.8501,41.03943,41.03943,0,0,1-8.17481-12.97461,42.18631,42.18631,0,0,1-2.92578-15.75,41.23363,41.23363,0,0,1,2.92578-15.52539,40.19564,40.19564,0,0,1,8.09961-12.75,38.48289,38.48289,0,0,1,12.375-8.69971,39.524,39.524,0,0,1,31.27539,0,37.33423,37.33423,0,0,1,12.22461,8.7749,41.19738,41.19738,0,0,1,10.79981,28.04981v2.40039a6.13551,6.13551,0,0,1-.14942,1.6499H3755.8291a32.89759,32.89759,0,0,0,2.92481,11.625,31.915,31.915,0,0,0,6.375,9.2251,28.48236,28.48236,0,0,0,8.9248,6.07471,26.69175,26.69175,0,0,0,10.72559,2.17529,27.69428,27.69428,0,0,0,7.5-1.05029,30.25851,30.25851,0,0,0,6.89941-2.8501,25.63822,25.63822,0,0,0,5.7002-4.42481,19.00567,19.00567,0,0,0,3.90039-5.7749l8.84961,2.3999a25.991,25.991,0,0,1-5.09961,7.875,35.58555,35.58555,0,0,1-7.65039,6.14991,37.43689,37.43689,0,0,1-9.59961,4.05029A41.67057,41.67057,0,0,1,3784.3291,214.15234Zm28.79981-44.70019a31.35667,31.35667,0,0,0-9.22461-20.3999,27.92423,27.92423,0,0,0-8.85059-5.8501,27.55842,27.55842,0,0,0-10.72461-2.09961,28.09236,28.09236,0,0,0-10.7998,2.09961,27.68383,27.68383,0,0,0-8.92481,5.8501,28.74024,28.74024,0,0,0-6.15039,9,34.062,34.062,0,0,0-2.77539,11.3999Z"/><path d="M3864.57813,214.15234a54.40816,54.40816,0,0,1-17.85059-3,42.85135,42.85135,0,0,1-15-8.70019l4.65039-6.8999a50.80991,50.80991,0,0,0,13.4248,8.10009,39.39531,39.39531,0,0,0,14.625,2.7002q9.44972,0,15.0752-3.8252a12.37692,12.37692,0,0,0,5.625-10.875,9.445,9.445,0,0,0-1.5-5.47509,13.02865,13.02865,0,0,0-4.4248-3.82471,34.64813,34.64813,0,0,0-7.35059-2.92529q-4.4253-1.27222-10.27441-2.625-6.75-1.64868-11.7002-3.29981a35.67527,35.67527,0,0,1-8.1748-3.75,13.5032,13.5032,0,0,1-4.79981-5.17529,16.84273,16.84273,0,0,1-1.57519-7.72461,22.20822,22.20822,0,0,1,2.32519-10.3501,21.07989,21.07989,0,0,1,6.29981-7.42529,28.6203,28.6203,0,0,1,9.2998-4.42481,41.64022,41.64022,0,0,1,11.3252-1.5,43.86958,43.86958,0,0,1,16.3496,2.92481,32.34039,32.34039,0,0,1,11.85059,7.7251l-4.95019,6a27.46647,27.46647,0,0,0-10.5752-6.75,37.87718,37.87718,0,0,0-12.97461-2.25,32.296,32.296,0,0,0-7.5.82519,18.03537,18.03537,0,0,0-6.07519,2.625,12.90964,12.90964,0,0,0-4.125,4.57471,13.52009,13.52009,0,0,0-1.5,6.52539,10.72183,10.72183,0,0,0,1.0498,5.09961,8.93346,8.93346,0,0,0,3.4502,3.375,27.94261,27.94261,0,0,0,6.07519,2.55029q3.67383,1.125,8.92481,2.32471,7.49853,1.80029,13.20019,3.6001a41.54143,41.54143,0,0,1,9.52441,4.20019,16.56616,16.56616,0,0,1,5.7754,5.8501,16.85716,16.85716,0,0,1,1.95019,8.3999q0,10.79956-8.25,17.1001Q3878.52685,214.1521,3864.57813,214.15234Z"/><path d="M4732.27246,212.65234v-106.5h44.10059a27.65407,27.65407,0,0,1,12.6748,2.92481,33.424,33.424,0,0,1,9.97461,7.65039,36.35639,36.35639,0,0,1,6.60059,10.72461,32.50109,32.50109,0,0,1,2.39941,12.15039,36.19448,36.19448,0,0,1-2.25,12.6748,34.28331,34.28331,0,0,1-6.2998,10.7251,31.64842,31.64842,0,0,1-9.67481,7.5,27.30667,27.30667,0,0,1-12.52539,2.8501h-34.5v39.2998Zm10.5-48.60009h34.05078a17.83236,17.83236,0,0,0,8.47461-2.02491,20.64346,20.64346,0,0,0,6.52539-5.3999,25.41966,25.41966,0,0,0,4.19922-7.80029,28.5494,28.5494,0,0,0,1.5-9.22461,25.906,25.906,0,0,0-6.375-17.1001,21.288,21.288,0,0,0-6.89941-5.17529,19.30756,19.30756,0,0,0-8.3252-1.875h-33.15039Z"/><path d="M4855.42383,214.15234a37.0639,37.0639,0,0,1-15.59961-3.22509,38.29315,38.29315,0,0,1-12.22559-8.77491,39.77383,39.77383,0,0,1-8.02441-12.8999,42.32716,42.32716,0,0,1-2.85059-15.45019,41.8045,41.8045,0,0,1,2.92578-15.6001,40.88452,40.88452,0,0,1,8.09961-12.8999,39.37269,39.37269,0,0,1,12.22461-8.8501,36.00658,36.00658,0,0,1,15.4502-3.29981,36.51835,36.51835,0,0,1,15.52539,3.29981,39.15453,39.15453,0,0,1,12.2998,8.8501,40.88434,40.88434,0,0,1,8.09961,12.8999,41.8043,41.8043,0,0,1,2.92578,15.6001,42.38834,42.38834,0,0,1-2.85058,15.45019,39.807,39.807,0,0,1-8.02442,12.8999,38.09627,38.09627,0,0,1-12.30078,8.77491A37.57864,37.57864,0,0,1,4855.42383,214.15234Zm-28.34961-40.20019a32.61084,32.61084,0,0,0,2.25,12.2251,33.15953,33.15953,0,0,0,6.07519,9.8999,27.43912,27.43912,0,0,0,9,6.67529,25.87609,25.87609,0,0,0,11.02442,2.3999,25.23229,25.23229,0,0,0,11.02539-2.47509,29.2929,29.2929,0,0,0,9.07519-6.75,32.16789,32.16789,0,0,0,6.14942-9.9751,34.53975,34.53975,0,0,0,0-24.5249,31.9989,31.9989,0,0,0-6.14942-10.04981,29.29259,29.29259,0,0,0-9.07519-6.75,25.2323,25.2323,0,0,0-11.02539-2.4751,24.7493,24.7493,0,0,0-10.9502,2.4751,29.02669,29.02669,0,0,0-9,6.82471,32.90991,32.90991,0,0,0-6.14941,10.125A33.794,33.794,0,0,0,4827.07422,173.95215Z"/><path d="M4911.82227,103.15234h10.20019v91.79981a9.38524,9.38524,0,0,0,2.39942,6.82519,8.963,8.963,0,0,0,6.75,2.4751,20.2681,20.2681,0,0,0,3.90039-.45019,25.616,25.616,0,0,0,4.20019-1.19971l1.79981,8.25a33.56222,33.56222,0,0,1-6.97559,1.94971,40.71005,40.71005,0,0,1-7.125.75q-7.05175,0-11.09961-3.9751-4.05029-3.97266-4.0498-11.17481Z"/><path d="M4952.16992,118.15234v-15h10.2002v15Zm0,94.5v-78.1499h10.2002v78.1499Z"/><path d="M5022.36816,208.90234q-.89941.44971-2.625,1.2002-1.72559.75219-3.97461,1.5a45.96564,45.96564,0,0,1-5.10058,1.34961,29.17445,29.17445,0,0,1-6,.6001,21.79761,21.79761,0,0,1-6.29981-.89991,14.65094,14.65094,0,0,1-5.25-2.7749,13.639,13.639,0,0,1-3.59961-4.7251,15.242,15.242,0,0,1-1.35058-6.60009V142.60254h-10.79981v-8.1001H4988.168v-26.3999h10.20019v26.3999h18v8.1001h-18v53.09961q.29883,4.35278,3.0752,6.375a10.5298,10.5298,0,0,0,6.375,2.02539,19.12817,19.12817,0,0,0,7.64941-1.42529,33.51645,33.51645,0,0,0,4.2002-2.02491Z"/><path d="M5035.11719,118.15234v-15h10.20019v15Zm0,94.5v-78.1499h10.20019v78.1499Z"/><path d="M5062.41406,173.35254a42.74984,42.74984,0,0,1,2.85059-15.6001,38.97744,38.97744,0,0,1,8.02441-12.82519,37.51393,37.51393,0,0,1,12.375-8.625,39.24525,39.24525,0,0,1,15.90039-3.14991,36.47013,36.47013,0,0,1,19.34961,5.02491,32.2967,32.2967,0,0,1,12.4502,13.57519l-9.89942,3.1499a23.78822,23.78822,0,0,0-9.22558-9.375,27.21221,27.21221,0,0,0-24.29981-.97509,28.5272,28.5272,0,0,0-9,6.5249,29.996,29.996,0,0,0-6,9.82519,36.1368,36.1368,0,0,0,.0752,24.89991,31.734,31.734,0,0,0,6.14941,10.125,29.27009,29.27009,0,0,0,9.0752,6.75,25.23226,25.23226,0,0,0,11.02539,2.47509,26.89357,26.89357,0,0,0,7.4248-1.0498,28.59794,28.59794,0,0,0,6.8252-2.92529,24.50707,24.50707,0,0,0,5.39941-4.27491,13.88125,13.88125,0,0,0,3.15039-5.10009l10.04981,3a25.58,25.58,0,0,1-4.79981,7.72509,33.05739,33.05739,0,0,1-7.4248,6.14991,36.382,36.382,0,0,1-9.4502,4.05029,40.25262,40.25262,0,0,1-10.72461,1.4248,37.95733,37.95733,0,0,1-28.20019-12.07519,41.03961,41.03961,0,0,1-8.17481-12.97461A42.18631,42.18631,0,0,1,5062.41406,173.35254Z"/><path d="M5169.81445,214.15234a27.6273,27.6273,0,0,1-10.27539-1.875,25.88253,25.88253,0,0,1-8.25-5.1748,23.312,23.312,0,0,1-7.4248-17.25,19.246,19.246,0,0,1,2.39941-9.4502,22.85186,22.85186,0,0,1,6.75-7.5,33.05436,33.05436,0,0,1,10.35059-4.875,47.70432,47.70432,0,0,1,13.20019-1.72509,72.25376,72.25376,0,0,1,12.14942,1.05029,52.8065,52.8065,0,0,1,10.95019,3v-7.05029q0-10.34986-5.84961-16.42481-5.85059-6.07544-16.20019-6.07519a34.4578,34.4578,0,0,0-12.29981,2.3999,59.31376,59.31376,0,0,0-12.75,6.90039l-3.60058-6.75q15.14941-10.199,29.40039-10.2002,14.69824,0,23.09961,8.25,8.39941,8.25147,8.40039,22.79981v35.25q0,4.20117,3.75,4.20019v9a24.36859,24.36859,0,0,1-3.90039.4502,8.77532,8.77532,0,0,1-6.0752-1.9502,7.32114,7.32114,0,0,1-2.32422-5.3999l-.30078-6.1499a35.42244,35.42244,0,0,1-13.57422,10.7998A41.79164,41.79164,0,0,1,5169.81445,214.15234Zm2.39942-7.7998a35.24267,35.24267,0,0,0,14.625-3,23.90351,23.90351,0,0,0,10.125-7.9502,9.34134,9.34134,0,0,0,2.02539-2.9248,7.46836,7.46836,0,0,0,.6748-2.92529v-12.75a62.76647,62.76647,0,0,0-10.57519-3,59.361,59.361,0,0,0-11.17481-1.04981q-10.80029,0-17.5498,4.5-6.75,4.5-6.75,11.8501a16.16714,16.16714,0,0,0,1.4248,6.75,17.07729,17.07729,0,0,0,3.90039,5.47461,18.20727,18.20727,0,0,0,5.92481,3.67529A19.97836,19.97836,0,0,0,5172.21387,206.35254Z"/><path d="M5232.36426,103.15234h10.20019v91.79981a9.38524,9.38524,0,0,0,2.39942,6.82519,8.963,8.963,0,0,0,6.75,2.4751,20.268,20.268,0,0,0,3.90039-.45019,25.616,25.616,0,0,0,4.20019-1.19971l1.79981,8.25a33.56222,33.56222,0,0,1-6.97559,1.94971,40.71,40.71,0,0,1-7.125.75q-7.05176,0-11.09961-3.9751-4.05029-3.97266-4.0498-11.17481Z"/><path d="M5385.36133,197.05225q-14.84913,16.35132-34.2002,16.35009a42.93518,42.93518,0,0,1-19.875-4.6499,52.41571,52.41571,0,0,1-15.75-12.30029,57.99209,57.99209,0,0,1-10.4248-17.32471,54.52471,54.52471,0,0,1-3.75-19.875,57.3422,57.3422,0,0,1,3.6748-20.3999,54.49965,54.49965,0,0,1,10.27539-17.17529,50.45722,50.45722,0,0,1,15.59961-11.8501,43.94469,43.94469,0,0,1,19.65039-4.42481,55.18225,55.18225,0,0,1,14.25,1.7251,43.38835,43.38835,0,0,1,11.47461,4.79981,36.54214,36.54214,0,0,1,8.7002,7.35009,45.77826,45.77826,0,0,1,6.22558,9.375l-8.10058,5.39991q-5.25147-9.90015-13.64942-14.54981a38.69116,38.69116,0,0,0-19.05078-4.6499,33.77523,33.77523,0,0,0-15.97461,3.75,38.49081,38.49081,0,0,0-12.15039,9.97461,45.61818,45.61818,0,0,0-7.72461,14.25,51.64394,51.64394,0,0,0-2.70019,16.57519,47.7546,47.7546,0,0,0,3.07519,17.1001,45.28959,45.28959,0,0,0,8.47461,14.17481,41.32587,41.32587,0,0,0,12.67578,9.67529,35.18315,35.18315,0,0,0,15.82422,3.59961,37.76028,37.76028,0,0,0,17.47559-4.2749q8.3247-4.27515,15.97461-13.57471v-17.7002h-23.7002v-8.10009h32.55078v52.35009h-8.85058Z"/><path d="M5452.71,143.50244a32.09766,32.09766,0,0,0-18,5.69971,28.743,28.743,0,0,0-10.7998,14.8501v48.60009H5413.71v-78.1499h9.59961v18.75a35.5442,35.5442,0,0,1,11.7002-14.1001,27.1218,27.1218,0,0,1,15.75-5.10009,10.45942,10.45942,0,0,1,1.95019.1499Z"/><path d="M5495.76172,214.15234a37.0639,37.0639,0,0,1-15.59961-3.22509,38.29315,38.29315,0,0,1-12.22559-8.77491,39.77383,39.77383,0,0,1-8.02441-12.8999,42.32716,42.32716,0,0,1-2.85059-15.45019,41.8045,41.8045,0,0,1,2.92578-15.6001,40.88452,40.88452,0,0,1,8.09961-12.8999,39.37269,39.37269,0,0,1,12.22461-8.8501,36.00658,36.00658,0,0,1,15.4502-3.29981,36.51835,36.51835,0,0,1,15.52539,3.29981,39.15453,39.15453,0,0,1,12.2998,8.8501,40.88434,40.88434,0,0,1,8.09961,12.8999,41.8043,41.8043,0,0,1,2.92578,15.6001,42.38834,42.38834,0,0,1-2.85058,15.45019,39.807,39.807,0,0,1-8.02442,12.8999,38.09627,38.09627,0,0,1-12.30078,8.77491A37.57864,37.57864,0,0,1,5495.76172,214.15234Zm-28.34961-40.20019a32.61084,32.61084,0,0,0,2.25,12.2251,33.15953,33.15953,0,0,0,6.07519,9.8999,27.43912,27.43912,0,0,0,9,6.67529,25.87609,25.87609,0,0,0,11.02442,2.3999,25.23229,25.23229,0,0,0,11.02539-2.47509,29.2929,29.2929,0,0,0,9.07519-6.75,32.16789,32.16789,0,0,0,6.14942-9.9751,34.53975,34.53975,0,0,0,0-24.5249,31.9989,31.9989,0,0,0-6.14942-10.04981,29.29259,29.29259,0,0,0-9.07519-6.75,25.2323,25.2323,0,0,0-11.02539-2.4751,24.7493,24.7493,0,0,0-10.9502,2.4751,29.02669,29.02669,0,0,0-9,6.82471,32.90991,32.90991,0,0,0-6.14941,10.125A33.794,33.794,0,0,0,5467.41211,173.95215Z"/><path d="M5576.16016,214.15234q-12.75147,0-18.97559-8.47509-6.22559-8.47266-6.22461-25.27491v-45.8999h10.2002v44.1001q0,26.54956,18.14941,26.5498a26.95753,26.95753,0,0,0,8.85059-1.5,27.76956,27.76956,0,0,0,8.02441-4.35009,35.174,35.174,0,0,0,6.60059-6.75,33.99807,33.99807,0,0,0,4.72461-8.8501V134.50244H5617.71v64.94971q0,4.20117,3.59961,4.20019v9a18.6712,18.6712,0,0,1-2.9248.29981h-1.5752a8.14586,8.14586,0,0,1-5.84961-2.54981,9.048,9.048,0,0,1-2.25-6.45019v-9a36.37072,36.37072,0,0,1-13.875,14.17529A36.974,36.974,0,0,1,5576.16016,214.15234Z"/><path d="M5680.709,214.15234a30.86575,30.86575,0,0,1-17.47558-5.0249,39.93435,39.93435,0,0,1-12.22461-12.67529v48.15039h-10.2002V134.50244h9.15039v15.1499a37.89884,37.89884,0,0,1,12.44922-11.9248,31.86364,31.86364,0,0,1,16.65039-4.5752,32.73255,32.73255,0,0,1,14.84961,3.375,38.17507,38.17507,0,0,1,11.7002,9,41.83119,41.83119,0,0,1,7.72558,12.9751,42.5911,42.5911,0,0,1,2.77442,15.1499,47.26706,47.26706,0,0,1-2.54981,15.6001,39.79079,39.79079,0,0,1-7.27539,12.8999,34.94613,34.94613,0,0,1-11.25,8.77491A31.89034,31.89034,0,0,1,5680.709,214.15234Zm-2.85058-9a24.42687,24.42687,0,0,0,11.47558-2.70019,28.5419,28.5419,0,0,0,8.84961-7.125,31.98157,31.98157,0,0,0,5.625-10.04981,35.26954,35.26954,0,0,0,1.9502-11.625,32.392,32.392,0,0,0-2.25-12,33.15684,33.15684,0,0,0-6.15039-10.0498,29.27573,29.27573,0,0,0-9.22461-6.90039,26.24075,26.24075,0,0,0-11.47559-2.54981,23.62141,23.62141,0,0,0-8.1748,1.5752,33.6324,33.6324,0,0,0-7.9502,4.19971,28.32067,28.32067,0,0,0-6.2998,6.1499,16.54691,16.54691,0,0,0-3.22461,7.42529v24a35.78816,35.78816,0,0,0,4.57519,7.79981,32.18759,32.18759,0,0,0,6.29981,6.22509,30.07172,30.07172,0,0,0,7.57519,4.125A23.96062,23.96062,0,0,0,5677.8584,205.15234Z"/><path d="M5759.30762,214.15234a54.40816,54.40816,0,0,1-17.85059-3,42.85144,42.85144,0,0,1-15-8.70019l4.65039-6.8999a50.81,50.81,0,0,0,13.42481,8.10009,39.39523,39.39523,0,0,0,14.625,2.7002q9.4497,0,15.07519-3.8252a12.37692,12.37692,0,0,0,5.625-10.875,9.445,9.445,0,0,0-1.5-5.47509,13.02855,13.02855,0,0,0-4.4248-3.82471,34.64813,34.64813,0,0,0-7.35059-2.92529q-4.42528-1.27222-10.27441-2.625-6.75-1.64868-11.7002-3.29981a35.67527,35.67527,0,0,1-8.1748-3.75,13.5032,13.5032,0,0,1-4.79981-5.17529,16.84273,16.84273,0,0,1-1.57519-7.72461,22.20822,22.20822,0,0,1,2.32519-10.3501,21.07989,21.07989,0,0,1,6.29981-7.42529,28.6203,28.6203,0,0,1,9.2998-4.42481,41.64022,41.64022,0,0,1,11.3252-1.5,43.86964,43.86964,0,0,1,16.34961,2.92481,32.34043,32.34043,0,0,1,11.85058,7.7251l-4.95019,6a27.46647,27.46647,0,0,0-10.5752-6.75,37.87718,37.87718,0,0,0-12.97461-2.25,32.296,32.296,0,0,0-7.5.82519,18.03537,18.03537,0,0,0-6.07519,2.625,12.90964,12.90964,0,0,0-4.125,4.57471,13.52009,13.52009,0,0,0-1.5,6.52539,10.72183,10.72183,0,0,0,1.0498,5.09961,8.93346,8.93346,0,0,0,3.4502,3.375,27.94261,27.94261,0,0,0,6.07519,2.55029q3.67383,1.125,8.92481,2.32471,7.49853,1.80029,13.20019,3.6001a41.54172,41.54172,0,0,1,9.52442,4.20019,16.56613,16.56613,0,0,1,5.77539,5.8501,16.85716,16.85716,0,0,1,1.95019,8.3999q0,10.79956-8.25,17.1001Q5773.25636,214.1521,5759.30762,214.15234Z"/><g id="Ellipse_2-2" data-name="Ellipse 2"><ellipse class="cls-3" cx="1330.0403" cy="668.64673" rx="369.6" ry="378"/></g><path class="cls-2" d="M1330.0403,544.16671c47.04,0,85.68-46.48,85.68-104.16,0-57.12-12.32-104.16-85.68-104.16s-85.68,46.48-85.68,104.16S1283.00029,544.16671,1330.0403,544.16671Z"/><path class="cls-2" d="M1491.32032,698.72675c-1.68-100.24-14.56-128.24-114.8-146.72,0,0-14,17.92-47.04,17.92s-47.04-17.92-47.04-17.92c-98,17.92-112,45.92-113.68,143.36v17.92s23.52,48.16,161.84,48.16c137.76,0,161.84-48.16,161.84-48.16v-7.84C1491.32032,706.00672,1491.32032,704.88674,1491.32032,698.72675Z"/><path class="cls-2" d="M1294.66846,837.22754a14.33934,14.33934,0,0,0-3.26612-2.46777,60.29164,60.29164,0,0,0-5.66113-2.97559,58.81463,58.81463,0,0,0-7.18506-2.75781,41.15311,41.15311,0,0,0-8.1289-1.66895v25.11231l3.6289.87011q7.54614,2.03467,13.71729,4.35547a37.20448,37.20448,0,0,1,10.45166,5.80567,24.00893,24.00893,0,0,1,6.60449,8.34668,27.70034,27.70034,0,0,1,2.32227,11.97558,30.2268,30.2268,0,0,1-2.83057,13.64453,25.77136,25.77136,0,0,1-7.69287,9.29,34.26381,34.26381,0,0,1-11.25,5.44336,57.97731,57.97731,0,0,1-13.49951,2.10449v15.96778h-8.70948V914.16113a76.26763,76.26763,0,0,1-19.88623-4.13672,71.28588,71.28588,0,0,1-17.564-8.92773l8.85449-17.27344a27.76983,27.76983,0,0,0,3.9917,3.04785,51.70692,51.70692,0,0,0,6.895,3.77442,72.77429,72.77429,0,0,0,8.92725,3.41113,53.10366,53.10366,0,0,0,10.08837,2.10449V871.19434l-5.37109-1.45118a93.75847,93.75847,0,0,1-12.84619-4.42773,34.87494,34.87494,0,0,1-9.07227-5.58789,20.378,20.378,0,0,1-5.44336-7.54883,26.65536,26.65536,0,0,1-1.81445-10.30566,32.1287,32.1287,0,0,1,2.54-13.13672,28.37425,28.37425,0,0,1,6.96777-9.72559,33.1709,33.1709,0,0,1,10.52393-6.31445,47.92612,47.92612,0,0,1,13.209-2.90332V794.9873h8.70948v14.66114a58.20736,58.20736,0,0,1,17.49121,3.99121,78.99778,78.99778,0,0,1,14.15283,7.33105Zm-44.12744,1.45215a8.66347,8.66347,0,0,0,3.48339,7.47558q3.48414,2.54151,10.45166,4.57227V827.21191Q1250.541,828.0835,1250.541,838.67969Zm35.27294,47.17578a8.92374,8.92374,0,0,0-4.06445-7.83887,44.94651,44.94651,0,0,0-11.32226-5.08008v23.51563Q1285.81176,896.01562,1285.814,885.85547Z"/><path class="cls-2" d="M1354.76172,866.98535a37.37013,37.37013,0,0,1,13.49951,2.39453,32.23556,32.23556,0,0,1,10.81445,6.75,30.381,30.381,0,0,1,7.1128,10.45117,34.80129,34.80129,0,0,1,2.54,13.5,33.99174,33.99174,0,0,1-2.90284,14.22461,32.89562,32.89562,0,0,1-7.98388,10.96,36.48455,36.48455,0,0,1-12.04785,7.1123,43.77983,43.77983,0,0,1-15.09668,2.54,42.14634,42.14634,0,0,1-20.249-4.79,33.0499,33.0499,0,0,1-13.57226-13.06348l11.17724-11.61328a31.89142,31.89142,0,0,0,10.2334,9,25.55371,25.55371,0,0,0,12.55615,3.33887,17.98646,17.98646,0,0,0,12.84619-4.71777q5.00831-4.71534,5.00782-12.55567,0-7.54687-4.71729-12.19336a16.36817,16.36817,0,0,0-11.97558-4.64551,18.88659,18.88659,0,0,0-8.92725,2.17774,17.44244,17.44244,0,0,0-6.60449,5.95117h-16.9834a30.96208,30.96208,0,0,1,.58057-3.26562q.57861-2.83155,1.45166-7.25782.87084-4.42675,1.8872-9.87109,1.01367-5.44337,2.17725-11.10449,2.61255-13.35353,5.80615-29.90235h50.80469v17.709h-36.72461l-4.06445,23.08008a12.28253,12.28253,0,0,1,5.08056-3.04786A25.44593,25.44593,0,0,1,1354.76172,866.98535Z"/><path class="cls-2" d="M1475.53125,870.75879a52.87354,52.87354,0,0,1-2.83057,17.63672,43.44229,43.44229,0,0,1-7.83838,13.93554,35.38964,35.38964,0,0,1-11.90283,9.14454,35.858,35.858,0,0,1-29.90234,0,35.37062,35.37062,0,0,1-11.90283-9.14454,43.44229,43.44229,0,0,1-7.83838-13.93554,56.36074,56.36074,0,0,1,0-35.27344,43.43738,43.43738,0,0,1,7.83838-13.93457,36.23342,36.23342,0,0,1,11.90283-9.21777,35.15308,35.15308,0,0,1,29.90234,0,36.25339,36.25339,0,0,1,11.90283,9.21777,43.43738,43.43738,0,0,1,7.83838,13.93457A52.8735,52.8735,0,0,1,1475.53125,870.75879Zm-19.59619,0a41.08336,41.08336,0,0,0-1.30615-10.66895,26.98008,26.98008,0,0,0-3.70166-8.34668,17.53464,17.53464,0,0,0-5.66114-5.37011,14.11793,14.11793,0,0,0-7.18506-1.8877,14.79192,14.79192,0,0,0-7.40332,1.8877,17.25636,17.25636,0,0,0-5.73339,5.37011,26.97985,26.97985,0,0,0-3.70166,8.34668,41.06134,41.06134,0,0,0-1.30664,10.66895,40.21433,40.21433,0,0,0,1.30664,10.59668,27.05993,27.05993,0,0,0,3.70166,8.27441A17.22641,17.22641,0,0,0,1430.67773,895a14.77178,14.77178,0,0,0,7.40332,1.8877A14.0986,14.0986,0,0,0,1445.26611,895a17.5034,17.5034,0,0,0,5.66114-5.37012,27.06017,27.06017,0,0,0,3.70166-8.27441A40.23582,40.23582,0,0,0,1455.93506,870.75879Z"/><path class="cls-2" d="M1564.80127,870.75879a52.87354,52.87354,0,0,1-2.83057,17.63672,43.44229,43.44229,0,0,1-7.83838,13.93554,35.38964,35.38964,0,0,1-11.90283,9.14454,35.858,35.858,0,0,1-29.90234,0,35.37062,35.37062,0,0,1-11.90283-9.14454,43.44229,43.44229,0,0,1-7.83838-13.93554,56.36074,56.36074,0,0,1,0-35.27344,43.43738,43.43738,0,0,1,7.83838-13.93457,36.23342,36.23342,0,0,1,11.90283-9.21777,35.15308,35.15308,0,0,1,29.90234,0,36.25339,36.25339,0,0,1,11.90283,9.21777,43.43738,43.43738,0,0,1,7.83838,13.93457A52.8735,52.8735,0,0,1,1564.80127,870.75879Zm-19.59619,0a41.08336,41.08336,0,0,0-1.30615-10.66895,26.98008,26.98008,0,0,0-3.70166-8.34668,17.53464,17.53464,0,0,0-5.66114-5.37011,14.11793,14.11793,0,0,0-7.18506-1.8877,14.79192,14.79192,0,0,0-7.40332,1.8877,17.25636,17.25636,0,0,0-5.73339,5.37011,26.97985,26.97985,0,0,0-3.70166,8.34668,41.06133,41.06133,0,0,0-1.30665,10.66895,40.21431,40.21431,0,0,0,1.30665,10.59668,27.05993,27.05993,0,0,0,3.70166,8.27441A17.22641,17.22641,0,0,0,1519.94775,895a14.77178,14.77178,0,0,0,7.40332,1.8877A14.0986,14.0986,0,0,0,1534.53613,895a17.5034,17.5034,0,0,0,5.66114-5.37012,27.06017,27.06017,0,0,0,3.70166-8.27441A40.23582,40.23582,0,0,0,1545.20508,870.75879Z"/><path class="cls-2" d="M1150.32477,954.08931a9.41378,9.41378,0,0,1-6.61188-3.23775l-51.68407-62.46922c-1.3785-1.27241-4.8965-5.10487-3.56735-8.44872.78389-1.99562,2.85545-3.00291,6.13874-3.00291h26.64107v-88.194a5.83425,5.83425,0,0,1,1.083-4.4496c1.35942-1.76091,3.69609-2.666,6.9224-2.666h40.95949a7.19925,7.19925,0,0,1,5.47214,2.02984,6.13912,6.13912,0,0,1,1.70416,4.21488v87.21671h24.42194c1.50712,0,6.09321,0,7.498,3.38938,1.46563,3.5484-2.08277,7.46789-3.20747,8.57745-1.5678,2.132-43.90577,58.28463-50.07456,64.45353a7.99923,7.99923,0,0,1-5.69565,2.58641Zm0,0"/><g id="Ellipse_2-3" data-name="Ellipse 2"><ellipse class="cls-4" cx="3075.37363" cy="668.64673" rx="369.6" ry="378"/></g><path class="cls-2" d="M3162.73362,578.32675v-83.44l-116.48,83.44v-83.44h-29.12v-67.76h-29.12v68.32h-29.12v-117.04h-58.8v117.04h-29.12v224h408.8v-224Zm-136.08,91.84h-39.2v-39.2h39.2Zm68.32,0h-39.2v-39.2h39.2Zm67.76,0h-39.2v-39.2h39.2Z"/><path class="cls-2" d="M3040.00439,837.22754a14.339,14.339,0,0,0-3.26611-2.46777,60.29289,60.29289,0,0,0-5.66113-2.97559,58.81526,58.81526,0,0,0-7.18506-2.75781,41.15306,41.15306,0,0,0-8.12891-1.66895v25.11231l3.62891.87011q7.54614,2.03467,13.71729,4.35547A37.20448,37.20448,0,0,1,3043.561,863.501a24.009,24.009,0,0,1,6.60449,8.34668,27.6929,27.6929,0,0,1,2.32275,11.97558,30.22034,30.22034,0,0,1-2.83105,13.64453,25.77136,25.77136,0,0,1-7.69287,9.29,34.26391,34.26391,0,0,1-11.25,5.44336,57.97731,57.97731,0,0,1-13.49952,2.10449v15.96778h-8.70947V914.16113a76.26755,76.26755,0,0,1-19.88623-4.13672,71.28588,71.28588,0,0,1-17.564-8.92773l8.85449-17.27344a27.76983,27.76983,0,0,0,3.9917,3.04785,51.70629,51.70629,0,0,0,6.895,3.77442,72.77412,72.77412,0,0,0,8.92724,3.41113,53.10393,53.10393,0,0,0,10.08838,2.10449V871.19434l-5.37109-1.45118a93.758,93.758,0,0,1-12.84619-4.42773,34.87494,34.87494,0,0,1-9.07227-5.58789,20.378,20.378,0,0,1-5.44336-7.54883,26.65536,26.65536,0,0,1-1.81445-10.30566,32.1287,32.1287,0,0,1,2.54-13.13672,28.37425,28.37425,0,0,1,6.96777-9.72559,33.17068,33.17068,0,0,1,10.52393-6.31445,47.92612,47.92612,0,0,1,13.209-2.90332V794.9873h8.70947v14.66114a58.20729,58.20729,0,0,1,17.49121,3.99121,78.99789,78.99789,0,0,1,14.15284,7.33105Zm-44.12744,1.45215a8.66348,8.66348,0,0,0,3.4834,7.47558q3.48414,2.54151,10.45166,4.57227V827.21191Q2995.877,828.0835,2995.877,838.67969Zm35.273,47.17578a8.92374,8.92374,0,0,0-4.06445-7.83887,44.9466,44.9466,0,0,0-11.32227-5.08008v23.51563Q3031.14771,896.01562,3031.1499,885.85547Z"/><path class="cls-2" d="M3100.09766,866.98535a37.37469,37.37469,0,0,1,13.5,2.39453,32.23121,32.23121,0,0,1,10.81347,6.75,30.37528,30.37528,0,0,1,7.11328,10.45117,34.8101,34.8101,0,0,1,2.54,13.5,33.9919,33.9919,0,0,1-2.90332,14.22461,32.88081,32.88081,0,0,1-7.9834,10.96,36.48943,36.48943,0,0,1-12.04785,7.1123,43.77975,43.77975,0,0,1-15.09668,2.54,42.14632,42.14632,0,0,1-20.249-4.79,33.053,33.053,0,0,1-13.57227-13.06348l11.17676-11.61328a31.89655,31.89655,0,0,0,10.2334,9,25.55689,25.55689,0,0,0,12.55664,3.33887,17.98849,17.98849,0,0,0,12.84668-4.71777q5.00684-4.71534,5.00781-12.55567,0-7.54687-4.71777-12.19336a16.36743,16.36743,0,0,0-11.97559-4.64551,18.8832,18.8832,0,0,0-8.92675,2.17774,17.44173,17.44173,0,0,0-6.60547,5.95117h-16.9834a31.03762,31.03762,0,0,1,.58105-3.26562q.57863-2.83155,1.45118-7.25782.87157-4.42675,1.88769-9.87109,1.01367-5.44337,2.17676-11.10449,2.61328-13.35353,5.80664-29.90235h50.80469v17.709h-36.72461l-4.06446,23.08008a12.27824,12.27824,0,0,1,5.08106-3.04786A25.4407,25.4407,0,0,1,3100.09766,866.98535Z"/><path class="cls-2" d="M3220.86719,870.75879a52.886,52.886,0,0,1-2.83106,17.63672,43.45971,43.45971,0,0,1-7.83789,13.93554,35.401,35.401,0,0,1-11.90332,9.14454,35.858,35.858,0,0,1-29.90234,0,35.37241,35.37241,0,0,1-11.90332-9.14454,43.45971,43.45971,0,0,1-7.83789-13.93554,56.35147,56.35147,0,0,1,0-35.27344,43.4548,43.4548,0,0,1,7.83789-13.93457,36.23525,36.23525,0,0,1,11.90332-9.21777,35.15309,35.15309,0,0,1,29.90234,0,36.26532,36.26532,0,0,1,11.90332,9.21777,43.4548,43.4548,0,0,1,7.83789,13.93457A52.88592,52.88592,0,0,1,3220.86719,870.75879Zm-19.59668,0a41.06177,41.06177,0,0,0-1.30664-10.66895,26.95668,26.95668,0,0,0-3.70117-8.34668,17.52975,17.52975,0,0,0-5.66114-5.37011,14.1197,14.1197,0,0,0-7.18554-1.8877,14.78823,14.78823,0,0,0-7.40235,1.8877,17.25452,17.25452,0,0,0-5.73437,5.37011,26.97935,26.97935,0,0,0-3.70117,8.34668,41.06133,41.06133,0,0,0-1.30665,10.66895,40.21431,40.21431,0,0,0,1.30665,10.59668,27.05938,27.05938,0,0,0,3.70117,8.27441A17.22459,17.22459,0,0,0,3176.01367,895a14.76811,14.76811,0,0,0,7.40235,1.8877A14.10037,14.10037,0,0,0,3190.60156,895a17.49853,17.49853,0,0,0,5.66114-5.37012,27.03626,27.03626,0,0,0,3.70117-8.27441A40.21474,40.21474,0,0,0,3201.27051,870.75879Z"/><path class="cls-2" d="M3310.1377,870.75879a52.886,52.886,0,0,1-2.83106,17.63672,43.45971,43.45971,0,0,1-7.83789,13.93554,35.40114,35.40114,0,0,1-11.90332,9.14454,35.858,35.858,0,0,1-29.90234,0,35.37232,35.37232,0,0,1-11.90332-9.14454,43.45952,43.45952,0,0,1-7.83789-13.93554,56.35147,56.35147,0,0,1,0-35.27344,43.45461,43.45461,0,0,1,7.83789-13.93457,36.23515,36.23515,0,0,1,11.90332-9.21777,35.15309,35.15309,0,0,1,29.90234,0,36.26542,36.26542,0,0,1,11.90332,9.21777,43.4548,43.4548,0,0,1,7.83789,13.93457A52.88592,52.88592,0,0,1,3310.1377,870.75879Zm-19.59668,0a41.06177,41.06177,0,0,0-1.30664-10.66895,26.95669,26.95669,0,0,0-3.70118-8.34668,17.52982,17.52982,0,0,0-5.66113-5.37011,14.11974,14.11974,0,0,0-7.18555-1.8877,14.78822,14.78822,0,0,0-7.40234,1.8877,17.25455,17.25455,0,0,0-5.73438,5.37011,26.97982,26.97982,0,0,0-3.70117,8.34668,41.06177,41.06177,0,0,0-1.30664,10.66895,40.21474,40.21474,0,0,0,1.30664,10.59668,27.05986,27.05986,0,0,0,3.70117,8.27441A17.22461,17.22461,0,0,0,3265.28418,895a14.76809,14.76809,0,0,0,7.40234,1.8877A14.10041,14.10041,0,0,0,3279.87207,895a17.4986,17.4986,0,0,0,5.66113-5.37012,27.03627,27.03627,0,0,0,3.70118-8.27441A40.21474,40.21474,0,0,0,3290.541,870.75879Z"/><path class="cls-2" d="M2895.65937,954.08955a9.41376,9.41376,0,0,1-6.61188-3.23775l-51.68407-62.46922c-1.3785-1.27241-4.8965-5.10487-3.56735-8.44871.78389-1.99563,2.85545-3.00292,6.13874-3.00292h26.64107V788.737a5.83425,5.83425,0,0,1,1.083-4.4496c1.35942-1.76091,3.69609-2.666,6.9224-2.666h40.95948a7.19926,7.19926,0,0,1,5.47215,2.02983,6.13912,6.13912,0,0,1,1.70416,4.21488v87.21672H2947.139c1.50712,0,6.09321,0,7.498,3.38937,1.46563,3.5484-2.08277,7.46789-3.20747,8.57746-1.5678,2.132-43.90578,58.28462-50.07456,64.45352a7.9992,7.9992,0,0,1-5.69565,2.58641Zm0,0"/><g id="Ellipse_2-4" data-name="Ellipse 2"><ellipse class="cls-5" cx="4820.70697" cy="668.64673" rx="369.6" ry="378"/></g><path class="cls-2" d="M4970.227,669.60672a41.861,41.861,0,1,0-75.6-24.64,40.18876,40.18876,0,0,0,8.4,25.2,63.22676,63.22676,0,0,0-24.08,19.6c-6.16-8.4-14.56-15.68-24.64-19.6a41.861,41.861,0,1,0-75.6-24.64,40.18872,40.18872,0,0,0,8.4,25.2,63.22614,63.22614,0,0,0-24.08,19.6c-6.16-8.4-14.56-15.68-24.64-19.6a41.861,41.861,0,1,0-75.6-24.64,40.18872,40.18872,0,0,0,8.4,25.2,58.59324,58.59324,0,0,0-35.28,53.76v10.64h369.6v-10.64C5005.507,699.28674,4990.947,678.56671,4970.227,669.60672Z"/><polygon class="cls-2" points="4895.187 488.727 4848.707 474.167 4820.707 434.407 4792.147 474.167 4746.227 488.727 4774.787 527.367 4774.787 576.087 4820.707 560.967 4866.627 576.087 4866.067 527.367 4895.187 488.727"/><rect class="cls-2" x="4810.06696" y="363.28674" width="21.84001" height="31.35999"/><rect class="cls-2" x="4941.10697" y="494.32672" width="31.35999" height="21.84001"/><rect class="cls-2" x="4668.94697" y="494.32672" width="31.35999" height="21.84001"/><rect class="cls-2" x="4905.17634" y="403.77441" width="36.39965" height="21.8398" transform="translate(1148.79033 3602.81382) rotate(-45)"/><rect class="cls-2" x="4706.92637" y="396.17171" width="21.8398" height="36.39965" transform="translate(1088.82026 3457.3877) rotate(-45)"/><path class="cls-2" d="M4785.33594,837.22754a14.32246,14.32246,0,0,0-3.26563-2.46777,60.41446,60.41446,0,0,0-5.66113-2.97559,58.823,58.823,0,0,0-7.18555-2.75781,41.16035,41.16035,0,0,0-8.1289-1.66895v25.11231l3.6289.87011q7.54542,2.03467,13.71778,4.35547a37.21519,37.21519,0,0,1,10.45117,5.80567,23.99774,23.99774,0,0,1,6.60449,8.34668,27.70019,27.70019,0,0,1,2.32227,11.97558,30.2334,30.2334,0,0,1-2.83008,13.64453,25.77755,25.77755,0,0,1-7.69336,9.29,34.26391,34.26391,0,0,1-11.25,5.44336,57.97721,57.97721,0,0,1-13.499,2.10449v15.96778h-8.71V914.16113a76.27936,76.27936,0,0,1-19.88671-4.13672,71.29106,71.29106,0,0,1-17.56348-8.92773l8.85449-17.27344a27.78744,27.78744,0,0,0,3.99121,3.04785,51.77717,51.77717,0,0,0,6.89551,3.77442,72.79654,72.79654,0,0,0,8.92676,3.41113,53.10868,53.10868,0,0,0,10.08886,2.10449V871.19434l-5.37109-1.45118a93.7437,93.7437,0,0,1-12.84668-4.42773,34.88311,34.88311,0,0,1-9.07226-5.58789,20.37773,20.37773,0,0,1-5.44336-7.54883,26.66431,26.66431,0,0,1-1.81446-10.30566,32.12868,32.12868,0,0,1,2.541-13.13672,28.36534,28.36534,0,0,1,6.9668-9.72559,33.17858,33.17858,0,0,1,10.52441-6.31445,47.93405,47.93405,0,0,1,13.209-2.90332V794.9873h8.71v14.66114a58.21423,58.21423,0,0,1,17.49121,3.99121,79.02584,79.02584,0,0,1,14.15234,7.33105Zm-44.12793,1.45215a8.66176,8.66176,0,0,0,3.48437,7.47558q3.4834,2.54151,10.45117,4.57227V827.21191Q4741.2085,828.0835,4741.208,838.67969Zm35.27344,47.17578a8.92375,8.92375,0,0,0-4.06446-7.83887,44.93837,44.93837,0,0,0-11.32226-5.08008v23.51563Q4776.48,896.01562,4776.48145,885.85547Z"/><path class="cls-2" d="M4845.42871,866.98535a37.37469,37.37469,0,0,1,13.5,2.39453,32.23125,32.23125,0,0,1,10.81348,6.75,30.37541,30.37541,0,0,1,7.11328,10.45117,34.8101,34.8101,0,0,1,2.54,13.5,33.9919,33.9919,0,0,1-2.90332,14.22461,32.881,32.881,0,0,1-7.9834,10.96,36.48943,36.48943,0,0,1-12.04785,7.1123,43.77983,43.77983,0,0,1-15.09668,2.54,42.14639,42.14639,0,0,1-20.249-4.79,33.05286,33.05286,0,0,1-13.57226-13.06348l11.17676-11.61328a31.89634,31.89634,0,0,0,10.2334,9,25.55684,25.55684,0,0,0,12.55664,3.33887,17.98851,17.98851,0,0,0,12.84668-4.71777q5.00683-4.71534,5.00781-12.55567,0-7.54687-4.71778-12.19336a16.36739,16.36739,0,0,0-11.97558-4.64551,18.88323,18.88323,0,0,0-8.92676,2.17774,17.44173,17.44173,0,0,0-6.60547,5.95117h-16.9834a31.03613,31.03613,0,0,1,.58106-3.26562q.57861-2.83155,1.45117-7.25782.87157-4.42675,1.8877-9.87109,1.01367-5.44337,2.17675-11.10449,2.61328-13.35353,5.80664-29.90235h50.80469v17.709h-36.72461l-4.06445,23.08008a12.27813,12.27813,0,0,1,5.081-3.04786A25.44075,25.44075,0,0,1,4845.42871,866.98535Z"/><path class="cls-2" d="M4966.19922,870.75879a52.886,52.886,0,0,1-2.83106,17.63672,43.45952,43.45952,0,0,1-7.83789,13.93554,35.401,35.401,0,0,1-11.90332,9.14454,35.858,35.858,0,0,1-29.90234,0,35.37241,35.37241,0,0,1-11.90332-9.14454,43.45971,43.45971,0,0,1-7.83789-13.93554,56.35147,56.35147,0,0,1,0-35.27344,43.4548,43.4548,0,0,1,7.83789-13.93457,36.23525,36.23525,0,0,1,11.90332-9.21777,35.15309,35.15309,0,0,1,29.90234,0,36.26532,36.26532,0,0,1,11.90332,9.21777,43.45461,43.45461,0,0,1,7.83789,13.93457A52.88592,52.88592,0,0,1,4966.19922,870.75879Zm-19.59668,0a41.06177,41.06177,0,0,0-1.30664-10.66895,26.95668,26.95668,0,0,0-3.70117-8.34668,17.52975,17.52975,0,0,0-5.66114-5.37011,14.1197,14.1197,0,0,0-7.18554-1.8877,14.78826,14.78826,0,0,0-7.40235,1.8877,17.25452,17.25452,0,0,0-5.73437,5.37011,26.97935,26.97935,0,0,0-3.70117,8.34668,41.06134,41.06134,0,0,0-1.30664,10.66895,40.21433,40.21433,0,0,0,1.30664,10.59668,27.05938,27.05938,0,0,0,3.70117,8.27441A17.22459,17.22459,0,0,0,4921.3457,895a14.76813,14.76813,0,0,0,7.40235,1.8877A14.10037,14.10037,0,0,0,4935.93359,895a17.49853,17.49853,0,0,0,5.66114-5.37012,27.03626,27.03626,0,0,0,3.70117-8.27441A40.21474,40.21474,0,0,0,4946.60254,870.75879Z"/><path class="cls-2" d="M5055.46875,870.75879a52.88622,52.88622,0,0,1-2.831,17.63672,43.45954,43.45954,0,0,1-7.8379,13.93554,35.401,35.401,0,0,1-11.90332,9.14454,35.858,35.858,0,0,1-29.90234,0,35.37241,35.37241,0,0,1-11.90332-9.14454,43.45971,43.45971,0,0,1-7.83789-13.93554,56.35166,56.35166,0,0,1,0-35.27344,43.4548,43.4548,0,0,1,7.83789-13.93457,36.23525,36.23525,0,0,1,11.90332-9.21777,35.15309,35.15309,0,0,1,29.90234,0,36.26532,36.26532,0,0,1,11.90332,9.21777,43.45463,43.45463,0,0,1,7.8379,13.93457A52.88618,52.88618,0,0,1,5055.46875,870.75879Zm-19.59668,0a41.06177,41.06177,0,0,0-1.30664-10.66895,26.95668,26.95668,0,0,0-3.70117-8.34668,17.52982,17.52982,0,0,0-5.66113-5.37011,14.11976,14.11976,0,0,0-7.18555-1.8877,14.78826,14.78826,0,0,0-7.40235,1.8877,17.25462,17.25462,0,0,0-5.73437,5.37011,26.97935,26.97935,0,0,0-3.70117,8.34668,41.06134,41.06134,0,0,0-1.30664,10.66895,40.21433,40.21433,0,0,0,1.30664,10.59668,27.05938,27.05938,0,0,0,3.70117,8.27441A17.22468,17.22468,0,0,0,5010.61523,895a14.76813,14.76813,0,0,0,7.40235,1.8877A14.10043,14.10043,0,0,0,5025.20313,895a17.4986,17.4986,0,0,0,5.66113-5.37012,27.03626,27.03626,0,0,0,3.70117-8.27441A40.21474,40.21474,0,0,0,5035.87207,870.75879Z"/><path class="cls-2" d="M4640.9919,954.08955a9.41381,9.41381,0,0,1-6.61188-3.23775L4582.696,888.38258c-1.37849-1.27241-4.8965-5.10487-3.56735-8.44871.7839-1.99563,2.85545-3.00292,6.13874-3.00292h26.64107V788.737a5.83425,5.83425,0,0,1,1.083-4.4496c1.35942-1.76091,3.69609-2.666,6.9224-2.666h40.95949a7.19926,7.19926,0,0,1,5.47214,2.02983,6.13912,6.13912,0,0,1,1.70416,4.21488v87.21672h24.42194c1.50712,0,6.09321,0,7.49805,3.38937,1.46563,3.5484-2.08277,7.46789-3.20747,8.57746-1.5678,2.132-43.90577,58.28462-50.07456,64.45352a7.99918,7.99918,0,0,1-5.69565,2.58641Zm0,0"/><g id="Ellipse_2-5" data-name="Ellipse 2"><ellipse class="cls-6" cx="2202.70697" cy="668.64673" rx="369.6" ry="378"/></g><path class="cls-2" d="M2202.707,544.16671c47.04,0,85.68-46.48,85.68-104.16,0-57.12-12.32-104.16-85.68-104.16s-85.68,46.48-85.68,104.16S2155.667,544.16671,2202.707,544.16671Z"/><path class="cls-2" d="M2363.987,698.72675c-1.68-100.24-14.56-128.24-114.8-146.72,0,0-14,17.92-47.04,17.92s-47.04-17.92-47.04-17.92c-98,17.92-112,45.92-113.68,143.36v17.92s23.52,48.16,161.84,48.16c137.76,0,161.84-48.16,161.84-48.16v-7.84C2363.987,706.00672,2363.987,704.88674,2363.987,698.72675Z"/><path class="cls-2" d="M2167.33691,837.22754a14.339,14.339,0,0,0-3.26611-2.46777,60.29289,60.29289,0,0,0-5.66113-2.97559,58.81526,58.81526,0,0,0-7.18506-2.75781,41.15306,41.15306,0,0,0-8.12891-1.66895v25.11231l3.62891.87011q7.54614,2.03467,13.71728,4.35547a37.2042,37.2042,0,0,1,10.45166,5.80567,24.009,24.009,0,0,1,6.6045,8.34668,27.70034,27.70034,0,0,1,2.32226,11.97558,30.22693,30.22693,0,0,1-2.83056,13.64453,25.77136,25.77136,0,0,1-7.69287,9.29,34.26391,34.26391,0,0,1-11.25,5.44336,57.97731,57.97731,0,0,1-13.49952,2.10449v15.96778h-8.70947V914.16113a76.26755,76.26755,0,0,1-19.88623-4.13672,71.28588,71.28588,0,0,1-17.564-8.92773l8.85449-17.27344a27.76983,27.76983,0,0,0,3.9917,3.04785,51.70629,51.70629,0,0,0,6.895,3.77442,72.77412,72.77412,0,0,0,8.92724,3.41113,53.10377,53.10377,0,0,0,10.08838,2.10449V871.19434l-5.37109-1.45118a93.758,93.758,0,0,1-12.84619-4.42773,34.87494,34.87494,0,0,1-9.07227-5.58789,20.378,20.378,0,0,1-5.44336-7.54883,26.65536,26.65536,0,0,1-1.81445-10.30566,32.1287,32.1287,0,0,1,2.54-13.13672,28.37425,28.37425,0,0,1,6.96777-9.72559,33.17068,33.17068,0,0,1,10.52393-6.31445,47.926,47.926,0,0,1,13.209-2.90332V794.9873h8.70947v14.66114a58.20729,58.20729,0,0,1,17.49121,3.99121,78.99789,78.99789,0,0,1,14.15284,7.33105Zm-44.12744,1.45215a8.66348,8.66348,0,0,0,3.4834,7.47558q3.48414,2.54151,10.45166,4.57227V827.21191Q2123.20947,828.0835,2123.20947,838.67969Zm35.273,47.17578a8.92374,8.92374,0,0,0-4.06445-7.83887,44.9466,44.9466,0,0,0-11.32227-5.08008v23.51563Q2158.48023,896.01562,2158.48242,885.85547Z"/><path class="cls-2" d="M2227.43018,866.98535a37.37013,37.37013,0,0,1,13.49951,2.39453,32.23556,32.23556,0,0,1,10.81445,6.75,30.38085,30.38085,0,0,1,7.11279,10.45117,34.8011,34.8011,0,0,1,2.54,13.5,33.99174,33.99174,0,0,1-2.90283,14.22461,32.89565,32.89565,0,0,1-7.98389,10.96,36.48445,36.48445,0,0,1-12.04785,7.1123,43.77979,43.77979,0,0,1-15.09668,2.54,42.14632,42.14632,0,0,1-20.249-4.79,33.05,33.05,0,0,1-13.57227-13.06348l11.17725-11.61328a31.89142,31.89142,0,0,0,10.2334,9,25.55371,25.55371,0,0,0,12.55615,3.33887,17.98648,17.98648,0,0,0,12.84619-4.71777q5.0083-4.71534,5.00781-12.55567,0-7.54687-4.71728-12.19336a16.36821,16.36821,0,0,0-11.97559-4.64551,18.88655,18.88655,0,0,0-8.92724,2.17774,17.44237,17.44237,0,0,0-6.60449,5.95117h-16.9834a30.96356,30.96356,0,0,1,.58056-3.26562q.57863-2.83155,1.45166-7.25782.87086-4.42675,1.88721-9.87109,1.01367-5.44337,2.17725-11.10449,2.61255-13.35353,5.80615-29.90235h50.80469v17.709h-36.72461l-4.06446,23.08008a12.28257,12.28257,0,0,1,5.08057-3.04786A25.44593,25.44593,0,0,1,2227.43018,866.98535Z"/><path class="cls-2" d="M2348.19971,870.75879a52.87354,52.87354,0,0,1-2.83057,17.63672,43.44229,43.44229,0,0,1-7.83838,13.93554,35.38984,35.38984,0,0,1-11.90283,9.14454,35.858,35.858,0,0,1-29.90234,0,35.37066,35.37066,0,0,1-11.90284-9.14454,43.44227,43.44227,0,0,1-7.83837-13.93554,56.36074,56.36074,0,0,1,0-35.27344,43.43736,43.43736,0,0,1,7.83837-13.93457,36.23346,36.23346,0,0,1,11.90284-9.21777,35.15308,35.15308,0,0,1,29.90234,0,36.2536,36.2536,0,0,1,11.90283,9.21777,43.43738,43.43738,0,0,1,7.83838,13.93457A52.8735,52.8735,0,0,1,2348.19971,870.75879Zm-19.59619,0a41.08292,41.08292,0,0,0-1.30616-10.66895,26.97985,26.97985,0,0,0-3.70166-8.34668,17.53461,17.53461,0,0,0-5.66113-5.37011,14.118,14.118,0,0,0-7.18506-1.8877,14.79189,14.79189,0,0,0-7.40332,1.8877,17.25639,17.25639,0,0,0-5.7334,5.37011,26.98008,26.98008,0,0,0-3.70166,8.34668,41.06177,41.06177,0,0,0-1.30664,10.66895,40.21474,40.21474,0,0,0,1.30664,10.59668,27.06017,27.06017,0,0,0,3.70166,8.27441A17.22644,17.22644,0,0,0,2303.34619,895a14.77176,14.77176,0,0,0,7.40332,1.8877A14.09865,14.09865,0,0,0,2317.93457,895a17.50337,17.50337,0,0,0,5.66113-5.37012,27.05993,27.05993,0,0,0,3.70166-8.27441A40.23539,40.23539,0,0,0,2328.60352,870.75879Z"/><path class="cls-2" d="M2437.46973,870.75879a52.87354,52.87354,0,0,1-2.83057,17.63672,43.44229,43.44229,0,0,1-7.83838,13.93554,35.38984,35.38984,0,0,1-11.90283,9.14454,35.858,35.858,0,0,1-29.90234,0,35.37066,35.37066,0,0,1-11.90284-9.14454,43.44247,43.44247,0,0,1-7.83838-13.93554,56.36093,56.36093,0,0,1,0-35.27344,43.43757,43.43757,0,0,1,7.83838-13.93457,36.23346,36.23346,0,0,1,11.90284-9.21777,35.15308,35.15308,0,0,1,29.90234,0,36.2536,36.2536,0,0,1,11.90283,9.21777,43.43738,43.43738,0,0,1,7.83838,13.93457A52.8735,52.8735,0,0,1,2437.46973,870.75879Zm-19.59619,0a41.08292,41.08292,0,0,0-1.30616-10.66895,26.97985,26.97985,0,0,0-3.70166-8.34668,17.53461,17.53461,0,0,0-5.66113-5.37011,14.118,14.118,0,0,0-7.18506-1.8877,14.79189,14.79189,0,0,0-7.40332,1.8877,17.25639,17.25639,0,0,0-5.7334,5.37011,26.98008,26.98008,0,0,0-3.70166,8.34668,41.06177,41.06177,0,0,0-1.30664,10.66895,40.21474,40.21474,0,0,0,1.30664,10.59668,27.06017,27.06017,0,0,0,3.70166,8.27441A17.22644,17.22644,0,0,0,2392.61621,895a14.77176,14.77176,0,0,0,7.40332,1.8877A14.09865,14.09865,0,0,0,2407.20459,895a17.50337,17.50337,0,0,0,5.66113-5.37012,27.05993,27.05993,0,0,0,3.70166-8.27441A40.23539,40.23539,0,0,0,2417.87354,870.75879Z"/><path class="cls-2" d="M2020.161,781.62136a9.41381,9.41381,0,0,1,6.61188,3.23775l51.68407,62.46922c1.37849,1.2724,4.8965,5.10487,3.56735,8.44871-.7839,1.99563-2.85545,3.00292-6.13874,3.00292h-26.64107v88.194a5.83423,5.83423,0,0,1-1.083,4.44959c-1.35942,1.76091-3.69609,2.666-6.9224,2.666h-40.95949a7.19929,7.19929,0,0,1-5.47214-2.02983,6.13908,6.13908,0,0,1-1.70416-4.21488V860.62812h-24.42194c-1.50712,0-6.09321,0-7.498-3.38938-1.46563-3.54839,2.08276-7.46788,3.20747-8.57745,1.5678-2.132,43.90577-58.28462,50.07456-64.45352a7.99918,7.99918,0,0,1,5.69565-2.58641Zm0,0"/><g id="Ellipse_2-6" data-name="Ellipse 2"><ellipse class="cls-7" cx="3948.0403" cy="668.64673" rx="369.6" ry="378"/></g><path class="cls-2" d="M4035.40029,578.32675v-83.44l-116.48,83.44v-83.44h-29.12v-67.76h-29.12v68.32h-29.12v-117.04h-58.8v117.04h-29.12v224h408.8v-224Zm-136.08,91.84h-39.2v-39.2h39.2Zm68.32,0h-39.2v-39.2h39.2Zm67.76,0h-39.2v-39.2h39.2Z"/><path class="cls-2" d="M3912.668,837.22754a14.32246,14.32246,0,0,0-3.26563-2.46777,60.41446,60.41446,0,0,0-5.66113-2.97559,58.82233,58.82233,0,0,0-7.18555-2.75781,41.16035,41.16035,0,0,0-8.1289-1.66895v25.11231l3.6289.87011q7.54542,2.03467,13.71778,4.35547a37.215,37.215,0,0,1,10.45117,5.80567,23.99762,23.99762,0,0,1,6.60449,8.34668,27.70019,27.70019,0,0,1,2.32227,11.97558,30.2334,30.2334,0,0,1-2.83008,13.64453,25.77755,25.77755,0,0,1-7.69336,9.29,34.26372,34.26372,0,0,1-11.25,5.44336,57.97721,57.97721,0,0,1-13.499,2.10449v15.96778h-8.71V914.16113a76.27935,76.27935,0,0,1-19.88672-4.13672,71.29123,71.29123,0,0,1-17.56348-8.92773l8.85449-17.27344a27.78744,27.78744,0,0,0,3.99121,3.04785,51.77717,51.77717,0,0,0,6.89551,3.77442,72.79654,72.79654,0,0,0,8.92676,3.41113,53.10862,53.10862,0,0,0,10.08887,2.10449V871.19434l-5.3711-1.45118a93.74417,93.74417,0,0,1-12.84668-4.42773,34.88328,34.88328,0,0,1-9.07226-5.58789,20.37784,20.37784,0,0,1-5.44336-7.54883,26.66431,26.66431,0,0,1-1.81446-10.30566,32.12868,32.12868,0,0,1,2.541-13.13672,28.36534,28.36534,0,0,1,6.9668-9.72559,33.17858,33.17858,0,0,1,10.52441-6.31445,47.934,47.934,0,0,1,13.209-2.90332V794.9873h8.71v14.66114a58.21423,58.21423,0,0,1,17.49121,3.99121,79.02584,79.02584,0,0,1,14.15234,7.33105ZM3868.54,838.67969a8.66176,8.66176,0,0,0,3.48437,7.47558q3.4834,2.54151,10.45118,4.57227V827.21191Q3868.54053,828.0835,3868.54,838.67969Zm35.27344,47.17578a8.92375,8.92375,0,0,0-4.06446-7.83887,44.93837,44.93837,0,0,0-11.32226-5.08008v23.51563Q3903.812,896.01562,3903.81348,885.85547Z"/><path class="cls-2" d="M3972.76074,866.98535a37.37469,37.37469,0,0,1,13.5,2.39453,32.23125,32.23125,0,0,1,10.81348,6.75,30.37541,30.37541,0,0,1,7.11328,10.45117,34.8101,34.8101,0,0,1,2.54,13.5,33.9919,33.9919,0,0,1-2.90332,14.22461,32.88081,32.88081,0,0,1-7.9834,10.96,36.48943,36.48943,0,0,1-12.04785,7.1123,43.77983,43.77983,0,0,1-15.09668,2.54,42.14632,42.14632,0,0,1-20.249-4.79,33.05283,33.05283,0,0,1-13.57227-13.06348l11.17676-11.61328a31.89634,31.89634,0,0,0,10.2334,9A25.55684,25.55684,0,0,0,3968.8418,917.79a17.98851,17.98851,0,0,0,12.84668-4.71777q5.00684-4.71534,5.00781-12.55567,0-7.54687-4.71777-12.19336a16.36743,16.36743,0,0,0-11.97559-4.64551,18.88323,18.88323,0,0,0-8.92676,2.17774,17.44173,17.44173,0,0,0-6.60547,5.95117h-16.9834a31.03613,31.03613,0,0,1,.58106-3.26562q.57861-2.83155,1.45117-7.25782.87159-4.42675,1.8877-9.87109,1.01367-5.44337,2.17675-11.10449,2.61328-13.35353,5.80665-29.90235h50.80468v17.709H3963.4707l-4.06445,23.08008a12.2782,12.2782,0,0,1,5.081-3.04786A25.44075,25.44075,0,0,1,3972.76074,866.98535Z"/><path class="cls-2" d="M4093.53125,870.75879a52.88622,52.88622,0,0,1-2.831,17.63672,43.45954,43.45954,0,0,1-7.8379,13.93554,35.401,35.401,0,0,1-11.90332,9.14454,35.858,35.858,0,0,1-29.90234,0,35.37241,35.37241,0,0,1-11.90332-9.14454,43.45971,43.45971,0,0,1-7.83789-13.93554,56.35166,56.35166,0,0,1,0-35.27344,43.4548,43.4548,0,0,1,7.83789-13.93457,36.23525,36.23525,0,0,1,11.90332-9.21777,35.15309,35.15309,0,0,1,29.90234,0,36.26532,36.26532,0,0,1,11.90332,9.21777,43.45463,43.45463,0,0,1,7.8379,13.93457A52.88618,52.88618,0,0,1,4093.53125,870.75879Zm-19.59668,0a41.06177,41.06177,0,0,0-1.30664-10.66895,26.95668,26.95668,0,0,0-3.70117-8.34668,17.52982,17.52982,0,0,0-5.66113-5.37011,14.11976,14.11976,0,0,0-7.18555-1.8877,14.78826,14.78826,0,0,0-7.40235,1.8877,17.25462,17.25462,0,0,0-5.73437,5.37011,26.97935,26.97935,0,0,0-3.70117,8.34668,41.06134,41.06134,0,0,0-1.30664,10.66895,40.21433,40.21433,0,0,0,1.30664,10.59668,27.05938,27.05938,0,0,0,3.70117,8.27441A17.22468,17.22468,0,0,0,4048.67773,895a14.76813,14.76813,0,0,0,7.40235,1.8877A14.10043,14.10043,0,0,0,4063.26563,895a17.4986,17.4986,0,0,0,5.66113-5.37012,27.03626,27.03626,0,0,0,3.70117-8.27441A40.21474,40.21474,0,0,0,4073.93457,870.75879Z"/><path class="cls-2" d="M4182.80078,870.75879a52.886,52.886,0,0,1-2.831,17.63672,43.45971,43.45971,0,0,1-7.83789,13.93554,35.40124,35.40124,0,0,1-11.90332,9.14454,35.858,35.858,0,0,1-29.90235,0,35.37251,35.37251,0,0,1-11.90332-9.14454,43.45971,43.45971,0,0,1-7.83789-13.93554,56.35166,56.35166,0,0,1,0-35.27344,43.4548,43.4548,0,0,1,7.83789-13.93457,36.23535,36.23535,0,0,1,11.90332-9.21777,35.15311,35.15311,0,0,1,29.90235,0,36.26553,36.26553,0,0,1,11.90332,9.21777,43.4548,43.4548,0,0,1,7.83789,13.93457A52.88592,52.88592,0,0,1,4182.80078,870.75879Zm-19.59668,0a41.06177,41.06177,0,0,0-1.30664-10.66895,26.95668,26.95668,0,0,0-3.70117-8.34668,17.52982,17.52982,0,0,0-5.66113-5.37011,14.11976,14.11976,0,0,0-7.18555-1.8877,14.78822,14.78822,0,0,0-7.40234,1.8877,17.25455,17.25455,0,0,0-5.73438,5.37011,26.97935,26.97935,0,0,0-3.70117,8.34668,41.06177,41.06177,0,0,0-1.30664,10.66895,40.21474,40.21474,0,0,0,1.30664,10.59668,27.05938,27.05938,0,0,0,3.70117,8.27441A17.22461,17.22461,0,0,0,4137.94727,895a14.76809,14.76809,0,0,0,7.40234,1.8877A14.10043,14.10043,0,0,0,4152.53516,895a17.4986,17.4986,0,0,0,5.66113-5.37012,27.03626,27.03626,0,0,0,3.70117-8.27441A40.21474,40.21474,0,0,0,4163.2041,870.75879Z"/><path class="cls-2" d="M3765.49347,781.62136a9.41381,9.41381,0,0,1,6.61188,3.23775l51.68407,62.46922c1.37849,1.2724,4.8965,5.10487,3.56735,8.44871-.7839,1.99563-2.85545,3.00292-6.13874,3.00292H3794.577v88.194a5.83423,5.83423,0,0,1-1.083,4.44959c-1.35942,1.76091-3.69609,2.666-6.9224,2.666h-40.95949a7.19929,7.19929,0,0,1-5.47214-2.02983,6.13908,6.13908,0,0,1-1.70416-4.21488V860.62812h-24.42194c-1.50712,0-6.09321,0-7.49805-3.38938-1.46563-3.54839,2.08276-7.46788,3.20747-8.57745,1.5678-2.132,43.90577-58.28462,50.07456-64.45352a7.99918,7.99918,0,0,1,5.69565-2.58641Zm0,0"/><g id="Ellipse_2-7" data-name="Ellipse 2"><ellipse class="cls-8" cx="5693.37363" cy="668.64673" rx="369.6" ry="378"/></g><path class="cls-2" d="M5842.89362,669.60672a41.861,41.861,0,1,0-75.6-24.64,40.18876,40.18876,0,0,0,8.4,25.2,63.22661,63.22661,0,0,0-24.08,19.6c-6.16-8.4-14.56-15.68-24.64-19.6a41.861,41.861,0,1,0-75.6-24.64,40.18872,40.18872,0,0,0,8.4,25.2,63.22625,63.22625,0,0,0-24.08,19.6c-6.16-8.4-14.56-15.68-24.64-19.6a41.861,41.861,0,1,0-75.6-24.64,40.18872,40.18872,0,0,0,8.4,25.2,58.59324,58.59324,0,0,0-35.28,53.76v10.64h369.6v-10.64C5878.17363,699.28674,5863.61364,678.56671,5842.89362,669.60672Z"/><polygon class="cls-2" points="5767.854 488.727 5721.374 474.167 5693.374 434.407 5664.814 474.167 5618.894 488.727 5647.454 527.367 5647.454 576.087 5693.374 560.967 5739.294 576.087 5738.734 527.367 5767.854 488.727"/><rect class="cls-2" x="5682.73362" y="363.28674" width="21.84001" height="31.35999"/><rect class="cls-2" x="5813.77363" y="494.32672" width="31.35999" height="21.84001"/><rect class="cls-2" x="5541.61364" y="494.32672" width="31.35999" height="21.84001"/><rect class="cls-2" x="5777.843" y="403.77441" width="36.39965" height="21.8398" transform="translate(1404.38848 4219.88234) rotate(-45)"/><rect class="cls-2" x="5579.59304" y="396.17171" width="21.8398" height="36.39965" transform="translate(1344.41841 4074.45622) rotate(-45)"/><path class="cls-2" d="M5658.002,837.22754a14.32211,14.32211,0,0,0-3.26562-2.46777,60.41571,60.41571,0,0,0-5.66113-2.97559,58.82359,58.82359,0,0,0-7.18555-2.75781,41.1603,41.1603,0,0,0-8.12891-1.66895v25.11231l3.62891.87011q7.5454,2.03467,13.71777,4.35547a37.21491,37.21491,0,0,1,10.45117,5.80567,23.99765,23.99765,0,0,1,6.6045,8.34668,27.70034,27.70034,0,0,1,2.32226,11.97558,30.2334,30.2334,0,0,1-2.83008,13.64453,25.77734,25.77734,0,0,1-7.69336,9.29,34.26372,34.26372,0,0,1-11.25,5.44336,57.977,57.977,0,0,1-13.499,2.10449v15.96778h-8.71V914.16113a76.27943,76.27943,0,0,1-19.88672-4.13672,71.29141,71.29141,0,0,1-17.56348-8.92773l8.8545-17.27344a27.78685,27.78685,0,0,0,3.99121,3.04785,51.77591,51.77591,0,0,0,6.89551,3.77442,72.79637,72.79637,0,0,0,8.92675,3.41113,53.10878,53.10878,0,0,0,10.08887,2.10449V871.19434l-5.37109-1.45118a93.74323,93.74323,0,0,1-12.84668-4.42773,34.88318,34.88318,0,0,1-9.07227-5.58789,20.378,20.378,0,0,1-5.44336-7.54883,26.66432,26.66432,0,0,1-1.81445-10.30566,32.12885,32.12885,0,0,1,2.541-13.13672,28.36547,28.36547,0,0,1,6.9668-9.72559,33.17852,33.17852,0,0,1,10.52442-6.31445,47.934,47.934,0,0,1,13.209-2.90332V794.9873h8.71v14.66114a58.21416,58.21416,0,0,1,17.49121,3.99121,79.026,79.026,0,0,1,14.15235,7.33105Zm-44.12793,1.45215a8.66177,8.66177,0,0,0,3.48438,7.47558q3.48339,2.54151,10.45117,4.57227V827.21191Q5613.87451,828.0835,5613.874,838.67969Zm35.27344,47.17578a8.92374,8.92374,0,0,0-4.06445-7.83887,44.93846,44.93846,0,0,0-11.32227-5.08008v23.51563Q5649.146,896.01562,5649.14746,885.85547Z"/><path class="cls-2" d="M5718.09473,866.98535a37.37469,37.37469,0,0,1,13.5,2.39453,32.23121,32.23121,0,0,1,10.81347,6.75,30.37528,30.37528,0,0,1,7.11328,10.45117,34.8101,34.8101,0,0,1,2.54,13.5,33.9919,33.9919,0,0,1-2.90332,14.22461,32.88081,32.88081,0,0,1-7.9834,10.96,36.48943,36.48943,0,0,1-12.04785,7.1123,43.77975,43.77975,0,0,1-15.09668,2.54,42.14632,42.14632,0,0,1-20.249-4.79,33.053,33.053,0,0,1-13.57227-13.06348l11.17676-11.61328a31.89655,31.89655,0,0,0,10.2334,9,25.55689,25.55689,0,0,0,12.55664,3.33887,17.98849,17.98849,0,0,0,12.84668-4.71777q5.00684-4.71534,5.00781-12.55567,0-7.54687-4.71777-12.19336a16.36743,16.36743,0,0,0-11.97559-4.64551,18.8832,18.8832,0,0,0-8.92675,2.17774,17.44173,17.44173,0,0,0-6.60547,5.95117h-16.9834a31.03762,31.03762,0,0,1,.581-3.26562q.57863-2.83155,1.45118-7.25782.87158-4.42675,1.88769-9.87109,1.01367-5.44337,2.17676-11.10449,2.61328-13.35353,5.80664-29.90235h50.80469v17.709h-36.72461l-4.06446,23.08008a12.27824,12.27824,0,0,1,5.08106-3.04786A25.4407,25.4407,0,0,1,5718.09473,866.98535Z"/><path class="cls-2" d="M5838.86523,870.75879a52.886,52.886,0,0,1-2.83105,17.63672,43.45971,43.45971,0,0,1-7.83789,13.93554,35.40114,35.40114,0,0,1-11.90332,9.14454,35.858,35.858,0,0,1-29.90234,0,35.37245,35.37245,0,0,1-11.90333-9.14454,43.45971,43.45971,0,0,1-7.83789-13.93554,56.35166,56.35166,0,0,1,0-35.27344,43.4548,43.4548,0,0,1,7.83789-13.93457,36.23529,36.23529,0,0,1,11.90333-9.21777,35.15309,35.15309,0,0,1,29.90234,0,36.26542,36.26542,0,0,1,11.90332,9.21777,43.4548,43.4548,0,0,1,7.83789,13.93457A52.88592,52.88592,0,0,1,5838.86523,870.75879Zm-19.59668,0a41.06134,41.06134,0,0,0-1.30664-10.66895,26.95645,26.95645,0,0,0-3.70117-8.34668,17.52982,17.52982,0,0,0-5.66113-5.37011,14.11974,14.11974,0,0,0-7.18555-1.8877,14.78822,14.78822,0,0,0-7.40234,1.8877,17.25455,17.25455,0,0,0-5.73438,5.37011,26.97959,26.97959,0,0,0-3.70117,8.34668,41.06177,41.06177,0,0,0-1.30664,10.66895,40.21474,40.21474,0,0,0,1.30664,10.59668,27.05962,27.05962,0,0,0,3.70117,8.27441A17.22461,17.22461,0,0,0,5794.01172,895a14.76809,14.76809,0,0,0,7.40234,1.8877A14.10041,14.10041,0,0,0,5808.59961,895a17.4986,17.4986,0,0,0,5.66113-5.37012,27.036,27.036,0,0,0,3.70117-8.27441A40.21433,40.21433,0,0,0,5819.26855,870.75879Z"/><path class="cls-2" d="M5928.13477,870.75879a52.886,52.886,0,0,1-2.83106,17.63672,43.45971,43.45971,0,0,1-7.83789,13.93554,35.40114,35.40114,0,0,1-11.90332,9.14454,35.858,35.858,0,0,1-29.90234,0,35.37232,35.37232,0,0,1-11.90332-9.14454,43.45952,43.45952,0,0,1-7.83789-13.93554,56.35147,56.35147,0,0,1,0-35.27344,43.45461,43.45461,0,0,1,7.83789-13.93457,36.23515,36.23515,0,0,1,11.90332-9.21777,35.15309,35.15309,0,0,1,29.90234,0,36.26542,36.26542,0,0,1,11.90332,9.21777,43.4548,43.4548,0,0,1,7.83789,13.93457A52.88592,52.88592,0,0,1,5928.13477,870.75879Zm-19.59668,0a41.06177,41.06177,0,0,0-1.30664-10.66895,26.95669,26.95669,0,0,0-3.70118-8.34668,17.52972,17.52972,0,0,0-5.66113-5.37011,14.11971,14.11971,0,0,0-7.18555-1.8877,14.78822,14.78822,0,0,0-7.40234,1.8877,17.25443,17.25443,0,0,0-5.73437,5.37011,26.9796,26.9796,0,0,0-3.70118,8.34668,41.06177,41.06177,0,0,0-1.30664,10.66895,40.21474,40.21474,0,0,0,1.30664,10.59668,27.05963,27.05963,0,0,0,3.70118,8.27441A17.22449,17.22449,0,0,0,5883.28125,895a14.76809,14.76809,0,0,0,7.40234,1.8877A14.10038,14.10038,0,0,0,5897.86914,895a17.4985,17.4985,0,0,0,5.66113-5.37012,27.03627,27.03627,0,0,0,3.70118-8.27441A40.21474,40.21474,0,0,0,5908.53809,870.75879Z"/><path class="cls-2" d="M5510.82791,781.62136a9.41381,9.41381,0,0,1,6.61188,3.23775l51.68407,62.46922c1.37849,1.2724,4.8965,5.10487,3.56735,8.44871-.7839,1.99563-2.85545,3.00292-6.13874,3.00292H5539.9114v88.194a5.83427,5.83427,0,0,1-1.083,4.44959c-1.35942,1.76091-3.69609,2.666-6.9224,2.666h-40.95949a7.19929,7.19929,0,0,1-5.47214-2.02983,6.13908,6.13908,0,0,1-1.70416-4.21488V860.62812h-24.42194c-1.50712,0-6.09321,0-7.49805-3.38938-1.46563-3.54839,2.08276-7.46788,3.20747-8.57745,1.5678-2.132,43.90577-58.28462,50.07456-64.45352a7.99918,7.99918,0,0,1,5.69565-2.58641Zm0,0"/></svg>