<svg id="Layer_1" data-name="Layer 1" xmlns="http://www.w3.org/2000/svg" viewBox="0 0 6101 1143"><defs><style>.cls-1{fill:#d70b5a;}.cls-2{fill:#fff;}.cls-3{fill:#6c010d;}.cls-4{fill:#0290ef;}.cls-5{fill:#122647;}.cls-6{fill:#02d9b8;}.cls-7{fill:#02865c;}.cls-8{fill:#f3a712;}</style></defs><title>middle_icon</title><g id="Ellipse_2" data-name="Ellipse 2"><ellipse class="cls-1" cx="1330.04" cy="668.65" rx="211.2" ry="216"/></g><path class="cls-2" d="M1330,666.09c26.88,0,49-26.56,49-59.52,0-32.64-7-59.52-49-59.52s-49,26.56-49,59.52S1303.16,666.09,1330,666.09Z"/><path class="cls-2" d="M1422.2,754.41c-1-57.28-8.32-73.28-65.6-83.84,0,0-8,10.24-26.88,10.24s-26.88-10.24-26.88-10.24c-56,10.24-64,26.24-65,81.92v10.24s13.44,27.52,92.48,27.52c78.72,0,92.48-27.52,92.48-27.52v-4.48C1422.2,758.57,1422.2,757.93,1422.2,754.41Z"/><g id="Ellipse_2-2" data-name="Ellipse 2"><ellipse class="cls-3" cx="2202.71" cy="668.65" rx="211.2" ry="216"/></g><path class="cls-2" d="M2202.71,666.09c26.88,0,49-26.56,49-59.52,0-32.64-7-59.52-49-59.52s-49,26.56-49,59.52S2175.83,666.09,2202.71,666.09Z"/><path class="cls-2" d="M2294.87,754.41c-1-57.28-8.32-73.28-65.6-83.84,0,0-8,10.24-26.88,10.24s-26.88-10.24-26.88-10.24c-56,10.24-64,26.24-65,81.92v10.24S2124,790.25,2203,790.25c78.72,0,92.48-27.52,92.48-27.52v-4.48C2294.87,758.57,2294.87,757.93,2294.87,754.41Z"/><g id="Ellipse_2-3" data-name="Ellipse 2"><ellipse class="cls-4" cx="3075.37" cy="668.65" rx="211.2" ry="216"/></g><path class="cls-2" d="M3125.29,685.61V637.93l-66.56,47.68V637.93h-16.64V599.21h-16.64v39h-16.64V571.37h-33.6v66.88h-16.64v128h233.6v-128Zm-77.76,52.48h-22.4v-22.4h22.4Zm39,0h-22.4v-22.4h22.4Zm38.72,0h-22.4v-22.4h22.4Z"/><g id="Ellipse_2-4" data-name="Ellipse 2"><ellipse class="cls-5" cx="3948.04" cy="668.65" rx="211.2" ry="216"/></g><path class="cls-2" d="M3998,685.61V637.93l-66.56,47.68V637.93h-16.64V599.21h-16.64v39h-16.64V571.37h-33.6v66.88h-16.64v128h233.6v-128Zm-77.76,52.48h-22.4v-22.4h22.4Zm39,0h-22.4v-22.4h22.4Zm38.72,0h-22.4v-22.4H3998Z"/><g id="Ellipse_2-5" data-name="Ellipse 2"><ellipse class="cls-6" cx="4820.71" cy="668.65" rx="211.2" ry="216"/></g><path class="cls-2" d="M4906.15,737.77a23.92,23.92,0,1,0-43.2-14.08,23,23,0,0,0,4.8,14.4,36.13,36.13,0,0,0-13.76,11.2,32.39,32.39,0,0,0-14.08-11.2,23.92,23.92,0,1,0-43.2-14.08,23,23,0,0,0,4.8,14.4,36.13,36.13,0,0,0-13.76,11.2,32.39,32.39,0,0,0-14.08-11.2,23.92,23.92,0,1,0-43.2-14.08,23,23,0,0,0,4.8,14.4,33.48,33.48,0,0,0-20.16,30.72v6.08h211.2v-6.08C4926.31,754.73,4918,742.89,4906.15,737.77Z"/><polygon class="cls-2" points="4863.27 634.41 4836.71 626.09 4820.71 603.37 4804.39 626.09 4778.15 634.41 4794.47 656.49 4794.47 684.33 4820.71 675.69 4846.95 684.33 4846.63 656.49 4863.27 634.41"/><rect class="cls-2" x="4814.63" y="562.73" width="12.48" height="17.92"/><rect class="cls-2" x="4889.51" y="637.61" width="17.92" height="12.48"/><rect class="cls-2" x="4733.99" y="637.61" width="17.92" height="12.48"/><rect class="cls-2" x="4868.98" y="585.86" width="20.8" height="12.48" transform="translate(1010.46 3623.66) rotate(-45)"/><rect class="cls-2" x="4755.69" y="581.52" width="12.48" height="20.8" transform="translate(976.19 3540.56) rotate(-45)"/><g id="Ellipse_2-6" data-name="Ellipse 2"><ellipse class="cls-7" cx="5693.37" cy="668.65" rx="211.2" ry="216"/></g><path class="cls-2" d="M5778.81,737.77a23.92,23.92,0,1,0-43.2-14.08,23,23,0,0,0,4.8,14.4,36.13,36.13,0,0,0-13.76,11.2,32.39,32.39,0,0,0-14.08-11.2,23.92,23.92,0,1,0-43.2-14.08,23,23,0,0,0,4.8,14.4,36.13,36.13,0,0,0-13.76,11.2,32.39,32.39,0,0,0-14.08-11.2,23.92,23.92,0,1,0-43.2-14.08,23,23,0,0,0,4.8,14.4,33.48,33.48,0,0,0-20.16,30.72v6.08H5799v-6.08C5799,754.73,5790.65,742.89,5778.81,737.77Z"/><polygon class="cls-2" points="5735.93 634.41 5709.37 626.09 5693.37 603.37 5677.05 626.09 5650.81 634.41 5667.13 656.49 5667.13 684.33 5693.37 675.69 5719.61 684.33 5719.29 656.49 5735.93 634.41"/><rect class="cls-2" x="5687.29" y="562.73" width="12.48" height="17.92"/><rect class="cls-2" x="5762.17" y="637.61" width="17.92" height="12.48"/><rect class="cls-2" x="5606.65" y="637.61" width="17.92" height="12.48"/><rect class="cls-2" x="5741.64" y="585.86" width="20.8" height="12.48" transform="translate(1266.05 4240.73) rotate(-45)"/><rect class="cls-2" x="5628.36" y="581.52" width="12.48" height="20.8" transform="translate(1231.79 4157.63) rotate(-45)"/><g id="Ellipse_2-7" data-name="Ellipse 2"><ellipse class="cls-8" cx="457.37" cy="668.65" rx="211.2" ry="216"/></g><path class="cls-2" d="M546,586.73a7.66,7.66,0,0,0-3.2-6.72c-1.28-1-3.2-1.6-6.08-2.56v18.24c3.84-.32,6.72-1.6,8-4.16a13.41,13.41,0,0,0,1.28-4.8Z"/><path class="cls-2" d="M533.21,554.41c-2.88,0-5.12,1-6.4,2.88a8.69,8.69,0,0,0-1.92,5.44,6.59,6.59,0,0,0,2.24,5.44,11.74,11.74,0,0,0,6.08,2.56Z"/><path class="cls-2" d="M534.81,615.53a39.68,39.68,0,1,0-39.68-39.68,39.88,39.88,0,0,0,39.68,39.68ZM522.33,572c-2.24-2.24-3.52-5.12-3.52-9.28a14.11,14.11,0,0,1,3.84-9.6c2.56-2.88,6.08-4.16,10.88-4.16v-4.48h3.2V549c4.48.32,8,1.6,10.56,4.16,2.56,2.24,3.52,5.44,3.84,9.28h-6.08a15,15,0,0,0-1.28-4.48c-1.28-2.24-3.84-3.52-7-3.52v16.64c5.44,1.6,9,2.88,10.88,4.16a11,11,0,0,1,4.8,9.6c0,6.08-1.92,10.56-6.08,13.12a28.53,28.53,0,0,1-9.6,2.88v6.72h-3.2v-6.72c-6.72-.32-11.2-2.88-13.76-7-1.28-2.24-1.92-5.44-1.92-9.28h6.08c.32,3.2.64,5.44,1.6,6.72,1.28,2.56,4.16,4.16,8,4.48V576.81c-5.12-1-9-2.56-11.2-4.8Z"/><path class="cls-2" d="M467,520.81a5.26,5.26,0,0,0-2.56-4.8,20.63,20.63,0,0,0-4.48-1.92v13.76c2.88-.32,5.12-1.28,6.08-3.2a8.52,8.52,0,0,0,1-3.84Z"/><path class="cls-2" d="M457.69,496.49a5.78,5.78,0,0,0-4.8,2.24,6.43,6.43,0,0,0-1.28,4.16,6.74,6.74,0,0,0,1.6,4.16,8.3,8.3,0,0,0,4.48,1.92Z"/><path class="cls-2" d="M458.65,542.57a29.76,29.76,0,1,0-29.76-29.76c.32,16.32,13.44,29.76,29.76,29.76Zm-9.28-32.64c-1.92-1.6-2.56-3.84-2.56-6.72a9.93,9.93,0,0,1,2.88-7c1.92-2.24,4.48-3.2,8-3.2v-3.52h2.56V493a14,14,0,0,1,8,2.88,9.41,9.41,0,0,1,2.88,7h-4.48a6.45,6.45,0,0,0-1-3.52,6.9,6.9,0,0,0-5.12-2.88V509c4.16,1.28,6.72,2.24,8,3.2a8.68,8.68,0,0,1,3.52,7.36c0,4.48-1.6,8-4.48,9.6a18.22,18.22,0,0,1-7,2.24v5.12H458v-5.12c-5.12-.32-8.32-1.92-10.24-5.44a14.31,14.31,0,0,1-1.6-7h4.48a16.05,16.05,0,0,0,1,5.12c1,1.92,3.2,2.88,6.08,3.2V513.45c-3.84-1-6.72-1.92-8.32-3.52Z"/><path class="cls-2" d="M438.49,653c-6.72-1.28-11.2-3.84-14.08-8.64-1.6-2.88-2.24-7-2.24-12.16h8c.32,4.16,1,7,1.92,9,1.92,3.52,5.44,5.12,10.24,5.76V622.57c-6.4-1.28-11.2-3.2-14.4-6.08s-4.48-6.72-4.48-11.84a16.71,16.71,0,0,1,5.12-12.16c3.2-3.52,8-5.44,14.08-5.44v-5.76h4.16v5.76c6.08.32,10.56,2.24,13.76,5.12s4.8,7,5.12,12.16H458a15.29,15.29,0,0,0-1.92-5.76c-1.92-2.88-4.8-4.48-9-4.8v21.76c7,1.92,11.52,3.84,14.08,5.44,4.16,2.88,6.08,7,6.08,12.48,0,8-2.56,13.44-7.68,17a27.32,27.32,0,0,1-8.64,2.88,110,110,0,0,1,30.4,5.12A51.17,51.17,0,1,0,394,622.25a50.45,50.45,0,0,0,16,37.12c8.64-3.84,18.56-5.76,28.48-6.4Z"/><path class="cls-2" d="M434.33,610.73a16.87,16.87,0,0,0,8,3.52v-20.8c-3.84.32-6.72,1.28-8.32,3.52a11.89,11.89,0,0,0-2.56,7,7.43,7.43,0,0,0,2.88,6.72Z"/><path class="cls-2" d="M454.17,626.73a28.94,28.94,0,0,0-8-3.2v23.36c5.12-.32,8.64-1.92,10.56-5.44a13.24,13.24,0,0,0,1.6-6.08c0-3.84-1.28-6.72-4.16-8.64Z"/><path class="cls-2" d="M619.93,756c6.4-6.4,6.72-18.56,5.76-34.88-7.36-.64-18.24.64-22.08,0-9.28-18.56-22.72-33-41.6-41.6.64-12.16,2.24-23.36,9.28-29.12-17-1.28-31.36,10.24-40.64,20.8-8.32-8.64-20.48-15.36-34.88-20.16l-9,16a125,125,0,0,0-82.24.32l-11.84-15.68h0c-18.24,6.08-34.88,15.36-48,29.12-8.32-.64-7.36-17.92,3.52-15-17.92-12.16-27.84,21.12-10.56,25.6-14.4,20.8-16,65,3.52,81.28,2.88,24.32,7,47.36,18.88,62.72h39c-1-8-1.92-16.32-1.28-25.6,23.68,5.44,51.84,7,80,4.48,4.48,7.36,8.64,14.4,13.76,21.12h38.72c-1.28-10.24-2.88-20.8-.32-31.36,9.92-2.24,57.6-14.4,89.92-48Zm-53.12-51.84a9.6,9.6,0,0,1,0,19.2,9.43,9.43,0,0,1-9.6-9.6,9.63,9.63,0,0,1,9.6-9.6Z"/><path d="M234.13,338.05a22.19,22.19,0,0,0,11.15-2.55,20.21,20.21,0,0,0,7.1-6.7,27.22,27.22,0,0,0,3.7-9.45,54.9,54.9,0,0,0,1.05-10.7v-35.8h7v35.8a56.86,56.86,0,0,1-1.6,13.65,32.55,32.55,0,0,1-5.15,11.35,25.43,25.43,0,0,1-9.25,7.8,30.32,30.32,0,0,1-13.9,2.9q-8.4,0-14.15-3.05a25.68,25.68,0,0,1-9.25-8.05,32.48,32.48,0,0,1-5-11.4,57.57,57.57,0,0,1-1.5-13.2v-35.8h6.9v35.8a53,53,0,0,0,1.1,10.9,27.18,27.18,0,0,0,3.75,9.4,19.79,19.79,0,0,0,7,6.6A22,22,0,0,0,234.13,338.05Z"/><path d="M323.23,343.85h-6.8v-29.1q0-9.3-2.75-13.5t-8.45-4.2a17.4,17.4,0,0,0-6,1.1,20.49,20.49,0,0,0-5.55,3.1,23.9,23.9,0,0,0-4.55,4.75,18.58,18.58,0,0,0-2.9,5.95v31.9h-6.8v-52.1h6.2v11.8a24.48,24.48,0,0,1,9.15-9.2,25.09,25.09,0,0,1,13-3.5,15.44,15.44,0,0,1,7.3,1.6,12.51,12.51,0,0,1,4.8,4.5,20.92,20.92,0,0,1,2.6,7.1,50.13,50.13,0,0,1,.8,9.3Z"/><path d="M359.12,344.85a22.46,22.46,0,0,1-10-2.25,25.47,25.47,0,0,1-7.9-6,27.34,27.34,0,0,1-5.15-8.55A28.27,28.27,0,0,1,334.22,318,30.37,30.37,0,0,1,336,307.5a28,28,0,0,1,5-8.65,23.51,23.51,0,0,1,7.5-5.85,21.32,21.32,0,0,1,9.55-2.15,20.39,20.39,0,0,1,11.7,3.45,26.14,26.14,0,0,1,8,8.35v-31.8h6.8v64.2c0,1.87.8,2.8,2.4,2.8v6a12.91,12.91,0,0,1-2.4.3,6.21,6.21,0,0,1-4.2-1.55,4.77,4.77,0,0,1-1.8-3.75v-5.1a22.68,22.68,0,0,1-8.4,8.1A22,22,0,0,1,359.12,344.85Zm1.5-6a16.1,16.1,0,0,0,5.35-1,21.52,21.52,0,0,0,5.35-2.75,18,18,0,0,0,4.25-4.1,11,11,0,0,0,2.15-5.05v-16.1a17.68,17.68,0,0,0-2.9-5.05,23.14,23.14,0,0,0-4.35-4.15,20.43,20.43,0,0,0-5.25-2.8,16.42,16.42,0,0,0-5.5-1,16,16,0,0,0-7.6,1.8,19.48,19.48,0,0,0-5.85,4.75,21.4,21.4,0,0,0-3.75,6.75,24.17,24.17,0,0,0-1.3,7.8,21.85,21.85,0,0,0,5.6,14.65,19.94,19.94,0,0,0,6.15,4.55A17.41,17.41,0,0,0,360.62,338.85Z"/><path d="M422.42,344.85A25,25,0,0,1,412,342.7a25.7,25.7,0,0,1-8.25-5.9,27.42,27.42,0,0,1-5.45-8.65,28.08,28.08,0,0,1-1.95-10.5,27.53,27.53,0,0,1,1.95-10.35,26.9,26.9,0,0,1,5.4-8.5,25.78,25.78,0,0,1,8.25-5.8,26.35,26.35,0,0,1,20.85,0,24.93,24.93,0,0,1,8.15,5.85,27.47,27.47,0,0,1,7.2,18.7v1.6a3.86,3.86,0,0,1-.1,1.1h-44.6a21.89,21.89,0,0,0,1.95,7.75,21.28,21.28,0,0,0,4.25,6.15,18.93,18.93,0,0,0,5.95,4.05,17.78,17.78,0,0,0,7.15,1.45,18.29,18.29,0,0,0,5-.7,19.86,19.86,0,0,0,4.6-1.9,16.93,16.93,0,0,0,3.8-2.95,12.47,12.47,0,0,0,2.6-3.85l5.9,1.6a17.1,17.1,0,0,1-3.4,5.25,23.12,23.12,0,0,1-5.1,4.1,24.6,24.6,0,0,1-6.4,2.7A27.42,27.42,0,0,1,422.42,344.85Zm19.2-29.8a20.9,20.9,0,0,0-6.15-13.6,18.73,18.73,0,0,0-5.9-3.9,18.38,18.38,0,0,0-7.15-1.4,18.73,18.73,0,0,0-13.15,5.3,19.36,19.36,0,0,0-4.1,6,22.85,22.85,0,0,0-1.85,7.6Z"/><path d="M484.62,297.75a21.44,21.44,0,0,0-12,3.8,19.16,19.16,0,0,0-7.2,9.9v32.4h-6.8v-52.1H465v12.5a23.83,23.83,0,0,1,7.8-9.4,18.14,18.14,0,0,1,10.5-3.4,7.37,7.37,0,0,1,1.3.1Z"/><path d="M560.32,286.15a22.3,22.3,0,0,0-7.65-5.3,28.84,28.84,0,0,0-10.75-2.3v26.7a1.18,1.18,0,0,1,.35.05,1,1,0,0,0,.35.05,96,96,0,0,1,10.25,2.7,29.27,29.27,0,0,1,7.75,3.75,15.49,15.49,0,0,1,4.9,5.45,16.86,16.86,0,0,1,1.7,8,18.06,18.06,0,0,1-1.85,8.4,16.33,16.33,0,0,1-5.15,6,23.78,23.78,0,0,1-7.85,3.55,41.66,41.66,0,0,1-10,1.3v9.7h-3.7v-9.8a41.07,41.07,0,0,1-25.6-10.2l3.5-5.7A29,29,0,0,0,526,335a36.93,36.93,0,0,0,13,3.2v-26.7l-.6-.2q-5.59-1.29-9.8-2.7a26.13,26.13,0,0,1-7.1-3.5,13.67,13.67,0,0,1-4.35-5.05,16.4,16.4,0,0,1-1.45-7.25,19.65,19.65,0,0,1,1.7-8.35,18.12,18.12,0,0,1,4.7-6.2,22.14,22.14,0,0,1,7.25-4,35.6,35.6,0,0,1,9.35-1.75v-10.1h3.7v10a34,34,0,0,1,11.85,2.35,33.55,33.55,0,0,1,9.45,5.85Zm-37.4,5.6a11.06,11.06,0,0,0,1,4.85,9.34,9.34,0,0,0,2.9,3.4,18.35,18.35,0,0,0,5,2.5c2,.7,4.45,1.39,7.25,2.05v-25.9q-8.49.41-12.3,3.9A11.94,11.94,0,0,0,522.92,291.75Zm36.9,34.2a10.45,10.45,0,0,0-1.15-5.1,11.09,11.09,0,0,0-3.4-3.7,23.2,23.2,0,0,0-5.6-2.8c-2.23-.8-4.81-1.56-7.75-2.3v26.2q8.51,0,13.2-3.05T559.82,326Z"/><path d="M611.82,337.65v6.2h-33.9v-6.2h14.2v-42.8a10.89,10.89,0,0,1-2.75,2.6,32.46,32.46,0,0,1-4.3,2.6,31.94,31.94,0,0,1-4.85,2,14.49,14.49,0,0,1-4.4.8v-6.6a11.89,11.89,0,0,0,5-1.3,35.14,35.14,0,0,0,5.2-3,45.06,45.06,0,0,0,4.15-3.2,8.5,8.5,0,0,0,1.9-2h7v50.9Z"/><path d="M653.92,291.85h-38.3v-6.3h49.1l-35.9,71H621Z"/><path d="M691.52,312.65a24.66,24.66,0,0,1,9.1,1.65A22.43,22.43,0,0,1,708,319a21.72,21.72,0,0,1,4.95,7.15,22.78,22.78,0,0,1,1.8,9.15,23.31,23.31,0,0,1-2,9.65,22.1,22.1,0,0,1-5.3,7.4,24.05,24.05,0,0,1-7.85,4.75,28,28,0,0,1-16.85.75,23.94,23.94,0,0,1-6.35-2.75,26.05,26.05,0,0,1-5.25-4.3,22.06,22.06,0,0,1-3.85-5.6l4.5-3.4a22,22,0,0,0,7.65,7.9,19.84,19.84,0,0,0,10.65,3,18.63,18.63,0,0,0,6.9-1.25,16.75,16.75,0,0,0,5.6-3.55,16.19,16.19,0,0,0,3.75-5.5,17.79,17.79,0,0,0,1.35-7,17,17,0,0,0-1.3-6.75,15.85,15.85,0,0,0-3.6-5.25,16.2,16.2,0,0,0-5.4-3.4,18.41,18.41,0,0,0-6.7-1.2,19.83,19.83,0,0,0-8.85,2.05,17.06,17.06,0,0,0-6.75,5.95h-6.3c.07-.4.23-1.3.5-2.7s.6-3.06,1-5,.83-4.08,1.3-6.45.93-4.75,1.4-7.15q1.69-8.4,3.7-18.7H711v6.3h-29.2l-4.9,25.5a18,18,0,0,1,6.35-4.35A21.46,21.46,0,0,1,691.52,312.65Z"/><path d="M1528.18,343.85v-71h7v71Z"/><path d="M1595.38,343.85h-6.8v-29.1q0-9.3-2.75-13.5t-8.45-4.2a17.4,17.4,0,0,0-6,1.1,20.49,20.49,0,0,0-5.55,3.1,23.9,23.9,0,0,0-4.55,4.75,18.58,18.58,0,0,0-2.9,5.95v31.9h-6.8v-52.1h6.2v11.8a24.48,24.48,0,0,1,9.15-9.2,25.09,25.09,0,0,1,13-3.5,15.44,15.44,0,0,1,7.3,1.6,12.51,12.51,0,0,1,4.8,4.5,20.92,20.92,0,0,1,2.6,7.1,50.13,50.13,0,0,1,.8,9.3Z"/><path d="M1631.28,344.85a22.43,22.43,0,0,1-10-2.25,25.36,25.36,0,0,1-7.9-6,27.15,27.15,0,0,1-5.15-8.55,28.06,28.06,0,0,1-1.85-10.15,30.37,30.37,0,0,1,1.8-10.45,28,28,0,0,1,5-8.65,23.51,23.51,0,0,1,7.5-5.85,21.29,21.29,0,0,1,9.55-2.15,20.39,20.39,0,0,1,11.7,3.45,26.25,26.25,0,0,1,8,8.35v-31.8h6.8v64.2c0,1.87.8,2.8,2.4,2.8v6a12.91,12.91,0,0,1-2.4.3,6.21,6.21,0,0,1-4.2-1.55,4.77,4.77,0,0,1-1.8-3.75v-5.1a22.84,22.84,0,0,1-8.4,8.1A22.06,22.06,0,0,1,1631.28,344.85Zm1.5-6a16.15,16.15,0,0,0,5.35-1,21.69,21.69,0,0,0,5.35-2.75,18.42,18.42,0,0,0,4.25-4.1,11.17,11.17,0,0,0,2.15-5.05v-16.1a18.17,18.17,0,0,0-2.9-5.05,23.77,23.77,0,0,0-4.35-4.15,20.77,20.77,0,0,0-5.25-2.8,16.47,16.47,0,0,0-5.5-1,16,16,0,0,0-7.6,1.8,19.24,19.24,0,0,0-5.85,4.75,21,21,0,0,0-3.75,6.75,23.91,23.91,0,0,0-1.3,7.8,21.58,21.58,0,0,0,1.5,8,21.24,21.24,0,0,0,4.1,6.65,19.7,19.7,0,0,0,6.15,4.55A17.35,17.35,0,0,0,1632.78,338.85Z"/><path d="M1672.08,280.85v-10h6.8v10Zm0,63v-52.1h6.8v52.1Z"/><path d="M1709.47,343.85l-21.2-52.1h7l17.9,45.8,18-45.8h6.6l-21.2,52.1Z"/><path d="M1747.17,280.85v-10h6.8v10Zm0,63v-52.1h6.8v52.1Z"/><path d="M1790.37,344.85a22.46,22.46,0,0,1-10-2.25,25.36,25.36,0,0,1-7.9-6,27.15,27.15,0,0,1-5.15-8.55,28.27,28.27,0,0,1-1.85-10.15,30.37,30.37,0,0,1,1.8-10.45,28,28,0,0,1,5-8.65,23.51,23.51,0,0,1,7.5-5.85,21.29,21.29,0,0,1,9.55-2.15,20.39,20.39,0,0,1,11.7,3.45,26.14,26.14,0,0,1,8,8.35v-31.8h6.8v64.2c0,1.87.8,2.8,2.4,2.8v6a12.91,12.91,0,0,1-2.4.3,6.21,6.21,0,0,1-4.2-1.55,4.77,4.77,0,0,1-1.8-3.75v-5.1a22.84,22.84,0,0,1-8.4,8.1A22,22,0,0,1,1790.37,344.85Zm1.5-6a16.1,16.1,0,0,0,5.35-1,21.69,21.69,0,0,0,5.35-2.75,18.22,18.22,0,0,0,4.25-4.1A11.06,11.06,0,0,0,1809,326v-16.1a17.92,17.92,0,0,0-2.9-5.05,23.77,23.77,0,0,0-4.35-4.15,20.43,20.43,0,0,0-5.25-2.8,16.47,16.47,0,0,0-5.5-1,16,16,0,0,0-7.6,1.8,19.24,19.24,0,0,0-5.85,4.75,21.4,21.4,0,0,0-3.75,6.75,23.91,23.91,0,0,0-1.3,7.8,21.85,21.85,0,0,0,5.6,14.65,19.7,19.7,0,0,0,6.15,4.55A17.41,17.41,0,0,0,1791.87,338.85Z"/><path d="M1847.47,344.85q-8.51,0-12.65-5.65t-4.15-16.85v-30.6h6.8v29.4q0,17.7,12.1,17.7a17.88,17.88,0,0,0,5.9-1,18.3,18.3,0,0,0,5.35-2.9,23.2,23.2,0,0,0,4.4-4.5,22.62,22.62,0,0,0,3.15-5.9v-32.8h6.8v43.3c0,1.87.8,2.8,2.4,2.8v6a11.64,11.64,0,0,1-2,.2h-1a5.39,5.39,0,0,1-3.9-1.7,6,6,0,0,1-1.5-4.3v-6a24.23,24.23,0,0,1-9.25,9.45A24.59,24.59,0,0,1,1847.47,344.85Z"/><path d="M1903.67,344.85a18.26,18.26,0,0,1-6.85-1.25,17.21,17.21,0,0,1-5.5-3.45,15.54,15.54,0,0,1-5-11.5,12.83,12.83,0,0,1,1.6-6.3,15.36,15.36,0,0,1,4.5-5,22,22,0,0,1,6.9-3.25,32,32,0,0,1,8.8-1.15,48.71,48.71,0,0,1,8.1.7,35.74,35.74,0,0,1,7.3,2V311q0-6.9-3.9-10.95t-10.8-4.05a23.08,23.08,0,0,0-8.2,1.6,39.77,39.77,0,0,0-8.5,4.6l-2.4-4.5q10.1-6.79,19.6-6.8,9.8,0,15.4,5.5t5.6,15.2v23.5c0,1.87.83,2.8,2.5,2.8v6a16.17,16.17,0,0,1-2.6.3,5.85,5.85,0,0,1-4-1.3,4.87,4.87,0,0,1-1.55-3.6l-.2-4.1a23.53,23.53,0,0,1-9,7.2A27.78,27.78,0,0,1,1903.67,344.85Zm1.6-5.2a23.43,23.43,0,0,0,9.75-2,15.86,15.86,0,0,0,6.75-5.3,6.23,6.23,0,0,0,1.35-2,5,5,0,0,0,.45-1.95V320a42.81,42.81,0,0,0-7-2,40,40,0,0,0-7.45-.7q-7.2,0-11.7,3a9.13,9.13,0,0,0-4.5,7.9,10.84,10.84,0,0,0,1,4.5,11.32,11.32,0,0,0,2.6,3.65,12.1,12.1,0,0,0,3.95,2.45A13.33,13.33,0,0,0,1905.27,339.65Z"/><path d="M1945.37,270.85h6.8v61.2a6.24,6.24,0,0,0,1.6,4.55,6,6,0,0,0,4.5,1.65,13.55,13.55,0,0,0,2.6-.3,16.62,16.62,0,0,0,2.8-.8l1.2,5.5a22,22,0,0,1-4.65,1.3,26.48,26.48,0,0,1-4.75.5,10.1,10.1,0,0,1-7.4-2.65c-1.8-1.76-2.7-4.25-2.7-7.45Z"/><path d="M1989.57,344.85a36.08,36.08,0,0,1-11.9-2,28.42,28.42,0,0,1-10-5.8l3.1-4.6a33.9,33.9,0,0,0,9,5.4,26.24,26.24,0,0,0,9.75,1.8q6.3,0,10-2.55a8.25,8.25,0,0,0,3.75-7.25,6.28,6.28,0,0,0-1-3.65,8.84,8.84,0,0,0-3-2.55,23.31,23.31,0,0,0-4.9-1.95c-2-.56-4.25-1.15-6.85-1.75q-4.5-1.09-7.8-2.2a23.37,23.37,0,0,1-5.45-2.5,9,9,0,0,1-3.2-3.45,11.21,11.21,0,0,1-1-5.15,14.74,14.74,0,0,1,1.55-6.9,14,14,0,0,1,4.2-4.95,19,19,0,0,1,6.2-2.95,28,28,0,0,1,7.55-1,29.26,29.26,0,0,1,10.9,1.95,21.56,21.56,0,0,1,7.9,5.15l-3.3,4a18.25,18.25,0,0,0-7-4.5,25.27,25.27,0,0,0-8.65-1.5,21.82,21.82,0,0,0-5,.55,12.07,12.07,0,0,0-4,1.75,8.65,8.65,0,0,0-2.75,3.05,9,9,0,0,0-1,4.35,7.1,7.1,0,0,0,.7,3.4,5.93,5.93,0,0,0,2.3,2.25,18.55,18.55,0,0,0,4,1.7c1.63.5,3.62,1,6,1.55q5,1.2,8.8,2.4a28,28,0,0,1,6.35,2.8,10.32,10.32,0,0,1,5.15,9.5,13.57,13.57,0,0,1-5.5,11.4Q1998.87,344.85,1989.57,344.85Z"/><path d="M3314.86,325.55a16.76,16.76,0,0,1-1.6,7.35,18.47,18.47,0,0,1-4.3,5.8,19.3,19.3,0,0,1-6.3,3.8,21.76,21.76,0,0,1-7.7,1.35h-33.5v-71h34.2a14.08,14.08,0,0,1,6.7,1.6,16.78,16.78,0,0,1,5.1,4.15,19.17,19.17,0,0,1,3.25,5.8,19.45,19.45,0,0,1,1.15,6.55,18.61,18.61,0,0,1-2.7,9.85,16.65,16.65,0,0,1-7.5,6.65,17.78,17.78,0,0,1,9.65,6.7A19,19,0,0,1,3314.86,325.55Zm-46.4-46.6v26.2h24.4a10.82,10.82,0,0,0,4.85-1.1,12.33,12.33,0,0,0,3.85-2.9,13.29,13.29,0,0,0,2.5-4.15,13.67,13.67,0,0,0,.9-4.95,15.33,15.33,0,0,0-.85-5.1,12.6,12.6,0,0,0-2.4-4.15,12.19,12.19,0,0,0-3.65-2.8,10.13,10.13,0,0,0-4.6-1.05Zm39.4,45.4a14.58,14.58,0,0,0-.9-5.05,13.14,13.14,0,0,0-6.45-7.3,10.6,10.6,0,0,0-4.85-1.15h-27.2v26.9H3295a11.68,11.68,0,0,0,5.05-1.1,13.25,13.25,0,0,0,4.1-2.95,13.64,13.64,0,0,0,2.75-4.3A13.15,13.15,0,0,0,3307.86,324.35Z"/><path d="M3343,344.85q-8.51,0-12.65-5.65t-4.15-16.85v-30.6h6.8v29.4q0,17.7,12.1,17.7a17.92,17.92,0,0,0,5.9-1,18.43,18.43,0,0,0,5.35-2.9,23.2,23.2,0,0,0,4.4-4.5,22.62,22.62,0,0,0,3.15-5.9v-32.8h6.8v43.3c0,1.87.8,2.8,2.4,2.8v6a11.64,11.64,0,0,1-1.95.2h-1.05a5.39,5.39,0,0,1-3.9-1.7,6,6,0,0,1-1.5-4.3v-6a24.23,24.23,0,0,1-9.25,9.45A24.59,24.59,0,0,1,3343,344.85Z"/><path d="M3403.36,344.85a36,36,0,0,1-11.9-2,28.42,28.42,0,0,1-10-5.8l3.1-4.6a33.75,33.75,0,0,0,9,5.4,26.24,26.24,0,0,0,9.75,1.8q6.3,0,10-2.55a8.25,8.25,0,0,0,3.75-7.25,6.36,6.36,0,0,0-1-3.65,8.84,8.84,0,0,0-2.95-2.55,23.54,23.54,0,0,0-4.9-1.95c-2-.56-4.25-1.15-6.85-1.75q-4.5-1.09-7.8-2.2a23.37,23.37,0,0,1-5.45-2.5,8.92,8.92,0,0,1-3.2-3.45,11.21,11.21,0,0,1-1-5.15,14.74,14.74,0,0,1,1.55-6.9,14,14,0,0,1,4.2-4.95,19,19,0,0,1,6.2-2.95,27.94,27.94,0,0,1,7.55-1,29.26,29.26,0,0,1,10.9,1.95,21.64,21.64,0,0,1,7.9,5.15l-3.3,4a18.4,18.4,0,0,0-7.05-4.5,25.27,25.27,0,0,0-8.65-1.5,21.82,21.82,0,0,0-5,.55,12,12,0,0,0-4,1.75,8.56,8.56,0,0,0-2.75,3.05,9,9,0,0,0-1,4.35,7.1,7.1,0,0,0,.7,3.4,5.86,5.86,0,0,0,2.3,2.25,18.13,18.13,0,0,0,4,1.7q2.45.75,6,1.55,5,1.2,8.8,2.4a28,28,0,0,1,6.35,2.8,11.11,11.11,0,0,1,3.85,3.9,11.31,11.31,0,0,1,1.3,5.6,13.6,13.6,0,0,1-5.5,11.4Q3412.66,344.85,3403.36,344.85Z"/><path d="M3434.76,280.85v-10h6.8v10Zm0,63v-52.1h6.8v52.1Z"/><path d="M3500.36,343.85h-6.8v-29.1q0-9.3-2.75-13.5t-8.45-4.2a17.4,17.4,0,0,0-6,1.1,20.49,20.49,0,0,0-5.55,3.1,23.9,23.9,0,0,0-4.55,4.75,18.58,18.58,0,0,0-2.9,5.95v31.9h-6.8v-52.1h6.2v11.8a24.48,24.48,0,0,1,9.15-9.2,25.09,25.09,0,0,1,13-3.5,15.44,15.44,0,0,1,7.3,1.6,12.51,12.51,0,0,1,4.8,4.5,20.92,20.92,0,0,1,2.6,7.1,50.13,50.13,0,0,1,.8,9.3Z"/><path d="M3537.36,344.85a24.92,24.92,0,0,1-10.45-2.15,25.49,25.49,0,0,1-8.25-5.9,27.24,27.24,0,0,1-5.45-8.65,28.08,28.08,0,0,1-1.95-10.5,27.53,27.53,0,0,1,1.95-10.35,26.9,26.9,0,0,1,5.4-8.5,25.78,25.78,0,0,1,8.25-5.8,25.37,25.37,0,0,1,29,5.85,27.47,27.47,0,0,1,7.2,18.7v1.6a4.28,4.28,0,0,1-.1,1.1h-44.6a21.89,21.89,0,0,0,1.95,7.75,21.08,21.08,0,0,0,4.25,6.15,18.71,18.71,0,0,0,6,4.05,17.71,17.71,0,0,0,7.15,1.45,18.39,18.39,0,0,0,5-.7,20,20,0,0,0,4.6-1.9,17.16,17.16,0,0,0,3.8-2.95,12.65,12.65,0,0,0,2.6-3.85l5.9,1.6a17.29,17.29,0,0,1-3.4,5.25,23.6,23.6,0,0,1-5.1,4.1,24.89,24.89,0,0,1-6.4,2.7A27.52,27.52,0,0,1,3537.36,344.85Zm19.2-29.8a20.9,20.9,0,0,0-6.15-13.6,18.84,18.84,0,0,0-5.9-3.9,18.45,18.45,0,0,0-7.15-1.4,18.73,18.73,0,0,0-13.15,5.3,19.19,19.19,0,0,0-4.1,6,22.61,22.61,0,0,0-1.85,7.6Z"/><path d="M3590.85,344.85a36,36,0,0,1-11.89-2,28.33,28.33,0,0,1-10-5.8l3.09-4.6a34.06,34.06,0,0,0,8.95,5.4,26.31,26.31,0,0,0,9.75,1.8c4.21,0,7.55-.85,10.05-2.55a8.25,8.25,0,0,0,3.75-7.25,6.28,6.28,0,0,0-1-3.65,8.74,8.74,0,0,0-3-2.55,23.43,23.43,0,0,0-4.89-1.95c-2-.56-4.25-1.15-6.86-1.75q-4.5-1.09-7.8-2.2a23.56,23.56,0,0,1-5.45-2.5,9,9,0,0,1-3.2-3.45,11.34,11.34,0,0,1-1.05-5.15,14.86,14.86,0,0,1,1.55-6.9,14.21,14.21,0,0,1,4.2-4.95,19.25,19.25,0,0,1,6.2-2.95,28,28,0,0,1,7.55-1,29.22,29.22,0,0,1,10.9,1.95,21.56,21.56,0,0,1,7.9,5.15l-3.3,4a18.25,18.25,0,0,0-7-4.5,25.22,25.22,0,0,0-8.65-1.5,21.88,21.88,0,0,0-5,.55,12.16,12.16,0,0,0-4.05,1.75,8.75,8.75,0,0,0-2.75,3.05,9.13,9.13,0,0,0-1,4.35,7.22,7.22,0,0,0,.7,3.4,6,6,0,0,0,2.3,2.25,18.55,18.55,0,0,0,4.05,1.7q2.46.75,5.95,1.55,5,1.2,8.8,2.4a27.8,27.8,0,0,1,6.35,2.8,11,11,0,0,1,3.85,3.9,11.2,11.2,0,0,1,1.3,5.6,13.57,13.57,0,0,1-5.5,11.4Q3600.16,344.85,3590.85,344.85Z"/><path d="M3639.55,344.85a36.13,36.13,0,0,1-11.9-2,28.51,28.51,0,0,1-10-5.8l3.1-4.6a34.06,34.06,0,0,0,8.95,5.4,26.31,26.31,0,0,0,9.75,1.8q6.3,0,10.05-2.55a8.25,8.25,0,0,0,3.75-7.25,6.28,6.28,0,0,0-1-3.65,8.74,8.74,0,0,0-2.95-2.55,23.31,23.31,0,0,0-4.9-1.95c-2-.56-4.25-1.15-6.85-1.75q-4.5-1.09-7.8-2.2a23.56,23.56,0,0,1-5.45-2.5,9,9,0,0,1-3.2-3.45,11.21,11.21,0,0,1-1-5.15,14.86,14.86,0,0,1,1.55-6.9,14.21,14.21,0,0,1,4.2-4.95,19.25,19.25,0,0,1,6.2-2.95,28,28,0,0,1,7.55-1,29.22,29.22,0,0,1,10.9,1.95,21.56,21.56,0,0,1,7.9,5.15l-3.3,4a18.25,18.25,0,0,0-7.05-4.5,25.22,25.22,0,0,0-8.65-1.5,21.88,21.88,0,0,0-5,.55,12.16,12.16,0,0,0-4,1.75,8.75,8.75,0,0,0-2.75,3.05,9.13,9.13,0,0,0-1,4.35,7.22,7.22,0,0,0,.7,3.4,6,6,0,0,0,2.3,2.25,18.55,18.55,0,0,0,4,1.7q2.46.75,6,1.55,5,1.2,8.8,2.4a27.8,27.8,0,0,1,6.35,2.8,11,11,0,0,1,3.85,3.9,11.2,11.2,0,0,1,1.3,5.6,13.57,13.57,0,0,1-5.5,11.4Q3648.86,344.85,3639.55,344.85Z"/><path d="M3693.45,344.85A25,25,0,0,1,3683,342.7a25.7,25.7,0,0,1-8.25-5.9,27.42,27.42,0,0,1-5.45-8.65,28.08,28.08,0,0,1-2-10.5,27.53,27.53,0,0,1,2-10.35,26.9,26.9,0,0,1,5.4-8.5A25.78,25.78,0,0,1,3683,293a26.35,26.35,0,0,1,20.85,0,24.93,24.93,0,0,1,8.15,5.85,27.47,27.47,0,0,1,7.2,18.7v1.6a3.86,3.86,0,0,1-.1,1.1h-44.6a21.89,21.89,0,0,0,2,7.75,21.28,21.28,0,0,0,4.25,6.15,18.93,18.93,0,0,0,5.95,4.05,17.78,17.78,0,0,0,7.15,1.45,18.29,18.29,0,0,0,5-.7,19.86,19.86,0,0,0,4.6-1.9,16.93,16.93,0,0,0,3.8-2.95,12.47,12.47,0,0,0,2.6-3.85l5.9,1.6a17.1,17.1,0,0,1-3.4,5.25,23.12,23.12,0,0,1-5.1,4.1,24.6,24.6,0,0,1-6.4,2.7A27.42,27.42,0,0,1,3693.45,344.85Zm19.2-29.8a20.9,20.9,0,0,0-6.15-13.6,18.73,18.73,0,0,0-5.9-3.9,18.38,18.38,0,0,0-7.15-1.4,18.73,18.73,0,0,0-13.15,5.3,19.36,19.36,0,0,0-4.1,6,22.85,22.85,0,0,0-1.85,7.6Z"/><path d="M3747,344.85a36.13,36.13,0,0,1-11.9-2,28.51,28.51,0,0,1-10-5.8l3.1-4.6a34.06,34.06,0,0,0,8.95,5.4,26.31,26.31,0,0,0,9.75,1.8q6.3,0,10.05-2.55a8.25,8.25,0,0,0,3.75-7.25,6.28,6.28,0,0,0-1-3.65,8.74,8.74,0,0,0-3-2.55,23.31,23.31,0,0,0-4.9-1.95c-2-.56-4.25-1.15-6.85-1.75q-4.5-1.09-7.8-2.2a23.56,23.56,0,0,1-5.45-2.5,9,9,0,0,1-3.2-3.45,11.21,11.21,0,0,1-1.05-5.15,14.86,14.86,0,0,1,1.55-6.9,14.21,14.21,0,0,1,4.2-4.95,19.25,19.25,0,0,1,6.2-2.95,28,28,0,0,1,7.55-1,29.22,29.22,0,0,1,10.9,1.95,21.56,21.56,0,0,1,7.9,5.15l-3.3,4a18.25,18.25,0,0,0-7-4.5,25.22,25.22,0,0,0-8.65-1.5,21.88,21.88,0,0,0-5,.55,12.16,12.16,0,0,0-4.05,1.75,8.75,8.75,0,0,0-2.75,3.05,9.13,9.13,0,0,0-1,4.35,7.22,7.22,0,0,0,.7,3.4,6,6,0,0,0,2.3,2.25A18.55,18.55,0,0,0,3741,313q2.46.75,5.95,1.55,5,1.2,8.8,2.4a27.8,27.8,0,0,1,6.35,2.8,11,11,0,0,1,3.85,3.9,11.2,11.2,0,0,1,1.3,5.6,13.57,13.57,0,0,1-5.5,11.4Q3756.26,344.85,3747,344.85Z"/><path d="M4907.2,343.85v-71h29.4a18.46,18.46,0,0,1,8.45,1.95,22.39,22.39,0,0,1,6.65,5.1,24.49,24.49,0,0,1,4.4,7.15,21.8,21.8,0,0,1,1.6,8.1,24.11,24.11,0,0,1-1.5,8.45,22.79,22.79,0,0,1-4.2,7.15,21,21,0,0,1-6.45,5,18.19,18.19,0,0,1-8.35,1.9h-23v26.2Zm7-32.4h22.7a11.91,11.91,0,0,0,5.65-1.35,13.75,13.75,0,0,0,4.35-3.6,17,17,0,0,0,2.8-5.2,19.15,19.15,0,0,0,1-6.15,17.27,17.27,0,0,0-4.25-11.4,14.42,14.42,0,0,0-4.6-3.45,12.93,12.93,0,0,0-5.55-1.25h-22.1Z"/><path d="M4989.3,344.85a24.59,24.59,0,0,1-10.4-2.15,25.38,25.38,0,0,1-8.15-5.85,26.33,26.33,0,0,1-5.35-8.6,28.79,28.79,0,0,1,.05-20.7,27.36,27.36,0,0,1,5.4-8.6,26.31,26.31,0,0,1,8.15-5.9,24.06,24.06,0,0,1,10.3-2.2,24.45,24.45,0,0,1,10.35,2.2,26.29,26.29,0,0,1,8.2,5.9,27.36,27.36,0,0,1,5.4,8.6,27.9,27.9,0,0,1,1.95,10.4,28.35,28.35,0,0,1-1.9,10.3,26.5,26.5,0,0,1-5.35,8.6,25.38,25.38,0,0,1-8.2,5.85A25,25,0,0,1,4989.3,344.85Zm-18.9-26.8a21.72,21.72,0,0,0,1.5,8.15,22.12,22.12,0,0,0,4.05,6.6,18.22,18.22,0,0,0,6,4.45,17.21,17.21,0,0,0,7.35,1.6,16.82,16.82,0,0,0,7.35-1.65,19.6,19.6,0,0,0,6.05-4.5,21.43,21.43,0,0,0,4.1-6.65,23,23,0,0,0,0-16.35,21.44,21.44,0,0,0-4.1-6.7,19.6,19.6,0,0,0-6.05-4.5,16.82,16.82,0,0,0-7.35-1.65,16.48,16.48,0,0,0-7.3,1.65,19.32,19.32,0,0,0-6,4.55,22,22,0,0,0-4.1,6.75A22.55,22.55,0,0,0,4970.4,318.05Z"/><path d="M5026.89,270.85h6.8v61.2a6.28,6.28,0,0,0,1.6,4.55,6,6,0,0,0,4.5,1.65,13.46,13.46,0,0,0,2.6-.3,16.35,16.35,0,0,0,2.8-.8l1.2,5.5a21.68,21.68,0,0,1-4.64,1.3,26.57,26.57,0,0,1-4.75.5,10.11,10.11,0,0,1-7.41-2.65c-1.8-1.76-2.7-4.25-2.7-7.45Z"/><path d="M5053.79,280.85v-10h6.8v10Zm0,63v-52.1h6.8v52.1Z"/><path d="M5100.59,341.35c-.4.2-1,.47-1.75.8s-1.65.67-2.65,1a28.11,28.11,0,0,1-3.4.9,19.11,19.11,0,0,1-4,.4,14.61,14.61,0,0,1-4.2-.6,9.72,9.72,0,0,1-3.5-1.85,9,9,0,0,1-2.4-3.15,10.14,10.14,0,0,1-.9-4.4v-37.3h-7.2v-5.4h7.2v-17.6h6.8v17.6h12v5.4h-12v35.4a5.42,5.42,0,0,0,2.05,4.25,7,7,0,0,0,4.25,1.35,12.61,12.61,0,0,0,5.1-.95,21.29,21.29,0,0,0,2.8-1.35Z"/><path d="M5109.09,280.85v-10h6.8v10Zm0,63v-52.1h6.8v52.1Z"/><path d="M5127.29,317.65a28.48,28.48,0,0,1,1.9-10.4,26.16,26.16,0,0,1,5.35-8.55,25,25,0,0,1,8.25-5.75,26.15,26.15,0,0,1,10.6-2.1,24.35,24.35,0,0,1,12.9,3.35,21.56,21.56,0,0,1,8.3,9.05l-6.6,2.1a15.93,15.93,0,0,0-6.15-6.25,17.36,17.36,0,0,0-8.75-2.25,17.58,17.58,0,0,0-7.45,1.6,19.1,19.1,0,0,0-6,4.35,20.16,20.16,0,0,0-4,6.55,24.09,24.09,0,0,0,0,16.6,21.23,21.23,0,0,0,4.1,6.75,19.48,19.48,0,0,0,6.05,4.5,16.82,16.82,0,0,0,7.35,1.65,17.78,17.78,0,0,0,5-.7,18.65,18.65,0,0,0,4.55-1.95,16.17,16.17,0,0,0,3.6-2.85,9.21,9.21,0,0,0,2.1-3.4l6.7,2a16.86,16.86,0,0,1-3.2,5.15,21.81,21.81,0,0,1-5,4.1,24.06,24.06,0,0,1-6.3,2.7,26.52,26.52,0,0,1-7.15,1,25.3,25.3,0,0,1-18.8-8.05,27.42,27.42,0,0,1-5.45-8.65A28.08,28.08,0,0,1,5127.29,317.65Z"/><path d="M5198.89,344.85a18.26,18.26,0,0,1-6.85-1.25,17.21,17.21,0,0,1-5.5-3.45,15.54,15.54,0,0,1-4.95-11.5,12.83,12.83,0,0,1,1.6-6.3,15.36,15.36,0,0,1,4.5-5,22,22,0,0,1,6.9-3.25,32,32,0,0,1,8.8-1.15,48.71,48.71,0,0,1,8.1.7,35.74,35.74,0,0,1,7.3,2V311q0-6.9-3.9-10.95t-10.8-4.05a23.08,23.08,0,0,0-8.2,1.6,39.77,39.77,0,0,0-8.5,4.6l-2.4-4.5q10.1-6.79,19.6-6.8,9.8,0,15.4,5.5t5.6,15.2v23.5c0,1.87.83,2.8,2.5,2.8v6a16.17,16.17,0,0,1-2.6.3,5.85,5.85,0,0,1-4.05-1.3,4.87,4.87,0,0,1-1.55-3.6l-.2-4.1a23.53,23.53,0,0,1-9,7.2A27.78,27.78,0,0,1,5198.89,344.85Zm1.6-5.2a23.43,23.43,0,0,0,9.75-2,15.86,15.86,0,0,0,6.75-5.3,6.23,6.23,0,0,0,1.35-2,5,5,0,0,0,.45-1.95V320a42.81,42.81,0,0,0-7.05-2,40,40,0,0,0-7.45-.7q-7.2,0-11.7,3a9.13,9.13,0,0,0-4.5,7.9,10.84,10.84,0,0,0,.95,4.5,11.32,11.32,0,0,0,2.6,3.65,12.1,12.1,0,0,0,3.95,2.45A13.33,13.33,0,0,0,5200.49,339.65Z"/><path d="M5240.59,270.85h6.8v61.2a6.24,6.24,0,0,0,1.6,4.55,6,6,0,0,0,4.5,1.65,13.55,13.55,0,0,0,2.6-.3,16.62,16.62,0,0,0,2.8-.8l1.2,5.5a22,22,0,0,1-4.65,1.3,26.48,26.48,0,0,1-4.75.5,10.1,10.1,0,0,1-7.4-2.65c-1.8-1.76-2.7-4.25-2.7-7.45Z"/><path d="M5342.59,333.45q-9.9,10.91-22.8,10.9a28.58,28.58,0,0,1-13.25-3.1,34.7,34.7,0,0,1-10.5-8.2,38.47,38.47,0,0,1-6.95-11.55,36.27,36.27,0,0,1-2.5-13.25,38.13,38.13,0,0,1,2.45-13.6,36.2,36.2,0,0,1,6.85-11.45,33.64,33.64,0,0,1,10.4-7.9,29.35,29.35,0,0,1,13.1-2.95,37.08,37.08,0,0,1,9.5,1.15,29.37,29.37,0,0,1,7.65,3.2,24.61,24.61,0,0,1,5.8,4.9,31,31,0,0,1,4.15,6.25l-5.4,3.6a23.06,23.06,0,0,0-9.1-9.7,25.88,25.88,0,0,0-12.7-3.1,22.55,22.55,0,0,0-10.65,2.5,25.71,25.71,0,0,0-8.1,6.65,30.39,30.39,0,0,0-5.15,9.5,34.44,34.44,0,0,0-1.8,11.05,31.78,31.78,0,0,0,2.05,11.4,30.08,30.08,0,0,0,5.65,9.45,27.48,27.48,0,0,0,8.45,6.45,23.45,23.45,0,0,0,10.55,2.4,25.19,25.19,0,0,0,11.65-2.85,34.46,34.46,0,0,0,10.65-9.05v-11.8h-15.8V309h21.7v34.9h-5.9Z"/><path d="M5387.49,297.75a21.44,21.44,0,0,0-12,3.8,19.16,19.16,0,0,0-7.2,9.9v32.4h-6.8v-52.1h6.4v12.5a23.67,23.67,0,0,1,7.8-9.4,18.1,18.1,0,0,1,10.5-3.4,7.55,7.55,0,0,1,1.3.1Z"/><path d="M5416.19,344.85a24.59,24.59,0,0,1-10.4-2.15,25.38,25.38,0,0,1-8.15-5.85,26.33,26.33,0,0,1-5.35-8.6,28.79,28.79,0,0,1,.05-20.7,27.36,27.36,0,0,1,5.4-8.6,26.31,26.31,0,0,1,8.15-5.9,24.06,24.06,0,0,1,10.3-2.2,24.45,24.45,0,0,1,10.35,2.2,26.29,26.29,0,0,1,8.2,5.9,27.36,27.36,0,0,1,5.4,8.6,27.9,27.9,0,0,1,1.95,10.4,28.35,28.35,0,0,1-1.9,10.3,26.5,26.5,0,0,1-5.35,8.6,25.38,25.38,0,0,1-8.2,5.85A25,25,0,0,1,5416.19,344.85Zm-18.9-26.8a21.72,21.72,0,0,0,1.5,8.15,22.12,22.12,0,0,0,4.05,6.6,18.22,18.22,0,0,0,6,4.45,17.21,17.21,0,0,0,7.35,1.6,16.82,16.82,0,0,0,7.35-1.65,19.6,19.6,0,0,0,6.05-4.5,21.43,21.43,0,0,0,4.1-6.65,23,23,0,0,0,0-16.35,21.44,21.44,0,0,0-4.1-6.7,19.6,19.6,0,0,0-6.05-4.5,16.82,16.82,0,0,0-7.35-1.65,16.48,16.48,0,0,0-7.3,1.65,19.32,19.32,0,0,0-6,4.55,22,22,0,0,0-4.1,6.75A22.55,22.55,0,0,0,5397.29,318.05Z"/><path d="M5469.79,344.85q-8.51,0-12.65-5.65T5453,322.35v-30.6h6.8v29.4q0,17.7,12.1,17.7a17.92,17.92,0,0,0,5.9-1,18.43,18.43,0,0,0,5.35-2.9,23.2,23.2,0,0,0,4.4-4.5,22.62,22.62,0,0,0,3.15-5.9v-32.8h6.8v43.3c0,1.87.8,2.8,2.4,2.8v6a11.64,11.64,0,0,1-2,.2h-1a5.39,5.39,0,0,1-3.9-1.7,6,6,0,0,1-1.5-4.3v-6a24.23,24.23,0,0,1-9.25,9.45A24.59,24.59,0,0,1,5469.79,344.85Z"/><path d="M5539.49,344.85a20.52,20.52,0,0,1-11.65-3.35,26.5,26.5,0,0,1-8.15-8.45v32.1h-6.8v-73.4h6.1v10.1a25.35,25.35,0,0,1,8.3-8,21.27,21.27,0,0,1,11.1-3,21.82,21.82,0,0,1,9.9,2.25,25.45,25.45,0,0,1,7.8,6,28.06,28.06,0,0,1,5.15,8.65,28.48,28.48,0,0,1,1.85,10.1,31.55,31.55,0,0,1-1.7,10.4,26.55,26.55,0,0,1-4.85,8.6,23.23,23.23,0,0,1-7.5,5.85A21.19,21.19,0,0,1,5539.49,344.85Zm-1.9-6a16.29,16.29,0,0,0,7.65-1.8,19.06,19.06,0,0,0,5.9-4.75,21.37,21.37,0,0,0,3.75-6.7,23.65,23.65,0,0,0,1.3-7.75,21.62,21.62,0,0,0-1.5-8,22.27,22.27,0,0,0-4.1-6.7,19.77,19.77,0,0,0-6.15-4.6,17.55,17.55,0,0,0-7.65-1.7,15.73,15.73,0,0,0-5.45,1,22.58,22.58,0,0,0-5.3,2.8,18.8,18.8,0,0,0-4.2,4.1,11,11,0,0,0-2.15,4.95v16a23.57,23.57,0,0,0,3.05,5.2,21.16,21.16,0,0,0,4.2,4.15,19.69,19.69,0,0,0,5.05,2.75A15.89,15.89,0,0,0,5537.59,338.85Z"/><path d="M5591.89,344.85a36,36,0,0,1-11.9-2,28.42,28.42,0,0,1-10-5.8l3.1-4.6a33.75,33.75,0,0,0,8.95,5.4,26.24,26.24,0,0,0,9.75,1.8q6.3,0,10.05-2.55a8.25,8.25,0,0,0,3.75-7.25,6.36,6.36,0,0,0-1-3.65,8.84,8.84,0,0,0-2.95-2.55,23.54,23.54,0,0,0-4.9-1.95c-2-.56-4.25-1.15-6.85-1.75q-4.5-1.09-7.8-2.2a23.37,23.37,0,0,1-5.45-2.5,8.92,8.92,0,0,1-3.2-3.45,11.21,11.21,0,0,1-1-5.15,14.74,14.74,0,0,1,1.55-6.9,14,14,0,0,1,4.2-4.95,19,19,0,0,1,6.2-2.95,27.94,27.94,0,0,1,7.55-1,29.26,29.26,0,0,1,10.9,1.95,21.64,21.64,0,0,1,7.9,5.15l-3.3,4a18.4,18.4,0,0,0-7.05-4.5,25.27,25.27,0,0,0-8.65-1.5,21.82,21.82,0,0,0-5,.55,12,12,0,0,0-4,1.75,8.56,8.56,0,0,0-2.75,3.05,9,9,0,0,0-1,4.35,7.1,7.1,0,0,0,.7,3.4,5.86,5.86,0,0,0,2.3,2.25,18.13,18.13,0,0,0,4,1.7q2.45.75,6,1.55,5,1.2,8.8,2.4a28,28,0,0,1,6.35,2.8,11.11,11.11,0,0,1,3.85,3.9,11.31,11.31,0,0,1,1.3,5.6,13.6,13.6,0,0,1-5.5,11.4Q5601.19,344.85,5591.89,344.85Z"/></svg>