<svg id="Layer_1" data-name="Layer 1" xmlns="http://www.w3.org/2000/svg" viewBox="0 0 6101 1143"><defs><style>.cls-1{fill:#d70b5a;}.cls-2{fill:#fff;}.cls-3{fill:#6c010d;}.cls-4{fill:#0290ef;}.cls-5{fill:#122647;}.cls-6{fill:#02d9b8;}.cls-7{fill:#02865c;}.cls-8{fill:#f3a712;}.cls-9{font-size:100px;font-family:Raleway-Regular, Raleway;}.cls-10{letter-spacing:-0.02em;}.cls-11{letter-spacing:0em;}.cls-12{letter-spacing:-0.02em;}.cls-13{letter-spacing:-0.02em;}.cls-14{letter-spacing:-0.01em;}.cls-15{letter-spacing:0em;}.cls-16{letter-spacing:-0.03em;}.cls-17{letter-spacing:-0.03em;}</style></defs><title>Middle Icon</title><g id="Ellipse_2" data-name="Ellipse 2"><ellipse class="cls-1" cx="1330.04" cy="668.65" rx="211.2" ry="216"/></g><path class="cls-2" d="M1330,666.09c26.88,0,49-26.56,49-59.52,0-32.64-7-59.52-49-59.52s-49,26.56-49,59.52S1303.16,666.09,1330,666.09Z"/><path class="cls-2" d="M1422.2,754.41c-1-57.28-8.32-73.28-65.6-83.84,0,0-8,10.24-26.88,10.24s-26.88-10.24-26.88-10.24c-56,10.24-64,26.24-65,81.92v10.24s13.44,27.52,92.48,27.52c78.72,0,92.48-27.52,92.48-27.52v-4.48C1422.2,758.57,1422.2,757.93,1422.2,754.41Z"/><g id="Ellipse_2-2" data-name="Ellipse 2"><ellipse class="cls-3" cx="2202.71" cy="668.65" rx="211.2" ry="216"/></g><path class="cls-2" d="M2202.71,666.09c26.88,0,49-26.56,49-59.52,0-32.64-7-59.52-49-59.52s-49,26.56-49,59.52S2175.83,666.09,2202.71,666.09Z"/><path class="cls-2" d="M2294.87,754.41c-1-57.28-8.32-73.28-65.6-83.84,0,0-8,10.24-26.88,10.24s-26.88-10.24-26.88-10.24c-56,10.24-64,26.24-65,81.92v10.24S2124,790.25,2203,790.25c78.72,0,92.48-27.52,92.48-27.52v-4.48C2294.87,758.57,2294.87,757.93,2294.87,754.41Z"/><g id="Ellipse_2-3" data-name="Ellipse 2"><ellipse class="cls-4" cx="3075.37" cy="668.65" rx="211.2" ry="216"/></g><path class="cls-2" d="M3125.29,685.61V637.93l-66.56,47.68V637.93h-16.64V599.21h-16.64v39h-16.64V571.37h-33.6v66.88h-16.64v128h233.6v-128Zm-77.76,52.48h-22.4v-22.4h22.4Zm39,0h-22.4v-22.4h22.4Zm38.72,0h-22.4v-22.4h22.4Z"/><g id="Ellipse_2-4" data-name="Ellipse 2"><ellipse class="cls-5" cx="3948.04" cy="668.65" rx="211.2" ry="216"/></g><path class="cls-2" d="M3998,685.61V637.93l-66.56,47.68V637.93h-16.64V599.21h-16.64v39h-16.64V571.37h-33.6v66.88h-16.64v128h233.6v-128Zm-77.76,52.48h-22.4v-22.4h22.4Zm39,0h-22.4v-22.4h22.4Zm38.72,0h-22.4v-22.4H3998Z"/><g id="Ellipse_2-5" data-name="Ellipse 2"><ellipse class="cls-6" cx="4820.71" cy="668.65" rx="211.2" ry="216"/></g><path class="cls-2" d="M4906.15,737.77a23.92,23.92,0,1,0-43.2-14.08,23,23,0,0,0,4.8,14.4,36.13,36.13,0,0,0-13.76,11.2,32.39,32.39,0,0,0-14.08-11.2,23.92,23.92,0,1,0-43.2-14.08,23,23,0,0,0,4.8,14.4,36.13,36.13,0,0,0-13.76,11.2,32.39,32.39,0,0,0-14.08-11.2,23.92,23.92,0,1,0-43.2-14.08,23,23,0,0,0,4.8,14.4,33.48,33.48,0,0,0-20.16,30.72v6.08h211.2v-6.08C4926.31,754.73,4918,742.89,4906.15,737.77Z"/><polygon class="cls-2" points="4863.27 634.41 4836.71 626.09 4820.71 603.37 4804.39 626.09 4778.15 634.41 4794.47 656.49 4794.47 684.33 4820.71 675.69 4846.95 684.33 4846.63 656.49 4863.27 634.41"/><rect class="cls-2" x="4814.63" y="562.73" width="12.48" height="17.92"/><rect class="cls-2" x="4889.51" y="637.61" width="17.92" height="12.48"/><rect class="cls-2" x="4733.99" y="637.61" width="17.92" height="12.48"/><rect class="cls-2" x="4868.98" y="585.86" width="20.8" height="12.48" transform="translate(1010.46 3623.66) rotate(-45)"/><rect class="cls-2" x="4755.69" y="581.52" width="12.48" height="20.8" transform="translate(976.19 3540.56) rotate(-45)"/><g id="Ellipse_2-6" data-name="Ellipse 2"><ellipse class="cls-7" cx="5693.37" cy="668.65" rx="211.2" ry="216"/></g><path class="cls-2" d="M5778.81,737.77a23.92,23.92,0,1,0-43.2-14.08,23,23,0,0,0,4.8,14.4,36.13,36.13,0,0,0-13.76,11.2,32.39,32.39,0,0,0-14.08-11.2,23.92,23.92,0,1,0-43.2-14.08,23,23,0,0,0,4.8,14.4,36.13,36.13,0,0,0-13.76,11.2,32.39,32.39,0,0,0-14.08-11.2,23.92,23.92,0,1,0-43.2-14.08,23,23,0,0,0,4.8,14.4,33.48,33.48,0,0,0-20.16,30.72v6.08H5799v-6.08C5799,754.73,5790.65,742.89,5778.81,737.77Z"/><polygon class="cls-2" points="5735.93 634.41 5709.37 626.09 5693.37 603.37 5677.05 626.09 5650.81 634.41 5667.13 656.49 5667.13 684.33 5693.37 675.69 5719.61 684.33 5719.29 656.49 5735.93 634.41"/><rect class="cls-2" x="5687.29" y="562.73" width="12.48" height="17.92"/><rect class="cls-2" x="5762.17" y="637.61" width="17.92" height="12.48"/><rect class="cls-2" x="5606.65" y="637.61" width="17.92" height="12.48"/><rect class="cls-2" x="5741.64" y="585.86" width="20.8" height="12.48" transform="translate(1266.05 4240.73) rotate(-45)"/><rect class="cls-2" x="5628.36" y="581.52" width="12.48" height="20.8" transform="translate(1231.79 4157.63) rotate(-45)"/><g id="Ellipse_2-7" data-name="Ellipse 2"><ellipse class="cls-8" cx="457.37" cy="668.65" rx="211.2" ry="216"/></g><path class="cls-2" d="M546,586.73a7.66,7.66,0,0,0-3.2-6.72c-1.28-1-3.2-1.6-6.08-2.56v18.24c3.84-.32,6.72-1.6,8-4.16a13.41,13.41,0,0,0,1.28-4.8Z"/><path class="cls-2" d="M533.21,554.41c-2.88,0-5.12,1-6.4,2.88a8.69,8.69,0,0,0-1.92,5.44,6.59,6.59,0,0,0,2.24,5.44,11.74,11.74,0,0,0,6.08,2.56Z"/><path class="cls-2" d="M534.81,615.53a39.68,39.68,0,1,0-39.68-39.68,39.88,39.88,0,0,0,39.68,39.68ZM522.33,572c-2.24-2.24-3.52-5.12-3.52-9.28a14.11,14.11,0,0,1,3.84-9.6c2.56-2.88,6.08-4.16,10.88-4.16v-4.48h3.2V549c4.48.32,8,1.6,10.56,4.16,2.56,2.24,3.52,5.44,3.84,9.28h-6.08a15,15,0,0,0-1.28-4.48c-1.28-2.24-3.84-3.52-7-3.52v16.64c5.44,1.6,9,2.88,10.88,4.16a11,11,0,0,1,4.8,9.6c0,6.08-1.92,10.56-6.08,13.12a28.53,28.53,0,0,1-9.6,2.88v6.72h-3.2v-6.72c-6.72-.32-11.2-2.88-13.76-7-1.28-2.24-1.92-5.44-1.92-9.28h6.08c.32,3.2.64,5.44,1.6,6.72,1.28,2.56,4.16,4.16,8,4.48V576.81c-5.12-1-9-2.56-11.2-4.8Z"/><path class="cls-2" d="M467,520.81a5.26,5.26,0,0,0-2.56-4.8,20.63,20.63,0,0,0-4.48-1.92v13.76c2.88-.32,5.12-1.28,6.08-3.2a8.52,8.52,0,0,0,1-3.84Z"/><path class="cls-2" d="M457.69,496.49a5.78,5.78,0,0,0-4.8,2.24,6.43,6.43,0,0,0-1.28,4.16,6.74,6.74,0,0,0,1.6,4.16,8.3,8.3,0,0,0,4.48,1.92Z"/><path class="cls-2" d="M458.65,542.57a29.76,29.76,0,1,0-29.76-29.76c.32,16.32,13.44,29.76,29.76,29.76Zm-9.28-32.64c-1.92-1.6-2.56-3.84-2.56-6.72a9.93,9.93,0,0,1,2.88-7c1.92-2.24,4.48-3.2,8-3.2v-3.52h2.56V493a14,14,0,0,1,8,2.88,9.41,9.41,0,0,1,2.88,7h-4.48a6.45,6.45,0,0,0-1-3.52,6.9,6.9,0,0,0-5.12-2.88V509c4.16,1.28,6.72,2.24,8,3.2a8.68,8.68,0,0,1,3.52,7.36c0,4.48-1.6,8-4.48,9.6a18.22,18.22,0,0,1-7,2.24v5.12H458v-5.12c-5.12-.32-8.32-1.92-10.24-5.44a14.31,14.31,0,0,1-1.6-7h4.48a16.05,16.05,0,0,0,1,5.12c1,1.92,3.2,2.88,6.08,3.2V513.45c-3.84-1-6.72-1.92-8.32-3.52Z"/><path class="cls-2" d="M438.49,653c-6.72-1.28-11.2-3.84-14.08-8.64-1.6-2.88-2.24-7-2.24-12.16h8c.32,4.16,1,7,1.92,9,1.92,3.52,5.44,5.12,10.24,5.76V622.57c-6.4-1.28-11.2-3.2-14.4-6.08s-4.48-6.72-4.48-11.84a16.71,16.71,0,0,1,5.12-12.16c3.2-3.52,8-5.44,14.08-5.44v-5.76h4.16v5.76c6.08.32,10.56,2.24,13.76,5.12s4.8,7,5.12,12.16H458a15.29,15.29,0,0,0-1.92-5.76c-1.92-2.88-4.8-4.48-9-4.8v21.76c7,1.92,11.52,3.84,14.08,5.44,4.16,2.88,6.08,7,6.08,12.48,0,8-2.56,13.44-7.68,17a27.32,27.32,0,0,1-8.64,2.88,110,110,0,0,1,30.4,5.12A51.17,51.17,0,1,0,394,622.25a50.45,50.45,0,0,0,16,37.12c8.64-3.84,18.56-5.76,28.48-6.4Z"/><path class="cls-2" d="M434.33,610.73a16.87,16.87,0,0,0,8,3.52v-20.8c-3.84.32-6.72,1.28-8.32,3.52a11.89,11.89,0,0,0-2.56,7,7.43,7.43,0,0,0,2.88,6.72Z"/><path class="cls-2" d="M454.17,626.73a28.94,28.94,0,0,0-8-3.2v23.36c5.12-.32,8.64-1.92,10.56-5.44a13.24,13.24,0,0,0,1.6-6.08c0-3.84-1.28-6.72-4.16-8.64Z"/><path class="cls-2" d="M619.93,756c6.4-6.4,6.72-18.56,5.76-34.88-7.36-.64-18.24.64-22.08,0-9.28-18.56-22.72-33-41.6-41.6.64-12.16,2.24-23.36,9.28-29.12-17-1.28-31.36,10.24-40.64,20.8-8.32-8.64-20.48-15.36-34.88-20.16l-9,16a125,125,0,0,0-82.24.32l-11.84-15.68h0c-18.24,6.08-34.88,15.36-48,29.12-8.32-.64-7.36-17.92,3.52-15-17.92-12.16-27.84,21.12-10.56,25.6-14.4,20.8-16,65,3.52,81.28,2.88,24.32,7,47.36,18.88,62.72h39c-1-8-1.92-16.32-1.28-25.6,23.68,5.44,51.84,7,80,4.48,4.48,7.36,8.64,14.4,13.76,21.12h38.72c-1.28-10.24-2.88-20.8-.32-31.36,9.92-2.24,57.6-14.4,89.92-48Zm-53.12-51.84a9.6,9.6,0,0,1,0,19.2,9.43,9.43,0,0,1-9.6-9.6,9.63,9.63,0,0,1,9.6-9.6Z"/><text class="cls-9" transform="translate(196.43 343.85)">Unde<tspan class="cls-10" x="254.7" y="0">r</tspan><tspan class="cls-11" x="287.4" y="0" xml:space="preserve"> $</tspan><tspan class="cls-12" x="374.8" y="0">1</tspan><tspan class="cls-13" x="415.8" y="0">7</tspan><tspan x="467.4" y="0">5</tspan></text><text class="cls-9" transform="translate(1519.28 343.85)">Individuals</text><text class="cls-9" transform="translate(3252.56 343.85)">Businesses</text><text class="cls-9" transform="translate(4898.3 343.85)"><tspan class="cls-14">P</tspan><tspan class="cls-15" x="61.3" y="0">olitica</tspan><tspan class="cls-16" x="334.49" y="0">l</tspan><tspan x="358.59" y="0" xml:space="preserve"> G</tspan><tspan class="cls-17" x="455.69" y="0">r</tspan><tspan x="488.19" y="0">oups</tspan></text></svg>
