<svg id="Layer_1" data-name="Layer 1" xmlns="http://www.w3.org/2000/svg" viewBox="0 0 6101 1143"><defs><style>.cls-1{fill:#d70b5a;}.cls-2{fill:#fff;}.cls-3{fill:#6c010d;}.cls-4{fill:#0290ef;}.cls-5{fill:#122647;}.cls-6{fill:#02d9b8;}.cls-7{fill:#02865c;}.cls-8{fill:#f3a712;}</style></defs><title>middle_icons</title><g id="Ellipse_2" data-name="Ellipse 2"><ellipse class="cls-1" cx="1330.0403" cy="668.64673" rx="211.2" ry="216"/></g><path class="cls-2" d="M1330.0403,666.08672c26.88,0,48.96-26.56,48.96-59.52,0-32.64-7.04-59.52-48.96-59.52s-48.96,26.56-48.96,59.52S1303.16029,666.08672,1330.0403,666.08672Z"/><path class="cls-2" d="M1422.20031,754.40674c-.96-57.28-8.32-73.28-65.6-83.84,0,0-8,10.24-26.88,10.24s-26.88-10.24-26.88-10.24c-56,10.24-64,26.24-64.96,81.92v10.24s13.44,27.52,92.48,27.52c78.72,0,92.48-27.52,92.48-27.52v-4.48C1422.20031,758.56672,1422.20031,757.92673,1422.20031,754.40674Z"/><g id="Ellipse_2-2" data-name="Ellipse 2"><ellipse class="cls-3" cx="2202.70697" cy="668.64673" rx="211.2" ry="216"/></g><path class="cls-2" d="M2202.707,666.08672c26.88,0,48.96-26.56,48.96-59.52,0-32.64-7.04-59.52-48.96-59.52s-48.96,26.56-48.96,59.52S2175.827,666.08672,2202.707,666.08672Z"/><path class="cls-2" d="M2294.867,754.40674c-.96-57.28-8.32-73.28-65.6-83.84,0,0-8,10.24-26.88,10.24s-26.88-10.24-26.88-10.24c-56,10.24-64,26.24-64.96,81.92v10.24s13.44,27.52,92.48,27.52c78.72,0,92.48-27.52,92.48-27.52v-4.48C2294.867,758.56672,2294.867,757.92673,2294.867,754.40674Z"/><g id="Ellipse_2-3" data-name="Ellipse 2"><ellipse class="cls-4" cx="3075.37363" cy="668.64673" rx="211.2" ry="216"/></g><path class="cls-2" d="M3125.29363,685.60674v-47.68l-66.56,47.68v-47.68h-16.64v-38.72h-16.64v39.04h-16.64v-66.88h-33.6v66.88h-16.64v128h233.6v-128Zm-77.76,52.48h-22.4v-22.4h22.4Zm39.04,0h-22.4v-22.4h22.4Zm38.72,0h-22.4v-22.4h22.4Z"/><g id="Ellipse_2-4" data-name="Ellipse 2"><ellipse class="cls-5" cx="3948.0403" cy="668.64673" rx="211.2" ry="216"/></g><path class="cls-2" d="M3997.96029,685.60674v-47.68l-66.56,47.68v-47.68h-16.64v-38.72h-16.64v39.04h-16.64v-66.88h-33.6v66.88h-16.64v128h233.6v-128Zm-77.76,52.48h-22.4v-22.4h22.4Zm39.04,0h-22.4v-22.4h22.4Zm38.72,0h-22.4v-22.4h22.4Z"/><g id="Ellipse_2-5" data-name="Ellipse 2"><ellipse class="cls-6" cx="4820.70697" cy="668.64673" rx="211.2" ry="216"/></g><path class="cls-2" d="M4906.147,737.76672a23.92058,23.92058,0,1,0-43.2-14.08,22.965,22.965,0,0,0,4.8,14.4,36.12953,36.12953,0,0,0-13.76,11.2,32.38913,32.38913,0,0,0-14.08-11.2,23.92058,23.92058,0,1,0-43.2-14.08,22.965,22.965,0,0,0,4.8,14.4,36.12927,36.12927,0,0,0-13.76,11.2,32.389,32.389,0,0,0-14.08-11.2,23.92058,23.92058,0,1,0-43.2-14.08,22.965,22.965,0,0,0,4.8,14.4,33.48185,33.48185,0,0,0-20.16,30.72v6.08h211.2v-6.08C4926.307,754.72673,4917.987,742.88672,4906.147,737.76672Z"/><polygon class="cls-2" points="4863.267 634.407 4836.707 626.087 4820.707 603.367 4804.387 626.087 4778.147 634.407 4794.467 656.487 4794.467 684.327 4820.707 675.687 4846.947 684.327 4846.627 656.487 4863.267 634.407"/><rect class="cls-2" x="4814.62696" y="562.72673" width="12.48" height="17.92"/><rect class="cls-2" x="4889.50697" y="637.60673" width="17.92" height="12.48"/><rect class="cls-2" x="4733.98697" y="637.60673" width="17.92" height="12.48"/><rect class="cls-2" x="4868.97518" y="585.86255" width="20.7998" height="12.47988" transform="translate(1010.45619 3623.66201) rotate(-45)"/><rect class="cls-2" x="4755.68948" y="581.51815" width="12.47988" height="20.7998" transform="translate(976.18757 3540.56137) rotate(-45)"/><g id="Ellipse_2-6" data-name="Ellipse 2"><ellipse class="cls-7" cx="5693.37363" cy="668.64673" rx="211.2" ry="216"/></g><path class="cls-2" d="M5778.81362,737.76672a23.92058,23.92058,0,1,0-43.2-14.08,22.965,22.965,0,0,0,4.8,14.4,36.12953,36.12953,0,0,0-13.76,11.2,32.389,32.389,0,0,0-14.08-11.2,23.92058,23.92058,0,1,0-43.2-14.08,22.965,22.965,0,0,0,4.8,14.4,36.12927,36.12927,0,0,0-13.76,11.2,32.389,32.389,0,0,0-14.08-11.2,23.92058,23.92058,0,1,0-43.2-14.08,22.965,22.965,0,0,0,4.8,14.4,33.48183,33.48183,0,0,0-20.16,30.72v6.08h211.2v-6.08C5798.97363,754.72673,5790.65364,742.88672,5778.81362,737.76672Z"/><polygon class="cls-2" points="5735.934 634.407 5709.374 626.087 5693.374 603.367 5677.054 626.087 5650.814 634.407 5667.134 656.487 5667.134 684.327 5693.374 675.687 5719.614 684.327 5719.294 656.487 5735.934 634.407"/><rect class="cls-2" x="5687.29363" y="562.72673" width="12.48" height="17.92"/><rect class="cls-2" x="5762.17363" y="637.60673" width="17.92" height="12.48"/><rect class="cls-2" x="5606.65364" y="637.60673" width="17.92" height="12.48"/><rect class="cls-2" x="5741.64185" y="585.86255" width="20.7998" height="12.47988" transform="translate(1266.05434 4240.73053) rotate(-45)"/><rect class="cls-2" x="5628.35615" y="581.51815" width="12.47988" height="20.7998" transform="translate(1231.78572 4157.62989) rotate(-45)"/><g id="Ellipse_2-7" data-name="Ellipse 2"><ellipse class="cls-8" cx="457.37363" cy="668.64673" rx="211.2" ry="216"/></g><path class="cls-2" d="M546.01362,586.72673a7.65769,7.65769,0,0,0-3.2-6.72c-1.28-.96-3.2-1.6-6.08-2.56v18.24c3.84-.32,6.72-1.6,8-4.16a13.41034,13.41034,0,0,0,1.28-4.8Z"/><path class="cls-2" d="M533.21362,554.40673c-2.88,0-5.12.96-6.4,2.88a8.68963,8.68963,0,0,0-1.92,5.44,6.592,6.592,0,0,0,2.24,5.44,11.736,11.736,0,0,0,6.08,2.56Z"/><path class="cls-2" d="M534.81362,615.52673a39.68,39.68,0,1,0-39.68-39.68,39.87971,39.87971,0,0,0,39.68,39.68Zm-12.48-43.52c-2.24-2.24-3.52-5.12-3.52-9.28a14.11119,14.11119,0,0,1,3.84-9.6c2.56-2.88,6.08-4.16,10.88-4.16v-4.48h3.2v4.48c4.48.32,8,1.6,10.56,4.16,2.56,2.24,3.52,5.44,3.84,9.28h-6.08a14.94978,14.94978,0,0,0-1.28-4.48c-1.28-2.24-3.84-3.52-7.04-3.52v16.64c5.44,1.6,8.96,2.88,10.88,4.16a11.01436,11.01436,0,0,1,4.8,9.6c0,6.08-1.92,10.56-6.08,13.12a28.53327,28.53327,0,0,1-9.6,2.88v6.72h-3.2v-6.72c-6.72-.32-11.2-2.88-13.76-7.04-1.28-2.24-1.92-5.44-1.92-9.28h6.08c.32,3.2.64,5.44,1.6,6.72,1.28,2.56,4.16,4.16,8,4.48v-18.88c-5.12-.96-8.96-2.56-11.2-4.8Z"/><path class="cls-2" d="M466.97363,520.80673a5.264,5.264,0,0,0-2.56-4.8,20.62846,20.62846,0,0,0-4.48-1.92v13.76c2.88-.32,5.12-1.28,6.08-3.2a8.52023,8.52023,0,0,0,.96-3.84Z"/><path class="cls-2" d="M457.69363,496.48673a5.77907,5.77907,0,0,0-4.8,2.24,6.43145,6.43145,0,0,0-1.28,4.16,6.73968,6.73968,0,0,0,1.6,4.16,8.3017,8.3017,0,0,0,4.48,1.92Z"/><path class="cls-2" d="M458.65364,542.56673a29.76,29.76,0,1,0-29.76-29.76c.32,16.32,13.44,29.76,29.76,29.76Zm-9.28-32.64c-1.92-1.6-2.56-3.84-2.56-6.72a9.92717,9.92717,0,0,1,2.88-7.04c1.92-2.24,4.48-3.2,8-3.2v-3.52h2.56v3.52a14.00945,14.00945,0,0,1,8,2.88,9.40884,9.40884,0,0,1,2.88,7.04h-4.48a6.45054,6.45054,0,0,0-.96-3.52,6.90259,6.90259,0,0,0-5.12-2.88v12.48c4.16,1.28,6.72,2.24,8,3.2a8.67807,8.67807,0,0,1,3.52,7.36c0,4.48-1.6,8-4.48,9.6a18.2236,18.2236,0,0,1-7.04,2.24v5.12h-2.56v-5.12c-5.12-.32-8.32-1.92-10.24-5.44a14.31237,14.31237,0,0,1-1.6-7.04h4.48a16.05354,16.05354,0,0,0,.96,5.12c.96,1.92,3.2,2.88,6.08,3.2v-13.76c-3.84-.96-6.72-1.92-8.32-3.52Z"/><path class="cls-2" d="M438.49363,652.96672c-6.72-1.28-11.2-3.84-14.08-8.64-1.6-2.88-2.24-7.04-2.24-12.16h8c.32,4.16.96,7.04,1.92,8.96,1.92,3.52,5.44,5.12,10.24,5.76v-24.32c-6.4-1.28-11.2-3.2-14.4-6.08s-4.48-6.72-4.48-11.84a16.71123,16.71123,0,0,1,5.12-12.16c3.2-3.52,8-5.44,14.08-5.44v-5.76h4.16v5.76c6.08.32,10.56,2.24,13.76,5.12s4.8,7.04,5.12,12.16h-7.68a15.2937,15.2937,0,0,0-1.92-5.76c-1.92-2.88-4.8-4.48-8.96-4.8v21.76c7.04,1.92,11.52,3.84,14.08,5.44,4.16,2.88,6.08,7.04,6.08,12.48,0,8-2.56,13.44-7.68,16.96a27.32428,27.32428,0,0,1-8.64,2.88,110.0377,110.0377,0,0,1,30.4,5.12,51.17431,51.17431,0,1,0-87.36-36.16,50.44989,50.44989,0,0,0,16,37.12c8.64-3.84,18.56-5.76,28.48-6.4Z"/><path class="cls-2" d="M434.33363,610.72673a16.8657,16.8657,0,0,0,8,3.52v-20.8c-3.84.32-6.72,1.28-8.32,3.52a11.89206,11.89206,0,0,0-2.56,7.04,7.42664,7.42664,0,0,0,2.88,6.72Z"/><path class="cls-2" d="M454.17363,626.72673a28.9384,28.9384,0,0,0-8-3.2v23.36c5.12-.32,8.64-1.92,10.56-5.44a13.23568,13.23568,0,0,0,1.6-6.08c0-3.84-1.28-6.72-4.16-8.64Z"/><path class="cls-2" d="M619.93364,756.00674c6.4-6.4,6.72-18.56,5.76-34.88-7.36-.64-18.24.64-22.08,0-9.28-18.56-22.72-32.96-41.6-41.6.64-12.16,2.24-23.36,9.28-29.12-16.96-1.28-31.36,10.24-40.64,20.8-8.32-8.64-20.48-15.36-34.88-20.16l-8.96,16a124.952,124.952,0,0,0-82.24.32l-11.84-15.68h0c-18.24,6.08-34.88,15.36-48,29.12-8.32-.64-7.36-17.92,3.52-15.04-17.92-12.16-27.84,21.12-10.56,25.6-14.4,20.8-16,64.96,3.52,81.28,2.88,24.32,7.04,47.36,18.88,62.72h39.04c-.96-8-1.92-16.32-1.28-25.6,23.68,5.44,51.84,7.04,80,4.48,4.48,7.36,8.64,14.4,13.76,21.12h38.72c-1.28-10.24-2.88-20.8-.32-31.36,9.92-2.24,57.59995-14.4,89.92-48Zm-53.12-51.84a9.6,9.6,0,1,1,0,19.2,9.42866,9.42866,0,0,1-9.6-9.6,9.62732,9.62732,0,0,1,9.6-9.6Z"/><path d="M234.12646,338.05273a22.16507,22.16507,0,0,0,11.14991-2.55029,20.17164,20.17164,0,0,0,7.10009-6.69971,27.19733,27.19733,0,0,0,3.69971-9.45019,54.90961,54.90961,0,0,0,1.05029-10.7002v-35.7998h7v35.7998a56.5859,56.5859,0,0,1-1.60009,13.65039,32.45934,32.45934,0,0,1-5.14991,11.34961,25.467,25.467,0,0,1-9.25,7.8003,30.38656,30.38656,0,0,1-13.90039,2.8999,29.89689,29.89689,0,0,1-14.1499-3.04981,25.84,25.84,0,0,1-9.25-8.05029,32.62165,32.62165,0,0,1-5-11.3999,57.64155,57.64155,0,0,1-1.5-13.2002v-35.7998h6.8999v35.7998a53.42185,53.42185,0,0,0,1.1001,10.90039,27.36671,27.36671,0,0,0,3.75,9.39991,19.9859,19.9859,0,0,0,7.05029,6.60009A22.00384,22.00384,0,0,0,234.12646,338.05273Z"/><path d="M323.2251,343.85254h-6.79981v-29.1001q0-9.29956-2.75-13.5-2.75171-4.1997-8.45019-4.19971a17.347,17.347,0,0,0-6,1.09961,20.27829,20.27829,0,0,0-5.54981,3.1001,23.7509,23.7509,0,0,0-4.5498,4.75,18.616,18.616,0,0,0-2.90039,5.9502v31.8999h-6.79981v-52.1001h6.2002v11.80029a24.4741,24.4741,0,0,1,9.1499-9.20019,25.08664,25.08664,0,0,1,12.94971-3.5,15.35271,15.35271,0,0,1,7.30029,1.6001,12.45676,12.45676,0,0,1,4.79981,4.5,20.74617,20.74617,0,0,1,2.60009,7.10009,49.89635,49.89635,0,0,1,.79981,9.29981Z"/><path d="M359.12451,344.85254a22.44776,22.44776,0,0,1-10-2.25,25.436,25.436,0,0,1-7.8999-5.9502,27.325,27.325,0,0,1-5.1499-8.5498,28.21023,28.21023,0,0,1-1.8501-10.1499,30.353,30.353,0,0,1,1.7998-10.4502,27.92835,27.92835,0,0,1,4.9502-8.6499,23.35338,23.35338,0,0,1,7.5-5.8501,21.26229,21.26229,0,0,1,9.5498-2.1499,20.38463,20.38463,0,0,1,11.7002,3.45019,26.13343,26.13343,0,0,1,8,8.34961v-31.7998h6.7998v64.20019q0,2.80079,2.40039,2.79981v6a12.889,12.889,0,0,1-2.40039.2998,6.23284,6.23284,0,0,1-4.1997-1.5498,4.77742,4.77742,0,0,1-1.8003-3.75v-5.1001a22.79174,22.79174,0,0,1-8.3999,8.1001A22.03992,22.03992,0,0,1,359.12451,344.85254Zm1.5-6a16.197,16.197,0,0,0,5.3501-1,21.94521,21.94521,0,0,0,5.3501-2.75,18.42357,18.42357,0,0,0,4.25-4.1001,11.101,11.101,0,0,0,2.1499-5.0498v-16.1001a17.91387,17.91387,0,0,0-2.8999-5.04981,23.40133,23.40133,0,0,0-4.3501-4.15039,20.49029,20.49029,0,0,0-5.25-2.7998,16.3173,16.3173,0,0,0-5.5-1,15.9899,15.9899,0,0,0-7.6001,1.7998,19.23331,19.23331,0,0,0-5.8501,4.75,21.17486,21.17486,0,0,0-3.75,6.75,23.93544,23.93544,0,0,0-1.2998,7.8003,21.84557,21.84557,0,0,0,5.6001,14.6499,19.81267,19.81267,0,0,0,6.1499,4.5498A17.45584,17.45584,0,0,0,360.62451,338.85254Z"/><path d="M422.42383,344.85254a25.058,25.058,0,0,1-10.4502-2.1499,25.59842,25.59842,0,0,1-8.25-5.89991,27.37218,27.37218,0,0,1-5.4497-8.65039,28.12053,28.12053,0,0,1-1.9502-10.5,27.48283,27.48283,0,0,1,1.9502-10.34961,26.80149,26.80149,0,0,1,5.3999-8.5,25.64688,25.64688,0,0,1,8.25-5.80029,26.3508,26.3508,0,0,1,20.8501,0,24.89065,24.89065,0,0,1,8.1499,5.8501,27.47139,27.47139,0,0,1,7.20019,18.70019v1.59961a4.06764,4.06764,0,0,1-.10009,1.1001h-44.6001a21.9268,21.9268,0,0,0,1.95019,7.75,21.25447,21.25447,0,0,0,4.25,6.1499,18.987,18.987,0,0,0,5.94971,4.0503,17.78964,17.78964,0,0,0,7.1499,1.4497,18.45047,18.45047,0,0,0,5-.6997,20.19525,20.19525,0,0,0,4.6001-1.89991,17.14446,17.14446,0,0,0,3.80029-2.95019,12.65719,12.65719,0,0,0,2.59961-3.8501l5.90039,1.6001a17.31832,17.31832,0,0,1-3.40039,5.25,23.6976,23.6976,0,0,1-5.09961,4.1001,24.9726,24.9726,0,0,1-6.40039,2.6997A27.7732,27.7732,0,0,1,422.42383,344.85254ZM441.624,315.05273a21.04451,21.04451,0,0,0-1.95019-7.65039,20.82778,20.82778,0,0,0-4.2002-5.9497,18.60815,18.60815,0,0,0-5.8999-3.89991,18.36422,18.36422,0,0,0-7.1499-1.40039,18.72268,18.72268,0,0,0-7.2002,1.40039,18.453,18.453,0,0,0-5.9497,3.89991,19.16028,19.16028,0,0,0-4.1001,6,22.70891,22.70891,0,0,0-1.8501,7.60009Z"/><path d="M484.62305,297.75244a21.39335,21.39335,0,0,0-12,3.80029,19.16282,19.16282,0,0,0-7.2002,9.89991v32.3999h-6.7998v-52.1001h6.3999v12.5a23.69075,23.69075,0,0,1,7.80029-9.3999,18.081,18.081,0,0,1,10.5-3.3999,6.92911,6.92911,0,0,1,1.29981.10009Z"/><path d="M560.32275,286.15234a22.34308,22.34308,0,0,0-7.6499-5.2998,28.75948,28.75948,0,0,0-10.75-2.29981v26.69971a1.11485,1.11485,0,0,1,.3501.05029,1.07646,1.07646,0,0,0,.34961.04981,96.17972,96.17972,0,0,1,10.25,2.70019,29.439,29.439,0,0,1,7.75,3.75,15.57768,15.57768,0,0,1,4.90039,5.44971,16.93068,16.93068,0,0,1,1.69971,8,18.142,18.142,0,0,1-1.8501,8.3999,16.4078,16.4078,0,0,1-5.1499,5.9502,23.8866,23.8866,0,0,1-7.8501,3.5498,42.04915,42.04915,0,0,1-9.94971,1.3003v9.6997h-3.70019v-9.7998a41.11967,41.11967,0,0,1-25.6001-10.2002l3.5-5.6997a29.06305,29.06305,0,0,0,9.3501,6.5,36.9848,36.9848,0,0,0,13.05029,3.1997v-26.6997l-.6001-.2002q-5.60156-1.29858-9.80029-2.69971a26.11122,26.11122,0,0,1-7.09961-3.5,13.61056,13.61056,0,0,1-4.3501-5.05029,16.32439,16.32439,0,0,1-1.45019-7.25,19.55562,19.55562,0,0,1,1.70019-8.3501,18.00538,18.00538,0,0,1,4.69971-6.1997,22.0491,22.0491,0,0,1,7.25-4,35.30461,35.30461,0,0,1,9.3501-1.75v-10.1001h3.70019v10a33.79379,33.79379,0,0,1,11.8501,2.3501,33.283,33.283,0,0,1,9.44971,5.85009Zm-37.3999,5.6001a11.01483,11.01483,0,0,0,.94971,4.8501,9.31175,9.31175,0,0,0,2.90039,3.3999,18.3522,18.3522,0,0,0,5,2.5q3.04906,1.0503,7.25,2.05029V278.65234q-8.50122.40137-12.30029,3.90039A11.91583,11.91583,0,0,0,522.92285,291.75244Zm36.8999,34.2002a10.49568,10.49568,0,0,0-1.1499-5.1001,11.13578,11.13578,0,0,0-3.3999-3.7002,23.12447,23.12447,0,0,0-5.6001-2.7998q-3.35156-1.19971-7.75-2.29981v26.19971q8.49829,0,13.19971-3.0498Q559.82177,332.15356,559.82275,325.95264Z"/><path d="M611.82178,337.65234v6.2002h-33.8999v-6.2002h14.1997v-42.7998a11.01639,11.01639,0,0,1-2.75,2.6001,33.435,33.435,0,0,1-4.2998,2.60009,32.37025,32.37025,0,0,1-4.8501,2,14.6773,14.6773,0,0,1-4.3999.79981v-6.6001a11.93539,11.93539,0,0,0,5.0498-1.2998,36.25755,36.25755,0,0,0,5.2002-3,45.767,45.767,0,0,0,4.1499-3.2002,8.645,8.645,0,0,0,1.8999-2h7v50.8999Z"/><path d="M653.92236,291.85254H615.62207v-6.29981h49.1001l-35.8999,71H621.022Z"/><path d="M691.52148,312.65234a24.66705,24.66705,0,0,1,9.09961,1.65039,22.42194,22.42194,0,0,1,7.3501,4.64991,21.65962,21.65962,0,0,1,4.9502,7.1499,22.76164,22.76164,0,0,1,1.7998,9.1499,23.32537,23.32537,0,0,1-1.94971,9.6499,22.11321,22.11321,0,0,1-5.30029,7.40039,24.30811,24.30811,0,0,1-7.8501,4.75,28.03879,28.03879,0,0,1-16.84961.75,24.14074,24.14074,0,0,1-6.35009-2.75,25.96016,25.96016,0,0,1-5.25-4.30029,22.32685,22.32685,0,0,1-3.8501-5.6001l4.5-3.3999a21.97877,21.97877,0,0,0,7.6499,7.8999,19.85188,19.85188,0,0,0,10.6499,3,18.81412,18.81412,0,0,0,6.90039-1.25,16.89636,16.89636,0,0,0,5.59961-3.5498,16.29938,16.29938,0,0,0,3.75-5.5,17.81526,17.81526,0,0,0,1.3501-7,17.06627,17.06627,0,0,0-1.2998-6.75,15.71148,15.71148,0,0,0-3.6001-5.25,16.18765,16.18765,0,0,0-5.3999-3.3999,18.39851,18.39851,0,0,0-6.7002-1.2002,19.724,19.724,0,0,0-8.8501,2.05029,17.07683,17.07683,0,0,0-6.75,5.94971h-6.2998q.09815-.59985.5-2.69971.39843-2.10059,1-5,.59985-2.89965,1.2998-6.45019.69873-3.54858,1.40039-7.1499,1.69923-8.40015,3.69971-18.7002h34.30029v6.30029H681.82129l-4.8999,25.5a17.846,17.846,0,0,1,6.35009-4.35009A21.40521,21.40521,0,0,1,691.52148,312.65234Z"/><path d="M1528.17822,343.85254v-71h7v71Z"/><path d="M1595.377,343.85254h-6.7998v-29.1001q0-9.29956-2.75-13.5-2.75171-4.1997-8.4502-4.19971a17.347,17.347,0,0,0-6,1.09961,20.27809,20.27809,0,0,0-5.5498,3.1001,23.75067,23.75067,0,0,0-4.54981,4.75,18.616,18.616,0,0,0-2.90039,5.9502v31.8999h-6.7998v-52.1001h6.20019v11.80029a24.47413,24.47413,0,0,1,9.14991-9.20019,25.0866,25.0866,0,0,1,12.9497-3.5,15.35272,15.35272,0,0,1,7.3003,1.6001,12.45673,12.45673,0,0,1,4.7998,4.5,20.746,20.746,0,0,1,2.6001,7.10009,49.89724,49.89724,0,0,1,.7998,9.29981Z"/><path d="M1631.27588,344.85254a22.44776,22.44776,0,0,1-10-2.25,25.43586,25.43586,0,0,1-7.8999-5.9502,27.325,27.325,0,0,1-5.14991-8.5498,28.21044,28.21044,0,0,1-1.85009-10.1499,30.35276,30.35276,0,0,1,1.7998-10.4502,27.92835,27.92835,0,0,1,4.9502-8.6499,23.35317,23.35317,0,0,1,7.5-5.8501,21.26226,21.26226,0,0,1,9.5498-2.1499,20.38466,20.38466,0,0,1,11.7002,3.45019,26.13343,26.13343,0,0,1,8,8.34961v-31.7998h6.7998v64.20019q0,2.80079,2.40039,2.79981v6a12.889,12.889,0,0,1-2.40039.2998,6.23289,6.23289,0,0,1-4.19971-1.5498,4.77744,4.77744,0,0,1-1.80029-3.75v-5.1001a22.79181,22.79181,0,0,1-8.3999,8.1001A22.03992,22.03992,0,0,1,1631.27588,344.85254Zm1.5-6a16.197,16.197,0,0,0,5.3501-1,21.94515,21.94515,0,0,0,5.35009-2.75,18.42337,18.42337,0,0,0,4.25-4.1001,11.101,11.101,0,0,0,2.14991-5.0498v-16.1001a17.9139,17.9139,0,0,0-2.89991-5.04981,23.40127,23.40127,0,0,0-4.35009-4.15039,20.49029,20.49029,0,0,0-5.25-2.7998,16.3173,16.3173,0,0,0-5.5-1,15.98987,15.98987,0,0,0-7.6001,1.7998,19.23319,19.23319,0,0,0-5.8501,4.75,21.17447,21.17447,0,0,0-3.75,6.75,23.93518,23.93518,0,0,0-1.2998,7.8003,21.84563,21.84563,0,0,0,5.60009,14.6499,19.81272,19.81272,0,0,0,6.14991,4.5498A17.45581,17.45581,0,0,0,1632.77588,338.85254Z"/><path d="M1672.07568,280.85254v-10h6.79981v10Zm0,63v-52.1001h6.79981v52.1001Z"/><path d="M1709.47412,343.85254l-21.20019-52.1001h7l17.8999,45.80029,18-45.80029h6.6001l-21.19971,52.1001Z"/><path d="M1747.17334,280.85254v-10h6.7998v10Zm0,63v-52.1001h6.7998v52.1001Z"/><path d="M1790.37158,344.85254a22.44776,22.44776,0,0,1-10-2.25,25.43609,25.43609,0,0,1-7.8999-5.9502,27.325,27.325,0,0,1-5.1499-8.5498,28.21023,28.21023,0,0,1-1.8501-10.1499,30.353,30.353,0,0,1,1.7998-10.4502,27.92835,27.92835,0,0,1,4.9502-8.6499,23.35338,23.35338,0,0,1,7.5-5.8501,21.26229,21.26229,0,0,1,9.5498-2.1499,20.38461,20.38461,0,0,1,11.7002,3.45019,26.13343,26.13343,0,0,1,8,8.34961v-31.7998h6.7998v64.20019q0,2.80079,2.4004,2.79981v6a12.88909,12.88909,0,0,1-2.4004.2998,6.23286,6.23286,0,0,1-4.1997-1.5498,4.77742,4.77742,0,0,1-1.8003-3.75v-5.1001a22.79174,22.79174,0,0,1-8.3999,8.1001A22.0399,22.0399,0,0,1,1790.37158,344.85254Zm1.5-6a16.197,16.197,0,0,0,5.3501-1,21.94521,21.94521,0,0,0,5.3501-2.75,18.42357,18.42357,0,0,0,4.25-4.1001,11.101,11.101,0,0,0,2.1499-5.0498v-16.1001a17.91387,17.91387,0,0,0-2.8999-5.04981,23.40133,23.40133,0,0,0-4.3501-4.15039,20.49029,20.49029,0,0,0-5.25-2.7998,16.3173,16.3173,0,0,0-5.5-1,15.98993,15.98993,0,0,0-7.6001,1.7998,19.23331,19.23331,0,0,0-5.8501,4.75,21.17486,21.17486,0,0,0-3.75,6.75,23.93544,23.93544,0,0,0-1.2998,7.8003,21.84557,21.84557,0,0,0,5.6001,14.6499,19.81267,19.81267,0,0,0,6.1499,4.5498A17.45584,17.45584,0,0,0,1791.87158,338.85254Z"/><path d="M1847.47119,344.85254q-8.50048,0-12.6499-5.6499-4.15064-5.64844-4.1499-16.8501v-30.6001h6.7998v29.3999q0,17.70045,12.1001,17.7002a17.97669,17.97669,0,0,0,5.8999-1,18.51528,18.51528,0,0,0,5.3501-2.8999,23.43751,23.43751,0,0,0,4.3999-4.5,22.67613,22.67613,0,0,0,3.15039-5.89991V291.75244h6.79981v43.30029q0,2.80079,2.3999,2.79981v6a12.45643,12.45643,0,0,1-1.94971.20019h-1.05029a5.43034,5.43034,0,0,1-3.8999-1.70019,6.03121,6.03121,0,0,1-1.5-4.29981v-6a24.25018,24.25018,0,0,1-9.25,9.44971A24.64935,24.64935,0,0,1,1847.47119,344.85254Z"/><path d="M1903.6709,344.85254a18.41085,18.41085,0,0,1-6.8501-1.25,17.25677,17.25677,0,0,1-5.5-3.4502,15.54092,15.54092,0,0,1-4.95019-11.5,12.83248,12.83248,0,0,1,1.60009-6.2998,15.23978,15.23978,0,0,1,4.5-5,22.03852,22.03852,0,0,1,6.89991-3.25,31.8088,31.8088,0,0,1,8.80029-1.1499,48.22341,48.22341,0,0,1,8.1001.6997,35.26673,35.26673,0,0,1,7.2998,2v-4.6997q0-6.90015-3.8999-10.9502-3.90015-4.04956-10.80029-4.0498a22.96359,22.96359,0,0,0-8.19971,1.60009,39.52506,39.52506,0,0,0-8.5,4.59961l-2.3999-4.5q10.09863-6.79907,19.59961-6.7998,9.7998,0,15.40039,5.5,5.59863,5.50049,5.59961,15.20019v23.5q0,2.80079,2.5,2.79981v6a16.19557,16.19557,0,0,1-2.59961.2998,5.85,5.85,0,0,1-4.0503-1.2998,4.8802,4.8802,0,0,1-1.5498-3.6001l-.2002-4.1001a23.61042,23.61042,0,0,1-9.0498,7.2002A27.86252,27.86252,0,0,1,1903.6709,344.85254Zm1.6001-5.2002a23.49562,23.49562,0,0,0,9.75-2,15.931,15.931,0,0,0,6.75-5.2998,6.23006,6.23006,0,0,0,1.34961-1.9502,4.97214,4.97214,0,0,0,.45019-1.9497v-8.5a41.85285,41.85285,0,0,0-7.0498-2,39.55226,39.55226,0,0,0-7.4502-.7002q-7.1997,0-11.70019,3a9.12065,9.12065,0,0,0-4.5,7.8999,10.77463,10.77463,0,0,0,.95019,4.5,11.38947,11.38947,0,0,0,2.6001,3.65039,12.15327,12.15327,0,0,0,3.94971,2.44971A13.32129,13.32129,0,0,0,1905.271,339.65234Z"/><path d="M1945.37012,270.85254h6.80029v61.20019a6.256,6.256,0,0,0,1.6001,4.54981,5.97365,5.97365,0,0,0,4.5,1.6499,13.54762,13.54762,0,0,0,2.59961-.2998,17.09465,17.09465,0,0,0,2.80029-.8003l1.19971,5.5a22.35456,22.35456,0,0,1-4.64991,1.3003,27.19473,27.19473,0,0,1-4.75.5,10.10426,10.10426,0,0,1-7.3999-2.64991q-2.6997-2.64843-2.70019-7.45019Z"/><path d="M1989.56934,344.85254a36.26082,36.26082,0,0,1-11.89991-2,28.57861,28.57861,0,0,1-10-5.79981l3.1001-4.60009a33.87947,33.87947,0,0,0,8.9502,5.3999,26.25323,26.25323,0,0,0,9.75,1.7998q6.29955,0,10.0498-2.5498a8.25185,8.25185,0,0,0,3.75-7.25,6.29452,6.29452,0,0,0-1-3.6499,8.68,8.68,0,0,0-2.95019-2.5503,23.10364,23.10364,0,0,0-4.89991-1.9497q-2.95092-.84888-6.85009-1.75-4.5-1.09936-7.79981-2.2002a23.77644,23.77644,0,0,1-5.45019-2.5,8.99814,8.99814,0,0,1-3.19971-3.44971,11.23492,11.23492,0,0,1-1.05029-5.15039,14.8047,14.8047,0,0,1,1.55029-6.8999,14.05509,14.05509,0,0,1,4.19971-4.94971,19.06584,19.06584,0,0,1,6.20019-2.95019,27.76469,27.76469,0,0,1,7.54981-1,29.24263,29.24263,0,0,1,10.90039,1.95019,21.55386,21.55386,0,0,1,7.8999,5.14991l-3.30029,4a18.30856,18.30856,0,0,0-7.04981-4.5,25.253,25.253,0,0,0-8.6499-1.5,21.52248,21.52248,0,0,0-5,.5498,12.03527,12.03527,0,0,0-4.05029,1.75,8.6197,8.6197,0,0,0-2.75,3.05029,9.0149,9.0149,0,0,0-1,4.34961,7.15113,7.15113,0,0,0,.70019,3.40039,5.958,5.958,0,0,0,2.29981,2.25,18.65263,18.65263,0,0,0,4.05029,1.69971q2.44922.75,5.94971,1.55029,4.9995,1.19971,8.80029,2.39991a27.70236,27.70236,0,0,1,6.3501,2.7998,11.047,11.047,0,0,1,3.84961,3.8999,11.23617,11.23617,0,0,1,1.30029,5.6001,13.58461,13.58461,0,0,1-5.5,11.3999Q1998.86841,344.85279,1989.56934,344.85254Z"/><path d="M3314.85938,325.55273a16.84393,16.84393,0,0,1-1.59961,7.34961,18.53418,18.53418,0,0,1-4.29981,5.8003,19.40072,19.40072,0,0,1-6.30078,3.7998,21.74874,21.74874,0,0,1-7.69922,1.3501h-33.5v-71h34.19922a14.02293,14.02293,0,0,1,6.7002,1.6001,16.73449,16.73449,0,0,1,5.10058,4.1499,19.06492,19.06492,0,0,1,3.25,5.7998,19.54414,19.54414,0,0,1,1.14942,6.5503,18.61405,18.61405,0,0,1-2.7002,9.85009,16.70416,16.70416,0,0,1-7.5,6.64991,17.75253,17.75253,0,0,1,9.65039,6.6997A18.93144,18.93144,0,0,1,3314.85938,325.55273ZM3268.46,278.95264v26.1997h24.39942a10.88232,10.88232,0,0,0,4.85058-1.09961,12.34072,12.34072,0,0,0,3.84961-2.90039,13.39784,13.39784,0,0,0,2.5-4.1499,13.71931,13.71931,0,0,0,.90039-4.94971,15.19487,15.19487,0,0,0-.85058-5.10009,12.48028,12.48028,0,0,0-2.39942-4.14991,12.03154,12.03154,0,0,0-3.65039-2.80029,10.14843,10.14843,0,0,0-4.59961-1.0498Zm39.39942,45.3999a14.54715,14.54715,0,0,0-.89942-5.04981,13.14323,13.14323,0,0,0-6.45019-7.30029,10.519,10.519,0,0,0-4.85059-1.1499H3268.46v26.8999h26.5a11.75062,11.75062,0,0,0,5.04981-1.1001,13.40194,13.40194,0,0,0,4.09961-2.9497,13.7544,13.7544,0,0,0,2.75-4.3003A13.25049,13.25049,0,0,0,3307.85938,324.35254Z"/><path d="M3342.958,344.85254q-8.50048,0-12.64942-5.6499-4.15135-5.64844-4.15039-16.8501v-30.6001h6.79981v29.3999q0,17.70045,12.10058,17.7002a17.976,17.976,0,0,0,5.89942-1,18.53038,18.53038,0,0,0,5.35058-2.8999,23.43525,23.43525,0,0,0,4.39942-4.5,22.67643,22.67643,0,0,0,3.15039-5.89991V291.75244h6.7998v43.30029q0,2.80079,2.40039,2.79981v6a12.47265,12.47265,0,0,1-1.95019.20019h-1.04981a5.43062,5.43062,0,0,1-3.90039-1.70019,6.03121,6.03121,0,0,1-1.5-4.29981v-6a24.25012,24.25012,0,0,1-9.25,9.44971A24.65061,24.65061,0,0,1,3342.958,344.85254Z"/><path d="M3403.35742,344.85254a36.25358,36.25358,0,0,1-11.89941-2,28.574,28.574,0,0,1-10-5.79981l3.09961-4.60009a33.887,33.887,0,0,0,8.95019,5.3999,26.24961,26.24961,0,0,0,9.75,1.7998q6.3003,0,10.04981-2.5498a8.25185,8.25185,0,0,0,3.75-7.25,6.29095,6.29095,0,0,0-1-3.6499,8.68463,8.68463,0,0,0-2.9502-2.5503,23.1195,23.1195,0,0,0-4.89941-1.9497q-2.95167-.84888-6.85059-1.75-4.5-1.09936-7.7998-2.2002a23.76676,23.76676,0,0,1-5.4502-2.5,8.99951,8.99951,0,0,1-3.20019-3.44971,11.2478,11.2478,0,0,1-1.04981-5.15039,14.81057,14.81057,0,0,1,1.54981-6.8999,14.06645,14.06645,0,0,1,4.20019-4.94971,19.066,19.066,0,0,1,6.2002-2.95019,27.76208,27.76208,0,0,1,7.5498-1,29.24263,29.24263,0,0,1,10.90039,1.95019,21.5517,21.5517,0,0,1,7.89942,5.14991l-3.29981,4a18.31218,18.31218,0,0,0-7.0498-4.5,25.25785,25.25785,0,0,0-8.65039-1.5,21.52846,21.52846,0,0,0-5,.5498,12.0371,12.0371,0,0,0-4.04981,1.75,8.61989,8.61989,0,0,0-2.75,3.05029,9.015,9.015,0,0,0-1,4.34961,7.15687,7.15687,0,0,0,.7002,3.40039,5.95459,5.95459,0,0,0,2.2998,2.25,18.648,18.648,0,0,0,4.04981,1.69971q2.44922.75,5.95019,1.55029,4.99952,1.19971,8.79981,2.39991a27.697,27.697,0,0,1,6.35058,2.7998,11.04284,11.04284,0,0,1,3.84961,3.8999,11.231,11.231,0,0,1,1.29981,5.6001,13.58337,13.58337,0,0,1-5.5,11.3999Q3412.65673,344.85279,3403.35742,344.85254Z"/><path d="M3434.75781,280.85254v-10h6.79981v10Zm0,63v-52.1001h6.79981v52.1001Z"/><path d="M3500.35645,343.85254h-6.79981v-29.1001q0-9.29956-2.75-13.5-2.751-4.1997-8.45019-4.19971a17.347,17.347,0,0,0-6,1.09961,20.27829,20.27829,0,0,0-5.54981,3.1001,23.76426,23.76426,0,0,0-4.5498,4.75,18.61583,18.61583,0,0,0-2.90039,5.9502v31.8999h-6.79981v-52.1001h6.2002v11.80029a24.47621,24.47621,0,0,1,9.14941-9.20019,25.08963,25.08963,0,0,1,12.9502-3.5,15.3493,15.3493,0,0,1,7.2998,1.6001,12.46273,12.46273,0,0,1,4.80078,4.5,20.7661,20.7661,0,0,1,2.59961,7.10009,49.85559,49.85559,0,0,1,.79981,9.29981Z"/><path d="M3537.35547,344.85254a25.058,25.058,0,0,1-10.4502-2.1499,25.59842,25.59842,0,0,1-8.25-5.89991,27.39085,27.39085,0,0,1-5.45019-8.65039,28.12975,28.12975,0,0,1-1.94922-10.5,27.49179,27.49179,0,0,1,1.94922-10.34961,26.81986,26.81986,0,0,1,5.40039-8.5,25.64688,25.64688,0,0,1,8.25-5.80029,26.34962,26.34962,0,0,1,20.84961,0,24.89267,24.89267,0,0,1,8.15039,5.8501,27.47139,27.47139,0,0,1,7.20019,18.70019v1.59961a4.02184,4.02184,0,0,1-.10058,1.1001h-44.59961a21.91635,21.91635,0,0,0,1.95019,7.75,21.25447,21.25447,0,0,0,4.25,6.1499,18.989,18.989,0,0,0,5.9502,4.0503,17.7856,17.7856,0,0,0,7.14941,1.4497,18.45047,18.45047,0,0,0,5-.6997,20.20832,20.20832,0,0,0,4.60059-1.89991,17.153,17.153,0,0,0,3.7998-2.95019,12.65719,12.65719,0,0,0,2.59961-3.8501l5.90039,1.6001a17.30909,17.30909,0,0,1-3.40039,5.25,23.6976,23.6976,0,0,1-5.09961,4.1001,24.9726,24.9726,0,0,1-6.40039,2.6997A27.7705,27.7705,0,0,1,3537.35547,344.85254Zm19.20019-29.79981a21.05436,21.05436,0,0,0-1.95019-7.65039,20.81821,20.81821,0,0,0-4.2002-5.9497,18.61692,18.61692,0,0,0-5.89941-3.89991,18.36492,18.36492,0,0,0-7.15039-1.40039,18.72268,18.72268,0,0,0-7.2002,1.40039,18.46572,18.46572,0,0,0-5.95019,3.89991,19.18364,19.18364,0,0,0-4.09961,6,22.685,22.685,0,0,0-1.84961,7.60009Z"/><path d="M3590.85449,344.85254a36.25358,36.25358,0,0,1-11.89941-2,28.574,28.574,0,0,1-10-5.79981l3.09961-4.60009a33.887,33.887,0,0,0,8.95019,5.3999,26.24961,26.24961,0,0,0,9.75,1.7998q6.3003,0,10.04981-2.5498a8.25185,8.25185,0,0,0,3.75-7.25,6.29095,6.29095,0,0,0-1-3.6499,8.68463,8.68463,0,0,0-2.9502-2.5503,23.1195,23.1195,0,0,0-4.89941-1.9497q-2.95167-.84888-6.85059-1.75-4.5-1.09936-7.7998-2.2002a23.76676,23.76676,0,0,1-5.4502-2.5,8.99951,8.99951,0,0,1-3.20019-3.44971,11.2478,11.2478,0,0,1-1.04981-5.15039,14.81057,14.81057,0,0,1,1.54981-6.8999,14.06645,14.06645,0,0,1,4.20019-4.94971,19.066,19.066,0,0,1,6.2002-2.95019,27.76208,27.76208,0,0,1,7.5498-1,29.24263,29.24263,0,0,1,10.90039,1.95019,21.5517,21.5517,0,0,1,7.89942,5.14991l-3.29981,4a18.31218,18.31218,0,0,0-7.0498-4.5,25.25785,25.25785,0,0,0-8.65039-1.5,21.52846,21.52846,0,0,0-5,.5498,12.0371,12.0371,0,0,0-4.04981,1.75,8.61989,8.61989,0,0,0-2.75,3.05029,9.015,9.015,0,0,0-1,4.34961,7.15687,7.15687,0,0,0,.7002,3.40039,5.95459,5.95459,0,0,0,2.2998,2.25,18.648,18.648,0,0,0,4.04981,1.69971q2.44922.75,5.95019,1.55029,4.99951,1.19971,8.79981,2.39991a27.697,27.697,0,0,1,6.35058,2.7998,11.04284,11.04284,0,0,1,3.84961,3.8999,11.231,11.231,0,0,1,1.29981,5.6001,13.58337,13.58337,0,0,1-5.5,11.3999Q3600.1538,344.85279,3590.85449,344.85254Z"/><path d="M3639.55371,344.85254a36.25358,36.25358,0,0,1-11.89941-2,28.574,28.574,0,0,1-10-5.79981l3.09961-4.60009a33.887,33.887,0,0,0,8.95019,5.3999,26.24961,26.24961,0,0,0,9.75,1.7998q6.3003,0,10.04981-2.5498a8.25185,8.25185,0,0,0,3.75-7.25,6.29095,6.29095,0,0,0-1-3.6499,8.68472,8.68472,0,0,0-2.9502-2.5503,23.1195,23.1195,0,0,0-4.89941-1.9497q-2.95167-.84888-6.85059-1.75-4.5-1.09936-7.7998-2.2002a23.76676,23.76676,0,0,1-5.4502-2.5,8.99951,8.99951,0,0,1-3.20019-3.44971,11.2478,11.2478,0,0,1-1.04981-5.15039,14.81057,14.81057,0,0,1,1.54981-6.8999,14.06645,14.06645,0,0,1,4.20019-4.94971,19.066,19.066,0,0,1,6.2002-2.95019,27.76208,27.76208,0,0,1,7.5498-1,29.24263,29.24263,0,0,1,10.90039,1.95019,21.5517,21.5517,0,0,1,7.89942,5.14991l-3.29981,4a18.31218,18.31218,0,0,0-7.0498-4.5,25.25785,25.25785,0,0,0-8.65039-1.5,21.52846,21.52846,0,0,0-5,.5498,12.0371,12.0371,0,0,0-4.04981,1.75,8.61989,8.61989,0,0,0-2.75,3.05029,9.015,9.015,0,0,0-1,4.34961,7.15687,7.15687,0,0,0,.7002,3.40039,5.95459,5.95459,0,0,0,2.2998,2.25,18.648,18.648,0,0,0,4.04981,1.69971q2.44922.75,5.95019,1.55029,4.99951,1.19971,8.79981,2.39991a27.697,27.697,0,0,1,6.35058,2.7998,11.04284,11.04284,0,0,1,3.84961,3.8999,11.231,11.231,0,0,1,1.29981,5.6001,13.58337,13.58337,0,0,1-5.5,11.3999Q3648.853,344.85279,3639.55371,344.85254Z"/><path d="M3693.4541,344.85254a25.05793,25.05793,0,0,1-10.45019-2.1499,25.5982,25.5982,0,0,1-8.25-5.89991,27.3907,27.3907,0,0,1-5.4502-8.65039,28.13,28.13,0,0,1-1.94922-10.5,27.492,27.492,0,0,1,1.94922-10.34961,26.82,26.82,0,0,1,5.40039-8.5,25.6471,25.6471,0,0,1,8.25-5.80029,26.34962,26.34962,0,0,1,20.84961,0,24.89257,24.89257,0,0,1,8.15039,5.8501,27.47134,27.47134,0,0,1,7.2002,18.70019v1.59961a4.02132,4.02132,0,0,1-.10059,1.1001H3674.4541a21.91636,21.91636,0,0,0,1.9502,7.75,21.25427,21.25427,0,0,0,4.25,6.1499,18.98894,18.98894,0,0,0,5.95019,4.0503,17.78565,17.78565,0,0,0,7.14942,1.4497,18.45058,18.45058,0,0,0,5-.6997,20.20842,20.20842,0,0,0,4.60058-1.89991,17.15308,17.15308,0,0,0,3.79981-2.95019,12.65737,12.65737,0,0,0,2.59961-3.8501l5.90039,1.6001a17.30928,17.30928,0,0,1-3.40039,5.25,23.69809,23.69809,0,0,1-5.09961,4.1001,24.97275,24.97275,0,0,1-6.40039,2.6997A27.77063,27.77063,0,0,1,3693.4541,344.85254Zm19.2002-29.79981a21.05457,21.05457,0,0,0-1.9502-7.65039,20.81838,20.81838,0,0,0-4.20019-5.9497,18.61708,18.61708,0,0,0-5.89942-3.89991,18.36489,18.36489,0,0,0-7.15039-1.40039,18.7226,18.7226,0,0,0-7.20019,1.40039,18.46576,18.46576,0,0,0-5.9502,3.89991,19.18364,19.18364,0,0,0-4.09961,6,22.685,22.685,0,0,0-1.84961,7.60009Z"/><path d="M3746.95313,344.85254a36.25364,36.25364,0,0,1-11.89942-2,28.57411,28.57411,0,0,1-10-5.79981l3.09961-4.60009a33.88724,33.88724,0,0,0,8.9502,5.3999,26.24953,26.24953,0,0,0,9.75,1.7998q6.30028,0,10.0498-2.5498a8.25185,8.25185,0,0,0,3.75-7.25,6.29087,6.29087,0,0,0-1-3.6499,8.68468,8.68468,0,0,0-2.95019-2.5503,23.11982,23.11982,0,0,0-4.89942-1.9497q-2.95166-.84888-6.85058-1.75-4.5-1.09936-7.79981-2.2002a23.76666,23.76666,0,0,1-5.45019-2.5,8.99953,8.99953,0,0,1-3.2002-3.44971,11.24781,11.24781,0,0,1-1.0498-5.15039,14.81057,14.81057,0,0,1,1.5498-6.8999,14.06638,14.06638,0,0,1,4.2002-4.94971,19.06584,19.06584,0,0,1,6.20019-2.95019,27.7621,27.7621,0,0,1,7.54981-1,29.24263,29.24263,0,0,1,10.90039,1.95019,21.55174,21.55174,0,0,1,7.89941,5.14991l-3.2998,4a18.31222,18.31222,0,0,0-7.04981-4.5,25.25785,25.25785,0,0,0-8.65039-1.5,21.52852,21.52852,0,0,0-5,.5498,12.037,12.037,0,0,0-4.0498,1.75,8.6197,8.6197,0,0,0-2.75,3.05029,9.0149,9.0149,0,0,0-1,4.34961,7.15688,7.15688,0,0,0,.70019,3.40039,5.95455,5.95455,0,0,0,2.29981,2.25,18.64769,18.64769,0,0,0,4.0498,1.69971q2.44922.75,5.9502,1.55029,4.9995,1.19971,8.7998,2.39991a27.69725,27.69725,0,0,1,6.35059,2.7998,11.04292,11.04292,0,0,1,3.84961,3.8999,11.231,11.231,0,0,1,1.2998,5.6001,13.58334,13.58334,0,0,1-5.5,11.3999Q3756.25245,344.85279,3746.95313,344.85254Z"/><path d="M4907.19629,343.85254v-71h29.39941a18.43346,18.43346,0,0,1,8.4502,1.95019,22.293,22.293,0,0,1,6.65039,5.09961,24.25224,24.25224,0,0,1,4.39941,7.15039,21.6731,21.6731,0,0,1,1.60059,8.09961,24.13154,24.13154,0,0,1-1.5,8.4502,22.85436,22.85436,0,0,1-4.2002,7.1499,21.09125,21.09125,0,0,1-6.45019,5,18.20466,18.20466,0,0,1-8.34961,1.8999h-23v26.2002Zm7-32.3999h22.69922a11.89015,11.89015,0,0,0,5.65039-1.3501,13.74052,13.74052,0,0,0,4.34961-3.6001,16.97508,16.97508,0,0,0,2.80078-5.19971,19.06178,19.06178,0,0,0,1-6.15039,17.27868,17.27868,0,0,0-4.25-11.3999,14.20594,14.20594,0,0,0-4.60059-3.44971,12.86353,12.86353,0,0,0-5.5498-1.25h-22.09961Z"/><path d="M4989.29688,344.85254a24.71839,24.71839,0,0,1-10.4004-2.1499,25.53758,25.53758,0,0,1-8.14941-5.8501,26.50233,26.50233,0,0,1-5.35059-8.6001,28.23543,28.23543,0,0,1-1.89941-10.2998,27.87427,27.87427,0,0,1,1.94922-10.39991,27.28963,27.28963,0,0,1,5.40039-8.60009,26.22374,26.22374,0,0,1,8.15039-5.89991,23.99829,23.99829,0,0,1,10.29981-2.20019,24.33893,24.33893,0,0,1,10.3496,2.20019,26.07761,26.07761,0,0,1,8.2002,5.89991,27.28963,27.28963,0,0,1,5.40039,8.60009,27.87427,27.87427,0,0,1,1.94922,10.39991,28.25591,28.25591,0,0,1-1.89941,10.2998,26.53541,26.53541,0,0,1-5.35059,8.6001,25.40475,25.40475,0,0,1-8.19922,5.8501A25.0644,25.0644,0,0,1,4989.29688,344.85254Zm-18.9004-26.79981a21.74151,21.74151,0,0,0,1.5,8.14991,22.141,22.141,0,0,0,4.04981,6.60009,18.29558,18.29558,0,0,0,6,4.44971,17.25152,17.25152,0,0,0,7.35059,1.6001,16.81737,16.81737,0,0,0,7.3496-1.6499,19.53611,19.53611,0,0,0,6.04981-4.5,21.43068,21.43068,0,0,0,4.10059-6.64991,23.02692,23.02692,0,0,0,0-16.35009,21.31127,21.31127,0,0,0-4.10059-6.7002,19.53611,19.53611,0,0,0-6.04981-4.5,16.81723,16.81723,0,0,0-7.3496-1.6499,16.49271,16.49271,0,0,0-7.29981,1.6499,19.33273,19.33273,0,0,0-6,4.55029,21.93121,21.93121,0,0,0-4.10059,6.75A22.52565,22.52565,0,0,0,4970.39648,318.05273Z"/><path d="M5026.89453,270.85254h6.79981v61.20019a6.25619,6.25619,0,0,0,1.60058,4.54981,5.97365,5.97365,0,0,0,4.5,1.6499,13.54762,13.54762,0,0,0,2.59961-.2998,17.08881,17.08881,0,0,0,2.79981-.8003l1.20019,5.5a22.35792,22.35792,0,0,1-4.64941,1.3003,27.20868,27.20868,0,0,1-4.75.5,10.10465,10.10465,0,0,1-7.40039-2.64991q-2.69971-2.64843-2.7002-7.45019Z"/><path d="M5053.794,280.85254v-10h6.7998v10Zm0,63v-52.1001h6.7998v52.1001Z"/><path d="M5100.59277,341.35254q-.60058.30029-1.75.7998-1.15135.50172-2.65039,1a30.57752,30.57752,0,0,1-3.39941.90039,19.46108,19.46108,0,0,1-4,.39991,14.53653,14.53653,0,0,1-4.2002-.6001,9.76811,9.76811,0,0,1-3.5-1.8501,9.10245,9.10245,0,0,1-2.40039-3.1499,10.171,10.171,0,0,1-.89941-4.3999v-37.3003h-7.2002v-5.3999h7.2002v-17.6001h6.7998v17.6001h12v5.3999h-12v35.40039a5.39556,5.39556,0,0,0,2.04981,4.25,7.02379,7.02379,0,0,0,4.25,1.34961,12.76444,12.76444,0,0,0,5.10058-.9497,22.49643,22.49643,0,0,0,2.79981-1.3501Z"/><path d="M5109.0918,280.85254v-10h6.7998v10Zm0,63v-52.1001h6.7998v52.1001Z"/><path d="M5127.291,317.65234a28.5189,28.5189,0,0,1,1.89941-10.3999,25.95943,25.95943,0,0,1,5.35059-8.5498,24.99284,24.99284,0,0,1,8.25-5.75,26.15857,26.15857,0,0,1,10.59961-2.1001,24.31838,24.31838,0,0,1,12.90039,3.3501,21.53776,21.53776,0,0,1,8.2998,9.0498l-6.60059,2.1001a15.85311,15.85311,0,0,0-6.14941-6.25,18.14139,18.14139,0,0,0-16.20019-.6499,19.01315,19.01315,0,0,0-6,4.35009,19.99052,19.99052,0,0,0-4,6.54981,24.08911,24.08911,0,0,0,.0498,16.6001,21.1547,21.1547,0,0,0,4.10059,6.75,19.51332,19.51332,0,0,0,6.0498,4.5,16.81741,16.81741,0,0,0,7.34961,1.6499,17.92543,17.92543,0,0,0,4.9502-.7002,19.01837,19.01837,0,0,0,4.5498-1.9497,16.32979,16.32979,0,0,0,3.60059-2.8501,9.26177,9.26177,0,0,0,2.09961-3.3999l6.70019,2a17.03694,17.03694,0,0,1-3.20019,5.1499,22.0281,22.0281,0,0,1-4.9502,4.1001,24.25277,24.25277,0,0,1-6.2998,2.6997,26.83641,26.83641,0,0,1-7.1504.9502,25.30318,25.30318,0,0,1-18.7998-8.04981,27.391,27.391,0,0,1-5.4502-8.65039A28.12994,28.12994,0,0,1,5127.291,317.65234Z"/><path d="M5198.88965,344.85254a18.40827,18.40827,0,0,1-6.84961-1.25,17.26217,17.26217,0,0,1-5.5-3.4502,15.53613,15.53613,0,0,1-4.9502-11.5,12.82763,12.82763,0,0,1,1.60059-6.2998,15.22893,15.22893,0,0,1,4.5-5,22.03057,22.03057,0,0,1,6.89941-3.25,31.81036,31.81036,0,0,1,8.79981-1.1499,48.22463,48.22463,0,0,1,8.10058.6997,35.27519,35.27519,0,0,1,7.29981,2v-4.6997q0-6.90015-3.90039-10.9502-3.89942-4.04956-10.79981-4.0498a22.97016,22.97016,0,0,0-8.20019,1.60009,39.54781,39.54781,0,0,0-8.5,4.59961l-2.39942-4.5q10.09865-6.79907,19.59961-6.7998,9.79982,0,15.40039,5.5,5.59865,5.50049,5.59961,15.20019v23.5q0,2.80079,2.5,2.79981v6a16.18973,16.18973,0,0,1-2.59961.2998,5.847,5.847,0,0,1-4.0498-1.2998,4.8827,4.8827,0,0,1-1.55078-3.6001l-.19922-4.1001a23.61718,23.61718,0,0,1-9.05078,7.2002A27.85934,27.85934,0,0,1,5198.88965,344.85254Zm1.60058-5.2002a23.49881,23.49881,0,0,0,9.75-2,15.925,15.925,0,0,0,6.75-5.2998,6.22989,6.22989,0,0,0,1.34961-1.9502,4.98063,4.98063,0,0,0,.4502-1.9497v-8.5a41.86573,41.86573,0,0,0-7.04981-2,39.54839,39.54839,0,0,0-7.45019-.7002q-7.19971,0-11.7002,3a9.12065,9.12065,0,0,0-4.5,7.8999,10.767,10.767,0,0,0,.9502,4.5,11.3956,11.3956,0,0,0,2.59961,3.65039,12.16062,12.16062,0,0,0,3.95019,2.44971A13.32137,13.32137,0,0,0,5200.49023,339.65234Z"/><path d="M5240.58984,270.85254h6.79981v61.20019a6.25619,6.25619,0,0,0,1.60058,4.54981,5.97365,5.97365,0,0,0,4.5,1.6499,13.54754,13.54754,0,0,0,2.59961-.2998,17.08881,17.08881,0,0,0,2.79981-.8003l1.20019,5.5a22.35792,22.35792,0,0,1-4.64941,1.3003,27.20868,27.20868,0,0,1-4.75.5,10.10465,10.10465,0,0,1-7.40039-2.64991q-2.69971-2.64843-2.7002-7.45019Z"/><path d="M5342.58887,333.45264q-9.90089,10.90064-22.79981,10.8999a28.61292,28.61292,0,0,1-13.25-3.1001,34.90762,34.90762,0,0,1-10.5-8.19971,38.62654,38.62654,0,0,1-6.95019-11.55029,36.35349,36.35349,0,0,1-2.5-13.25,38.21509,38.21509,0,0,1,2.45019-13.6001,36.3249,36.3249,0,0,1,6.84961-11.4497,33.619,33.619,0,0,1,10.40039-7.89991,29.28955,29.28955,0,0,1,13.09961-2.95019,36.78694,36.78694,0,0,1,9.5,1.1499,28.92852,28.92852,0,0,1,7.65039,3.2002,24.38842,24.38842,0,0,1,5.79981,4.8999,30.47037,30.47037,0,0,1,4.14941,6.25l-5.39941,3.6001a22.99682,22.99682,0,0,0-9.10059-9.7002,25.79442,25.79442,0,0,0-12.69922-3.1001,22.52241,22.52241,0,0,0-10.65039,2.5,25.66306,25.66306,0,0,0-8.09961,6.65039,30.41321,30.41321,0,0,0-5.15039,9.5,34.41749,34.41749,0,0,0-1.7998,11.04981,31.83586,31.83586,0,0,0,2.0498,11.3999,30.1736,30.1736,0,0,0,5.65039,9.4502,27.52979,27.52979,0,0,0,8.44922,6.4497,23.4582,23.4582,0,0,0,10.55078,2.40039,25.17373,25.17373,0,0,0,11.64942-2.85009,34.53319,34.53319,0,0,0,10.65039-9.0503v-11.7998h-15.79981v-5.3999h21.69922v34.8999h-5.89941Z"/><path d="M5387.4873,297.75244a21.39586,21.39586,0,0,0-12,3.80029,19.16018,19.16018,0,0,0-7.20019,9.89991v32.3999h-6.79981v-52.1001h6.4004v12.5a23.68569,23.68569,0,0,1,7.7998-9.3999,18.081,18.081,0,0,1,10.5-3.3999,6.92892,6.92892,0,0,1,1.2998.10009Z"/><path d="M5416.18848,344.85254a24.71831,24.71831,0,0,1-10.40039-2.1499,25.53751,25.53751,0,0,1-8.14942-5.8501,26.50213,26.50213,0,0,1-5.35058-8.6001,28.23523,28.23523,0,0,1-1.89942-10.2998,27.87447,27.87447,0,0,1,1.94922-10.39991,27.28963,27.28963,0,0,1,5.40039-8.60009,26.224,26.224,0,0,1,8.15039-5.89991,23.99829,23.99829,0,0,1,10.29981-2.20019,24.339,24.339,0,0,1,10.34961,2.20019,26.07768,26.07768,0,0,1,8.20019,5.89991,27.28945,27.28945,0,0,1,5.40039,8.60009,27.87427,27.87427,0,0,1,1.94922,10.39991,28.25591,28.25591,0,0,1-1.89941,10.2998,26.53541,26.53541,0,0,1-5.35059,8.6001,25.40464,25.40464,0,0,1-8.19922,5.8501A25.0644,25.0644,0,0,1,5416.18848,344.85254Zm-18.90039-26.79981a21.74151,21.74151,0,0,0,1.5,8.14991,22.14094,22.14094,0,0,0,4.0498,6.60009,18.29578,18.29578,0,0,0,6,4.44971,17.25152,17.25152,0,0,0,7.35059,1.6001,16.81741,16.81741,0,0,0,7.34961-1.6499,19.53607,19.53607,0,0,0,6.0498-4.5,21.43068,21.43068,0,0,0,4.10059-6.64991,23.02692,23.02692,0,0,0,0-16.35009,21.31127,21.31127,0,0,0-4.10059-6.7002,19.53607,19.53607,0,0,0-6.0498-4.5,16.81727,16.81727,0,0,0-7.34961-1.6499,16.49271,16.49271,0,0,0-7.29981,1.6499,19.33273,19.33273,0,0,0-6,4.55029,21.93119,21.93119,0,0,0-4.10058,6.75A22.52565,22.52565,0,0,0,5397.28809,318.05273Z"/><path d="M5469.78711,344.85254q-8.50049,0-12.64941-5.6499-4.15137-5.64844-4.1504-16.8501v-30.6001h6.79981v29.3999q0,17.70045,12.10059,17.7002a17.976,17.976,0,0,0,5.89941-1,18.53056,18.53056,0,0,0,5.35059-2.8999,23.43549,23.43549,0,0,0,4.39941-4.5,22.67613,22.67613,0,0,0,3.15039-5.89991V291.75244h6.7998v43.30029q0,2.80079,2.4004,2.79981v6a12.47288,12.47288,0,0,1-1.9502.20019h-1.0498a5.43063,5.43063,0,0,1-3.9004-1.70019,6.03121,6.03121,0,0,1-1.5-4.29981v-6a24.25,24.25,0,0,1-9.25,9.44971A24.65061,24.65061,0,0,1,5469.78711,344.85254Z"/><path d="M5539.48633,344.85254a20.57481,20.57481,0,0,1-11.64942-3.3501,26.62333,26.62333,0,0,1-8.15039-8.44971v32.09961h-6.7998v-73.3999h6.09961v10.1001a25.26954,25.26954,0,0,1,8.30078-7.9502,21.2389,21.2389,0,0,1,11.09961-3.0498,21.82639,21.82639,0,0,1,9.90039,2.25,25.45245,25.45245,0,0,1,7.7998,6,27.878,27.878,0,0,1,5.14942,8.6499,28.3726,28.3726,0,0,1,1.85058,10.1001,31.512,31.512,0,0,1-1.70019,10.3999,26.55568,26.55568,0,0,1-4.84961,8.6001,23.32364,23.32364,0,0,1-7.5,5.8501A21.271,21.271,0,0,1,5539.48633,344.85254Zm-1.89942-6a16.28626,16.28626,0,0,0,7.64942-1.79981,19.03685,19.03685,0,0,0,5.90039-4.75,21.32635,21.32635,0,0,0,3.75-6.70019,23.5312,23.5312,0,0,0,1.2998-7.75,21.59463,21.59463,0,0,0-1.5-8,22.123,22.123,0,0,0-4.09961-6.7002,19.50939,19.50939,0,0,0-6.15039-4.59961,17.49189,17.49189,0,0,0-7.64941-1.70019,15.75589,15.75589,0,0,0-5.4502,1.0498,22.42658,22.42658,0,0,0-5.2998,2.8003,18.83067,18.83067,0,0,0-4.2002,4.10009,11.03153,11.03153,0,0,0-2.15039,4.94971v16a23.8505,23.8505,0,0,0,3.04981,5.2002,21.46826,21.46826,0,0,0,4.20019,4.1499,20.05127,20.05127,0,0,0,5.04981,2.75A15.99055,15.99055,0,0,0,5537.58691,338.85254Z"/><path d="M5591.88574,344.85254a36.25358,36.25358,0,0,1-11.89941-2,28.574,28.574,0,0,1-10-5.79981l3.09961-4.60009a33.887,33.887,0,0,0,8.95019,5.3999,26.24961,26.24961,0,0,0,9.75,1.7998q6.3003,0,10.04981-2.5498a8.25185,8.25185,0,0,0,3.75-7.25,6.29095,6.29095,0,0,0-1-3.6499,8.68463,8.68463,0,0,0-2.9502-2.5503,23.1195,23.1195,0,0,0-4.89941-1.9497q-2.95167-.84888-6.85059-1.75-4.5-1.09936-7.7998-2.2002a23.76676,23.76676,0,0,1-5.4502-2.5,8.99951,8.99951,0,0,1-3.20019-3.44971,11.2478,11.2478,0,0,1-1.04981-5.15039,14.81057,14.81057,0,0,1,1.54981-6.8999,14.06645,14.06645,0,0,1,4.20019-4.94971,19.066,19.066,0,0,1,6.2002-2.95019,27.76208,27.76208,0,0,1,7.5498-1,29.24263,29.24263,0,0,1,10.90039,1.95019,21.5517,21.5517,0,0,1,7.89942,5.14991l-3.29981,4a18.31218,18.31218,0,0,0-7.0498-4.5,25.25785,25.25785,0,0,0-8.65039-1.5,21.52846,21.52846,0,0,0-5,.5498,12.0371,12.0371,0,0,0-4.04981,1.75,8.61989,8.61989,0,0,0-2.75,3.05029,9.015,9.015,0,0,0-1,4.34961,7.15687,7.15687,0,0,0,.7002,3.40039,5.95459,5.95459,0,0,0,2.2998,2.25,18.648,18.648,0,0,0,4.04981,1.69971q2.44922.75,5.95019,1.55029,4.99952,1.19971,8.79981,2.39991a27.697,27.697,0,0,1,6.35058,2.7998,11.04284,11.04284,0,0,1,3.84961,3.8999,11.231,11.231,0,0,1,1.29981,5.6001,13.58337,13.58337,0,0,1-5.5,11.3999Q5601.18505,344.85279,5591.88574,344.85254Z"/><path class="cls-2" d="M1318.49023,818.76465a4.6774,4.6774,0,0,0-1.0664-.80567,19.67135,19.67135,0,0,0-1.84863-.97168,19.07834,19.07834,0,0,0-2.3462-.90039,13.40477,13.40477,0,0,0-2.65429-.54492v8.2002l1.18506.28418q2.46386.66357,4.479,1.42187a12.16837,12.16837,0,0,1,3.41309,1.89551,7.84065,7.84065,0,0,1,2.15625,2.72559,9.04139,9.04139,0,0,1,.75878,3.91015,9.874,9.874,0,0,1-.92431,4.45606,8.42163,8.42163,0,0,1-2.51221,3.0332,11.18473,11.18473,0,0,1-3.67334,1.77734,18.94871,18.94871,0,0,1-4.4082.6875v5.21387h-2.84375v-5.26172a24.87285,24.87285,0,0,1-6.49365-1.35058,23.28385,23.28385,0,0,1-5.73536-2.915l2.89161-5.64063a9.01238,9.01238,0,0,0,1.30322.99512,16.8621,16.8621,0,0,0,2.25146,1.23242,23.81844,23.81844,0,0,0,2.915,1.11426,17.36068,17.36068,0,0,0,3.29444.6875v-8.15234l-1.75391-.47461a30.47406,30.47406,0,0,1-4.19482-1.44532,11.38876,11.38876,0,0,1-2.96241-1.82519,6.64657,6.64657,0,0,1-1.77734-2.46485,8.6995,8.6995,0,0,1-.59229-3.36523,10.491,10.491,0,0,1,.82911-4.28906,9.26468,9.26468,0,0,1,2.27539-3.17578,10.8205,10.8205,0,0,1,3.436-2.06153,15.67248,15.67248,0,0,1,4.31348-.94824v-4.835h2.84375v4.78711a19.02136,19.02136,0,0,1,5.71142,1.30371,25.83519,25.83519,0,0,1,4.62159,2.39355Zm-14.40869.47461a2.82827,2.82827,0,0,0,1.13721,2.44043,11.28027,11.28027,0,0,0,3.41309,1.49316v-7.67871Q1304.08129,815.77832,1304.08154,819.23926Zm11.51758,15.40429a2.91282,2.91282,0,0,0-1.32715-2.55957,14.67823,14.67823,0,0,0-3.69726-1.65918v7.67872Q1315.59839,837.96143,1315.59912,834.64355Z"/><path class="cls-2" d="M1338.11279,828.48145a12.19909,12.19909,0,0,1,4.40772.78222,10.52056,10.52056,0,0,1,3.53125,2.2041,9.91748,9.91748,0,0,1,2.32275,3.41211,11.36851,11.36851,0,0,1,.8291,4.40821,11.10021,11.10021,0,0,1-.94775,4.6455,10.73548,10.73548,0,0,1-2.60693,3.57813,11.907,11.907,0,0,1-3.93409,2.32226,14.29114,14.29114,0,0,1-4.9292.83008,13.76067,13.76067,0,0,1-6.6123-1.56445,10.79407,10.79407,0,0,1-4.43164-4.26563l3.6499-3.792a10.415,10.415,0,0,0,3.34131,2.93848,8.3478,8.3478,0,0,0,4.1001,1.09082,5.8751,5.8751,0,0,0,4.19482-1.541,5.51427,5.51427,0,0,0-3.81592-9.59765,6.15945,6.15945,0,0,0-2.915.71093,5.691,5.691,0,0,0-2.15625,1.94336h-5.5459a10.06243,10.06243,0,0,1,.18994-1.0664q.18823-.92431.47363-2.37012.28491-1.44581.61621-3.22363.331-1.77685.71094-3.626.85327-4.35937,1.896-9.76367h16.58935v5.78223h-11.9917l-1.32715,7.53711a4.00716,4.00716,0,0,1,1.65918-.9961A8.32517,8.32517,0,0,1,1338.11279,828.48145Z"/><path class="cls-2" d="M1377.54736,829.71387a17.2754,17.2754,0,0,1-.92382,5.75879,14.20013,14.20013,0,0,1-2.55958,4.55078,11.55938,11.55938,0,0,1-3.88671,2.98535,11.70817,11.70817,0,0,1-9.76416,0,11.55451,11.55451,0,0,1-3.88672-2.98535,14.19992,14.19992,0,0,1-2.55957-4.55078,18.41092,18.41092,0,0,1,0-11.51758,14.18442,14.18442,0,0,1,2.55957-4.54981,11.83234,11.83234,0,0,1,3.88672-3.01074,11.47964,11.47964,0,0,1,9.76416,0,11.83745,11.83745,0,0,1,3.88671,3.01074,14.18463,14.18463,0,0,1,2.55958,4.54981A17.27531,17.27531,0,0,1,1377.54736,829.71387Zm-6.39843,0a13.39148,13.39148,0,0,0-.42676-3.4834,8.79061,8.79061,0,0,0-1.2085-2.72559,5.72406,5.72406,0,0,0-1.84863-1.7539,4.61266,4.61266,0,0,0-2.34619-.61621,4.83331,4.83331,0,0,0-2.41748.61621,5.63425,5.63425,0,0,0-1.87207,1.7539,8.79061,8.79061,0,0,0-1.2085,2.72559,13.39148,13.39148,0,0,0-.42676,3.4834,13.11981,13.11981,0,0,0,.42676,3.46,8.82771,8.82771,0,0,0,1.2085,2.70215,5.63114,5.63114,0,0,0,1.87207,1.75293,4.82329,4.82329,0,0,0,2.41748.61621,4.603,4.603,0,0,0,2.34619-.61621,5.7208,5.7208,0,0,0,1.84863-1.75293,8.82771,8.82771,0,0,0,1.2085-2.70215A13.11981,13.11981,0,0,0,1371.14893,829.71387Z"/><path class="cls-2" d="M1406.69678,829.71387a17.2754,17.2754,0,0,1-.92383,5.75879,14.20011,14.20011,0,0,1-2.55957,4.55078,11.55932,11.55932,0,0,1-3.88672,2.98535,11.70817,11.70817,0,0,1-9.76416,0,11.55451,11.55451,0,0,1-3.88672-2.98535,14.20011,14.20011,0,0,1-2.55957-4.55078,18.41092,18.41092,0,0,1,0-11.51758,14.18461,14.18461,0,0,1,2.55957-4.54981,11.83234,11.83234,0,0,1,3.88672-3.01074,11.47964,11.47964,0,0,1,9.76416,0,11.83739,11.83739,0,0,1,3.88672,3.01074,14.18461,14.18461,0,0,1,2.55957,4.54981A17.27531,17.27531,0,0,1,1406.69678,829.71387Zm-6.39844,0a13.39148,13.39148,0,0,0-.42676-3.4834,8.79083,8.79083,0,0,0-1.20849-2.72559,5.72419,5.72419,0,0,0-1.84864-1.7539,4.61264,4.61264,0,0,0-2.34619-.61621,4.83334,4.83334,0,0,0-2.41748.61621,5.63434,5.63434,0,0,0-1.87207,1.7539,8.79084,8.79084,0,0,0-1.2085,2.72559,13.39192,13.39192,0,0,0-.42675,3.4834,13.12024,13.12024,0,0,0,.42675,3.46,8.828,8.828,0,0,0,1.2085,2.70215,5.63124,5.63124,0,0,0,1.87207,1.75293,4.82331,4.82331,0,0,0,2.41748.61621,4.603,4.603,0,0,0,2.34619-.61621,5.72093,5.72093,0,0,0,1.84864-1.75293,8.82794,8.82794,0,0,0,1.20849-2.70215A13.11981,13.11981,0,0,0,1400.29834,829.71387Z"/><path class="cls-2" d="M1271.35755,856.92393a3.07389,3.07389,0,0,1-2.159-1.05722l-16.87643-20.39811c-.45012-.41548-1.59886-1.6669-1.16485-2.75877.256-.65163.93239-.98054,2.00448-.98054h8.69913v-28.798a1.90508,1.90508,0,0,1,.35363-1.45293,2.70063,2.70063,0,0,1,2.26037-.87054h13.37453a2.35076,2.35076,0,0,1,1.78682.6628,2.00458,2.00458,0,0,1,.55646,1.37629v28.47893h7.97451c.49213,0,1.98962,0,2.44835,1.10673.47857,1.15866-.68009,2.4385-1.04734,2.8008-.51193.69617-14.33658,19.03172-16.35088,21.04605a2.612,2.612,0,0,1-1.8598.84454Zm0,0"/><path class="cls-2" d="M3063.82422,818.76465a4.67728,4.67728,0,0,0-1.06641-.80567,19.60912,19.60912,0,0,0-1.84863-.97168,19.07052,19.07052,0,0,0-2.3457-.90039,13.4193,13.4193,0,0,0-2.6543-.54492v8.2002l1.18457.28418q2.46387.66357,4.47949,1.42187a12.16823,12.16823,0,0,1,3.41309,1.89551,7.84065,7.84065,0,0,1,2.15625,2.72559,9.04856,9.04856,0,0,1,.75879,3.91015,9.87387,9.87387,0,0,1-.92481,4.45606,8.42534,8.42534,0,0,1-2.51172,3.0332,11.18732,11.18732,0,0,1-3.67382,1.77734,18.94478,18.94478,0,0,1-4.40821.6875v5.21387h-2.84375v-5.26172a24.877,24.877,0,0,1-6.49365-1.35058,23.28361,23.28361,0,0,1-5.73535-2.915l2.8916-5.64063a9.01238,9.01238,0,0,0,1.30322.99512,16.86164,16.86164,0,0,0,2.25147,1.23242,23.81781,23.81781,0,0,0,2.915,1.11426,17.36058,17.36058,0,0,0,3.29443.6875v-8.15234l-1.75391-.47461a30.475,30.475,0,0,1-4.19482-1.44532,11.3887,11.3887,0,0,1-2.9624-1.82519,6.64671,6.64671,0,0,1-1.77735-2.46485,8.69969,8.69969,0,0,1-.59228-3.36523,10.49114,10.49114,0,0,1,.8291-4.28906,9.26481,9.26481,0,0,1,2.27539-3.17578,10.82055,10.82055,0,0,1,3.436-2.06153,15.67233,15.67233,0,0,1,4.31347-.94824v-4.835h2.84375v4.78711a19.02811,19.02811,0,0,1,5.71192,1.30371,25.83016,25.83016,0,0,1,4.62109,2.39355Zm-14.40869.47461a2.82826,2.82826,0,0,0,1.1372,2.44043,11.28592,11.28592,0,0,0,3.41309,1.49316v-7.67871Q3049.41529,815.77832,3049.41553,819.23926Zm11.51806,15.40429a2.91391,2.91391,0,0,0-1.32714-2.55957,14.67849,14.67849,0,0,0-3.69727-1.65918v7.67872Q3060.93213,837.96143,3060.93359,834.64355Z"/><path class="cls-2" d="M3083.44727,828.48145a12.19637,12.19637,0,0,1,4.40722.78222,10.52047,10.52047,0,0,1,3.53125,2.2041,9.91854,9.91854,0,0,1,2.32324,3.41211,11.37753,11.37753,0,0,1,.82911,4.40821,11.10037,11.10037,0,0,1-.94825,4.6455,10.734,10.734,0,0,1-2.60644,3.57813,11.90935,11.90935,0,0,1-3.93457,2.32226,14.29038,14.29038,0,0,1-4.92871.83008,13.76068,13.76068,0,0,1-6.61231-1.56445,10.79407,10.79407,0,0,1-4.43164-4.26563l3.64942-3.792a10.41649,10.41649,0,0,0,3.34179,2.93848,8.34464,8.34464,0,0,0,4.09961,1.09082,5.8771,5.8771,0,0,0,4.19531-1.541,5.51428,5.51428,0,0,0-3.8164-9.59765,6.16234,6.16234,0,0,0-2.915.71093,5.69469,5.69469,0,0,0-2.15625,1.94336h-5.5459a10.13915,10.13915,0,0,1,.19043-1.0664q.1875-.92431.47363-2.37012.28419-1.44581.61621-3.22363.33106-1.77685.71094-3.626.85254-4.35937,1.89551-9.76367h16.58984v5.78223h-11.99218l-1.32715,7.53711a4.01033,4.01033,0,0,1,1.65918-.9961A8.3262,8.3262,0,0,1,3083.44727,828.48145Z"/><path class="cls-2" d="M3122.88184,829.71387a17.28787,17.28787,0,0,1-.92383,5.75879,14.20011,14.20011,0,0,1-2.55957,4.55078,11.56894,11.56894,0,0,1-3.88672,2.98535,11.70929,11.70929,0,0,1-9.76465,0,11.55932,11.55932,0,0,1-3.88672-2.98535,14.20011,14.20011,0,0,1-2.55957-4.55078,18.41092,18.41092,0,0,1,0-11.51758,14.18461,14.18461,0,0,1,2.55957-4.54981,11.83739,11.83739,0,0,1,3.88672-3.01074,11.48074,11.48074,0,0,1,9.76465,0,11.84749,11.84749,0,0,1,3.88672,3.01074,14.18461,14.18461,0,0,1,2.55957,4.54981A17.28778,17.28778,0,0,1,3122.88184,829.71387Zm-6.39844,0a13.4125,13.4125,0,0,0-.42676-3.4834,8.79132,8.79132,0,0,0-1.209-2.72559,5.72419,5.72419,0,0,0-1.84864-1.7539,4.61214,4.61214,0,0,0-2.3457-.61621,4.83515,4.83515,0,0,0-2.418.61621,5.639,5.639,0,0,0-1.87207,1.7539,8.79035,8.79035,0,0,0-1.208,2.72559,13.371,13.371,0,0,0-.42675,3.4834,13.09986,13.09986,0,0,0,.42675,3.46,8.8274,8.8274,0,0,0,1.208,2.70215,5.63587,5.63587,0,0,0,1.87207,1.75293,4.82512,4.82512,0,0,0,2.418.61621,4.60252,4.60252,0,0,0,2.3457-.61621,5.72093,5.72093,0,0,0,1.84864-1.75293,8.82849,8.82849,0,0,0,1.209-2.70215A13.14025,13.14025,0,0,0,3116.4834,829.71387Z"/><path class="cls-2" d="M3152.03125,829.71387a17.28761,17.28761,0,0,1-.92383,5.75879,14.19992,14.19992,0,0,1-2.55957,4.55078,11.56894,11.56894,0,0,1-3.88672,2.98535,11.70929,11.70929,0,0,1-9.76465,0,11.55938,11.55938,0,0,1-3.88671-2.98535,14.19992,14.19992,0,0,1-2.55957-4.55078,18.41092,18.41092,0,0,1,0-11.51758,14.18442,14.18442,0,0,1,2.55957-4.54981,11.83745,11.83745,0,0,1,3.88671-3.01074,11.48074,11.48074,0,0,1,9.76465,0,11.84749,11.84749,0,0,1,3.88672,3.01074,14.18442,14.18442,0,0,1,2.55957,4.54981A17.28753,17.28753,0,0,1,3152.03125,829.71387Zm-6.39844,0a13.4125,13.4125,0,0,0-.42676-3.4834,8.79108,8.79108,0,0,0-1.209-2.72559,5.72406,5.72406,0,0,0-1.84863-1.7539,4.61221,4.61221,0,0,0-2.34571-.61621,4.83513,4.83513,0,0,0-2.418.61621,5.63879,5.63879,0,0,0-1.87207,1.7539,8.79012,8.79012,0,0,0-1.208,2.72559,13.37053,13.37053,0,0,0-.42676,3.4834,13.09943,13.09943,0,0,0,.42676,3.46,8.82716,8.82716,0,0,0,1.208,2.70215,5.63568,5.63568,0,0,0,1.87207,1.75293,4.82511,4.82511,0,0,0,2.418.61621,4.60259,4.60259,0,0,0,2.34571-.61621,5.7208,5.7208,0,0,0,1.84863-1.75293,8.82826,8.82826,0,0,0,1.209-2.70215A13.14025,13.14025,0,0,0,3145.63281,829.71387Z"/><path class="cls-2" d="M3016.69166,856.92407a3.07389,3.07389,0,0,1-2.159-1.05722l-16.87643-20.39812c-.45012-.41547-1.59886-1.66689-1.16485-2.75876.256-.65163.93239-.98054,2.00449-.98054h8.69912v-28.798a1.90507,1.90507,0,0,1,.35363-1.45293,2.70064,2.70064,0,0,1,2.26038-.87054h13.37452a2.35076,2.35076,0,0,1,1.78682.6628,2.00461,2.00461,0,0,1,.55647,1.37629v28.47892h7.97451c.49212,0,1.98962,0,2.44834,1.10674.47857,1.15866-.68009,2.43849-1.04734,2.8008-.51193.69616-14.33658,19.03172-16.35087,21.046a2.612,2.612,0,0,1-1.85981.84454Zm0,0"/><path class="cls-2" d="M4809.15723,818.76465a4.67775,4.67775,0,0,0-1.06641-.80567,19.73021,19.73021,0,0,0-1.84863-.97168,19.07007,19.07007,0,0,0-2.34571-.90039,13.4192,13.4192,0,0,0-2.65429-.54492v8.2002l1.18457.28418q2.46387.66357,4.47949,1.42187a12.1621,12.1621,0,0,1,3.41211,1.89551,7.84065,7.84065,0,0,1,2.15625,2.72559,9.0337,9.0337,0,0,1,.75977,3.91015,9.87387,9.87387,0,0,1-.92481,4.45606,8.418,8.418,0,0,1-2.51269,3.0332,11.18234,11.18234,0,0,1-3.67286,1.77734,18.95281,18.95281,0,0,1-4.4082.6875v5.21387h-2.84375v-5.26172a24.86928,24.86928,0,0,1-6.49316-1.35058,23.299,23.299,0,0,1-5.73633-2.915l2.89258-5.64063a8.97346,8.97346,0,0,0,1.30273.99512,16.87055,16.87055,0,0,0,2.25195,1.23242,23.80138,23.80138,0,0,0,2.91407,1.11426,17.37341,17.37341,0,0,0,3.29492.6875v-8.15234l-1.75391-.47461a30.5287,30.5287,0,0,1-4.19531-1.44532,11.40175,11.40175,0,0,1-2.96191-1.82519,6.6466,6.6466,0,0,1-1.77735-2.46485,8.69921,8.69921,0,0,1-.59277-3.36523,10.48308,10.48308,0,0,1,.83008-4.28906,9.2582,9.2582,0,0,1,2.27539-3.17578,10.81279,10.81279,0,0,1,3.43554-2.06153,15.67248,15.67248,0,0,1,4.31348-.94824v-4.835h2.84375v4.78711a19.028,19.028,0,0,1,5.71191,1.30371,25.82992,25.82992,0,0,1,4.6211,2.39355Zm-14.40918.47461a2.8274,2.8274,0,0,0,1.13769,2.44043,11.27463,11.27463,0,0,0,3.41309,1.49316v-7.67871Q4794.749,815.77832,4794.74805,819.23926Zm11.51758,15.40429a2.91308,2.91308,0,0,0-1.32618-2.55957,14.67823,14.67823,0,0,0-3.69726-1.65918v7.67872Q4806.26514,837.96143,4806.26563,834.64355Z"/><path class="cls-2" d="M4828.7793,828.48145a12.20165,12.20165,0,0,1,4.4082.78222,10.52056,10.52056,0,0,1,3.53125,2.2041,9.9029,9.9029,0,0,1,2.32227,3.41211,11.35991,11.35991,0,0,1,.83007,4.40821,11.10037,11.10037,0,0,1-.94824,4.6455,10.734,10.734,0,0,1-2.60644,3.57813,11.9193,11.9193,0,0,1-3.93457,2.32226,14.29042,14.29042,0,0,1-4.92871.83008,13.76459,13.76459,0,0,1-6.61329-1.56445,10.8,10.8,0,0,1-4.43164-4.26563l3.65039-3.792a10.40638,10.40638,0,0,0,3.3418,2.93848,8.34464,8.34464,0,0,0,4.09961,1.09082,5.87712,5.87712,0,0,0,4.19531-1.541,5.5147,5.5147,0,0,0-3.8164-9.59765,6.15949,6.15949,0,0,0-2.915.71093,5.68748,5.68748,0,0,0-2.15625,1.94336h-5.5459a9.99266,9.99266,0,0,1,.18945-1.0664q.189-.92431.47461-2.37012.28418-1.44581.61524-3.22363.33105-1.77685.71093-3.626.854-4.35937,1.89649-9.76367h16.58984v5.78223h-11.99219l-1.32714,7.53711a4.01033,4.01033,0,0,1,1.65918-.9961A8.324,8.324,0,0,1,4828.7793,828.48145Z"/><path class="cls-2" d="M4868.21484,829.71387a17.28787,17.28787,0,0,1-.92382,5.75879,14.22053,14.22053,0,0,1-2.56055,4.55078,11.54971,11.54971,0,0,1-3.88672,2.98535,11.707,11.707,0,0,1-9.76367,0,11.54971,11.54971,0,0,1-3.88672-2.98535,14.20011,14.20011,0,0,1-2.55957-4.55078,18.41092,18.41092,0,0,1,0-11.51758,14.18461,14.18461,0,0,1,2.55957-4.54981,11.8273,11.8273,0,0,1,3.88672-3.01074,11.47853,11.47853,0,0,1,9.76367,0,11.8273,11.8273,0,0,1,3.88672,3.01074,14.205,14.205,0,0,1,2.56055,4.54981A17.28778,17.28778,0,0,1,4868.21484,829.71387Zm-6.39843,0a13.36944,13.36944,0,0,0-.42774-3.4834,8.76735,8.76735,0,0,0-1.208-2.72559,5.72406,5.72406,0,0,0-1.84863-1.7539,4.61217,4.61217,0,0,0-2.3457-.61621,4.83515,4.83515,0,0,0-2.418.61621,5.63888,5.63888,0,0,0-1.87207,1.7539,8.76735,8.76735,0,0,0-1.208,2.72559,13.36987,13.36987,0,0,0-.42773,3.4834,13.09862,13.09862,0,0,0,.42773,3.46,8.80389,8.80389,0,0,0,1.208,2.70215,5.63578,5.63578,0,0,0,1.87207,1.75293,4.82512,4.82512,0,0,0,2.418.61621,4.60255,4.60255,0,0,0,2.3457-.61621,5.7208,5.7208,0,0,0,1.84863-1.75293,8.80389,8.80389,0,0,0,1.208-2.70215A13.09819,13.09819,0,0,0,4861.81641,829.71387Z"/><path class="cls-2" d="M4897.36328,829.71387a17.26294,17.26294,0,0,1-.92383,5.75879,14.17973,14.17973,0,0,1-2.55859,4.55078,11.56894,11.56894,0,0,1-3.88672,2.98535,11.70931,11.70931,0,0,1-9.76465,0,11.55942,11.55942,0,0,1-3.88672-2.98535,14.20011,14.20011,0,0,1-2.55957-4.55078,18.41111,18.41111,0,0,1,0-11.51758,14.18461,14.18461,0,0,1,2.55957-4.54981,11.83749,11.83749,0,0,1,3.88672-3.01074,11.48075,11.48075,0,0,1,9.76465,0,11.84749,11.84749,0,0,1,3.88672,3.01074,14.16428,14.16428,0,0,1,2.55859,4.54981A17.26286,17.26286,0,0,1,4897.36328,829.71387Zm-6.39844,0a13.4136,13.4136,0,0,0-.42578-3.4834,8.814,8.814,0,0,0-1.209-2.72559,5.72426,5.72426,0,0,0-1.84863-1.7539,4.61319,4.61319,0,0,0-2.34668-.61621,4.83154,4.83154,0,0,0-2.417.61621,5.62971,5.62971,0,0,0-1.87207,1.7539,8.8142,8.8142,0,0,0-1.209,2.72559,13.4136,13.4136,0,0,0-.42578,3.4834,13.14151,13.14151,0,0,0,.42578,3.46,8.85189,8.85189,0,0,0,1.209,2.70215,5.62661,5.62661,0,0,0,1.87207,1.75293,4.82152,4.82152,0,0,0,2.417.61621,4.60357,4.60357,0,0,0,2.34668-.61621,5.721,5.721,0,0,0,1.84863-1.75293,8.85165,8.85165,0,0,0,1.209-2.70215A13.14151,13.14151,0,0,0,4890.96484,829.71387Z"/><path class="cls-2" d="M4762.02461,856.92407a3.07389,3.07389,0,0,1-2.159-1.05722l-16.87643-20.39812c-.45012-.41547-1.59886-1.66689-1.16485-2.75876.256-.65163.93239-.98054,2.00449-.98054h8.69912v-28.798a1.90507,1.90507,0,0,1,.35363-1.45293,2.70064,2.70064,0,0,1,2.26038-.87054h13.37452a2.35076,2.35076,0,0,1,1.78682.6628,2.00461,2.00461,0,0,1,.55647,1.37629v28.47892h7.97451c.49212,0,1.98961,0,2.44834,1.10674.47857,1.15866-.68009,2.43849-1.04734,2.8008-.51193.69616-14.33658,19.03172-16.35088,21.046a2.612,2.612,0,0,1-1.8598.84454Zm0,0"/><path class="cls-2" d="M2191.15723,818.76465a4.67775,4.67775,0,0,0-1.06641-.80567,19.6701,19.6701,0,0,0-1.84863-.97168,19.0788,19.0788,0,0,0-2.34619-.90039,13.405,13.405,0,0,0-2.6543-.54492v8.2002l1.18506.28418q2.46387.66357,4.479,1.42187a12.16823,12.16823,0,0,1,3.41309,1.89551,7.84065,7.84065,0,0,1,2.15625,2.72559,9.04138,9.04138,0,0,1,.75879,3.91015,9.874,9.874,0,0,1-.92432,4.45606,8.42163,8.42163,0,0,1-2.51221,3.0332,11.18473,11.18473,0,0,1-3.67334,1.77734,18.94871,18.94871,0,0,1-4.4082.6875v5.21387h-2.84375v-5.26172a24.87285,24.87285,0,0,1-6.49365-1.35058,23.28361,23.28361,0,0,1-5.73535-2.915l2.8916-5.64063a9.01238,9.01238,0,0,0,1.30322.99512,16.86164,16.86164,0,0,0,2.25147,1.23242,23.81764,23.81764,0,0,0,2.915,1.11426,17.36068,17.36068,0,0,0,3.29444.6875v-8.15234l-1.75391-.47461a30.475,30.475,0,0,1-4.19482-1.44532,11.3887,11.3887,0,0,1-2.9624-1.82519,6.6466,6.6466,0,0,1-1.77735-2.46485,8.69951,8.69951,0,0,1-.59228-3.36523,10.49114,10.49114,0,0,1,.8291-4.28906,9.26468,9.26468,0,0,1,2.27539-3.17578,10.82061,10.82061,0,0,1,3.436-2.06153,15.67248,15.67248,0,0,1,4.31348-.94824v-4.835h2.84375v4.78711a19.02149,19.02149,0,0,1,5.71143,1.30371,25.83542,25.83542,0,0,1,4.62158,2.39355Zm-14.40869.47461a2.82826,2.82826,0,0,0,1.1372,2.44043,11.28027,11.28027,0,0,0,3.41309,1.49316v-7.67871Q2176.7483,815.77832,2176.74854,819.23926Zm11.51757,15.40429a2.91282,2.91282,0,0,0-1.32715-2.55957,14.67823,14.67823,0,0,0-3.69726-1.65918v7.67872Q2188.26538,837.96143,2188.26611,834.64355Z"/><path class="cls-2" d="M2210.77979,828.48145a12.199,12.199,0,0,1,4.40771.78222,10.52056,10.52056,0,0,1,3.53125,2.2041,9.91734,9.91734,0,0,1,2.32275,3.41211,11.36851,11.36851,0,0,1,.82911,4.40821,11.10021,11.10021,0,0,1-.94776,4.6455,10.73534,10.73534,0,0,1-2.60693,3.57813,11.907,11.907,0,0,1-3.93408,2.32226,14.29122,14.29122,0,0,1-4.9292.83008,13.76068,13.76068,0,0,1-6.61231-1.56445,10.79407,10.79407,0,0,1-4.43164-4.26563l3.6499-3.792a10.415,10.415,0,0,0,3.34131,2.93848,8.34782,8.34782,0,0,0,4.1001,1.09082,5.8751,5.8751,0,0,0,4.19482-1.541,5.51427,5.51427,0,0,0-3.81591-9.59765,6.15952,6.15952,0,0,0-2.915.71093,5.69108,5.69108,0,0,0-2.15625,1.94336h-5.5459a10.06539,10.06539,0,0,1,.18994-1.0664q.18824-.92431.47363-2.37012.28491-1.44581.61621-3.22363.33106-1.77685.71094-3.626.85327-4.35937,1.896-9.76367h16.58935v5.78223h-11.9917l-1.32714,7.53711a4.0071,4.0071,0,0,1,1.65918-.9961A8.32509,8.32509,0,0,1,2210.77979,828.48145Z"/><path class="cls-2" d="M2250.21436,829.71387a17.2754,17.2754,0,0,1-.92383,5.75879,14.20011,14.20011,0,0,1-2.55957,4.55078,11.55932,11.55932,0,0,1-3.88672,2.98535,11.70817,11.70817,0,0,1-9.76416,0,11.55451,11.55451,0,0,1-3.88672-2.98535,14.20011,14.20011,0,0,1-2.55957-4.55078,18.41092,18.41092,0,0,1,0-11.51758,14.18461,14.18461,0,0,1,2.55957-4.54981,11.83234,11.83234,0,0,1,3.88672-3.01074,11.47964,11.47964,0,0,1,9.76416,0,11.83739,11.83739,0,0,1,3.88672,3.01074,14.18461,14.18461,0,0,1,2.55957,4.54981A17.27531,17.27531,0,0,1,2250.21436,829.71387Zm-6.39844,0a13.39148,13.39148,0,0,0-.42676-3.4834,8.79061,8.79061,0,0,0-1.2085-2.72559,5.72406,5.72406,0,0,0-1.84863-1.7539,4.61266,4.61266,0,0,0-2.34619-.61621,4.83331,4.83331,0,0,0-2.41748.61621,5.63425,5.63425,0,0,0-1.87207,1.7539,8.79061,8.79061,0,0,0-1.2085,2.72559,13.39192,13.39192,0,0,0-.42675,3.4834,13.12024,13.12024,0,0,0,.42675,3.46,8.82771,8.82771,0,0,0,1.2085,2.70215,5.63114,5.63114,0,0,0,1.87207,1.75293,4.82329,4.82329,0,0,0,2.41748.61621,4.603,4.603,0,0,0,2.34619-.61621,5.7208,5.7208,0,0,0,1.84863-1.75293,8.82771,8.82771,0,0,0,1.2085-2.70215A13.11981,13.11981,0,0,0,2243.81592,829.71387Z"/><path class="cls-2" d="M2279.36377,829.71387a17.2754,17.2754,0,0,1-.92383,5.75879,14.20011,14.20011,0,0,1-2.55957,4.55078,11.55932,11.55932,0,0,1-3.88672,2.98535,11.70817,11.70817,0,0,1-9.76416,0,11.55471,11.55471,0,0,1-3.88672-2.98535,14.20011,14.20011,0,0,1-2.55957-4.55078,18.41111,18.41111,0,0,1,0-11.51758,14.18461,14.18461,0,0,1,2.55957-4.54981,11.83255,11.83255,0,0,1,3.88672-3.01074,11.47964,11.47964,0,0,1,9.76416,0,11.83739,11.83739,0,0,1,3.88672,3.01074,14.18461,14.18461,0,0,1,2.55957,4.54981A17.27531,17.27531,0,0,1,2279.36377,829.71387Zm-6.39844,0a13.39148,13.39148,0,0,0-.42676-3.4834,8.79083,8.79083,0,0,0-1.20849-2.72559,5.72426,5.72426,0,0,0-1.84863-1.7539,4.6127,4.6127,0,0,0-2.3462-.61621,4.83336,4.83336,0,0,0-2.41748.61621,5.63434,5.63434,0,0,0-1.87207,1.7539,8.79083,8.79083,0,0,0-1.20849,2.72559,13.39148,13.39148,0,0,0-.42676,3.4834,13.11981,13.11981,0,0,0,.42676,3.46,8.82794,8.82794,0,0,0,1.20849,2.70215,5.63124,5.63124,0,0,0,1.87207,1.75293,4.82334,4.82334,0,0,0,2.41748.61621,4.60308,4.60308,0,0,0,2.3462-.61621,5.721,5.721,0,0,0,1.84863-1.75293,8.82794,8.82794,0,0,0,1.20849-2.70215A13.11981,13.11981,0,0,0,2272.96533,829.71387Z"/><path class="cls-2" d="M2143.10018,800.60793a3.07389,3.07389,0,0,1,2.159,1.05722l16.87643,20.39812c.45012.41547,1.59886,1.66689,1.16485,2.75876-.256.65163-.93239.98054-2.00449.98054h-8.69912v28.798a1.90507,1.90507,0,0,1-.35363,1.45293,2.70065,2.70065,0,0,1-2.26038.87054H2136.6083a2.3508,2.3508,0,0,1-1.78683-.6628,2.00463,2.00463,0,0,1-.55646-1.37629V826.40606h-7.97451c-.49212,0-1.98962,0-2.44834-1.10674-.47857-1.15866.68009-2.43849,1.04734-2.8008.51193-.69616,14.33658-19.03172,16.35087-21.04605a2.612,2.612,0,0,1,1.85981-.84454Zm0,0"/><path class="cls-2" d="M3936.49023,818.76465a4.6774,4.6774,0,0,0-1.0664-.80567,19.73272,19.73272,0,0,0-1.84863-.97168,19.08707,19.08707,0,0,0-2.34668-.90039,13.39062,13.39062,0,0,0-2.6543-.54492v8.2002l1.18555.28418q2.46385.66357,4.47851,1.42187a12.16837,12.16837,0,0,1,3.41309,1.89551,7.84065,7.84065,0,0,1,2.15625,2.72559,9.03421,9.03421,0,0,1,.75879,3.91015,9.874,9.874,0,0,1-.92383,4.45606,8.41793,8.41793,0,0,1-2.5127,3.0332,11.18219,11.18219,0,0,1-3.67285,1.77734,18.95281,18.95281,0,0,1-4.4082.6875v5.21387h-2.84375v-5.26172a24.87642,24.87642,0,0,1-6.49414-1.35058,23.29225,23.29225,0,0,1-5.73535-2.915l2.8916-5.64063a9.05158,9.05158,0,0,0,1.30371.99512,16.8532,16.8532,0,0,0,2.251,1.23242,23.87915,23.87915,0,0,0,2.915,1.11426,17.37367,17.37367,0,0,0,3.29493.6875v-8.15234l-1.75391-.47461a30.48283,30.48283,0,0,1-4.19531-1.44532,11.38564,11.38564,0,0,1-2.96192-1.82519,6.64657,6.64657,0,0,1-1.77734-2.46485,8.69921,8.69921,0,0,1-.59277-3.36523,10.499,10.499,0,0,1,.8291-4.28906,9.27117,9.27117,0,0,1,2.27539-3.17578,10.82834,10.82834,0,0,1,3.43652-2.06153,15.67248,15.67248,0,0,1,4.31348-.94824v-4.835h2.84375v4.78711a19.01487,19.01487,0,0,1,5.71094,1.30371,25.84069,25.84069,0,0,1,4.62207,2.39355Zm-14.40918.47461a2.82741,2.82741,0,0,0,1.1377,2.44043,11.27463,11.27463,0,0,0,3.41309,1.49316v-7.67871Q3922.08057,815.77832,3922.08105,819.23926Zm11.51758,15.40429a2.91174,2.91174,0,0,0-1.32715-2.55957,14.67823,14.67823,0,0,0-3.69726-1.65918v7.67872Q3933.59864,837.96143,3933.59863,834.64355Z"/><path class="cls-2" d="M3956.1123,828.48145a12.20175,12.20175,0,0,1,4.40821.78222,10.52056,10.52056,0,0,1,3.53125,2.2041,9.91613,9.91613,0,0,1,2.32226,3.41211,11.35951,11.35951,0,0,1,.82911,4.40821,11.1,11.1,0,0,1-.94727,4.6455,10.7368,10.7368,0,0,1-2.60742,3.57813,11.90466,11.90466,0,0,1-3.9336,2.32226,14.29193,14.29193,0,0,1-4.92968.83008,13.76068,13.76068,0,0,1-6.61231-1.56445,10.79407,10.79407,0,0,1-4.43164-4.26563l3.65039-3.792a10.4133,10.4133,0,0,0,3.34082,2.93848,8.351,8.351,0,0,0,4.10059,1.09082,5.87309,5.87309,0,0,0,4.19433-1.541,5.51426,5.51426,0,0,0-3.81543-9.59765,6.15669,6.15669,0,0,0-2.915.71093,5.68741,5.68741,0,0,0-2.15625,1.94336h-5.5459a9.99266,9.99266,0,0,1,.18945-1.0664q.189-.92431.47363-2.37012.28564-1.44581.61621-3.22363.33106-1.77685.71094-3.626.854-4.35937,1.89649-9.76367h16.58886v5.78223H3953.0791l-1.32715,7.53711a4.00394,4.00394,0,0,1,1.65918-.9961A8.32406,8.32406,0,0,1,3956.1123,828.48145Z"/><path class="cls-2" d="M3995.54688,829.71387a17.26294,17.26294,0,0,1-.92383,5.75879,14.20011,14.20011,0,0,1-2.55957,4.55078,11.5499,11.5499,0,0,1-3.88672,2.98535,11.70706,11.70706,0,0,1-9.76367,0,11.54971,11.54971,0,0,1-3.88672-2.98535,14.19992,14.19992,0,0,1-2.55957-4.55078,18.41092,18.41092,0,0,1,0-11.51758,14.18442,14.18442,0,0,1,2.55957-4.54981,11.8273,11.8273,0,0,1,3.88672-3.01074,11.47855,11.47855,0,0,1,9.76367,0,11.82751,11.82751,0,0,1,3.88672,3.01074,14.18461,14.18461,0,0,1,2.55957,4.54981A17.26286,17.26286,0,0,1,3995.54688,829.71387Zm-6.39844,0a13.37053,13.37053,0,0,0-.42676-3.4834,8.79012,8.79012,0,0,0-1.208-2.72559,5.72406,5.72406,0,0,0-1.84863-1.7539,4.61316,4.61316,0,0,0-2.34668-.61621,4.83148,4.83148,0,0,0-2.417.61621,5.62962,5.62962,0,0,0-1.87207,1.7539,8.79109,8.79109,0,0,0-1.209,2.72559,13.4125,13.4125,0,0,0-.42676,3.4834,13.14025,13.14025,0,0,0,.42676,3.46,8.82827,8.82827,0,0,0,1.209,2.70215,5.62652,5.62652,0,0,0,1.87207,1.75293,4.82146,4.82146,0,0,0,2.417.61621,4.60354,4.60354,0,0,0,2.34668-.61621,5.7208,5.7208,0,0,0,1.84863-1.75293,8.82716,8.82716,0,0,0,1.208-2.70215A13.09943,13.09943,0,0,0,3989.14844,829.71387Z"/><path class="cls-2" d="M4024.69629,829.71387a17.26294,17.26294,0,0,1-.92383,5.75879,14.20011,14.20011,0,0,1-2.55957,4.55078,11.54971,11.54971,0,0,1-3.88672,2.98535,11.70706,11.70706,0,0,1-9.76367,0,11.54981,11.54981,0,0,1-3.88672-2.98535,14.20011,14.20011,0,0,1-2.55957-4.55078,18.41092,18.41092,0,0,1,0-11.51758,14.18461,14.18461,0,0,1,2.55957-4.54981,11.8274,11.8274,0,0,1,3.88672-3.01074,11.47855,11.47855,0,0,1,9.76367,0,11.8273,11.8273,0,0,1,3.88672,3.01074,14.18461,14.18461,0,0,1,2.55957,4.54981A17.26286,17.26286,0,0,1,4024.69629,829.71387Zm-6.39844,0a13.37053,13.37053,0,0,0-.42676-3.4834,8.79034,8.79034,0,0,0-1.208-2.72559,5.72419,5.72419,0,0,0-1.84864-1.7539,4.61313,4.61313,0,0,0-2.34668-.61621,4.8315,4.8315,0,0,0-2.417.61621,5.62971,5.62971,0,0,0-1.87207,1.7539,8.79132,8.79132,0,0,0-1.209,2.72559,13.4125,13.4125,0,0,0-.42676,3.4834,13.14025,13.14025,0,0,0,.42676,3.46,8.82849,8.82849,0,0,0,1.209,2.70215,5.62661,5.62661,0,0,0,1.87207,1.75293,4.82148,4.82148,0,0,0,2.417.61621,4.60352,4.60352,0,0,0,2.34668-.61621,5.72093,5.72093,0,0,0,1.84864-1.75293,8.82739,8.82739,0,0,0,1.208-2.70215A13.09943,13.09943,0,0,0,4018.29785,829.71387Z"/><path class="cls-2" d="M3888.433,800.60793a3.07389,3.07389,0,0,1,2.159,1.05722l16.87643,20.39812c.45012.41547,1.59886,1.66689,1.16485,2.75876-.256.65163-.93239.98054-2.00449.98054h-8.69912v28.798a1.90507,1.90507,0,0,1-.35363,1.45293,2.70064,2.70064,0,0,1-2.26038.87054h-13.37452a2.35076,2.35076,0,0,1-1.78682-.6628,2.00461,2.00461,0,0,1-.55647-1.37629V826.40606h-7.97451c-.49212,0-1.98961,0-2.44834-1.10674-.47857-1.15866.68009-2.43849,1.04734-2.8008.51193-.69616,14.33658-19.03172,16.35088-21.04605a2.612,2.612,0,0,1,1.8598-.84454Zm0,0"/><path class="cls-2" d="M5681.82422,818.76465a4.67728,4.67728,0,0,0-1.06641-.80567,19.60912,19.60912,0,0,0-1.84863-.97168,19.08645,19.08645,0,0,0-2.34668-.90039,13.39047,13.39047,0,0,0-2.6543-.54492v8.2002l1.18555.28418q2.46387.66357,4.47852,1.42187a12.17444,12.17444,0,0,1,3.41406,1.89551,7.84065,7.84065,0,0,1,2.15625,2.72559,9.04908,9.04908,0,0,1,.75781,3.91015,9.874,9.874,0,0,1-.92383,4.45606,8.42534,8.42534,0,0,1-2.51172,3.0332,11.18732,11.18732,0,0,1-3.67382,1.77734,18.94478,18.94478,0,0,1-4.40821.6875v5.21387h-2.84375v-5.26172a24.87642,24.87642,0,0,1-6.49414-1.35058,23.26825,23.26825,0,0,1-5.73437-2.915l2.89062-5.64063a9.05158,9.05158,0,0,0,1.30371.99512,16.8532,16.8532,0,0,0,2.251,1.23242,23.83442,23.83442,0,0,0,2.916,1.11426,17.3476,17.3476,0,0,0,3.29394.6875v-8.15234l-1.75391-.47461a30.421,30.421,0,0,1-4.19433-1.44532,11.37552,11.37552,0,0,1-2.96289-1.82519,6.64671,6.64671,0,0,1-1.77735-2.46485,8.7,8.7,0,0,1-.59179-3.36523,10.49922,10.49922,0,0,1,.82812-4.28906,9.27144,9.27144,0,0,1,2.27539-3.17578,10.82838,10.82838,0,0,1,3.43653-2.06153,15.67233,15.67233,0,0,1,4.31347-.94824v-4.835h2.84375v4.78711a19.01487,19.01487,0,0,1,5.71094,1.30371,25.84035,25.84035,0,0,1,4.62207,2.39355Zm-14.4082.47461a2.82912,2.82912,0,0,0,1.13671,2.44043,11.28592,11.28592,0,0,0,3.41309,1.49316v-7.67871Q5667.41455,815.77832,5667.416,819.23926Zm11.51757,15.40429a2.91258,2.91258,0,0,0-1.32812-2.55957,14.67849,14.67849,0,0,0-3.69727-1.65918v7.67872Q5678.93262,837.96143,5678.93359,834.64355Z"/><path class="cls-2" d="M5701.44727,828.48145a12.19637,12.19637,0,0,1,4.40722.78222,10.52047,10.52047,0,0,1,3.53125,2.2041,9.93212,9.93212,0,0,1,2.32324,3.41211,11.37732,11.37732,0,0,1,.82813,4.40821,11.1,11.1,0,0,1-.94727,4.6455,10.73667,10.73667,0,0,1-2.60742,3.57813,11.89478,11.89478,0,0,1-3.93359,2.32226,14.292,14.292,0,0,1-4.92969.83008,13.7568,13.7568,0,0,1-6.61133-1.56445,10.78821,10.78821,0,0,1-4.43164-4.26563l3.64942-3.792a10.42336,10.42336,0,0,0,3.34082,2.93848,8.35094,8.35094,0,0,0,4.10058,1.09082,5.87311,5.87311,0,0,0,4.19434-1.541,5.51384,5.51384,0,0,0-3.81543-9.59765,6.15952,6.15952,0,0,0-2.915.71093,5.69469,5.69469,0,0,0-2.15625,1.94336h-5.5459a10.13915,10.13915,0,0,1,.19043-1.0664q.1875-.92431.47266-2.37012.28564-1.44581.61718-3.22363.33106-1.77685.71094-3.626.85254-4.35937,1.89551-9.76367h16.58887v5.78223h-11.99121l-1.32715,7.53711a4.00387,4.00387,0,0,1,1.65918-.9961A8.3262,8.3262,0,0,1,5701.44727,828.48145Z"/><path class="cls-2" d="M5740.88086,829.71387a17.26294,17.26294,0,0,1-.92383,5.75879,14.17973,14.17973,0,0,1-2.55859,4.55078,11.56894,11.56894,0,0,1-3.88672,2.98535,11.70931,11.70931,0,0,1-9.76465,0,11.55932,11.55932,0,0,1-3.88672-2.98535,14.20011,14.20011,0,0,1-2.55957-4.55078,18.41092,18.41092,0,0,1,0-11.51758,14.18461,14.18461,0,0,1,2.55957-4.54981,11.83739,11.83739,0,0,1,3.88672-3.01074,11.48076,11.48076,0,0,1,9.76465,0,11.84749,11.84749,0,0,1,3.88672,3.01074,14.16428,14.16428,0,0,1,2.55859,4.54981A17.26286,17.26286,0,0,1,5740.88086,829.71387Zm-6.39844,0a13.4136,13.4136,0,0,0-.42578-3.4834,8.8142,8.8142,0,0,0-1.209-2.72559,5.72419,5.72419,0,0,0-1.84864-1.7539,4.61313,4.61313,0,0,0-2.34668-.61621,4.8315,4.8315,0,0,0-2.417.61621,5.62971,5.62971,0,0,0-1.87207,1.7539,8.814,8.814,0,0,0-1.209,2.72559,13.4136,13.4136,0,0,0-.42578,3.4834,13.14151,13.14151,0,0,0,.42578,3.46,8.85165,8.85165,0,0,0,1.209,2.70215,5.62661,5.62661,0,0,0,1.87207,1.75293,4.82148,4.82148,0,0,0,2.417.61621,4.60352,4.60352,0,0,0,2.34668-.61621,5.72093,5.72093,0,0,0,1.84864-1.75293,8.85189,8.85189,0,0,0,1.209-2.70215A13.14151,13.14151,0,0,0,5734.48242,829.71387Z"/><path class="cls-2" d="M5770.03125,829.71387a17.28761,17.28761,0,0,1-.92383,5.75879,14.22051,14.22051,0,0,1-2.56054,4.55078,11.5499,11.5499,0,0,1-3.88672,2.98535,11.70706,11.70706,0,0,1-9.76368,0,11.54977,11.54977,0,0,1-3.88671-2.98535,14.19992,14.19992,0,0,1-2.55957-4.55078,18.41092,18.41092,0,0,1,0-11.51758,14.18442,14.18442,0,0,1,2.55957-4.54981,11.82737,11.82737,0,0,1,3.88671-3.01074,11.47855,11.47855,0,0,1,9.76368,0,11.82751,11.82751,0,0,1,3.88672,3.01074,14.205,14.205,0,0,1,2.56054,4.54981A17.28753,17.28753,0,0,1,5770.03125,829.71387Zm-6.39844,0a13.36987,13.36987,0,0,0-.42773-3.4834,8.76758,8.76758,0,0,0-1.208-2.72559,5.72406,5.72406,0,0,0-1.84863-1.7539,4.61221,4.61221,0,0,0-2.34571-.61621,4.83513,4.83513,0,0,0-2.418.61621,5.63879,5.63879,0,0,0-1.87207,1.7539,8.76735,8.76735,0,0,0-1.208,2.72559,13.36944,13.36944,0,0,0-.42774,3.4834,13.09819,13.09819,0,0,0,.42774,3.46,8.80389,8.80389,0,0,0,1.208,2.70215,5.63568,5.63568,0,0,0,1.87207,1.75293,4.82511,4.82511,0,0,0,2.418.61621,4.60259,4.60259,0,0,0,2.34571-.61621,5.7208,5.7208,0,0,0,1.84863-1.75293,8.80413,8.80413,0,0,0,1.208-2.70215A13.09862,13.09862,0,0,0,5763.63281,829.71387Z"/><path class="cls-2" d="M5633.76706,800.60793a3.07392,3.07392,0,0,1,2.159,1.05722l16.87643,20.39812c.45012.41547,1.59885,1.66689,1.16485,2.75876-.256.65163-.9324.98054-2.00449.98054h-8.69912v28.798a1.90511,1.90511,0,0,1-.35363,1.45293,2.70065,2.70065,0,0,1-2.26038.87054h-13.37453a2.35079,2.35079,0,0,1-1.78682-.6628,2.00463,2.00463,0,0,1-.55646-1.37629V826.40606h-7.97451c-.49212,0-1.98962,0-2.44834-1.10674-.47858-1.15866.68008-2.43849,1.04734-2.8008.51193-.69616,14.33657-19.03172,16.35087-21.04605a2.612,2.612,0,0,1,1.85981-.84454Zm0,0"/></svg>