<?xml version="1.0" encoding="utf-8"?>
<!-- Generator: Adobe Illustrator 22.1.0, SVG Export Plug-In . SVG Version: 6.00 Build 0)  -->
<svg version="1.1" id="Layer_1" xmlns="http://www.w3.org/2000/svg" xmlns:xlink="http://www.w3.org/1999/xlink" x="0px" y="0px"
	 width="132" height="135" viewBox="0 0 132 135" style="enable-background:new 0 0 132 135;" xml:space="preserve">
<style type="text/css">
	.st0{fill:#F3A712;}
	.st1{fill:#FFFFFF;}
</style>
<g id="Ellipse_2">
	<ellipse class="st0" cx="66" cy="67.5" rx="66" ry="67.5"/>
</g>
<g>
	<path class="st1" d="M93.7,41.9c0-0.9-0.3-1.6-1-2.1c-0.4-0.3-1-0.5-1.9-0.8v5.7c1.2-0.1,2.1-0.5,2.5-1.3
		C93.5,42.9,93.7,42.4,93.7,41.9L93.7,41.9z M93.7,41.9"/>
	<path class="st1" d="M89.7,31.8c-0.9,0-1.6,0.3-2,0.9c-0.4,0.5-0.6,1.1-0.6,1.7c0,0.7,0.2,1.3,0.7,1.7c0.5,0.4,1.1,0.7,1.9,0.8
		L89.7,31.8z M89.7,31.8"/>
	<path class="st1" d="M90.2,50.9c6.8,0,12.4-5.6,12.4-12.4s-5.6-12.4-12.4-12.4c-6.8,0-12.4,5.5-12.4,12.4
		C77.9,45.4,83.4,50.9,90.2,50.9L90.2,50.9z M86.3,37.3c-0.7-0.7-1.1-1.6-1.1-2.9c0-1.1,0.4-2.1,1.2-3c0.8-0.9,1.9-1.3,3.4-1.3v-1.4
		h1v1.4c1.4,0.1,2.5,0.5,3.3,1.3c0.8,0.7,1.1,1.7,1.2,2.9h-1.9c-0.1-0.6-0.2-1-0.4-1.4c-0.4-0.7-1.2-1.1-2.2-1.1V37
		c1.7,0.5,2.8,0.9,3.4,1.3c1,0.7,1.5,1.7,1.5,3c0,1.9-0.6,3.3-1.9,4.1c-0.7,0.4-1.7,0.7-3,0.9v2.1h-1v-2.1c-2.1-0.1-3.5-0.9-4.3-2.2
		c-0.4-0.7-0.6-1.7-0.6-2.9h1.9c0.1,1,0.2,1.7,0.5,2.1c0.4,0.8,1.3,1.3,2.5,1.4v-5.9C88.2,38.5,87,38,86.3,37.3L86.3,37.3z
		 M86.3,37.3"/>
	<path class="st1" d="M69,21.3c0-0.7-0.3-1.2-0.8-1.5c-0.3-0.2-0.8-0.4-1.4-0.6v4.3c0.9-0.1,1.6-0.4,1.9-1
		C68.9,22.1,69,21.7,69,21.3L69,21.3z M69,21.3"/>
	<path class="st1" d="M66.1,13.7c-0.7,0-1.2,0.3-1.5,0.7c-0.3,0.4-0.4,0.8-0.4,1.3c0,0.5,0.2,0.9,0.5,1.3c0.3,0.3,0.8,0.5,1.4,0.6
		V13.7z M66.1,13.7"/>
	<path class="st1" d="M66.4,28.1c5.1,0,9.3-4.2,9.3-9.3c0-5.1-4.2-9.3-9.3-9.3c-5.1,0-9.3,4.2-9.3,9.3
		C57.2,23.9,61.3,28.1,66.4,28.1L66.4,28.1z M63.5,17.9c-0.6-0.5-0.8-1.2-0.8-2.1c0-0.8,0.3-1.6,0.9-2.2c0.6-0.7,1.4-1,2.5-1v-1.1
		h0.8v1.1c1.1,0.1,1.9,0.4,2.5,0.9c0.6,0.6,0.9,1.3,0.9,2.2h-1.4c0-0.4-0.1-0.8-0.3-1.1c-0.3-0.5-0.9-0.8-1.6-0.9v3.9
		c1.3,0.4,2.1,0.7,2.5,1c0.7,0.5,1.1,1.3,1.1,2.3c0,1.4-0.5,2.5-1.4,3c-0.5,0.3-1.3,0.6-2.2,0.7v1.6h-0.8v-1.6
		c-1.6-0.1-2.6-0.6-3.2-1.7c-0.3-0.5-0.5-1.3-0.5-2.2h1.4c0,0.7,0.2,1.3,0.3,1.6c0.3,0.6,1,0.9,1.9,1V19
		C64.9,18.7,64,18.4,63.5,17.9L63.5,17.9z M63.5,17.9"/>
	<path class="st1" d="M60.1,62.6c-2.1-0.4-3.5-1.2-4.4-2.7C55.2,59,55,57.7,55,56.1h2.5c0.1,1.3,0.3,2.2,0.6,2.8
		c0.6,1.1,1.7,1.6,3.2,1.8v-7.6c-2-0.4-3.5-1-4.5-1.9c-1-0.9-1.4-2.1-1.4-3.7c0-1.4,0.5-2.7,1.6-3.8c1-1.1,2.5-1.7,4.4-1.7v-1.8h1.3
		v1.8c1.9,0.1,3.3,0.7,4.3,1.6c1,0.9,1.5,2.2,1.6,3.8h-2.4c-0.1-0.7-0.3-1.3-0.6-1.8c-0.6-0.9-1.5-1.4-2.8-1.5v6.8
		c2.2,0.6,3.6,1.2,4.4,1.7c1.3,0.9,1.9,2.2,1.9,3.9c0,2.5-0.8,4.2-2.4,5.3c-0.7,0.4-1.6,0.7-2.7,0.9c3.2,0.1,6.4,0.6,9.5,1.6
		c2.9-2.9,4.7-6.9,4.7-11.3c0-8.8-7.2-16-16-16c-8.8,0-16,7.2-16,16c0,4.6,1.9,8.7,5,11.6C53.9,63.4,57,62.8,60.1,62.6L60.1,62.6z
		 M60.1,62.6"/>
	<path class="st1" d="M58.8,49.4c0.6,0.5,1.4,0.9,2.5,1.1V44c-1.2,0.1-2.1,0.4-2.6,1.1c-0.5,0.7-0.8,1.4-0.8,2.2
		C57.8,48.2,58.2,48.9,58.8,49.4L58.8,49.4z M58.8,49.4"/>
	<g>
		<path class="st1" d="M65,54.4c-0.5-0.3-1.3-0.7-2.5-1v7.3c1.6-0.1,2.7-0.6,3.3-1.7c0.3-0.6,0.5-1.2,0.5-1.9
			C66.3,55.9,65.9,55,65,54.4L65,54.4z M65,54.4"/>
		<path class="st1" d="M116.8,94.8c2-2,2.1-5.8,1.8-10.9c-2.3-0.2-5.7,0.2-6.9,0c-2.9-5.8-7.1-10.3-13-13c0.2-3.8,0.7-7.3,2.9-9.1
			c-5.3-0.4-9.8,3.2-12.7,6.5c-2.6-2.7-6.4-4.8-10.9-6.3l-2.8,5c-8.3-2.9-17.4-2.8-25.7,0.1l-3.7-4.9c0,0,0,0,0,0
			c-5.7,1.9-10.9,4.8-15,9.1c-2.6-0.2-2.3-5.6,1.1-4.7c-5.6-3.8-8.7,6.6-3.3,8c-4.5,6.5-5,20.3,1.1,25.4c0.9,7.6,2.2,14.8,5.9,19.6
			h12.2c-0.3-2.5-0.6-5.1-0.4-8c7.4,1.7,16.2,2.2,25,1.4c1.4,2.3,2.7,4.5,4.3,6.6h12.1c-0.4-3.2-0.9-6.5-0.1-9.8
			C91.8,109.1,106.7,105.3,116.8,94.8L116.8,94.8z M100.2,78.6c1.6,0,3,1.3,3,3c0,1.6-1.3,3-3,3c-1.7,0-3-1.3-3-3
			C97.2,80,98.5,78.6,100.2,78.6L100.2,78.6z M100.2,78.6"/>
	</g>
</g>
</svg>
